/* XPM */
static char * dooro_xpm[] = {
"100 100 4 1",
" 	c #4F4F4F",
".	c #000000",
"+	c #FF00FF",
"@	c #110E02",
"                                                                                                    ",
"                                                                                                    ",
"                                                                                                    ",
"                                                                                                    ",
"                                                                                                    ",
"                                                                                                    ",
"                                                                                                    ",
"                                                                                                    ",
"            ............................................................................            ",
"            .++++++++++++++++++++++++++++++++++++++++++++++++++++++++++++++++++++++++++.            ",
"            .++++++++++++++++++++++++++++++++++++++++++++++++++++++++++++++++++++++++++.            ",
"            .++++++++++++++++++++++++++++++++++++++++++++++++++++++++++++++++++++++++++.            ",
"            .++++++++++++++++++++++++++++++++++++++++++++++++++++++++++++++++++++++++++.            ",
"            .++++++++++++++++++++++++++++++++++++++++++++++++++++++++++++++++++++++++++.            ",
"            .++++++++++++++++++++++++++++++++++++++++++++++++++++++++++++++++++++++++++.            ",
"            .++++++++++++++++++++++++++++++++++++++++++++++++++++++++++++++++++++++++++.            ",
"            .++++++++++++++++++++++++++++++++++++++++++++++++++++++++++++++++++++++++++.            ",
"            .++++++++++++++++++++++++++++++++++++++++++++++++++++++++++++++++++++++++++.            ",
"            .++++++++++++++++++++++++++++++++++++++++++++++++++++++++++++++++++++++++++.            ",
"            .++++++++++++++++++++++++++++++++++++++++++++++++++++++++++++++++++++++++++.            ",
"            .++++++++++++++++++++++++++++++++++++++++++++++++++++++++++++++++++++++++++.            ",
"            @++++++++++++++++++++++++++++++++++++++++++++++++++++++++++++++++++++++++++.            ",
"            .++++++++++++++++++++++++++++++++++++++++++++++++++++++++++++++++++++++++++.            ",
"            .++++++++++++++++++++++++++++++++++++++++++++++++++++++++++++++++++++++++++.            ",
"            .++++++++++++++++++++++++++++++++++++++++++++++++++++++++++++++++++++++++++.            ",
"            .++++++++++++++++++++++++++++++++++++++++++++++++++++++++++++++++++++++++++.            ",
"            .++++++++++++++++++++++++++++++++++++++++++++++++++++++++++++++++++++++++++.            ",
"            .++++++++++++++++++++++++++++++++++++++++++++++++++++++++++++++++++++++++++.            ",
"            .++++++++++++++++++++++++++++++++++++++++++++++++++++++++++++++++++++++++++.            ",
"            .++++++++++++++++++++++++++++++++++++++++++++++++++++++++++++++++++++++++++.            ",
"            .++++++++++++++++++++++++++++++++++++++++++++++++++++++++++++++++++++++++++.            ",
"            .++++++++++++++++++++++++++++++++++++++++++++++++++++++++++++++++++++++++++.            ",
"            .++++++++++++++++++++++++++++++++++++++++++++++++++++++++++++++++++++++++++.            ",
"            .++++++++++++++++++++++++++++++++++++++++++++++++++++++++++++++++++++++++++.            ",
"            .++++++++++++++++++++++++++++++++++++++++++++++++++++++++++++++++++++++++++.            ",
"            .++++++++++++++++++++++++++++++++++++++++++++++++++++++++++++++++++++++++++.            ",
"            .++++++++++++++++++++++++++++++++++++++++++++++++++++++++++++++++++++++++++.            ",
"            .++++++++++++++++++++++++++++++++++++++++++++++++++++++++++++++++++++++++++.            ",
"            .++++++++++++++++++++++++++++++++++++++++++++++++++++++++++++++++++++++++++.            ",
"            .++++++++++++++++++++++++++++++++++++++++++++++++++++++++++++++++++++++++++.            ",
"            .++++++++++++++++++++++++++++++++++++++++++++++++++++++++++++++++++++++++++.            ",
"            .++++++++++++++++++++++++++++++++++++++++++++++++++++++++++++++++++++++++++.            ",
"            .++++++++++++++++++++++++++++++++++++++++++++++++++++++++++++++++++++++++++.            ",
"            .++++++++++++++++++++++++++++++++++++++++++++++++++++++++++++++++++++++++++.            ",
"            .++++++++++++++++++++++++++++++++++++++++++++++++++++++++++++++++++++++++++.            ",
"            .++++++++++++++++++++++++++++++++++++++++++++++++++++++++++++++++++++++++++.            ",
"            .++++++++++++++++++++++++++++++++++++++++++++++++++++++++++++++++++++++++++.            ",
"            .++++++++++++++++++++++++++++++++++++++++++++++++++++++++++++++++++++++++++.            ",
"            .++++++++++++++++++++++++++++++++++++++++++++++++++++++++++++++++++++++++++.            ",
"            .++++++++++++++++++++++++++++++++++++++++++++++++++++++++++++++++++++++++++.            ",
"            .++++++++++++++++++++++++++++++++++++++++++++++++++++++++++++++++++++++++++.            ",
"            .++++++++++++++++++++++++++++++++++++++++++++++++++++++++++++++++++++++++++.            ",
"            .++++++++++++++++++++++++++++++++++++++++++++++++++++++++++++++++++++++++++.            ",
"            .++++++++++++++++++++++++++++++++++++++++++++++++++++++++++++++++++++++++++.            ",
"            .++++++++++++++++++++++++++++++++++++++++++++++++++++++++++++++++++++++++++.            ",
"            .++++++++++++++++++++++++++++++++++++++++++++++++++++++++++++++++++++++++++.            ",
"            .++++++++++++++++++++++++++++++++++++++++++++++++++++++++++++++++++++++++++.            ",
"            .++++++++++++++++++++++++++++++++++++++++++++++++++++++++++++++++++++++++++.            ",
"            .++++++++++++++++++++++++++++++++++++++++++++++++++++++++++++++++++++++++++.            ",
"            .++++++++++++++++++++++++++++++++++++++++++++++++++++++++++++++++++++++++++.            ",
"            .++++++++++++++++++++++++++++++++++++++++++++++++++++++++++++++++++++++++++.            ",
"            .++++++++++++++++++++++++++++++++++++++++++++++++++++++++++++++++++++++++++.            ",
"            .++++++++++++++++++++++++++++++++++++++++++++++++++++++++++++++++++++++++++.            ",
"            .++++++++++++++++++++++++++++++++++++++++++++++++++++++++++++++++++++++++++.            ",
"            .++++++++++++++++++++++++++++++++++++++++++++++++++++++++++++++++++++++++++.            ",
"            .++++++++++++++++++++++++++++++++++++++++++++++++++++++++++++++++++++++++++.            ",
"            .++++++++++++++++++++++++++++++++++++++++++++++++++++++++++++++++++++++++++.            ",
"            .++++++++++++++++++++++++++++++++++++++++++++++++++++++++++++++++++++++++++.            ",
"            .++++++++++++++++++++++++++++++++++++++++++++++++++++++++++++++++++++++++++.            ",
"            .++++++++++++++++++++++++++++++++++++++++++++++++++++++++++++++++++++++++++.            ",
"            .++++++++++++++++++++++++++++++++++++++++++++++++++++++++++++++++++++++++++.            ",
"            .++++++++++++++++++++++++++++++++++++++++++++++++++++++++++++++++++++++++++.            ",
"            .++++++++++++++++++++++++++++++++++++++++++++++++++++++++++++++++++++++++++.            ",
"            .++++++++++++++++++++++++++++++++++++++++++++++++++++++++++++++++++++++++++.            ",
"            .++++++++++++++++++++++++++++++++++++++++++++++++++++++++++++++++++++++++++.            ",
"            .++++++++++++++++++++++++++++++++++++++++++++++++++++++++++++++++++++++++++.            ",
"            .++++++++++++++++++++++++++++++++++++++++++++++++++++++++++++++++++++++++++.            ",
"            .++++++++++++++++++++++++++++++++++++++++++++++++++++++++++++++++++++++++++.            ",
"            .++++++++++++++++++++++++++++++++++++++++++++++++++++++++++++++++++++++++++.            ",
"            .++++++++++++++++++++++++++++++++++++++++++++++++++++++++++++++++++++++++++.            ",
"            .++++++++++++++++++++++++++++++++++++++++++++++++++++++++++++++++++++++++++.            ",
"            .++++++++++++++++++++++++++++++++++++++++++++++++++++++++++++++++++++++++++.            ",
"            .++++++++++++++++++++++++++++++++++++++++++++++++++++++++++++++++++++++++++.            ",
"            .++++++++++++++++++++++++++++++++++++++++++++++++++++++++++++++++++++++++++.            ",
"            .++++++++++++++++++++++++++++++++++++++++++++++++++++++++++++++++++++++++++.            ",
"            .++++++++++++++++++++++++++++++++++++++++++++++++++++++++++++++++++++++++++.            ",
"            .++++++++++++++++++++++++++++++++++++++++++++++++++++++++++++++++++++++++++.            ",
"            .++++++++++++++++++++++++++++++++++++++++++++++++++++++++++++++++++++++++++.            ",
"            .++++++++++++++++++++++++++++++++++++++++++++++++++++++++++++++++++++++++++.            ",
"            .++++++++++++++++++++++++++++++++++++++++++++++++++++++++++++++++++++++++++.            ",
"            .++++++++++++++++++++++++++++++++++++++++++++++++++++++++++++++++++++++++++.            ",
"            .++++++++++++++++++++++++++++++++++++++++++++++++++++++++++++++++++++++++++.            ",
"            .++++++++++++++++++++++++++++++++++++++++++++++++++++++++++++++++++++++++++.            ",
"            .++++++++++++++++++++++++++++++++++++++++++++++++++++++++++++++++++++++++++.            ",
"            .++++++++++++++++++++++++++++++++++++++++++++++++++++++++++++++++++++++++++.            ",
"            .++++++++++++++++++++++++++++++++++++++++++++++++++++++++++++++++++++++++++.            ",
"            .++++++++++++++++++++++++++++++++++++++++++++++++++++++++++++++++++++++++++.            ",
"            .++++++++++++++++++++++++++++++++++++++++++++++++++++++++++++++++++++++++++.            ",
"            .++++++++++++++++++++++++++++++++++++++++++++++++++++++++++++++++++++++++++.            ",
"            .++++++++++++++++++++++++++++++++++++++++++++++++++++++++++++++++++++++++++.            "};
