/* XPM */
static char * doorc_xpm[] = {
"100 100 42 1",
" 	c #4F4F4F",
".	c #000000",
"+	c #F2E38F",
"@	c #FF00FF",
"#	c #F0E18D",
"$	c #F1E28E",
"%	c #110E02",
"&	c #EEE08D",
"*	c #F0E18E",
"=	c #F1E38F",
"-	c #131107",
";	c #070602",
">	c #030302",
",	c #090803",
"'	c #0F0D05",
")	c #7D7D7D",
"!	c #D9D9D9",
"~	c #1B190B",
"{	c #B1B1B1",
"]	c #F4F4F4",
"^	c #FEFEFE",
"/	c #5A5A59",
"(	c #F9F9F9",
"_	c #959595",
":	c #1E1B0D",
"<	c #C0C0C0",
"[	c #F6F6F6",
"}	c #FCFCFC",
"|	c #141207",
"1	c #010101",
"2	c #050402",
"3	c #131207",
"4	c #110E06",
"5	c #020100",
"6	c #020201",
"7	c #0B0A04",
"8	c #1F1C0E",
"9	c #100E06",
"0	c #030201",
"a	c #100E05",
"b	c #0B0A03",
"c	c #090701",
"                                                                                                    ",
"                                                                                                    ",
"                                                                                                    ",
"                                                                                                    ",
"                                                                                                    ",
"                                                                                                    ",
"                                                                                                    ",
"                                                                                                    ",
"            ............................................................................            ",
"            .++++++++++++++++++++++++++++++++++++++.+++++++++++++++++++++++++++++++++++.            ",
"            .++++++++++++++++++++++++++++++++++++++.+++++++++++++++++++++++++++++++++++.            ",
"            .++++++++++++++++++++++++++++++++++++++.+++++++++++++++++++++++++++++++++++.            ",
"            .++++++++++++++++++++++++++++++++++++++.+++++++++++++++++++++++++++++++++++.            ",
"            .++++++++++++++++++++++++++++++++++++++.+++++++++++++++++++++++++++++++++++.            ",
"            .++++++++++++++++++++++++++++++++++++++.+++++++++++++++++++++++++++++++++++.            ",
"            .++++++++++++++++++++++++++++++++++++++.+++++++++++++++++++++++++++++++++++.            ",
"            .++++++.......................+++++++++.+++++.......................+++++++.            ",
"            .++++++.@@@@@@@@@@@@@@@@@@@@@.+++++++++.+++++.@@@@@@@@@@@@@@@@@@@@@.+++++++.            ",
"            .++++++.@@@@@@@@@@@@@@@@@@@@@.+++++++++.+++++.@@@@@@@@@@@@@@@@@@@@@.+++++++.            ",
"            .++++++.@@@@@@@@@@@@@@@@@@@@@.+++++++++.+++++.@@@@@@@@@@@@@@@@@@@@@.#++++++.            ",
"            .++++++.@@@@@@@@@@@@@@@@@@@@@.+++++++++.+++++.@@@@@@@@@@@@@@@@@@@@@.$++++++.            ",
"            %++++++.@@@@@@@@@@@@@@@@@@@@@.+++++++++.+++++.@@@@@@@@@@@@@@@@@@@@@.+++++++.            ",
"            .++++++.@@@@@@@@@@@@@@@@@@@@@.&++++++++.+++++.@@@@@@@@@@@@@@@@@@@@@.*++++++.            ",
"            .++++++.@@@@@@@@@@@@@@@@@@@@@.=++++++++.+++++.@@@@@@@@@@@@@@@@@@@@@.=++++++.            ",
"            .++++++.@@@@@@@@@@@@@@@@@@@@@.+++++++++.+++++.@@@@@@@@@@@@@@@@@@@@@.+++++++.            ",
"            .++++++.@@@@@@@@@@@@@@@@@@@@@.+++++++++.+++++.@@@@@@@@@@@@@@@@@@@@@.+++++++.            ",
"            .++++++.@@@@@@@@@@@@@@@@@@@@@.+++++++++.+++++.@@@@@@@@@@@@@@@@@@@@@.+++++++.            ",
"            .++++++.@@@@@@@@@@@@@@@@@@@@@.+++++++++.+++++.@@@@@@@@@@@@@@@@@@@@@.+++++++.            ",
"            .++++++.@@@@@@@@@@@@@@@@@@@@@.+++++++++.+++++.@@@@@@@@@@@@@@@@@@@@@.+++++++.            ",
"            .++++++.@@@@@@@@@@@@@@@@@@@@@.+++++++++.+++++.@@@@@@@@@@@@@@@@@@@@@.+++++++.            ",
"            .++++++.@@@@@@@@@@@@@@@@@@@@@.+++++++++.+++++.@@@@@@@@@@@@@@@@@@@@@.+++++++.            ",
"            .++++++.......................+++++++++.+++++.@@@@@@@@@@@@@@@@@@@@@.+++++++.            ",
"            .++++++++++++++++++++++++++++++++++++++.+++++.......................+++++++.            ",
"            .++++++++++++++++++++++++++++++++++++++.+++++++++++++++++*=++++++++++++++++.            ",
"            .++++++++++++++++++++++++++++++++++++++.+++++++++++++++++++++++++++++++++++.            ",
"            .++++++++++++++++++++++++++++++++++++++.+++++++++++++++++++++++++++++++++++.            ",
"            .++++++++++++++++++++++++++++++++++++++.+++++++++++++++++++++++++++++++++++.            ",
"            .++++++++++++++++++++++++++++++++++++++.+++++++++++++++++++++++++++++++++++.            ",
"            .++++++++++++++++++++++++++++++++++++++.+++++++++++++++++++++++++++++++++++.            ",
"            .++++++++++++++++++++++++++++++++++++++.+++++++++++++++++++++++++++++++++++.            ",
"            .++++++++++++++++++++++++++++++++++++++.+++++++++++++++++++++++++++++++++++.            ",
"            .++++++++++++++++++++++++++++++++++++++.+++++++++++++++++++++++++++++++++++.            ",
"            .++++++++++++++++++++++++++++++++++++++.+++++++++++++++++++++++++++++++++++.            ",
"            .++++++++++++++++++++++++++++++++++++++.+++++++++++++++++++++++++++++++++++.            ",
"            .++++++++++++++++++++++++++++++++++++++.+++++++++++++++++++++++++++++++++++.            ",
"            .++++++++++++++++++++++++++++++++++++++.+++++++++++++++++++++++++++++++++++.            ",
"            .++++++++++++++++++++++++++++++++++++++.+++++++++++++++++++++++++++++++++++.            ",
"            .++++++++++++++++++++++++++++++++++++++.+++++++++++++++++++++++++++++++++++.            ",
"            .++++++++++++++++++++++++++++++++++++++.+++++++++++++++++++++++++++++++++++.            ",
"            .++++++++++++++++++++++++++++++++++++++.+++++++++++++++++++++++++++++++++++.            ",
"            .++++++++++++++++++++++++++++++++++++++.+++++++++++++++++++++++++++++++++++.            ",
"            .++++++++++++++++++++++++++++++++++++++.+++++++++++++++++++++++++++++++++++.            ",
"            .++++++++++++++++++++++++++++++++++++++.+++++++++++++++++++++++++++++++++++.            ",
"            .++++++++++++++++++++++++++++++++++++++.+++++++++++++++++++++++++++++++++++.            ",
"            .++++++++++++++++++++++++++++++++++++++.+++++++++++++++++++++++++++++++++++.            ",
"            .++++++++++++++++++++++++++++++++++++++.+++++++++++++++++++++++++++++++++++.            ",
"            .++++++++++++++++++++++++++++++++++++++.+++++++++++++++++++++++++++++++++++.            ",
"            .++++++++++++++++++++++++++++++++++++++.+++++++++++++++++++++++++++++++++++.            ",
"            .++++++++++++++++++++++++++++++++...+++.+++-.;>,+++++++++++++++++++++++++++.            ",
"            .+++++++++++++++++++++++++++++++')!..++.++~.{]^/.++++++++++++++++++++++++++.            ",
"            .++++++++++++++++++++++++++++++;>^(_.++.+.:__<[}|1+++++++++++++++++++++++++.            ",
"            .++++++++++++++++++++++++++++++.____2,+.+._______3+++++++++++++++++++++++++.            ",
"            .++++++++++++++++++++++++++++++4_____5+.+6_______.+++++++++++++++++++++++++.            ",
"            .++++++++++++++++++++++++++++++77____,+.+._______.+++++++++++++++++++++++++.            ",
"            .+++++++++++++++++++++++++++++++8..9.++.+..______.+++++++++++++++++++++++++.            ",
"            .++++++++++++++++++++++++++++++++++++++.++0a.___..+++++++++++++++++++++++++.            ",
"            .++++++++++++++++++++++++++++++++++++++.++++.b...++++++++++++++++++++++++++.            ",
"            .++++++++++++++++++++++++++++++++++++++.+++++++++++++++++++++++++++++++++++.            ",
"            .++++++++++++++++++++++++++++++++++++++.+++++++++++++++++++++++++++++++++++.            ",
"            .++++++++++++++++++++++++++++++++++++++.+++++++++++++++++++++++++++++++++++.            ",
"            .++++++++++++++++++++++++++++++++++++++.+++++++++++++++++++++++++++++++++++.            ",
"            .++++++++++++++++++++++++++++++++++++++.+++++++++++++++++++++++++++++++++++.            ",
"            .++++++++++++++++++++++++++++++++++++++.+++++++++++++++++++++++++++++++++++.            ",
"            .++++++++++++++++++++++++++++++++++++++.+++++++++++++++++++++++++++++++++++.            ",
"            .++++++++++++++++++++++++++++++++++++++.+++++++++++++++++++++++++++++++++++.            ",
"            .++++++++++++++++++++++++++++++++++++++c+++++++++++++++++++++++++++++++++++.            ",
"            .++++++++++++++++++++++++++++++++++++++.+++++++++++++++++++++++++++++++++++.            ",
"            .++++++++++++++++++++++++++++++++++++++.+++++++++++++++++++++++++++++++++++.            ",
"            .++++++++++++++++++++++++++++++++++++++.+++++++++++++++++++++++++++++++++++.            ",
"            .++++++++++++++++++++++++++++++++++++++.+++++++++++++++++++++++++++++++++++.            ",
"            .++++++++++++++++++++++++++++++++++++++.+++++++++++++++++++++++++++++++++++.            ",
"            .++++++++++++++++++++++++++++++++++++++.+++++++++++++++++++++++++++++++++++.            ",
"            .++++++++++++++++++++++++++++++++++++++.+++++++++++++++++++++++++++++++++++.            ",
"            .++++++++++++++++++++++++++++++++++++++.+++++++++++++++++++++++++++++++++++.            ",
"            .++++++++++++++++++++++++++++++++++++++.+++++++++++++++++++++++++++++++++++.            ",
"            .++++++++++++++++++++++++++++++++++++++.+++++++++++++++++++++++++++++++++++.            ",
"            .++++++++++++++++++++++++++++++++++++++.+++++++++++++++++++++++++++++++++++.            ",
"            .++++++++++++++++++++++++++++++++++++++.+++++++++++++++++++++++++++++++++++.            ",
"            .++++++++++++++++++++++++++++++++++++++.+++++++++++++++++++++++++++++++++++.            ",
"            .++++++++++++++++++++++++++++++++++++++.+++++++++++++++++++++++++++++++++++.            ",
"            .++++++++++++++++++++++++++++++++++++++.+++++++++++++++++++++++++++++++++++.            ",
"            .++++++++++++++++++++++++++++++++++++++.+++++++++++++++++++++++++++++++++++.            ",
"            .++++++++++++++++++++++++++++++++++++++.+++++++++++++++++++++++++++++++++++.            ",
"            .++++++++++++++++++++++++++++++++++++++.+++++++++++++++++++++++++++++++++++.            ",
"            .++++++++++++++++++++++++++++++++++++++.+++++++++++++++++++++++++++++++++++.            ",
"            .++++++++++++++++++++++++++++++++++++++.+++++++++++++++++++++++++++++++++++.            ",
"            .++++++++++++++++++++++++++++++++++++++.+++++++++++++++++++++++++++++++++++.            ",
"            .++++++++++++++++++++++++++++++++++++++.+++++++++++++++++++++++++++++++++++.            ",
"            .++++++++++++++++++++++++++++++++++++++.+++++++++++++++++++++++++++++++++++.            ",
"            .++++++++++++++++++++++++++++++++++++++.+++++++++++++++++++++++++++++++++++.            "};
