/* XPM */
static char * ground_trap_xpm[] = {
"100 100 73 1",
" 	c #333333",
".	c #494949",
"+	c #343434",
"@	c #474747",
"#	c #353535",
"$	c #464646",
"%	c #454545",
"&	c #3E3E3E",
"*	c #3A3A3A",
"=	c #383838",
"-	c #373737",
";	c #363636",
">	c #484848",
",	c #434343",
"'	c #424242",
")	c #3C3C3C",
"!	c #393939",
"~	c #444444",
"{	c #404040",
"]	c #3B3B3B",
"^	c #3D3D3D",
"/	c #3F3F3F",
"(	c #414141",
"_	c #000000",
":	c #6E5858",
"<	c #020202",
"[	c #755F5C",
"}	c #745E5C",
"|	c #6F5959",
"1	c #725C5A",
"2	c #7C6661",
"3	c #887268",
"4	c #927C6F",
"5	c #8D776C",
"6	c #7B6660",
"7	c #856F66",
"8	c #957F71",
"9	c #A18B79",
"0	c #836D65",
"a	c #9C8676",
"b	c #323232",
"c	c #77615D",
"d	c #313131",
"e	c #7F6963",
"f	c #9A8474",
"g	c #A58F7C",
"h	c #76605D",
"i	c #907A6E",
"j	c #988273",
"k	c #947F71",
"l	c #A08A79",
"m	c #A48E7B",
"n	c #A38C7B",
"o	c #9B8575",
"p	c #978173",
"q	c #958072",
"r	c #8B756A",
"s	c #9F8878",
"t	c #A08978",
"u	c #A38D7B",
"v	c #947E70",
"w	c #816B64",
"x	c #9E8877",
"y	c #998374",
"z	c #7E6962",
"A	c #78625E",
"B	c #8C766B",
"C	c #968072",
"D	c #8F796D",
"E	c #735D5A",
"F	c #887269",
"G	c #A28C7A",
"H	c #947E71",
"     ..........      . .          .................                .. .                             ",
"     ...........    ...    +++++++......@##..$%....&*=-;;##.@>   ++...++++             ..           ",
"     . ..           >>..++++++++###.....$%...,'....'&)*!=-...;   ##....+++++++++  +                 ",
"     ..              +.++++   ####;....%%~.........~{&)]*!.=---   ;...####+++++++++++++     .       ",
"           ++       .>..  ##  ;;;;;--.~~,......)...%'{&^)]*!!==   ; ..;#######++++++++++++          ",
"         +++++      @....##;;;;;---==~,,...........$,./&^)]**!  ~=---;;;;.#######+++++++++++        ",
"  .       ++++      @....;;;;;---===! ''........=..$~'{/&^)]]**,.===---;;.;;#######++++++++++       ",
" .       +++++        #.;;;----===!!!  .........-#.@%,({/&^))]**.!!===.-.-;;;;#######++..+++++      ",
".         ++++#       ;.;----===!!!**]]).........# @% '({/&^^)]]**!!!...----;;;;#######.+++++++     ",
"           +.##        ;.--====!!***]])^...........@%~,'({/&^^)]]***!!====---;;;;;######++++++++    ",
"          + @@         --...=!!!**]   ^.&/.........@$%, ({//&^^))]]**!!!===----;;;;;#.###+++++++    ",
"         ++#.@@        -====!!***]]   ^&//.........>$%~,'({//&^^))]]***!!====---;;;;;.####+++++++   ",
"         +...@@        ===!!!***]]     //{.........>$%~,''....&^^))]]*** !!===---..;;;#####++++++   ",
"         #....$        ==!!!**]]])       (.................(...&^^))].] *!!!===....;;;;#####+++++   ",
"   +++  ##...$$          !***]])))      )]*................({.//&^^)))..***!!==..---;;;;#####+++++  ",
"     +  ##...$$         !***]]))^^   ..)......>............'&^^,/&^^^))]]***!!.. =---;;;;####+++++  ",
"     +   #...;         !***]]))^     ))]...________________'^)),//&.^^))]]***!..  =---;;;;###.++++  ",
"         #..;;         ***]]))^^     )]_____::::::::::::::_____ ....&^^))]]**...   =---;;;;###++++  ",
"         ....        ! *]]]))^^     <___::::::::::::::::::::::____...&^^))]]]**..  ==---;;;####++++ ",
"  ++    @....-        *]]]))^^&&  ___::::::::::::::::::::::::::::___&...^))]]]**..!===---;;;###++++ ",
"  ++   ......-        ]]]))^^&  ___:::::::[:::::}|:::::11::::12::::___&.^^   ]]...,.===--;;;####+++ ",
"  .+  @@$$$%.-=        ]))^^&  __::3[::::[4[:::}56|:::1771::1782:::::__&&^^ )]].....!==---;;;###+++ ",
"  +..@@@$   %.           ^ & ___::394[:::393:::0a5}:::2882::1782::::::___.^^)........!==---; ###+++ ",
".. ..@@ $   ==              __:::::3[:::::3:::::0}:::::22::::12:::::::::__&^^))].....!===-- ;;###++ ",
"..>> @@     ==    ]]]      __::::::::::::::::::::::::::::::::::::::::::::__&^^))]...*!!===- ;;###++ ",
"..>>  $ ---==!    ]]))    __::::::::::::::::::::::::::::::::::::::::::::::__&^^))]..**!!==   ;;##++.",
"..>> #; --==!     ]))^  b__::::::::::::::::::}|::::::::::::::::::::::::::::__&^^)).]***!!=   ;;##++.",
".>>@ ;;--== !      )^   __:::::cc:::::22::::}56|::::cc:::::21::::::21::::12:__.....]]**!!    -;;##..",
".>>   ;--.~,,'     ^^  __:3:::c55c:::2882:::0a5}:::c55c:::2871::::2871::1782:__...))]]**! ~  -;;#...",
".>>    -=~,,''(       __:393::c55c:::1771::::0}::::c55c:::2871::::2871::1782::__& ^))]]*  ,  -;;#...",
".>>     =~,''((       _::[4[:::cc:::::11::::::::::::cc:::::21::::::21::::12::::_.&^^))]] '   --;;...",
".>>     ~,,'..)      __:::[::::::::::::::::::::::::::::::::::::::::::::::::::::__&&^^))]    ==..;...",
".>     ~,,'*..)^   d__::::::::::::::::::::::::::::::::::::::::::::::::::::::::::__&&^^)     ......#+",
"       ~,''(..)     _::::::::::::::11:::::::::::::::::::::::::::::::::::::::::e::_&&&^ {( ''......#+",
"   $;    '  ))^    __cc:::::3[::::1771::::ee:::::22:::::}0:::::22::::::3[::::efe:__ !  {{(('....;;#+",
"  @.-==! '   ^^    _c55c:::394[:::2882:::effe:::2882:::}5a0:::2882::::394[:::efe::_ /&..{{('....-;#+",
"  @.-=!! (   ^    __c55c::::3[:::::22:::::ee::::1771:::|65}:::1771:::::3[:::::e:::__./../{{....=-;#+",
" +..-=!*         )_::cc::::::::::::::::::::::::::11:::::|}:::::11::::::::::::::::::_....//....!=-;#+",
" +$..!**    &     _::::::::::::::::::::::::::::::::::::::::::::::::::::::::::::::::_..^^&/...**!..;+",
".>....*]    /   ]__::::::::::::::::::::}|::::::::::::}|:::::22::::::[:::::::::::cc:__..^^...)]*...;+",
".@$%,'         ;#_:e::::}0:::::22:::::}56|::::3[::::}56|:::2882::::[4[::::ee:::c55c:_]...../  ....;#",
".@%~,          ;;_efe::}5a0:::2882::::0a5}:::394[:::0a5}:::1771::::393:::effe::c55c:_*]....&  (...-#",
".@%,       )    #_efe::|65}:::1771:::::0}:::::3[:::::0}:::::11::::::3:::::ee::::cc::__*.../   {...- ",
".@%,     ))   ##__:e::::|}:::::11::::::::::21:::::11:::::21:::::::::::::::::::::::::__!**.{{/...... ",
".$~'{/  )]]   ;;_::::22:::::[:::::::5:::::2871:::1771:::2871::::cc::::::cc::::0}:::cc_.!**......... ",
".$,(/   ]**   ;;_:::2882:::[4[:::::5g5::::2871:::2882:::2871:::c55c::::c55c::0a5}:c55_.=!!*........$",
".%'{&^)]*!!=  ;;_:::1771:::393::::::5::::::21:::::22:::::21::::c55c::::c55c::}56|:c55_.-==..*../&...",
".~{&)]*!!=--  ;;_::::11:::::3:::::::::::::::::::::::::::::::::::cc::::::cc::::}|:::cc_..--..........",
".'&)*..-  ;; +;#_::::::::::::::::::::::::::::::::::::::::::::::::::::::::::::::::::::_..;...........",
".&*=-;;####+  #;_:::::::11:::::::::::::::::::::::::::::::::::::::::::::::::::::::::::_@.............",
"              ##_::::::1771::::cc:::::::::::::3::::::::::::::::::::::::::::::::::::::_@.............",
".&*=-;;##.@>  ##_::::::2882:::c55c:::::3:::::393:::::ee:::::cc::::::::::::cc:::::::::_....@##..$%...",
".'&)*!=-...;  ;;_::e::::22::::c55c::::393::::[4[::::effe:::c55c:::::22:::c55c::::::5:_....$%...,'...",
".~{&)]*!.=--- ##_:efe::::::::::cc:::::[4[:::::[::::::ee::::c55c::::2882::c55c:::::5g5_...%%~........",
".%'{&^)]*!!==  ._:efe::::::::::::::::::[::::::::::::::::::::cc:::::1771:::cc:::::::5:_>.~~,......)..",
".$,./&^)]**!  ~._::e:::::::::::::::::::::::::::::::::::::::::::::|}:11:::::::::::::::_..,,..........",
".$~'{/&^)]]**,.._::::::::::::::::::::::::::::::::}h[::::::::::::|65}::::5::::::::::::_$=''........=.",
".@%,({/&^))]**.._::::11::::::::::ee:::::::::::::}ijk[:22::::::::}5a0:::5g5::::[3:::::_!  .........-#",
" @% '({/&^^)]]**__::1771::5:::::effe::::ee:::e[:0lmn32882::::::::}0:::::5::::[493:::__*]]).........#",
".@%~,'({/&^^)]]])_::2882:5g5:::::ee::::effe:eopqe0r3:1771:i3::::::::::::::::::[3::::_*]])^..........",
".@$%, ({//&^^))))_:::22:::5:::::::::::::ee::esmgte::::11:igu3::::::::3::::::::::::::_   ^.&/........",
".>$%~,'({//&^^)))_:::::::::::::::::::::::::::e3ve:::::::::i3::::::::393:::cc::::::::_   ^&//........",
".>$%~,''....&^^^^__:::::::::::::::::::::::::::::::::::::::::::::::::[4[::c55c::::::__    //{........",
".........(...&^^^]_::::e::::w2:::::::21::::::::::::::::e:::::::::::::[:::c55c::::::_       (........",
".........({.//&^^^_:::efe::wxy2::::2z87A0:::::::::::::efe:::[3::::w2::11::cc:::::::_      )]*.......",
".........'({{./&^^__::efe::wxy2:::28BC3Da0::53[::::5::efe::[493::wxy21771:::::::::__   ..)........@.",
"........,'((..//&.^_:::e::::w2::::287zE65}:5gu4[::5g5::e::::[3:::wxy22882::::e::::_    ))]..........",
".......~,''(( ....&__::::::::cc::::21::|}:::53[::::5:::::0}:::::::w2::22::::efe::__    )]]*.........",
".......~,,'' ({^...&_:::::::c55c::::::::::::::::::::::::0a5}::::::::::::::::efe::_      ]...........",
"........~,,''({...&.__::::::c55c::::::::::::::::::::::::}56|::::::::::::::cc:e::__    {('*..........",
".........~,''((.....&__::::::cc::::::::::::::::::::::::::}|:::::22::::5::c55c::__    {(('*.......#+.",
"..+#.....~,,''(.....&&_::::}|::::21:::|}::12::::0}::22:::3[::::2882::5g5:c55c::_     ((' !..........",
".++#......~,,'.....//&__::}56|ee2871:|65}1782::0a5}2882:394[:::1771:::5:::cc::__         ,..........",
".........~..,.......//&__:0a50ffF871:}5a01782::}56|1771::3[:::::11:::::::::::__   )]]   !...........",
" ...##;;.%......'...{//.__:0}:ee:21:::}0::12::::}|::11:::::::::::::::[::::::__   )]]  *!!.........+.",
"..++##;;-%......'..({{//&__::::::::::::::::::::::::::::::::cc:::3:::[4[::::__  )  ]   !!=.%%........",
"..++###;.%%~........({{//&__::::::ee::::30}::::ve:::::3:::c55c:393::393:::__  ))]]]*   =~~......#...",
"  ++###;..%%.......((({{//&__::::effe::3Gl5}::vgte:::393::c55c:[4[:::3:::__    ]]]**!!  ~%.....##++ ",
"  +++###$;--.......'((({{//.__::::ee:::[Hi6|:::ve::::[4[:::cc:::[:::::::__    ]]]**!!!  %%%...##+++ ",
"  +++### .;-........'((({{.^.___::::::::[}|:::::::::::[:::::cc::::::::___;#   ]]**!!.=~ %%$...##+++ ",
"  +++####;;;...==.....(((....@>__:::::::::0}:::e:::12:::}|:c55c::::::__  #    ]**!!!==.% $$...##+++ ",
"  ++++###;;;.........''((......&___::::::0a5}:efe:1782:}56|c55c::::___       ]**!!! = ...$$$@@ ++++ ",
"    ++####;;.........,''.....//&&&___::::}56|:efe:1782:0a5}:cc:::___          *!!!===  ...  @@..+ + ",
"   ++++###;;;;.......,,''.]] {//&&&^____::}|:::e:::12:::0}::::____            !!   =--- ;..@@@>..>  ",
"   ++++####;;;...-...,  ***  {{/..&  {{_____::::::::::::::_____).            !!.   --......@@@>...  ",
"...+++++####;;;.---..   !**   {{../&..{{(>~________________' . ^^            !!=~  --......#@>>.....",
"  ...+++#####;;;;---=  =!     (..../../{@....=-..+  @.-=!$'(   ^             ====  -;....###@>>>... ",
"    +++++#####;;;;--    =!    ........//....!=-;#+ +..-=!/!        )         ==-.%  ;;....##+.>>+   ",
"    ++++++#####;;;;-          **....^^&/...**!..;+ +$..!**    &              =- -%  ;;##.##++++++   ",
"    +++++++#####;;;;    =    !***]...^^...)]*...;+.>....*]    /   ]           -      #### +++++++   ",
"    .+++++++#####;;;         !!!**]]...../  ....;#.@$%,'                  =- .-        ##+++++++    ",
"     ++++++++######     -  ====!!***]....&  (...-#.@%~,                   --  .$       #++++++++    ",
"      ++++++++#####     ;----===!!!**.../   {...- .@%,       )           --  $;     @  +  +++++     ",
"       ++++.++++##     ;;;;.---===!!!**.{{/...... .@%,     ))     !===    ;;; ##   #.  ++ +++       ",
"       .++...+++++.@    #;;;;;---.=..!**......... .$~'{/  )]]    ===---    ;####    +++++++++       ",
"       ........+..>>@  ####;;;;;---=.=!!*........$.$,(/   ]**    =-.-;;;   #####    ++++++++        ",
"        ...........>+++#.#####;;;;...-==..*../&....%'{&^)]*!!=   -;;;;;#   ###   +  ++++++          ",
" .   .  .......+...++..++++.#.####....--...........~{&)]*!!=--  ;;;.#.##    +++ +++++++             ",
"    .    ......  .++....++ +++++###...;............'&)*..-  ;;  ####...++ >++++ +++                 ",
" .     ...........  .. .   ++++++..................&*=-;;####+  +++>++.++                           "};
