/* XPM */
static char * placar_xpm[] = {
"100 100 34 1",
" 	c #4C4C4C",
".	c #000000",
"+	c #6E582C",
"@	c #143554",
"#	c #025AAD",
"$	c #0D0D0D",
"%	c #060606",
"&	c #050505",
"*	c #DBF0D1",
"=	c #9FF8F5",
"-	c #EAEDC4",
";	c #84FBFF",
">	c #8AFAFD",
",	c #8B8B8B",
"'	c #55ACFE",
")	c #56ADFF",
"!	c #54A9FA",
"~	c #55ABFC",
"{	c #54AAFC",
"]	c #55ABFD",
"^	c #55AAFD",
"/	c #54AAFB",
"(	c #55ACFF",
"_	c #54ABFC",
":	c #55ACFD",
"<	c #55ADFF",
"[	c #5F430B",
"}	c #E8EBC3",
"|	c #040404",
"1	c #E8EBC2",
"2	c #080808",
"3	c #E5E8C0",
"4	c #010101",
"5	c #E4E7BF",
"                                                                                                    ",
"                                         ......                                                     ",
"                                        .........                                                   ",
"                                       ..........                                                   ",
"....................................................................................................",
"+++++++++++++++++++++++++++++++++++++++++++++++...++++++++++++++++++++++++++++++++++++++++++++++++++",
"++++++++++++++++++++++++++++++++++++++++++++++....++++++++++++++++++++++++++++++++++++++++++++++++++",
"....................................................................................................",
"                                             ...                                                    ",
"                                             ...                                                    ",
"                                             ...                                                    ",
"                                             ...                                                    ",
"                                             ...                                                    ",
"                                             ...                                                    ",
"                                       ..............                                               ",
"                                    .......@@@@@@@.##$.....                                         ",
"                                   ..#####....@....########..                                       ",
"                                 ..##########...############.                                       ",
"                               ..%############.#############..                                      ",
"                               .##############.##############.                                      ",
"                             ..###############.##############.                                      ",
"                             .################.##############..                                     ",
"                            ..################.##########.####.                                     ",
"                            .#################.##########.####.                                     ",
"                            .#################.##########.####..                                    ",
"                           ..#################.##########..####.                                    ",
"                           .##################.###########.####.                                    ",
"                           .#######.##########.###########.####.                                    ",
"  . . & . . . . .          .#######.##########.###########.####.                                    ",
" .*.=.-.;.-.;.-.;.        ..#######.##########.###########.####.                                    ",
" .=.-.;.-.;.-.;.-.        .########.##########.###########.####.                                    ",
" .-.=.-.;.-.;.-.;.        .########.##########.###########.####.                                    ",
" .=.-.;.-.;.-.;.-.        .########.##########.###########.####.                                    ",
" .-.=.-.;.-.;.-.;.        .########.##########.###########.####.                                    ",
" .=.-.=.-.;.-.;.-.        .######...##########.###########.####.                                    ",
" .-.=.-.=.-.;.-.=.        .######. .##########.###########.####.                                    ",
" .;.-.;.-.;.-.>.-.        .######. .##########.###########.####.                                    ",
" .................        .######. .##########.###########.####.                                    ",
" .,,,,,,,,,,,,,,,.        .######. .##########.###########.####.                                    ",
" .,,,,,,,,,,,,,,,.        .######. .##########.###########.####..                                   ",
" .,,,,,,,,,,,,,,,.        .######. .##########.###########.#####.                                   ",
" .................        .######. .##########.###########.#####.                                   ",
"     .+++++++.            .######. .##########.###########.#####.                                   ",
"     .+++++++.            .######. .##########.###########.####..                                   ",
"     .+++++++.            .######. .##########.###########.####.                                    ",
"     .+++++++.            .######. .##########.###########.###..                                    ",
"     .+++++++.            .######. .##########.###########.#...                                     ",
"     .+++++++.            .######. .##########.###########...                                       ",
"     .+++++++.            ........ .##########.###########.                                         ",
"     .+++++++.                     .##########.###########.                                         ",
"     .+++++++.                     .##########.###########.                                         ",
"     .+++++++.                     .######################.                                         ",
"     .+++++++.                     .######################.                                         ",
"     .+++++++.                     .######################..                                        ",
"     .+++++++.                     .#######################.                                        ",
"     .+++++++.                     .#######################.                                        ",
"     .+++++++.                     .#######################.                                        ",
"     .+++++++.                     .##############..........                                        ",
"     .+++++++.                    ..############...'))))'!..                                        ",
"     .+++++++.                    ..###########..~)))))))'{..                                       ",
"     .+++++++.                    .############.)))))))))]^/.                                       ",
"     .+++++++.                    .###########..))))))))))'].                                       ",
"     .+++++++.                    .###########.()))....))))_.                                       ",
"     .+++++++.                    .###########.)))..##..)))].                                       ",
"     .+++++++.                    .###########.))).####.)))).                                       ",
"     .+++++++.                    .###########.))(.####.)))).                                       ",
"     .+++++++.                    .###########.:)(.####.)))'.                                       ",
"     .+++++++.                    .###########.<'~.####.)))'.                                       ",
"     .+++++++.                    .##########......####.)))].                                       ",
"     .+++++++.                    .##########. .#######.'))).                                       ",
"     .+++++++.                    .##########. .#######.~)''.                                       ",
"     .+++++++.                    .##########. ..######.'))(.        ........                       ",
"     .+++++++.                    .##########.  .######.)))'.       ..[[[[[[..                      ",
"     .+++++++.                    .##########.  .######./))'.      ..[[[[[[[[..                     ",
"     .+++++++.                    .##########.  .######.))!~.      .[[[[[[[[[[.                     ",
"     .+++++++.                    .##########.  .######.....................................        ",
"     .+++++++.                    .##########.  .######.-----------------------------------.        ",
"     .+++++++.                    .##########.  ..#####.-----------------------------------.        ",
"     .+++++++.                    .##########.   .#####.-----------------------------------.        ",
"     .+++++++.                    .#########..   .#####.-----------------------------------.        ",
"     .+++++++.                    .#########..   .#####.-----------------------------------.        ",
"     .+++++++.                    .#########.    .#####.-----------------------------------.        ",
"     .+++++++.                    .#########.    ..####.}----------------------------------.        ",
"     .+++++++.                    |########..     .####.-----------------------------------.        ",
"     .+++++++.                    .########..     .####.-----------------------------------.        ",
"     .+++++++.                    .########.      .####.-----------------------------------.        ",
"     .+++++++.            ...............##.      .####.-----------------------------------.        ",
"     .+++++++.            .))))))))))))).##.      ..###.1----------------------------------.        ",
"     .+++++++.           ,.))))))))))))).,#.       ..##.1---------------------------------..        ",
"     ..+++++2.            ,,,)))))))),,,,##.        ..#.3--.......-----------------------3.         ",
"      ..+++.4             .),,,,,,,,,,)]....         ...--.........-----------......----}..         ",
"       .....              .))))))))))))).              ...................................          ",
"                          .))))))))))))).               .....---.....       ............            ",
"                          .))))))))))))).               ....-----....      .....---....             ",
"                          .))))))))))))).               ....-----....      ....-----...             ",
"                          ..)))))))))))..               ....---5-....      ....-----...             ",
"                           .))))))))))).                .....---.....      ....-----...             ",
"                           ..)))))))))..                ............       .....---....             ",
"                            .))))))))).                  ...........        ..........              ",
"                            ...........                   ........           .........              "};
