/* XPM */
static char * wall_sign_xpm[] = {
"100 100 44 1",
" 	c #4F4F4F",
".	c #000000",
"+	c #686565",
"@	c #9E9E9E",
"#	c #969595",
"$	c #B0643A",
"%	c #B8683C",
"&	c #C46E3F",
"*	c #D67743",
"=	c #CF7442",
"-	c #D27643",
";	c #D07542",
">	c #323232",
",	c #C97140",
"'	c #B7683C",
")	c #C87040",
"!	c #CD7341",
"~	c #B1653A",
"{	c #D47743",
"]	c #C66F3F",
"^	c #C06C3E",
"/	c #B4663B",
"(	c #BA693D",
"_	c #DF0000",
":	c #4D4D4D",
"<	c #AF643A",
"[	c #AA6038",
"}	c #DD0E05",
"|	c #A75F37",
"1	c #AC6239",
"2	c #DE0301",
"3	c #AE6339",
"4	c #D92210",
"5	c #DF0201",
"6	c #D37643",
"7	c #D17542",
"8	c #C56E3E",
"9	c #D62613",
"0	c #D92311",
"a	c #DE0201",
"b	c #AF633A",
"c	c #DC1106",
"d	c #DC0000",
"e	c #D27542",
"                                                                      .+++++.                       ",
"                                                                      .+@@@+.                       ",
"                                                                      .@@+@@.                       ",
"                                                                      .+++++.                       ",
"                                                                      .+++++.                       ",
"                                                                      .+@@@+.                       ",
"                                                                      .@@+@@.                       ",
"                                                                     ..+++++.                       ",
"                                                                    ..++++++.                       ",
"                                                          ...........+@+++++.                       ",
"                                                         ..++@++++@++@+@++++.                       ",
"                                                        ..+++@@+++@@++@+@+++.                       ",
"                                                        .+++++@++++@+++@+#+..                       ",
"                                                        .+++++@++++@++++@+..                        ",
"                                                        ..+++@@+++@@+++++..                         ",
"                                                         ..++@++++@+++++..                          ",
"                                                          ...............                           ",
"                                                                                                    ",
"                                                                                                    ",
"                                                                                                    ",
"                                                                                                    ",
"                                                                                                    ",
"                                                                      ............                  ",
"                                                                     ..$$$$$$$$$$..                 ",
"                                                                    ..$$$$$$$$$$$$..                ",
"                                                                    .$$$$$$$$$$$$$$.                ",
"                                                                    .$$$$%%%&&%$$$$.                ",
"                                                                    .$$**===&&=&$$$.                ",
"                                                                    .$*$$$$$$$$-;$$.                ",
"                                         >                          .,'$$$$$$$$$)!$.                ",
"                                         >                          .'~$$$$$$$$$$-;.                ",
"                                         >                          .$$$$$$$$$$$$$%.                ",
"                                         >                          .$$$$$$$$$$$$$$.                ",
"                                                                    .$$$$$$$$$$$$$$.                ",
"                                                                    .$$%&===&!%$$$$.                ",
"                                                                    .%&{!%%%&!=**&$.                ",
"                                                                    .=&&$$$$$$$$$]^.                ",
"                                                                    .$$$$$$$$$$$$/^.                ",
"                                          >                         .$$$$$$$$$$$$$$.                ",
"                                                                    .$$$$$$$$$$$$$$.                ",
"                                          >                         .$$$$$$$$$$$$$$.                ",
"                                          > .......                 .(,&%%&&$$$$$$$.                ",
"                                         ............               .(,&==&&*&&$$$$.                ",
"                                        ..._________...             .$$$$$$$$!!===$.                ",
"                                       ..____..______....           .$$$$$$$$$$%%)!.                ",
"                                      ..___.. .__...____..          .$$$$$$$$$$$$$&.                ",
"                                     ..___.. :.__. ..____..         .$$$$$$$$$$$$$$.                ",
"                                    ..___.>   .__.  ....__..       ..&!$$$$$$$$$$$$.                ",
"                                   ..___.>>   .__.   : .___..     ..$$&-!$$$$$$$$$$.                ",
"                          ..........____.......__......_____.......$$$$%&-!$$$$$$$$.                ",
"                        ...$$$$$$$..______.$$$.__.<$*.._____.$$&&$$$$$$$$%&=$$$$$$$.                ",
"                      ...$$$$$$$$$..______.[$$.__.$$..__..}_..$&*$$$$$$$$$$%*$$$$$$.                ",
"                     ..%$$$$$$$$$..____..__.|1.__.$.._..$.__2.$$*$$$$$$$$$$$$=%$$$$.                ",
"                   ...$=*$$$$$$$$..___.$..__.$.__.$.__.$$.___.$$$*$$$$$$$$$$$%=$$$$.                ",
"                  ..$$$$$=-$$$$$$.____.3%..4_..__..__..&$.__5.$$$%=$$$$$$$$$$$$&$$$.                ",
"                 ..$$$$$$%))$$$$$..___.3'=$._________.!!$.}_2.$$$$=%$$$$$$$$$$$!!$$.                ",
"                ..,'$$$$$$$6=$$$$..___......_________.....___.$$$$=%$$$$$$$$$$$$&*$.                ",
"                .$'=7$$$$$$$*&$$$..__________________________..$$$!!$$$$$$$$$$$$$$*.                ",
"                .$$$;&$$$$$$$*$$$..___......________.......___.$$$&&$$$$$$$$$$$$$$$.                ",
"                .$$$$&=%$$$$$&&$$..___.$%=$.________.$=%$$.___.$$$$*$$$$$$$$$$$$$$$.                ",
"                .$$$$$%-&$$$$$&&$..___.$8..______..90..%$$.___.$$$$*$$$$$$$$$$$$$$$.                ",
"                .$$$$$$$*$$$$$%=$..___.&..__a..__.$.__..[$.___.$$$$*$$$$$$$$$$$$$$..                ",
"                .$$$$$$$$*$$$$$=%$..__...__..<.__.$..___.b.__c.$$$$*$$$$$$$$$$$$$..                 ",
"                .$$$$$$$$$*$$$$&!$$.._____..$$.__.$$..___.___a.$$$$=$$$$$$$$$$$$..                  ",
"                .$$$$$$$$$$*&$$$&$..._____.....__......______d...................                   ",
"                .$$$$$$$$$$&!$$$... ..____.  :.__.    .._____..                                     ",
"                .$$$%$$$$$$$!!$..    ..___.....__.   ..______.                                      ",
"                .^**=***=&%$$$..    > .._________.  .._______.                                      ",
"                .^/$$$$$%&=&%$.     > ...________...._______..                                      ",
"                .$$$$$$$$$$&e^.     >   ...________________..                                       ",
"                .$$$$$$$$$$$//.           ....____________..                                        ",
"                .$$$$$$$$$$$$$.    >       ................                                         ",
"                .$$$$$$$$$$$$$.    >          ...........                                           ",
"                .^!=====&&&&$$.    >                                                                ",
"                .^!%%%%%&&!!*&.    >                                                                ",
"                .$$$$$$$$$$$$&.    >                                                                ",
"                .$$$$$$$$$$$$$.    >                                                                ",
"                .$$$$$$$$$$$$$.                                                                     ",
"                .$$$$$$$$$$$$$.                                                                     ",
"                ..$$$$$$$$$$$..                                                                     ",
"                 ..$$$$$$$$$..                                                                      ",
"                  ...........                                                                       ",
"                                                                                                    ",
"                                                                                                    ",
"             .                                                                                      ",
"            .$.                                                                                     ",
"            .$.                                                                                     ",
"         .  .$.                                                                                     ",
"        .$. .$.                                                                                     ",
"        .$. .$.                                                                                     ",
"        .$. .$.                                                                                     ",
"        .$. .$.                                                                                     ",
"        .$. .$.                                                                                     ",
"        .$. .$.                                                                                     ",
"        .$. .$.                                                                                     ",
"        .$. .$.                                                                                     ",
"        .$. .$.                                                                                     ",
"        .$. .$.                                                                                     ",
"        .$. .$.                                                                                     ",
"        .$. .$.                                                                                     "};
