/* XPM */
static char * wall_xpm[] = {
"100 100 21 1",
" 	c #4C4C4C",
".	c #000000",
"+	c #686565",
"@	c #9E9E9E",
"#	c #969595",
"$	c #434343",
"%	c #3F3F3F",
"&	c #414141",
"*	c #484848",
"=	c #383838",
"-	c #323232",
";	c #333333",
">	c #444444",
",	c #373737",
"'	c #3E3E3E",
")	c #363636",
"!	c #343434",
"~	c #393939",
"{	c #3A3A3A",
"]	c #3C3C3C",
"^	c #B0643A",
"                                                                      .+++++.                       ",
"                                                                      .+@@@+.                       ",
"                                                                      .@@+@@.                       ",
"                                                                      .+++++.                       ",
"                                                                      .+++++.                       ",
"                                                                      .+@@@+.                       ",
"                                                                      .@@+@@.                       ",
"                                                                     ..+++++.                       ",
"                                                                    ..++++++.                       ",
"                                                          ...........+@+++++.                       ",
"                                                         ..++@++++@++@+@++++.                       ",
"                                                        ..+++@@+++@@++@+@+++.                       ",
"                                                        .+++++@++++@+++@+#+..                       ",
"                                                        .+++++@++++@++++@+..                        ",
"                                                        ..+++@@+++@@+++++..                         ",
"                                                         ..++@++++@+++++..                          ",
"                                                          ...............                           ",
"                                                                                                    ",
"                                                                                                    ",
"                                                                                                    ",
"                                                                                                    ",
"                                                                                                    ",
"                                                                                                    ",
"                                                                                                    ",
"                                                                                                    ",
"                                        $$                                                          ",
"                                        %%                                                          ",
"                                        &&                                                          ",
"                                        &&                                                          ",
"                                        *=                                                          ",
"                                        *=                                                          ",
"                                         -                                                          ",
"                                         -                                                          ",
"                                         &&                                                         ",
"                                         &&                                                         ",
"                                         &&                                                         ",
"                                         &&                                                         ",
"                                         &&                                                         ",
"                                         *=                                                         ",
"                                          &&                                                        ",
"                                          -                                                         ",
"                                          -                                                         ",
"                                          -                                                         ",
"                                          -                                                         ",
"                                         ;-*                                                        ",
"                                         -->                                                        ",
"                                        *;-                                                         ",
"                                       *=--                                                         ",
"                                       *,-=                                                         ",
"                                       -,-'                                                         ",
"                                       ,;-'                                                         ",
"                                       );;>                                                         ",
"                                       )--*                                                         ",
"                                      *-)-                                                          ",
"                                       -!;*                                                         ",
"                                      &--!                                                          ",
"                                      '--&                                                          ",
"                                      ~;;{                                                          ",
"                                      {--                                                           ",
"                                      ]-=                                                           ",
"                                      ,;*                                                           ",
"                                      !{                                                            ",
"                                     *=                                                             ",
"                                     *=                                                             ",
"                                     &&                                                             ",
"                                    *=                                                              ",
"                                     -                                                              ",
"                                   *=                                                               ",
"                                    -                                                               ",
"                                   *=                                                               ",
"                                   &&                                                               ",
"                                  *=                                                                ",
"                                   -                                                                ",
"                                  *=                                                                ",
"                                  *=                                                                ",
"                                  *=                                                                ",
"                                  *=                                                                ",
"                                                                                                    ",
"                                                                                                    ",
"                                                                                                    ",
"                                                                                                    ",
"                                                                                                    ",
"                                                                                                    ",
"                                                                                                    ",
"             .                                                                                      ",
"            .^.                                                                                     ",
"            .^.                                                                                     ",
"         .  .^.                                                                                     ",
"        .^. .^.                                                                                     ",
"        .^. .^.                                                                                     ",
"        .^. .^.                                                                                     ",
"        .^. .^.                                                                                     ",
"        .^. .^.                                                                                     ",
"        .^. .^.                                                                                     ",
"        .^. .^.                                                                                     ",
"        .^. .^.                                                                                     ",
"        .^. .^.                                                                                     ",
"        .^. .^.                                                                                     ",
"        .^. .^.                                                                                     ",
"        .^. .^.                                                                                     "};
