/* XPM */
static char * window_xpm[] = {
"100 100 28 1",
" 	c #4C4C4C",
".	c #000000",
"+	c #5BC7FF",
"@	c #F0F0F0",
"#	c #FEFEFE",
"$	c #F3F3F3",
"%	c #FFFFFF",
"&	c #FDFDFD",
"*	c #FFF9E8",
"=	c #FFE003",
"-	c #09EA18",
";	c #0CE719",
">	c #0EE21A",
",	c #0D0D0D",
"'	c #090909",
")	c #09E917",
"!	c #0AEA18",
"~	c #09E717",
"{	c #09E617",
"]	c #0AE918",
"^	c #09E817",
"/	c #09E517",
"(	c #909090",
"_	c #323232",
":	c #333333",
"<	c #363636",
"[	c #343434",
"}	c #B0643A",
"                                                                                                    ",
"                         ...................................................                        ",
"                         .+++++++++++++++++++++++++++++++++++++++++++++++++.                        ",
"                         .+++++++++++++++++++++++++++++++++++++++++++++++++.                        ",
"                         .+++++++++++++++++++++++++++++++++++++++++++++++++.                        ",
"                         .+++++++++++++++++++++++++++++++++++++++++++++++++.                        ",
"                         .+++++++++++++++++++++++++++++++++++++++++++++++++.                        ",
"                         .+++++++++++++++++++++++++++++++++++++++++++++++++.                        ",
"                         .+++++++++++++++++++++....++++++++++++++++++++++++.                        ",
"                         .+++++++++++++++++++...@#$.+++++++++++++++++++++++.                        ",
"                         .+++++++++++++++++++.%%%%&.+++++++++++++++++++++++.                        ",
"                         .+++++++++++++++++++.%*=%%.++++++++++++++++++++++..                        ",
"                         .++++++++.++++++++++.%%%%%.+++++++++++++++++++++.-.                        ",
"                         .+++++++.-.+++++++++..%%%..++++++++++...+++++++.--.                        ",
"                         .+++++++.-..++++++++++....+...+++++++.--.+++++..--.                        ",
"                         .+++++++.--.++++++++++.-.++.;-.++++++.--..+++..---.                        ",
"                         .++++++.---..++...++++.-.++.>--..+++.,---.+++'----.                        ",
"                         .+++++..----.++.--.+++.-.++.----..++.-----.++,----.                        ",
"                         .++++..-----.+..---.++.-.+..-----...-------...----.                        ",
"                         .++..-------.+.----..+.-.+.-------)---------------.                        ",
"                         .+..--------..------.+.-...-----------------------.                        ",
"                         ...---------!-------......------------------------.                        ",
"                         .)---------------------~{-------------------------.                        ",
"                         .)-----]]----------^/)--~-){^----)/~-))-{---------.                        ",
"                         ...................................................                        ",
"                         .%%%%%%%%%%%%%%%%%%%%%%.(((.%%%%%%%%%%%%%%%%%%%%%%.                        ",
"                         .%%%%%%%%%%%%%%%%%%%%%%%...%%%%%%%%%%%%%%%%%%%%%%%.                        ",
"                         .%%%%%%%%%%%%%%%%%%%%%%%%%%%%%%%%%%%%%%%%%%%%%%%%%.                        ",
"                         .%%%%%%%%%%%%%%%%%%%%%%%%%%%%%%%%%%%%%%%%%%%%%%%%%.                        ",
"                         ...................................................                        ",
"                                                                                                    ",
"                                                                                                    ",
"                                                                                                    ",
"                                                                                                    ",
"                                                                                                    ",
"                                                                                                    ",
"                                                                                                    ",
"                                                                                                    ",
"                                                                                                    ",
"                                                                                                    ",
"                                          _                                                         ",
"                                          _                                                         ",
"                                          _                                                         ",
"                                          _                                                         ",
"                                         :_                                                         ",
"                                         __                                                         ",
"                                         :_                                                         ",
"                                         __                                                         ",
"                                         _                                                          ",
"                                       _ _                                                          ",
"                                        :_                                                          ",
"                                        ::                                                          ",
"                                        __                                                          ",
"                                       _<_                                                          ",
"                                       _[:                                                          ",
"                                       __[                                                          ",
"                                       __                                                           ",
"                                       ::                                                           ",
"                                       __                                                           ",
"                                       _                                                            ",
"                                       :                                                            ",
"                                      [                                                             ",
"                                                                                                    ",
"                                                                                                    ",
"                                                                                                    ",
"                                                                                                    ",
"                                     _                                                              ",
"                                                                                                    ",
"                                    _                                                               ",
"                                                                                                    ",
"                                                                                                    ",
"                                                                                                    ",
"                                   _                                                                ",
"                                                                                                    ",
"                                                                                                    ",
"                                                                                                    ",
"                                                                                                    ",
"                                                                                                    ",
"                                                                                                    ",
"                                                                                                    ",
"                                                                                                    ",
"                                                                                                    ",
"                                                                                                    ",
"                                                                                                    ",
"             .                                                                                      ",
"            .}.                                                                                     ",
"            .}.                                                                                     ",
"         .  .}.                                                                                     ",
"        .}. .}.                                                                                     ",
"        .}. .}.                                                                                     ",
"        .}. .}.                                                                                     ",
"        .}. .}.                                                                                     ",
"        .}. .}.                                                                                     ",
"        .}. .}.                                                                                     ",
"        .}. .}.                                                                                     ",
"        .}. .}.                                                                                     ",
"        .}. .}.                                                                                     ",
"        .}. .}.                                                                                     ",
"        .}. .}.                                                                                     ",
"        .}. .}.                                                                                     "};
