/* XPM */
static char * cell_xpm[] = {
"100 100 3 1",
" 	c #000000",
".	c #A2A2A2",
"+	c #FF00FF",
" ... +++++ ... +++++ ... +++++ ... +++++ ... +++++ ... +++++ ... +++++ ... +++++ ... +++++ ........ ",
" ...       ...       ...       ...       ...       ...       ...       ...       ...       ........ ",
" .................................................................................................. ",
" .................................................................................................. ",
" .................................................................................................. ",
" .................................................................................................. ",
" .................................................................................................. ",
" .................................................................................................. ",
" .................................................................................................. ",
" .................................................................................................. ",
" ...       ...       ...       ...       ...       ...       ...       ...       ...       ........ ",
" ... +++++ ... +++++ ... +++++ ... +++++ ... +++++ ... +++++ ... +++++ ... +++++ ... +++++ ........ ",
" ... +++++ ... +++++ ... +++++ ... +++++ ... +++++ ... +++++ ... +++++ ... +++++ ... +++++ ........ ",
" ... +++++ ... +++++ ... +++++ ... +++++ ... +++++ ... +++++ ... +++++ ... +++++ ... +++++ ........ ",
" ... +++++ ... +++++ ... +++++ ... +++++ ... +++++ ... +++++ ... +++++ ... +++++ ... +++++ ........ ",
" ... +++++ ... +++++ ... +++++ ... +++++ ... +++++ ... +++++ ... +++++ ... +++++ ... +++++ ........ ",
" ... +++++ ... +++++ ... +++++ ... +++++ ... +++++ ... +++++ ... +++++ ... +++++ ... +++++ ........ ",
" ... +++++ ... +++++ ... +++++ ... +++++ ... +++++ ... +++++ ... +++++ ... +++++ ... +++++ ........ ",
" ... +++++ ... +++++ ... +++++ ... +++++ ... +++++ ... +++++ ... +++++ ... +++++ ... +++++ ........ ",
" ... +++++ ... +++++ ... +++++ ... +++++ ... +++++ ... +++++ ... +++++ ... +++++ ... +++++ ........ ",
" ... +++++ ... +++++ ... +++++ ... +++++ ... +++++ ... +++++ ... +++++ ... +++++ ... +++++ ........ ",
" ... +++++ ... +++++ ... +++++ ... +++++ ... +++++ ... +++++ ... +++++ ... +++++ ... +++++ ........ ",
" ... +++++ ... +++++ ... +++++ ... +++++ ... +++++ ... +++++ ... +++++ ... +++++ ... +++++ ........ ",
" ... +++++ ... +++++ ... +++++ ... +++++ ... +++++ ... +++++ ... +++++ ... +++++ ... +++++ ........ ",
" ... +++++ ... +++++ ... +++++ ... +++++ ... +++++ ... +++++ ... +++++ ... +++++ ... +++++ ........ ",
" ...       ...       ...       ...       ...       ...       ...       ...       ...       ........ ",
" .................................................................................................. ",
" .................................................................................................. ",
" .................................................................................................. ",
" .................................................................................................. ",
" .................................................................................................. ",
" .................................................................................................. ",
" .................................................................................................. ",
" .................................................................................................. ",
" ...       ...       ...       ...       ...       ...       ...       ...       ...       ........ ",
" ... +++++ ... +++++ ... +++++ ... +++++ ... +++++ ... +++++ ... +++++ ... +++++ ... +++++ ........ ",
" ... +++++ ... +++++ ... +++++ ... +++++ ... +++++ ... +++++ ... +++++ ... +++++ ... +++++ ........ ",
" ... +++++ ... +++++ ... +++++ ... +++++ ... +++++ ... +++++ ... +++++ ... +++++ ... +++++ ........ ",
" ... +++++ ... +++++ ... +++++ ... +++++ ... +++++ ... +++++ ... +++++ ... +++++ ... +++++ ........ ",
" ... +++++ ... +++++ ... +++++ ... +++++ ... +++++ ... +++++ ... +++++ ... +++++ ... +++++ ........ ",
" ... +++++ ... +++++ ... +++++ ... +++++ ... +++++ ... +++++ ... +++++ ... +++++ ... +++++ ........ ",
" ... +++++ ... +++++ ... +++++ ... +++++ ... +++++ ... +++++ ... +++++ ... +++++ ... +++++ ........ ",
" ... +++++ ... +++++ ... +++++ ... +++++ ... +++++ ... +++++ ... +++++ ... +++++ ... +++++ ........ ",
" ... +++++ ... +++++ ... +++++ ... +++++ ... +++++ ... +++++ ... +++++ ... +++++ ... +++++ ........ ",
" ... +++++ ... +++++ ... +++++ ... +++++ ... +++++ ... +++++ ... +++++ ... +++++ ... +++++ ........ ",
" ... +++++ ... +++++ ... +++++ ... +++++ ... +++++ ... +++++ ... +++++ ... +++++ ... +++++ ........ ",
" ... +++++ ... +++++ ... +++++ ... +++++ ... +++++ ... +++++ ... +++++ ... +++++ ... +++++ ........ ",
" ... +++++ ... +++++ ... +++++ ... +++++ ... +++++ ... +++++ ... +++++ ... +++++ ... +++++ ........ ",
" ... +++++ ... +++++ ... +++++ ... +++++ ... +++++ ... +++++ ... +++++ ... +++++ ... +++++ ........ ",
" ... +++++ ... +++++ ... +++++ ... +++++ ... +++++ ... +++++ ... +++++ ... +++++ ... +++++ ........ ",
" ... +++++ ... +++++ ... +++++ ... +++++ ... +++++ ... +++++ ... +++++ ... +++++ ... +++++ ........ ",
" ... +++++ ... +++++ ... +++++ ... +++++ ... +++++ ... +++++ ... +++++ ... +++++ ... +++++ ........ ",
" ... +++++ ... +++++ ... +++++ ... +++++ ... +++++ ... +++++ ... +++++ ... +++++ ... +++++ ........ ",
" ...       ...       ...       ...       ...       ...       ...       ...       ...       ........ ",
" .................................................................................................. ",
" .................................................................................................. ",
" .................................................................................................. ",
" ...........................................................................................   .... ",
" ...........................................................................................   .... ",
" ............................................................................................ ..... ",
" ............................................................................................ ..... ",
" .................................................................................................. ",
" ...       ...       ...       ...       ...       ...       ...       ...       ...       ........ ",
" ... +++++ ... +++++ ... +++++ ... +++++ ... +++++ ... +++++ ... +++++ ... +++++ ... +++++ ........ ",
" ... +++++ ... +++++ ... +++++ ... +++++ ... +++++ ... +++++ ... +++++ ... +++++ ... +++++ ........ ",
" ... +++++ ... +++++ ... +++++ ... +++++ ... +++++ ... +++++ ... +++++ ... +++++ ... +++++ ........ ",
" ... +++++ ... +++++ ... +++++ ... +++++ ... +++++ ... +++++ ... +++++ ... +++++ ... +++++ ........ ",
" ... +++++ ... +++++ ... +++++ ... +++++ ... +++++ ... +++++ ... +++++ ... +++++ ... +++++ ........ ",
" ... +++++ ... +++++ ... +++++ ... +++++ ... +++++ ... +++++ ... +++++ ... +++++ ... +++++ ........ ",
" ... +++++ ... +++++ ... +++++ ... +++++ ... +++++ ... +++++ ... +++++ ... +++++ ... +++++ ........ ",
" ... +++++ ... +++++ ... +++++ ... +++++ ... +++++ ... +++++ ... +++++ ... +++++ ... +++++ ........ ",
" ... +++++ ... +++++ ... +++++ ... +++++ ... +++++ ... +++++ ... +++++ ... +++++ ... +++++ ........ ",
" ... +++++ ... +++++ ... +++++ ... +++++ ... +++++ ... +++++ ... +++++ ... +++++ ... +++++ ........ ",
" ... +++++ ... +++++ ... +++++ ... +++++ ... +++++ ... +++++ ... +++++ ... +++++ ... +++++ ........ ",
" ... +++++ ... +++++ ... +++++ ... +++++ ... +++++ ... +++++ ... +++++ ... +++++ ... +++++ ........ ",
" ... +++++ ... +++++ ... +++++ ... +++++ ... +++++ ... +++++ ... +++++ ... +++++ ... +++++ ........ ",
" ... +++++ ... +++++ ... +++++ ... +++++ ... +++++ ... +++++ ... +++++ ... +++++ ... +++++ ........ ",
" ... +++++ ... +++++ ... +++++ ... +++++ ... +++++ ... +++++ ... +++++ ... +++++ ... +++++ ........ ",
" ... +++++ ... +++++ ... +++++ ... +++++ ... +++++ ... +++++ ... +++++ ... +++++ ... +++++ ........ ",
" ... +++++ ... +++++ ... +++++ ... +++++ ... +++++ ... +++++ ... +++++ ... +++++ ... +++++ ........ ",
" ...       ...       ...       ...       ...       ...       ...       ...       ...       ........ ",
" .................................................................................................. ",
" .................................................................................................. ",
" .................................................................................................. ",
" .................................................................................................. ",
" .................................................................................................. ",
" .................................................................................................. ",
" .................................................................................................. ",
" .................................................................................................. ",
" ...       ...       ...       ...       ...       ...       ...       ...       ...       ........ ",
" ... +++++ ... +++++ ... +++++ ... +++++ ... +++++ ... +++++ ... +++++ ... +++++ ... +++++ ........ ",
" ... +++++ ... +++++ ... +++++ ... +++++ ... +++++ ... +++++ ... +++++ ... +++++ ... +++++ ........ ",
" ... +++++ ... +++++ ... +++++ ... +++++ ... +++++ ... +++++ ... +++++ ... +++++ ... +++++ ........ ",
" ... +++++ ... +++++ ... +++++ ... +++++ ... +++++ ... +++++ ... +++++ ... +++++ ... +++++ ........ ",
" ... +++++ ... +++++ ... +++++ ... +++++ ... +++++ ... +++++ ... +++++ ... +++++ ... +++++ ........ ",
" ... +++++ ... +++++ ... +++++ ... +++++ ... +++++ ... +++++ ... +++++ ... +++++ ... +++++ ........ ",
" ... +++++ ... +++++ ... +++++ ... +++++ ... +++++ ... +++++ ... +++++ ... +++++ ... +++++ ........ ",
" ... +++++ ... +++++ ... +++++ ... +++++ ... +++++ ... +++++ ... +++++ ... +++++ ... +++++ ........ ",
" ... +++++ ... +++++ ... +++++ ... +++++ ... +++++ ... +++++ ... +++++ ... +++++ ... +++++ ........ ",
" ... +++++ ... +++++ ... +++++ ... +++++ ... +++++ ... +++++ ... +++++ ... +++++ ... +++++ ........ "};
