/* XPM */
static char * skelet_xpm[] = {
"100 100 51 1",
" 	c #363636",
".	c #303030",
"+	c #030303",
"@	c #0D0D0D",
"#	c #000000",
"$	c #2D2D2D",
"%	c #333333",
"&	c #121212",
"*	c #131313",
"=	c #A2A2A2",
"-	c #070707",
";	c #0A0A0A",
">	c #0C0C0C",
",	c #353535",
"'	c #2B2B2B",
")	c #292929",
"!	c #323232",
"~	c #343434",
"{	c #313131",
"]	c #4C4C4C",
"^	c #010101",
"/	c #2F2F2F",
"(	c #4B4B4B",
"_	c #DBDEB4",
":	c #ACAE8E",
"<	c #ACAF8E",
"[	c #D9DCB3",
"}	c #040403",
"|	c #11110B",
"1	c #D9DCB2",
"2	c #656752",
"3	c #C9CCA5",
"4	c #26261E",
"5	c #040404",
"6	c #111111",
"7	c #141414",
"8	c #181818",
"9	c #252525",
"0	c #202020",
"a	c #444444",
"b	c #050505",
"c	c #0F0F0F",
"d	c #6A6B57",
"e	c #4E4F40",
"f	c #1A1A1A",
"g	c #212121",
"h	c #C7CAA3",
"i	c #2E2E2E",
"j	c #060606",
"k	c #020202",
"l	c #4A4A4A",
"                   .                                                                                ",
"                  +@#   .$                                                  %  #&#                  ",
"                  *=#######                                               ######=#                  ",
"                  #=======#                                               #======#                  ",
"                  ##=====##                                               +-=====;                  ",
"                   .>#####                                                 #=====#                  ",
"                   ,>===#                                                  #######                  ",
"                  ,#===*#                                                  '#==##                   ",
"                 ###==##                                                   )#===##                  ",
"                ##===##,                                                   !##===#,                 ",
"                #====#~                                                     {##==##                 ",
"######        ,##==###           ############                                ,#===#!              >*",
"]]]]]#^       ##==###           ##]]]]]]]]]]##                                ##==##             -@]",
"]]]]]]#      ##===##            #]]]]]]]]]]]]#                                /#===##            #]]",
"]]]]]]#      #==###             #]]]]]]]]]]]]#                                 ##====#           #]]",
"]]]]](#      #=###              #]]]]]]]]]]]]#                                  ##===#       ##  #]]",
"]]]]###### ######               #]]]]]]]]]]]]#                                   ##==#     #######]]",
"]]]]#_#__##===##                #]]]]]]]]]]]]#                                    #####  #####__##]]",
"]]]]#_#___#====##               ##]]]]]]]]]]##                                   #=====##____#___##]",
"##^##__#__#====#####             ############             ############           #=====#_____##__###",
"   #___#__#====#:<####                          , ,,     ##]]]]]]]]]]##          #=====#______#___# ",
"   #___#__#====#_____#####                     ########  #]]]]]]]]]]]]#         ##=====#____[##___# ",
"   #___#__#====#________####                ####______## #]]]]]]]]]]]]#       ####=====#__####____# ",
"   #__#####====#___________##              ##__________###]]]]]]]]]]]]#      ###_#=====##### #____# ",
"   #__### #====#____________##            ,#____________##]]]]]]]]]]]]#    ###___#=====###   #____# ",
"   #__#   #====###___________##           ##__##___###__##]]]]]]]]]]]]#    #_____#=====#     #____# ",
"   #__#   ##===# ####____#___##          #___###___####_###]]]]]]]]]]##  ###___#_}=====#     #____# ",
"   #__#    #####   ###___#__#####        #___###___####__#############  ####__#__|=====#     #___#  ",
"   ####             ##___####__##        #__####___###___#              ##_####__1#####      #__##  ",
"    ###          ########2_____##        #__####__________#            ###___####34{         ####   ",
"     {          ##]]]]###______###       ##_______________#           ####______###                 ",
"                #]]]]]]#####_____##       ##_____________##         ###_________#                   ",
"                #]]]]]]]]]]#_____##       ~#____________##         ##_______#566                    ",
"                #]]]]]]]]]]##_____#        #___________###        ##________7 .                     ",
"                #]]]]]]]]]]]##_____89      #_____#____##         ###_______>                        ",
"                #]]]]]]]]]]]##______9      #_____#____#~         ##______##.                        ",
"                ##]]]]]]]]]]###______##    ##____#____#         ##______6#                          ",
"                 ############ ##_____##     #____#____#,        #______67                           ",
"                              ##______##    #____#____#,      .7______87                            ",
"                               ##______##   #____#____#{    .9&#____###########                     ",
"                                #______### ##############   7_______0a]]]]]]]]##                    ",
"                                ##_______###___#####____####______#9]]]]]]]]]]]#                    ",
"                                ##_______#_____####______##_______#,]]]]]]]]]]]#                    ",
"                                 #_____bc_____## ###______##______#]]]]]]]]]]]]#                    ",
"                                 #_____+______##   ##______####___#]]]]]]]]]]]]#                    ",
"                                 #____#________##  ##_______#____7#]]]]]]]]]]]]#                    ",
"                                 ##___#_________####________#____7##]]]]]]]]]]##                    ",
"                                 ###__#______##d####________#####  ############                     ",
"                                   ####____#####  ###_______# ###                                   ",
"                                    ###______#####  ##______#                                       ",
"                           ############__________###e_______#                                       ",
"                          ##]]]]]]]]]##_________####________#                                       ",
"                          #]]]]]]]]]]#____#######  ###______#                                       ",
"                          #]]]]]]]]]]#____###        #______#                                       ",
"                          #]]]]]]]]]]#______####      ##____#                                       ",
"                          #]]]]]]]]]]#_______##########_____#~                                      ",
"    ############          #]]]]]]]]]]#_________######_______#,                                      ",
"   ##]]]]]]]]]]##         ##]]]]]]]](#_________####_________####                                    ",
"   #]]]]]]]]]]]]#          ###########______##### ###_______##]##             ############          ",
"   #]]]]]]]]]]]]#                   ,>_____###     ###_______#]]#            ##]]]]]]]]]]##         ",
"   #]]]]]]]]]]]]#                    f_____####    #]###_____#]]#            #]]]]]]]]]]]]#         ",
"   #]]]]]]]]]]]]#                    7______###########______#(]#            #]]]]]]]]]]]]#         ",
"   #]]]]]]]]]]]]#                   ~##__________####________#]]#            #]]]]]]]]]]]]#         ",
"   ##]]]]]]]]]]##                    ####________##__________#(]#            #]]]]]]]]]]]]#         ",
"    ############                     . #############_________#]##            #]]]]]]]]]]]]#         ",
"                                              .#____##_______###             ##]]]]]]]]]]##         ",
"                                     ,        .#____##########                ############          ",
"                                               #______#.     ,                                      ",
"                                               #______#g                                            ",
"                                               #_____##       ,                                     ",
"                                               #_____#.                                             ",
"                                        ,      #_____#                                              ",
"                                               #_____#        ############                          ",
"                                               #_____#       ##]]]]]]]]]]##                         ",
"                                          ,    #_____#       #]]]]]]]]]]]]#                         ",
"                    ############          ,    #____##     #####]]]]]]]]]]#                         ",
"                   ##]]]]]]]]]]##         ,,   #____########___##]]]]]]]]]#                         ",
"                   #]]]]]]]]]]]]#         ######____#######_____#]]]]]]]]]#                         ",
"                   #]]]]]]]]]]]]#       ##__####____###_________#]]]]]]]]]#                         ",
"                   #]]]]]]]]]]]]#     ####______#####_____###___#]]]]]]]]##                         ",
"                   #]]]]]]]]]]]]#     ##____##___________####___##########                          ",
"                   #]]]]]]]]]]]]#    ##____###__________####____#                                   ",
"                   ##]]]]]]]]]]##    ##___####_______________#######                                ",
"                    ############     ###__###_____#________##_______#                               ",
"                                   ##__#__##______##______##________#                               ",
"                                   ##__##________#######7##_________#!                              ",
"                                   #___####_____##      , {#h_______##                              ",
"                                  ##__##___######           ##_______#.                             ",
"                                 #_________^                 ##______##,                            ",
"                                 #________#                  .##______##                            ",
"                                >_______##                     ##______##                           ",
"                              ##_____####                       ##_______#i                         ",
"                             ##_____##                           ##______##                         ",
"                            ##_____##                            ###______##                        ",
"                         )###_____##                              ##______####*~                    ",
"                         ##______##      ######   j>###########    ##_________##                    ",
"                        %#______##########____#, k^]]]]]####((k^,   ##_________#                    ",
"                        i#______#_____________#  +]]]]]]#__#############_______#%                   ",
"                         ####__##_____________#  #]]]]]l#______________#________#                   ",
"                            #########_________#  #]]]]](#______________##_______#                   "};
