/* XPM */
static char * wall_xpm[] = {
"100 100 13 1",
" 	c #363636",
".	c #000000",
"+	c #0C0C0C",
"@	c #131313",
"#	c #4C4C4C",
"$	c #010101",
"%	c #070707",
"&	c #0D0D0D",
"*	c #050505",
"=	c #060606",
"-	c #020202",
";	c #030303",
">	c #040404",
"                                                                                                    ",
"                                                                                                    ",
"                                                                                                    ",
"                                                                                                    ",
"                                                                                                    ",
"                                                                                                    ",
"                                                                                                    ",
"                                                                                                    ",
"                                                                                                    ",
"                                                                                                    ",
"                                                                                                    ",
"......                           ............                                                     +@",
"#####.$                         ..##########..                                                   %&#",
"######.                         .############.                                                   .##",
"######.                         .############.                                                   .##",
"######.                         .############.                                                   .##",
"######.                         .############.                                                   .##",
"######.                         .############.                                                   .##",
"#####..                         ..##########..                                                   ..#",
"..$$.*                           ............             ............                            ..",
"                                                         ..##########..                             ",
"                                                         .############.                             ",
"                                                         .############.                             ",
"                                                         .############.                             ",
"                                                         .############.                             ",
"                                                         .############.                             ",
"                                                         ..##########..                             ",
"                                                          ............                              ",
"                                                                                                    ",
"                 ............                                                                       ",
"                ..##########..                                                                      ",
"                .############.                                                                      ",
"                .############.                                                                      ",
"                .############.                                                                      ",
"                .############.                                                                      ",
"                .############.                                                                      ",
"                ..##########..                                                                      ",
"                 ............                                                                       ",
"                                                                                                    ",
"                                                                   ............                     ",
"                                                                  ..##########..                    ",
"                                                                  .############.                    ",
"                                                                  .############.                    ",
"                                                                  .############.                    ",
"                                                                  .############.                    ",
"                                                                  .############.                    ",
"                                                                  ..##########..                    ",
"                                                                   ............                     ",
"                                                                                                    ",
"                                                                                                    ",
"                           ............                                                             ",
"                          ..##########..                                                            ",
"                          .############.                                                            ",
"                          .############.                                                            ",
"                          .############.                                                            ",
"                          .############.                                                            ",
"    ............          .############.                                                            ",
"   ..##########..         ..##########..            ............                                    ",
"   .############.          ............            ..##########..             ............          ",
"   .############.                                  .############.            ..##########..         ",
"   .############.                                  .############.            .############.         ",
"   .############.                                  .############.            .############.         ",
"   .############.                                  .############.            .############.         ",
"   ..##########..                                  .############.            .############.         ",
"    ............                                   ..##########..            .############.         ",
"                                                    ............             ..##########..         ",
"                                                                              ............          ",
"                                                                                                    ",
"                                                                                                    ",
"                                                                                                    ",
"                                                                                                    ",
"                                                                                                    ",
"                                                              ............                          ",
"                                                             ..##########..                         ",
"                                                             .############.                         ",
"                    ............                             .############.                         ",
"                   ..##########..                            .############.                         ",
"                   .############.                            .############.                         ",
"                   .############.                            .############.                         ",
"                   .############.                            ..##########..                         ",
"                   .############.                             ............                          ",
"                   .############.                                                                   ",
"                   ..##########..                                                                   ",
"                    ............                                                                    ",
"                                                                                                    ",
"                                                                                                    ",
"                                                                                                    ",
"                                                                                                    ",
"                                                                                                    ",
"                                                                                                    ",
"                                                                                                    ",
"                                                                                                    ",
"                                                                                                    ",
"                                                                                                    ",
"                                                                                                    ",
"                                                  =+...........                                     ",
"                                                 -$###########-$                                    ",
"                                                 ;#############=                                    ",
"                                                 .#############.                                    ",
"                                                 .#############>                                    "};
