/* XPM */
static char * 1_xpm[] = {
"34 60 2 1",
" 	c #000000",
".	c #FFFFFF",
"                                  ",
"                                  ",
"                                  ",
"                                  ",
"                                  ",
"                             ..   ",
"                             ..   ",
"                             ..   ",
"                          .....   ",
"                          .....   ",
"                        .......   ",
"                        .......   ",
"                        .......   ",
"                        .......   ",
"                        .......   ",
"                        .......   ",
"                        .......   ",
"                        .......   ",
"                        .......   ",
"                        .......   ",
"                        .......   ",
"                        .......   ",
"                        .......   ",
"                          .....   ",
"                          .....   ",
"                          .....   ",
"                             ..   ",
"                             ..   ",
"                             ..   ",
"                                  ",
"                                  ",
"                             ..   ",
"                             ..   ",
"                             ..   ",
"                          .....   ",
"                          .....   ",
"                          .....   ",
"                        .......   ",
"                        .......   ",
"                        .......   ",
"                        .......   ",
"                        .......   ",
"                        .......   ",
"                        .......   ",
"                        .......   ",
"                        .......   ",
"                        .......   ",
"                        .......   ",
"                        .......   ",
"                        .......   ",
"                          .....   ",
"                          .....   ",
"                             ..   ",
"                             ..   ",
"                             ..   ",
"                                  ",
"                                  ",
"                                  ",
"                                  ",
"                                  "};
