/* XPM */
static char * 1_xpm[] = {
"34 60 3 1",
" 	c #FF00FF",
".	c #000000",
"+	c #FFFFFF",
"                                  ",
"                                  ",
"                                  ",
"                                  ",
"                            ....  ",
"                            .++.  ",
"                            .++.  ",
"                         ....++.  ",
"                         .+++++.  ",
"                       ...+++++.  ",
"                       .+++++++.  ",
"                       .+++++++.  ",
"                       .+++++++.  ",
"                       .+++++++.  ",
"                       .+++++++.  ",
"                       .+++++++.  ",
"                       .+++++++.  ",
"                       .+++++++.  ",
"                       .+++++++.  ",
"                       .+++++++.  ",
"                       .+++++++.  ",
"                       .+++++++.  ",
"                       .+++++++.  ",
"                       ...+++++.  ",
"                         .+++++.  ",
"                         .+++++.  ",
"                         ....++.  ",
"                            .++.  ",
"                            .++.  ",
"                            ....  ",
"                            ....  ",
"                            .++.  ",
"                            .++.  ",
"                         ....++.  ",
"                         .+++++.  ",
"                         .+++++.  ",
"                       ...+++++.  ",
"                       .+++++++.  ",
"                       .+++++++.  ",
"                       .+++++++.  ",
"                       .+++++++.  ",
"                       .+++++++.  ",
"                       .+++++++.  ",
"                       .+++++++.  ",
"                       .+++++++.  ",
"                       .+++++++.  ",
"                       .+++++++.  ",
"                       .+++++++.  ",
"                       .+++++++.  ",
"                       .+++++++.  ",
"                       ...+++++.  ",
"                         .+++++.  ",
"                         ....++.  ",
"                            .++.  ",
"                            .++.  ",
"                            ....  ",
"                                  ",
"                                  ",
"                                  ",
"                                  "};
