/* XPM */
static char * 2_xpm[] = {
"34 60 3 1",
" 	c #FF00FF",
".	c #000000",
"+	c #FFFFFF",
"                                  ",
"                                  ",
"    ..........................    ",
"    .++++++++++++++++++++++++.    ",
"    .++++++++++++++++++++++++...  ",
"    ....++++++++++++++++++...++.  ",
"       .++++++++++++++++++. .++.  ",
"       .++++++++++++++++++...++.  ",
"       ...++++++++++++++..+++++.  ",
"         .++++++++++++++..+++++.  ",
"         ...............+++++++.  ",
"                       .+++++++.  ",
"                       .+++++++.  ",
"                       .+++++++.  ",
"                       .+++++++.  ",
"                       .+++++++.  ",
"                       .+++++++.  ",
"                       .+++++++.  ",
"                       .+++++++.  ",
"                       .+++++++.  ",
"                       .+++++++.  ",
"                       .+++++++.  ",
"                       .+++++++.  ",
"                       ...+++++.  ",
"                         .+++++.  ",
"       ...................+++++.  ",
"       .++++++++++++++++++...++.  ",
"       .++++++++++++++++++. .++.  ",
"    ....++++++++++++++++++...++.  ",
"    .++++++++++++++++++++++++...  ",
"  ...++++++++++++++++++++++++.    ",
"  .++...++++++++++++++++++....    ",
"  .++. .++++++++++++++++++.       ",
"  .++...++++++++++++++++++.       ",
"  .+++++...................       ",
"  .+++++.                         ",
"  .+++++...                       ",
"  .+++++++.                       ",
"  .+++++++.                       ",
"  .+++++++.                       ",
"  .+++++++.                       ",
"  .+++++++.                       ",
"  .+++++++.                       ",
"  .+++++++.                       ",
"  .+++++++.                       ",
"  .+++++++.                       ",
"  .+++++++.                       ",
"  .+++++++.                       ",
"  .+++++++.                       ",
"  .+++++++...............         ",
"  .+++++..++++++++++++++.         ",
"  .+++++..++++++++++++++...       ",
"  .++...++++++++++++++++++.       ",
"  .++. .++++++++++++++++++.       ",
"  .++...++++++++++++++++++....    ",
"  ...++++++++++++++++++++++++.    ",
"    .++++++++++++++++++++++++.    ",
"    ..........................    ",
"                                  ",
"                                  "};
