/* XPM */
static char * 2_xpm[] = {
"34 60 2 1",
" 	c #000000",
".	c #FFFFFF",
"                                  ",
"                                  ",
"                                  ",
"     ........................     ",
"     ........................     ",
"        ..................   ..   ",
"        ..................   ..   ",
"        ..................   ..   ",
"          ..............  .....   ",
"          ..............  .....   ",
"                        .......   ",
"                        .......   ",
"                        .......   ",
"                        .......   ",
"                        .......   ",
"                        .......   ",
"                        .......   ",
"                        .......   ",
"                        .......   ",
"                        .......   ",
"                        .......   ",
"                        .......   ",
"                        .......   ",
"                          .....   ",
"                          .....   ",
"                          .....   ",
"        ..................   ..   ",
"        ..................   ..   ",
"        ..................   ..   ",
"     ........................     ",
"     ........................     ",
"   ..   ..................        ",
"   ..   ..................        ",
"   ..   ..................        ",
"   .....                          ",
"   .....                          ",
"   .....                          ",
"   .......                        ",
"   .......                        ",
"   .......                        ",
"   .......                        ",
"   .......                        ",
"   .......                        ",
"   .......                        ",
"   .......                        ",
"   .......                        ",
"   .......                        ",
"   .......                        ",
"   .......                        ",
"   .......                        ",
"   .....  ..............          ",
"   .....  ..............          ",
"   ..   ..................        ",
"   ..   ..................        ",
"   ..   ..................        ",
"     ........................     ",
"     ........................     ",
"                                  ",
"                                  ",
"                                  "};
