/* XPM */
static char * 6_xpm[] = {
"34 60 2 1",
" 	c #000000",
".	c #FFFFFF",
"                                  ",
"                                  ",
"                                  ",
"     ........................     ",
"     ........................     ",
"   ..   ..................        ",
"   ..   ..................        ",
"   ..   ..................        ",
"   .....  ..............          ",
"   .....  ..............          ",
"   .......                        ",
"   .......                        ",
"   .......                        ",
"   .......                        ",
"   .......                        ",
"   .......                        ",
"   .......                        ",
"   .......                        ",
"   .......                        ",
"   .......                        ",
"   .......                        ",
"   .......                        ",
"   .......                        ",
"   .....                          ",
"   .....                          ",
"   .....                          ",
"   ..   ..................        ",
"   ..   ..................        ",
"   ..   ..................        ",
"     ........................     ",
"     ........................     ",
"   ..   ..................   ..   ",
"   ..   ..................   ..   ",
"   ..   ..................   ..   ",
"   .....                  .....   ",
"   .....                  .....   ",
"   .....                  .....   ",
"   .......              .......   ",
"   .......              .......   ",
"   .......              .......   ",
"   .......              .......   ",
"   .......              .......   ",
"   .......              .......   ",
"   .......              .......   ",
"   .......              .......   ",
"   .......              .......   ",
"   .......              .......   ",
"   .......              .......   ",
"   .......              .......   ",
"   .......              .......   ",
"   .....  ..............  .....   ",
"   .....  ..............  .....   ",
"   ..   ..................   ..   ",
"   ..   ..................   ..   ",
"   ..   ..................   ..   ",
"     ........................     ",
"     ........................     ",
"                                  ",
"                                  ",
"                                  "};
