/* XPM */
static char * 7_xpm[] = {
"34 60 2 1",
" 	c #000000",
".	c #FFFFFF",
"                                  ",
"                                  ",
"                                  ",
"     ........................     ",
"     ........................     ",
"        ..................   ..   ",
"        ..................   ..   ",
"        ..................   ..   ",
"          ..............  .....   ",
"          ..............  .....   ",
"                        .......   ",
"                        .......   ",
"                        .......   ",
"                        .......   ",
"                        .......   ",
"                        .......   ",
"                        .......   ",
"                        .......   ",
"                        .......   ",
"                        .......   ",
"                        .......   ",
"                        .......   ",
"                        .......   ",
"                          .....   ",
"                          .....   ",
"                          .....   ",
"                             ..   ",
"                             ..   ",
"                             ..   ",
"                                  ",
"                                  ",
"                             ..   ",
"                             ..   ",
"                             ..   ",
"                          .....   ",
"                          .....   ",
"                          .....   ",
"                        .......   ",
"                        .......   ",
"                        .......   ",
"                        .......   ",
"                        .......   ",
"                        .......   ",
"                        .......   ",
"                        .......   ",
"                        .......   ",
"                        .......   ",
"                        .......   ",
"                        .......   ",
"                        .......   ",
"                          .....   ",
"                          .....   ",
"                             ..   ",
"                             ..   ",
"                             ..   ",
"                                  ",
"                                  ",
"                                  ",
"                                  ",
"                                  "};
