/* XPM */
static char * hp_0_xpm[] = {
"180 60 3 1",
" 	c #FF00FF",
".	c #FF0000",
"+	c #000000",
"                                                                                                                                                                                    ",
"                                                                                                                                                                                    ",
"                                                                                                                                                                                    ",
"                                                                                                                                                                                    ",
"                                                                                                                                                                                    ",
"                                                                                                                                                                                    ",
"                                                                                                                                                                                    ",
"                                                                                                                                                                                    ",
"                       .......                                                                 +++++++                                                                              ",
"                      .........                                                               +++++++++                                                                             ",
"                     ...........                                                             +++++++++++                                                                            ",
"                     ...........                                                             +++++++++++                                      +++++++                               ",
"                     ...........                                                             +++++++++++                                     +++++++++                              ",
"                     ...........                                                             +++++++++++                                    +++++++++++                             ",
"                     ...........                                                             +++++++++++                                    +++++++++++                             ",
"                     ...........                                                             +++++++++++                                    +++++++++++                             ",
"                     ...........                                                             +++++++++++                                    +++++++++++                             ",
"                     ...........                                                             +++++++++++                                    +++++++++++                             ",
"                     ...........                                                             +++++++++++                                    +++++++++++                             ",
"                     ...........                                                            ++++++++++++                                    +++++++++++                             ",
"                     ...........                                                            ++++++++++++                                    +++++++++++                             ",
"                     ...........                                                            ++++++++++++                                    +++++++++++                             ",
"                     ...........                                                            ++++++++++++                                    +++++++++++                             ",
"                     ...........                                                            ++++++++++++                                   ++++++++++++                             ",
"                     ...........                                                            ++++++++++++                                   ++++++++++++                             ",
"                     ...........                                                           ++++++++++++                                    ++++++++++++                             ",
"                     ...........                                                           ++++++++++++                                    ++++++++++++                             ",
"                     ...........                                                           ++++++++++++                                    ++++++++++++                             ",
"                     ...........                                                           ++++++++++++                                    ++++++++++++                             ",
"                     ...........                                                           ++++++++++++                                    +++++++++++                              ",
"                     ...........                                                          +++++++++++++                                    +++++++++++                              ",
"                     ...........                                                          ++++++++++++                                     +++++++++++                              ",
"                     ...........                                                          ++++++++++++                                     +++++++++++                              ",
"                     ...........                                                          ++++++++++++                                     +++++++++++                              ",
"                     ...........                                                          ++++++++++++                                     +++++++++++                              ",
"                     ...........                                                          ++++++++++++                                     +++++++++++                              ",
"                     ...........                                                          +++++++++++                                      +++++++++++                              ",
"                     ...........                                                          +++++++++++                                      +++++++++++                              ",
"                     ...........                                                          +++++++++++                                      +++++++++++                              ",
"                     ...........                                                          +++++++++++                                      +++++++++++                              ",
"                     ...........                                                          +++++++++++                                      +++++++++++                              ",
"                     ...........                                                          +++++++++++                                      +++++++++++                              ",
"                      .........                                                           +++++++++++                                      +++++++++++                              ",
"                       .......                                                             +++++++++                                       +++++++++++                              ",
"                                                                                            +++++++                                         +++++++++                               ",
"                                                                                                                                             +++++++                                ",
"                                                                                                                                                                                    ",
"                                                                                                                                                                                    ",
"                                                                                                                                                                                    ",
"                                                                                                                                                                                    ",
"                                                                                                                                                                                    ",
"                                                                                                                                                                                    ",
"                                                                                                                                                                                    ",
"                                                                                                                                                                                    ",
"                                                                                                                                                                                    ",
"                                                                                                                                                                                    ",
"                                                                                                                                                                                    ",
"                                                                                                                                                                                    ",
"                                                                                                                                                                                    ",
"                                                                                                                                                                                    "};
