/* XPM */
static char * hp_0_xpm[] = {
"180 60 7 1",
" 	c #FF00FF",
".	c #000000",
"+	c #FF0000",
"@	c #6B0000",
"#	c #2E2E2E",
"$	c #252525",
"%	c #FFFFFF",
"                                                                                                                                                                                    ",
"                                                                                                                                                                                    ",
"                                                                                                                                                                                    ",
"                                                                                                                                                                                    ",
"                                                                                                                                                                                    ",
"                                                                                                                                                                                    ",
"                                                                                                                                                                                    ",
"               ............            ............                     ............            ............                     ............            ............               ",
"               ............            ............                     ............            ............                     ............            ............               ",
"               ............            ............                     ............            ............                     ............            ............               ",
"               ............            ............                     ............            ............                     ............            ............               ",
"           ....++++++++++++....    ....++++++++@@@@....             ....############....    ....########$$$$....             ....############....    ....########$$$$....           ",
"           ....++++++++++++....    ....++++++++@@@@....             ....############....    ....########$$$$....             ....############....    ....########$$$$....           ",
"           ....++++++++++++....    ....++++++++@@@@....             ....############....    ....########$$$$....             ....############....    ....########$$$$....           ",
"           ....++++++++++++....    ....++++++++@@@@....             ....############....    ....########$$$$....             ....############....    ....########$$$$....           ",
"       ....++++%%%%%%%%++++++++....++++++++++++++++@@@@....     ....####%%%%%%%%########....################$$$$....     ....####%%%%%%%%########....################$$$$....       ",
"       ....++++%%%%%%%%++++++++....++++++++++++++++@@@@....     ....####%%%%%%%%########....################$$$$....     ....####%%%%%%%%########....################$$$$....       ",
"       ....++++%%%%%%%%++++++++....++++++++++++++++@@@@....     ....####%%%%%%%%########....################$$$$....     ....####%%%%%%%%########....################$$$$....       ",
"       ....++++%%%%%%%%++++++++....++++++++++++++++@@@@....     ....####%%%%%%%%########....################$$$$....     ....####%%%%%%%%########....################$$$$....       ",
"       ....++++%%%%++++++++++++++++++++++++++++++++@@@@....     ....####%%%%################################$$$$....     ....####%%%%################################$$$$....       ",
"       ....++++%%%%++++++++++++++++++++++++++++++++@@@@....     ....####%%%%################################$$$$....     ....####%%%%################################$$$$....       ",
"       ....++++%%%%++++++++++++++++++++++++++++++++@@@@....     ....####%%%%################################$$$$....     ....####%%%%################################$$$$....       ",
"       ....++++%%%%++++++++++++++++++++++++++++++++@@@@....     ....####%%%%################################$$$$....     ....####%%%%################################$$$$....       ",
"       ....++++++++++++++++++++++++++++++++++++++++@@@@....     ....########################################$$$$....     ....########################################$$$$....       ",
"       ....++++++++++++++++++++++++++++++++++++++++@@@@....     ....########################################$$$$....     ....########################################$$$$....       ",
"       ....++++++++++++++++++++++++++++++++++++++++@@@@....     ....########################################$$$$....     ....########################################$$$$....       ",
"       ....++++++++++++++++++++++++++++++++++++++++@@@@....     ....########################################$$$$....     ....########################################$$$$....       ",
"       ....++++%%%%++++++++++++++++++++++++++++++++@@@@....     ....####%%%%################################$$$$....     ....####%%%%################################$$$$....       ",
"       ....++++%%%%++++++++++++++++++++++++++++++++@@@@....     ....####%%%%################################$$$$....     ....####%%%%################################$$$$....       ",
"       ....++++%%%%++++++++++++++++++++++++++++++++@@@@....     ....####%%%%################################$$$$....     ....####%%%%################################$$$$....       ",
"       ....++++%%%%++++++++++++++++++++++++++++++++@@@@....     ....####%%%%################################$$$$....     ....####%%%%################################$$$$....       ",
"           ....++++++++++++++++++++++++++++++++@@@@....             ....################################$$$$....             ....################################$$$$....           ",
"           ....++++++++++++++++++++++++++++++++@@@@....             ....################################$$$$....             ....################################$$$$....           ",
"           ....++++++++++++++++++++++++++++++++@@@@....             ....################################$$$$....             ....################################$$$$....           ",
"           ....++++++++++++++++++++++++++++++++@@@@....             ....################################$$$$....             ....################################$$$$....           ",
"               ....++++++++++++++++++++++++@@@@....                     ....########################$$$$....                     ....########################$$$$....               ",
"               ....++++++++++++++++++++++++@@@@....                     ....########################$$$$....                     ....########################$$$$....               ",
"               ....++++++++++++++++++++++++@@@@....                     ....########################$$$$....                     ....########################$$$$....               ",
"               ....++++++++++++++++++++++++@@@@....                     ....########################$$$$....                     ....########################$$$$....               ",
"                   ....++++++++++++++++@@@@....                             ....################$$$$....                             ....################$$$$....                   ",
"                   ....++++++++++++++++@@@@....                             ....################$$$$....                             ....################$$$$....                   ",
"                   ....++++++++++++++++@@@@....                             ....################$$$$....                             ....################$$$$....                   ",
"                   ....++++++++++++++++@@@@....                             ....################$$$$....                             ....################$$$$....                   ",
"                       ....++++++++@@@@....                                     ....########$$$$....                                     ....########$$$$....                       ",
"                       ....++++++++@@@@....                                     ....########$$$$....                                     ....########$$$$....                       ",
"                       ....++++++++@@@@....                                     ....########$$$$....                                     ....########$$$$....                       ",
"                       ....++++++++@@@@....                                     ....########$$$$....                                     ....########$$$$....                       ",
"                           ....@@@@....                                             ....$$$$....                                             ....$$$$....                           ",
"                           ....@@@@....                                             ....$$$$....                                             ....$$$$....                           ",
"                           ....@@@@....                                             ....$$$$....                                             ....$$$$....                           ",
"                           ....@@@@....                                             ....$$$$....                                             ....$$$$....                           ",
"                               ....                                                     ....                                                     ....                               ",
"                               ....                                                     ....                                                     ....                               ",
"                               ....                                                     ....                                                     ....                               ",
"                               ....                                                     ....                                                     ....                               ",
"                                                                                                                                                                                    ",
"                                                                                                                                                                                    ",
"                                                                                                                                                                                    ",
"                                                                                                                                                                                    ",
"                                                                                                                                                                                    "};
