/* XPM */
static char * hp_2_xpm[] = {
"180 60 5 1",
" 	c #FF00FF",
".	c #000000",
"+	c #FF0000",
"@	c #6B0000",
"#	c #FFFFFF",
"                                                                                                                                                                                    ",
"                                                                                                                                                                                    ",
"                                                                                                                                                                                    ",
"                                                                                                                                                                                    ",
"                                                                                                                                                                                    ",
"                                                                                                                                                                                    ",
"                                                                                                                                                                                    ",
"               ............            ............                     ............            ............                     ............            ............               ",
"               ............            ............                     ............            ............                     ............            ............               ",
"               ............            ............                     ............            ............                     ............            ............               ",
"               ............            ............                     ............            ............                     ............            ............               ",
"           ....++++++++++++....    ....++++++++@@@@....             ....++++++++++++....    ....++++++++@@@@....             ....++++++++++++....    ....++++++++@@@@....           ",
"           ....++++++++++++....    ....++++++++@@@@....             ....++++++++++++....    ....++++++++@@@@....             ....++++++++++++....    ....++++++++@@@@....           ",
"           ....++++++++++++....    ....++++++++@@@@....             ....++++++++++++....    ....++++++++@@@@....             ....++++++++++++....    ....++++++++@@@@....           ",
"           ....++++++++++++....    ....++++++++@@@@....             ....++++++++++++....    ....++++++++@@@@....             ....++++++++++++....    ....++++++++@@@@....           ",
"       ....++++########++++++++....++++++++++++++++@@@@....     ....++++########++++++++....++++++++++++++++@@@@....     ....++++########++++++++....++++++++++++++++@@@@....       ",
"       ....++++########++++++++....++++++++++++++++@@@@....     ....++++########++++++++....++++++++++++++++@@@@....     ....++++########++++++++....++++++++++++++++@@@@....       ",
"       ....++++########++++++++....++++++++++++++++@@@@....     ....++++########++++++++....++++++++++++++++@@@@....     ....++++########++++++++....++++++++++++++++@@@@....       ",
"       ....++++########++++++++....++++++++++++++++@@@@....     ....++++########++++++++....++++++++++++++++@@@@....     ....++++########++++++++....++++++++++++++++@@@@....       ",
"       ....++++####++++++++++++++++++++++++++++++++@@@@....     ....++++####++++++++++++++++++++++++++++++++@@@@....     ....++++####++++++++++++++++++++++++++++++++@@@@....       ",
"       ....++++####++++++++++++++++++++++++++++++++@@@@....     ....++++####++++++++++++++++++++++++++++++++@@@@....     ....++++####++++++++++++++++++++++++++++++++@@@@....       ",
"       ....++++####++++++++++++++++++++++++++++++++@@@@....     ....++++####++++++++++++++++++++++++++++++++@@@@....     ....++++####++++++++++++++++++++++++++++++++@@@@....       ",
"       ....++++####++++++++++++++++++++++++++++++++@@@@....     ....++++####++++++++++++++++++++++++++++++++@@@@....     ....++++####++++++++++++++++++++++++++++++++@@@@....       ",
"       ....++++++++++++++++++++++++++++++++++++++++@@@@....     ....++++++++++++++++++++++++++++++++++++++++@@@@....     ....++++++++++++++++++++++++++++++++++++++++@@@@....       ",
"       ....++++++++++++++++++++++++++++++++++++++++@@@@....     ....++++++++++++++++++++++++++++++++++++++++@@@@....     ....++++++++++++++++++++++++++++++++++++++++@@@@....       ",
"       ....++++++++++++++++++++++++++++++++++++++++@@@@....     ....++++++++++++++++++++++++++++++++++++++++@@@@....     ....++++++++++++++++++++++++++++++++++++++++@@@@....       ",
"       ....++++++++++++++++++++++++++++++++++++++++@@@@....     ....++++++++++++++++++++++++++++++++++++++++@@@@....     ....++++++++++++++++++++++++++++++++++++++++@@@@....       ",
"       ....++++####++++++++++++++++++++++++++++++++@@@@....     ....++++####++++++++++++++++++++++++++++++++@@@@....     ....++++####++++++++++++++++++++++++++++++++@@@@....       ",
"       ....++++####++++++++++++++++++++++++++++++++@@@@....     ....++++####++++++++++++++++++++++++++++++++@@@@....     ....++++####++++++++++++++++++++++++++++++++@@@@....       ",
"       ....++++####++++++++++++++++++++++++++++++++@@@@....     ....++++####++++++++++++++++++++++++++++++++@@@@....     ....++++####++++++++++++++++++++++++++++++++@@@@....       ",
"       ....++++####++++++++++++++++++++++++++++++++@@@@....     ....++++####++++++++++++++++++++++++++++++++@@@@....     ....++++####++++++++++++++++++++++++++++++++@@@@....       ",
"           ....++++++++++++++++++++++++++++++++@@@@....             ....++++++++++++++++++++++++++++++++@@@@....             ....++++++++++++++++++++++++++++++++@@@@....           ",
"           ....++++++++++++++++++++++++++++++++@@@@....             ....++++++++++++++++++++++++++++++++@@@@....             ....++++++++++++++++++++++++++++++++@@@@....           ",
"           ....++++++++++++++++++++++++++++++++@@@@....             ....++++++++++++++++++++++++++++++++@@@@....             ....++++++++++++++++++++++++++++++++@@@@....           ",
"           ....++++++++++++++++++++++++++++++++@@@@....             ....++++++++++++++++++++++++++++++++@@@@....             ....++++++++++++++++++++++++++++++++@@@@....           ",
"               ....++++++++++++++++++++++++@@@@....                     ....++++++++++++++++++++++++@@@@....                     ....++++++++++++++++++++++++@@@@....               ",
"               ....++++++++++++++++++++++++@@@@....                     ....++++++++++++++++++++++++@@@@....                     ....++++++++++++++++++++++++@@@@....               ",
"               ....++++++++++++++++++++++++@@@@....                     ....++++++++++++++++++++++++@@@@....                     ....++++++++++++++++++++++++@@@@....               ",
"               ....++++++++++++++++++++++++@@@@....                     ....++++++++++++++++++++++++@@@@....                     ....++++++++++++++++++++++++@@@@....               ",
"                   ....++++++++++++++++@@@@....                             ....++++++++++++++++@@@@....                             ....++++++++++++++++@@@@....                   ",
"                   ....++++++++++++++++@@@@....                             ....++++++++++++++++@@@@....                             ....++++++++++++++++@@@@....                   ",
"                   ....++++++++++++++++@@@@....                             ....++++++++++++++++@@@@....                             ....++++++++++++++++@@@@....                   ",
"                   ....++++++++++++++++@@@@....                             ....++++++++++++++++@@@@....                             ....++++++++++++++++@@@@....                   ",
"                       ....++++++++@@@@....                                     ....++++++++@@@@....                                     ....++++++++@@@@....                       ",
"                       ....++++++++@@@@....                                     ....++++++++@@@@....                                     ....++++++++@@@@....                       ",
"                       ....++++++++@@@@....                                     ....++++++++@@@@....                                     ....++++++++@@@@....                       ",
"                       ....++++++++@@@@....                                     ....++++++++@@@@....                                     ....++++++++@@@@....                       ",
"                           ....@@@@....                                             ....@@@@....                                             ....@@@@....                           ",
"                           ....@@@@....                                             ....@@@@....                                             ....@@@@....                           ",
"                           ....@@@@....                                             ....@@@@....                                             ....@@@@....                           ",
"                           ....@@@@....                                             ....@@@@....                                             ....@@@@....                           ",
"                               ....                                                     ....                                                     ....                               ",
"                               ....                                                     ....                                                     ....                               ",
"                               ....                                                     ....                                                     ....                               ",
"                               ....                                                     ....                                                     ....                               ",
"                                                                                                                                                                                    ",
"                                                                                                                                                                                    ",
"                                                                                                                                                                                    ",
"                                                                                                                                                                                    ",
"                                                                                                                                                                                    "};
