/* XPM */
static char * hp_2_xpm[] = {
"180 60 2 1",
" 	c #FF00FF",
".	c #FF0000",
"                                                                                                                                                                                    ",
"                                                                                                                                                                                    ",
"                                                                                                                                                                                    ",
"                                                                                                                                                                                    ",
"                                                                                                                                                                                    ",
"                                                                                                                                                                                    ",
"                                                                                                                                                                                    ",
"                                                                                                                                                                                    ",
"                       .......                                                                 .......                                                                              ",
"                      .........                                                               .........                                                                             ",
"                     ...........                                                             ...........                                                                            ",
"                     ...........                                                             ...........                                      .......                               ",
"                     ...........                                                             ...........                                     .........                              ",
"                     ...........                                                             ...........                                    ...........                             ",
"                     ...........                                                             ...........                                    ...........                             ",
"                     ...........                                                             ...........                                    ...........                             ",
"                     ...........                                                             ...........                                    ...........                             ",
"                     ...........                                                             ...........                                    ...........                             ",
"                     ...........                                                             ...........                                    ...........                             ",
"                     ...........                                                            ............                                    ...........                             ",
"                     ...........                                                            ............                                    ...........                             ",
"                     ...........                                                            ............                                    ...........                             ",
"                     ...........                                                            ............                                   ............                             ",
"                     ...........                                                           .............                                   ............                             ",
"                     ...........                                                           .............                                   ............                             ",
"                     ...........                                                           .............                                   ............                             ",
"                     ...........                                                           .............                                   ............                             ",
"                     ...........                                                          ..............                                   ............                             ",
"                     ...........                                                         ...............                                   ............                             ",
"                     ...........                                                        ................                                   ...........                              ",
"                     ...........                                                        ................                                   ...........                              ",
"                     ...........                                                        ................                                   ...........                              ",
"                     ...........                                                        ...............                                    ...........                              ",
"                     ...........                                                        ...............                                    ...........                              ",
"                     ...........                                                        ...............                                    ...........                              ",
"                     ...........                                                        ..............                                     ............                             ",
"                     ...........                                                         .............                                     ............                             ",
"                     ...........                                                         .............                                     ............                             ",
"                     ...........                                                         .............                                     ............                             ",
"                     ...........                                                         .............                                     ............                             ",
"                     ...........                                                         .............                                     ............                             ",
"                     ...........                                                         .............                                     ............                             ",
"                      .........                                                          .............                                     ............                             ",
"                       .......                                                           ............                                      ............                             ",
"                                                                                          ..........                                       ...........                              ",
"                                                                                           .......                                          .........                               ",
"                                                                                                                                             .......                                ",
"                                                                                                                                                                                    ",
"                                                                                                                                                                                    ",
"                                                                                                                                                                                    ",
"                                                                                                                                                                                    ",
"                                                                                                                                                                                    ",
"                                                                                                                                                                                    ",
"                                                                                                                                                                                    ",
"                                                                                                                                                                                    ",
"                                                                                                                                                                                    ",
"                                                                                                                                                                                    ",
"                                                                                                                                                                                    ",
"                                                                                                                                                                                    ",
"                                                                                                                                                                                    "};
