/* XPM */
static char * sep_xpm[] = {
"17 60 3 1",
" 	c #FF00FF",
".	c #000000",
"+	c #FFFFFF",
"                 ",
"                 ",
"                 ",
"                 ",
"                 ",
"                 ",
"                 ",
"                 ",
"                 ",
"                 ",
"                 ",
"                 ",
"                 ",
"                 ",
"                 ",
"      .....      ",
"      .+++.      ",
"      .+++.      ",
"      .+++.      ",
"      .+++.      ",
"      .+++.      ",
"      .+++.      ",
"      .+++.      ",
"      .+++.      ",
"      .....      ",
"                 ",
"                 ",
"                 ",
"                 ",
"                 ",
"                 ",
"                 ",
"                 ",
"                 ",
"                 ",
"      .....      ",
"      .+++.      ",
"      .+++.      ",
"      .+++.      ",
"      .+++.      ",
"      .+++.      ",
"      .+++.      ",
"      .+++.      ",
"      .+++.      ",
"      .....      ",
"                 ",
"                 ",
"                 ",
"                 ",
"                 ",
"                 ",
"                 ",
"                 ",
"                 ",
"                 ",
"                 ",
"                 ",
"                 ",
"                 ",
"                 "};
