/* XPM */
static char * board_3_xpm[] = {
"100 100 70 1",
" 	c #DBC545",
".	c #2B4F00",
"+	c #8B8B8B",
"@	c #090701",
"#	c #000000",
"$	c #110E02",
"%	c #1B1703",
"&	c #171302",
"*	c #6A6767",
"=	c #726F6F",
"-	c #888787",
";	c #959595",
">	c #6B6868",
",	c #757373",
"'	c #6F6D6D",
")	c #7C7B7B",
"!	c #696666",
"~	c #868585",
"{	c #919191",
"]	c #7E7C7C",
"^	c #727070",
"/	c #7C7A7A",
"(	c #767474",
"_	c #6C6A6A",
":	c #8B8A8A",
"<	c #878787",
"[	c #7E7D7D",
"}	c #797777",
"|	c #919090",
"1	c #828080",
"2	c #6E6B6B",
"3	c #7D7B7B",
"4	c #807E7E",
"5	c #6F6C6C",
"6	c #6D6A6A",
"7	c #7D7C7C",
"8	c #908F8F",
"9	c #747272",
"0	c #909090",
"a	c #7B7979",
"b	c #838282",
"c	c #6D6B6B",
"d	c #747171",
"e	c #716E6E",
"f	c #878686",
"g	c #8C8B8B",
"h	c #848383",
"i	c #7F7E7E",
"j	c #706D6D",
"k	c #787676",
"l	c #828181",
"m	c #898989",
"n	c #777575",
"o	c #949494",
"p	c #8A8989",
"q	c #8F8F8F",
"r	c #6C6969",
"s	c #737272",
"t	c #727171",
"u	c #808080",
"v	c #7A7878",
"w	c #929292",
"x	c #8D8D8D",
"y	c #737171",
"z	c #888888",
"A	c #737070",
"B	c #939393",
"C	c #8D8C8C",
"D	c #7A7979",
"E	c #6C6C6C",
"                                                                                                    ",
"                                                                                                    ",
"                                                                                                    ",
"                                                                                                    ",
"                                                                                                    ",
"                                                                                                    ",
"                                                                                                    ",
"                                                                                                    ",
"                                                                                                    ",
"                                                                                                    ",
".................................................                                                   ",
".................................................                                                   ",
".................................................                                                   ",
".................................................                                                   ",
".................................................                                                   ",
".................................................                                                   ",
".................................................                                                   ",
".................................................                                                   ",
".................................................                                                   ",
".................................................                                                   ",
".................................................                                                   ",
".................................................                                                   ",
".................................................                                                   ",
".................................................                                                   ",
".................................................                                                   ",
".................................................                                                   ",
".................................................                                                   ",
".................................................                                                   ",
".................................................                                                   ",
".................................................                                                   ",
".................................................                                                   ",
".................................................                                                   ",
".................................................                                                   ",
".................................................                                                   ",
".................................................                                                   ",
".................................................                                                   ",
".................................................                                                   ",
".................................................                                                   ",
".................................................                                                   ",
".................................................                                                   ",
".................................................                                                   ",
".................................................                                                   ",
".................................................                                                   ",
".................................................                                                   ",
".................................................                                                   ",
".................................................                                                   ",
".................................................                                                   ",
".................................................                                                   ",
".................................................                                                   ",
".................................................                                                   ",
".................................................                                                   ",
".................................................                                                   ",
".................................................                                                   ",
".................................................                                                   ",
".................................................                                                   ",
".................................................                                                   ",
".................................................                                                   ",
".................................................                                                   ",
".................................................                                                   ",
".................................................                                                   ",
".................................................                                                   ",
".................................................                                                   ",
".................................................                                                   ",
".................................................                                                   ",
".................................................                                                   ",
".................................................                                                   ",
".................................................                                                   ",
".................................................                                                   ",
".................................................                                                   ",
".................................................                                                   ",
".................................................                                                   ",
".................................................                                                   ",
"+++++++++++++++++++++++++++++++++++++++++++++++++                                                   ",
"+++++++++++++++++++++++++++++++++++++++++++++++++                                                   ",
"+++++++++++++++++++++++++++++++++++++++++++++++++                                                   ",
"@###@###########@$%@####################@#@@$$$&$@##################################################",
"*****=-;;-=*>=,'*);;;)***!'~;;{]**^/(_******,:;<[,******}|;;12*'}}'**);;;)3******4;;;4*******,:;;:,*",
"_56**,:;;:,******);;;)****67;;89*^:{0a_*_56*'b||b'*cddc*'b:-,>'b||b'*efgfe**/-/**};;;}**cddc*'b||b'>",
"ahij*'b||b'*'}}'*efgfe>kl(_6}49**/{;;h5_ahij*'}}'*c)mm)c*',=>*,:;;:,**ene**9o;o/*67~76*c)mm)c*'}}'>,",
"0;;i6*'}}'*'b||b'*ene>a;;0a_*****(0;;i6(0;;i6*****dm;;md******=-;;-=*******4;;;p**6'6**dm;;md*****21",
"{;;h5******,:;;:,****2;;;;h5*_56*_ahij*/{;;h5*****dm;;md*>=,'*>,11,>*_(/^**};;;l*******dm;;md*>22>21",
":{0a_*^/(_*=-;;-=****2;;;;i6_ahij*_56**^:{0a_'}}'*c)mm)c>,-:b'*>22>*_a0{:^*6<q<'**94}6*c)mm)c>,11,r,",
"^/(_*^:{0a_>,11,>e))e>n;;ij*(0;;i6******^/(_'b||b'*cddc*21;;|}******5h;;{/**'s'**98;;76*cddc*=-;;-=>",
"*****/{;;h5*>22>ef;;fe>d'6**/{;;h5**********,:;;:,******21;;|}**6'6*6i;;0(**n~bt*]{;;~'******,:;;:,*",
"94}6*(0;;i6*6'6*ng;;gn*>2***^:{0a_*cddc*****=-;;-=*>=,'*>,-:b'*67~76*jiha_*e{;;gt98;;76*e))e*'b||b'*",
"8;;76_ahij*67~76ef;;fe>,u4}6*^/(_*c)mm)ccddc>,11,>>,-:b'*>=,'**};;;}**65_**no;;{v*94}6*ef;;fe*'}}'*'",
"{;;~'*_56**};;;}*e))e*=;;;;76*****dm;;m()mm)c>22>*21;;|}*******4;;;4*******ew;;xy*6'6**ng;;gn******}",
"8;;76*9]9**4;;;4******,;;;;~'*****dm;;mam;;md*****21;;|}**ene**98{89**94}6**,:-,*67~76*ef;;fe*'}}'*}",
"94}6*98{89*98{89*e))e*';;;;76>=,'*c)mm)(m;;md'}}'*>,-:b'*efgfe**9]9**98;;76*_56**};;;}**e))e*'b||b''",
"*****4;;;4**9]9*ef;;fe*'i4}6>,-:b'*cddcc)mm)^b||b'*>=,'**);;;)*******]{;;~'******4;;;4*******,:;;:,*",
"94}6*};;;}**ene*ng;;gn******21;;|}******cddc,:;;:,*******);;;)**',=>*98;;76*}zhA*98{89**nln**=-;;-=*",
"8;;7667~76*efgfeef;;fe*}l)e*21;;|}*'hy*>22>*=-;;-=*6}49**efgfe*'b:-,>*94}6*9B;;CA*9]9**n;;;n*>,11,>^",
"{;;~'*6'6**);;;)*e))e*};;;fe>,-:b'*]gf>,11,>>,11,>67;;89**ene**}|;;12******]o;;{D******l;;;l**>22>*/",
"8;;76*9]9**);;;)******h;;;gn*>=,'**yf*=-;;-=*>22>*'~;;{]*******}|;;12*>22>E9B;;CA*nln**n;;;n**'}}'*(",
"94}6*98{89*efgfe*>=,'*};;;fe**cddc*>y*,:;;:,******67;;89*>=,'**'b:-,>>,11,>*}zhA*n;;;n**nln**'b||b'_",
"*****4;;;4**ene*>,-:b'*}-)e**c)mm)c***'b||b'*',=>**6}49*>,-:b'**',=>*=-;;-=******l;;;l*******,:;;:,*",
"94}6*};;;}**65_*21;;|}*******dm;;md****'}}'*'b:-,>******21;;|}*******,:;;:,*>=,'*n;;;n**'}}'*=-;;-=6",
"8;;7667~76*jiha_21;;|}*'addc*dm;;md*6}49****}|;;12*e))e*21;;|}**e))e*'b||b'*,-:b'*nln**'b||b'>,11,>}",
"{;;~'*6'6*6i;;0(>,-:b'';;mm)cc)mm)c67;;89***}|;;12ef;;fe>,-:b'*ef;;fe*'}}'**1;;|}******,:;;:,*>22>*4",
"8;;76*****5h;;{/*>=,'*,;;;;md*cddc*'~;;{]***'b:-,>ng;;gn*>=,'**ng;;gn*******1;;|}*'}}'*=-;;-=**9]9*9"};
