/* XPM */
static char * board_2_xpm[] = {
"100 100 66 1",
" 	c #DBC545",
".	c #2B4F00",
"+	c #8B8B8B",
"@	c #000000",
"#	c #6A6767",
"$	c #726F6F",
"%	c #888787",
"&	c #959595",
"*	c #6B6868",
"=	c #757373",
"-	c #6F6D6D",
";	c #7C7B7B",
">	c #696666",
",	c #868585",
"'	c #919191",
")	c #7E7C7C",
"!	c #727070",
"~	c #7C7A7A",
"{	c #767474",
"]	c #6C6A6A",
"^	c #8B8A8A",
"/	c #878787",
"(	c #7E7D7D",
"_	c #797777",
":	c #919090",
"<	c #828080",
"[	c #6E6B6B",
"}	c #7D7B7B",
"|	c #807E7E",
"1	c #6F6C6C",
"2	c #6D6A6A",
"3	c #7D7C7C",
"4	c #908F8F",
"5	c #747272",
"6	c #909090",
"7	c #7B7979",
"8	c #838282",
"9	c #6D6B6B",
"0	c #747171",
"a	c #716E6E",
"b	c #878686",
"c	c #8C8B8B",
"d	c #848383",
"e	c #7F7E7E",
"f	c #706D6D",
"g	c #787676",
"h	c #828181",
"i	c #898989",
"j	c #777575",
"k	c #949494",
"l	c #8A8989",
"m	c #8F8F8F",
"n	c #6C6969",
"o	c #737272",
"p	c #727171",
"q	c #808080",
"r	c #7A7878",
"s	c #929292",
"t	c #8D8D8D",
"u	c #737171",
"v	c #888888",
"w	c #737070",
"x	c #939393",
"y	c #8D8C8C",
"z	c #7A7979",
"A	c #6C6C6C",
"                                                                                                    ",
"                                                                                                    ",
"                                                                                                    ",
"                                                                                                    ",
"                                                                                                    ",
"                                                                                                    ",
"                                                                                                    ",
"                                                                                                    ",
"                                                                                                    ",
"                                                                                                    ",
"....................................................................................................",
"....................................................................................................",
"....................................................................................................",
"....................................................................................................",
"....................................................................................................",
"....................................................................................................",
"....................................................................................................",
"....................................................................................................",
"....................................................................................................",
"....................................................................................................",
"....................................................................................................",
"....................................................................................................",
"....................................................................................................",
"....................................................................................................",
"....................................................................................................",
"....................................................................................................",
"....................................................................................................",
"....................................................................................................",
"....................................................................................................",
"....................................................................................................",
"....................................................................................................",
"....................................................................................................",
"....................................................................................................",
"....................................................................................................",
"....................................................................................................",
"....................................................................................................",
"....................................................................................................",
"....................................................................................................",
"....................................................................................................",
"....................................................................................................",
"....................................................................................................",
"....................................................................................................",
"....................................................................................................",
"....................................................................................................",
"....................................................................................................",
"....................................................................................................",
"....................................................................................................",
"....................................................................................................",
"....................................................................................................",
"....................................................................................................",
"....................................................................................................",
"....................................................................................................",
"....................................................................................................",
"....................................................................................................",
"....................................................................................................",
"....................................................................................................",
"....................................................................................................",
"....................................................................................................",
"....................................................................................................",
"....................................................................................................",
"....................................................................................................",
"....................................................................................................",
"....................................................................................................",
"....................................................................................................",
"....................................................................................................",
"....................................................................................................",
"....................................................................................................",
"....................................................................................................",
"....................................................................................................",
"....................................................................................................",
"....................................................................................................",
"....................................................................................................",
"++++++++++++++++++++++++++++++++++++++++++++++++++++++++++++++++++++++++++++++++++++++++++++++++++++",
"++++++++++++++++++++++++++++++++++++++++++++++++++++++++++++++++++++++++++++++++++++++++++++++++++++",
"++++++++++++++++++++++++++++++++++++++++++++++++++++++++++++++++++++++++++++++++++++++++++++++++++++",
"@@@@@@@@@@@@@@@@@@@@@@@@@@@@@@@@@@@@@@@@@@@@@@@@@@@@@@@@@@@@@@@@@@@@@@@@@@@@@@@@@@@@@@@@@@@@@@@@@@@@",
"#####$%&&%$#*$=-#;&&&;###>-,&&')##!~{]######=^&/(=######_:&&<[#-__-##;&&&;}######|&&&|#######=^&&^=#",
"]12##=^&&^=######;&&&;####23&&45#!^'67]#]12#-8::8-#9009#-8^%=*-8::8-#abcba##~%~##_&&&_##9009#-8::8-*",
"7def#-8::8-#-__-#abcba*gh{]2_|5##~'&&d1]7def#-__-#9;ii;9#-=$*#=^&&^=##aja##5k&k~#23,32#9;ii;9#-__-*=",
"6&&e2#-__-#-8::8-#aja*7&&67]#####{6&&e2{6&&e2#####0i&&i0######$%&&%$#######|&&&l##2-2##0i&&i0#####[<",
"'&&d1######=^&&^=####[&&&&d1#]12#]7def#~'&&d1#####0i&&i0#*$=-#*=<<=*#]{~!##_&&&h#######0i&&i0#*[[*[<",
"^'67]#!~{]#$%&&%$####[&&&&e2]7def#]12##!^'67]-__-#9;ii;9*=%^8-#*[[*#]76'^!#2/m/-##5|_2#9;ii;9*=<<=n=",
"!~{]#!^'67]*=<<=*a;;a*j&&ef#{6&&e2######!~{]-8::8-#9009#[<&&:_######1d&&'~##-o-##54&&32#9009#$%&&%$*",
"#####~'&&d1#*[[*ab&&ba*0-2##~'&&d1##########=^&&^=######[<&&:_##2-2#2e&&6{##j,8p#)'&&,-######=^&&^=#",
"5|_2#{6&&e2#2-2#jc&&cj#*[###!^'67]#9009#####$%&&%$#*$=-#*=%^8-#23,32#fed7]#a'&&cp54&&32#a;;a#-8::8-#",
"4&&32]7def#23,32ab&&ba*=q|_2#!~{]#9;ii;99009*=<<=**=%^8-#*$=-##_&&&_##21]##jk&&'r#5|_2#ab&&ba#-__-#-",
"'&&,-#]12##_&&&_#a;;a#$&&&&32#####0i&&i{;ii;9*[[*#[<&&:_#######|&&&|#######as&&tu#2-2##jc&&cj######_",
"4&&32#5)5##|&&&|######=&&&&,-#####0i&&i7i&&i0#####[<&&:_##aja##54'45##5|_2##=^%=#23,32#ab&&ba#-__-#_",
"5|_2#54'45#54'45#a;;a#-&&&&32*$=-#9;ii;{i&&i0-__-#*=%^8-#abcba##5)5##54&&32#]12##_&&&_##a;;a#-8::8--",
"#####|&&&|##5)5#ab&&ba#-e|_2*=%^8-#90099;ii;!8::8-#*$=-##;&&&;#######)'&&,-######|&&&|#######=^&&^=#",
"5|_2#_&&&_##aja#jc&&cj######[<&&:_######9009=^&&^=#######;&&&;##-=$*#54&&32#_vdw#54'45##jhj##$%&&%$#",
"4&&3223,32#abcbaab&&ba#_h;a#[<&&:_#-du#*[[*#$%&&%$#2_|5##abcba#-8^%=*#5|_2#5x&&yw#5)5##j&&&j#*=<<=*!",
"'&&,-#2-2##;&&&;#a;;a#_&&&ba*=%^8-#)cb*=<<=**=<<=*23&&45##aja##_:&&<[######)k&&'z######h&&&h##*[[*#~",
"4&&32#5)5##;&&&;######d&&&cj#*$=-##ub#$%&&%$#*[[*#-,&&')#######_:&&<[#*[[*A5x&&yw#jhj##j&&&j##-__-#{",
"5|_2#54'45#abcba#*$=-#_&&&ba##9009#*u#=^&&^=######23&&45#*$=-##-8^%=**=<<=*#_vdw#j&&&j##jhj##-8::8-]",
"#####|&&&|##aja#*=%^8-#_%;a##9;ii;9###-8::8-#-=$*##2_|5#*=%^8-##-=$*#$%&&%$######h&&&h#######=^&&^=#",
"5|_2#_&&&_##21]#[<&&:_#######0i&&i0####-__-#-8^%=*######[<&&:_#######=^&&^=#*$=-#j&&&j##-__-#$%&&%$2",
"4&&3223,32#fed7][<&&:_#-7009#0i&&i0#2_|5####_:&&<[#a;;a#[<&&:_##a;;a#-8::8-#=%^8-#jhj##-8::8-*=<<=*_",
"'&&,-#2-2#2e&&6{*=%^8--&&ii;99;ii;923&&45###_:&&<[ab&&ba*=%^8-#ab&&ba#-__-##<&&:_######=^&&^=#*[[*#|",
"4&&32#####1d&&'~#*$=-#=&&&&i0#9009#-,&&')###-8^%=*jc&&cj#*$=-##jc&&cj#######<&&:_#-__-#$%&&%$##5)5#5"};
