/* XPM */
static char * board_3_xpm[] = {
"100 100 3 1",
" 	c #DBC545",
".	c #2B4F00",
"+	c #8B8B8B",
"                                                                                                    ",
"                                                                                                    ",
"                                                                                                    ",
"                                                                                                    ",
"                                                                                                    ",
"                                                                                                    ",
"                                                                                                    ",
"                                                                                                    ",
"                                                                                                    ",
"                                                                                                    ",
".................................................                                                   ",
".................................................                                                   ",
".................................................                                                   ",
".................................................                                                   ",
".................................................                                                   ",
".................................................                                                   ",
".................................................                                                   ",
".................................................                                                   ",
".................................................                                                   ",
".................................................                                                   ",
".................................................                                                   ",
".................................................                                                   ",
".................................................                                                   ",
".................................................                                                   ",
".................................................                                                   ",
".................................................                                                   ",
".................................................                                                   ",
".................................................                                                   ",
".................................................                                                   ",
".................................................                                                   ",
".................................................                                                   ",
".................................................                                                   ",
".................................................                                                   ",
".................................................                                                   ",
".................................................                                                   ",
".................................................                                                   ",
".................................................                                                   ",
".................................................                                                   ",
".................................................                                                   ",
".................................................                                                   ",
".................................................                                                   ",
".................................................                                                   ",
".................................................                                                   ",
".................................................                                                   ",
".................................................                                                   ",
".................................................                                                   ",
".................................................                                                   ",
".................................................                                                   ",
".................................................                                                   ",
".................................................                                                   ",
".................................................                                                   ",
".................................................                                                   ",
".................................................                                                   ",
".................................................                                                   ",
".................................................                                                   ",
".................................................                                                   ",
".................................................                                                   ",
".................................................                                                   ",
".................................................                                                   ",
".................................................                                                   ",
".................................................                                                   ",
".................................................                                                   ",
".................................................                                                   ",
".................................................                                                   ",
".................................................                                                   ",
".................................................                                                   ",
".................................................                                                   ",
".................................................                                                   ",
".................................................                                                   ",
".................................................                                                   ",
".................................................                                                   ",
".................................................                                                   ",
"+++++++++++++++++++++++++++++++++++++++++++++++++                                                   ",
"+++++++++++++++++++++++++++++++++++++++++++++++++                                                   ",
"+++++++++++++++++++++++++++++++++++++++++++++++++                                                   ",
"                                                                                                    ",
"                                                                                                    ",
"                                                                                                    ",
"                                                                                                    ",
"                                                                                                    ",
"                                                                                                    ",
"                                                                                                    ",
"                                                                                                    ",
"                                                                                                    ",
"                                                                                                    ",
"                                                                                                    ",
"                                                                                                    ",
"                                                                                                    ",
"                                                                                                    ",
"                                                                                                    ",
"                                                                                                    ",
"                                                                                                    ",
"                                                                                                    ",
"                                                                                                    ",
"                                                                                                    ",
"                                                                                                    ",
"                                                                                                    ",
"                                                                                                    ",
"                                                                                                    ",
"                                                                                                    "};
