/* XPM */
static char * board_1_xpm[] = {
"100 100 70 1",
" 	c #DBC545",
".	c #2B4F00",
"+	c #8B8B8B",
"@	c #000000",
"#	c #090701",
"$	c #110E02",
"%	c #6A6767",
"&	c #726F6F",
"*	c #888787",
"=	c #959595",
"-	c #6B6868",
";	c #757373",
">	c #6F6D6D",
",	c #7C7B7B",
"'	c #696666",
")	c #868585",
"!	c #919191",
"~	c #7E7C7C",
"{	c #727070",
"]	c #7C7A7A",
"^	c #767474",
"/	c #6C6A6A",
"(	c #8B8A8A",
"_	c #878787",
":	c #7E7D7D",
"<	c #797777",
"[	c #919090",
"}	c #828080",
"|	c #6E6B6B",
"1	c #7D7B7B",
"2	c #807E7E",
"3	c #6F6C6C",
"4	c #6D6A6A",
"5	c #7D7C7C",
"6	c #908F8F",
"7	c #747272",
"8	c #909090",
"9	c #7B7979",
"0	c #838282",
"a	c #6D6B6B",
"b	c #747171",
"c	c #716E6E",
"d	c #878686",
"e	c #8C8B8B",
"f	c #848383",
"g	c #7F7E7E",
"h	c #706D6D",
"i	c #787676",
"j	c #828181",
"k	c #898989",
"l	c #777575",
"m	c #949494",
"n	c #6C6867",
"o	c #8A8989",
"p	c #8A8A89",
"q	c #8F8F8F",
"r	c #6C6969",
"s	c #737272",
"t	c #727171",
"u	c #808080",
"v	c #7A7878",
"w	c #929292",
"x	c #8D8D8D",
"y	c #737171",
"z	c #888888",
"A	c #737070",
"B	c #939393",
"C	c #8D8C8C",
"D	c #7A7979",
"E	c #6C6C6C",
"                                                                                                    ",
"                                                                                                    ",
"                                                                                                    ",
"                                                                                                    ",
"                                                                                                    ",
"                                                                                                    ",
"                                                                                                    ",
"                                                                                                    ",
"                                                                                                    ",
"                                                                                                    ",
"                                                 ...................................................",
"                                                 ...................................................",
"                                                 ...................................................",
"                                                 ...................................................",
"                                                 ...................................................",
"                                                 ...................................................",
"                                                 ...................................................",
"                                                 ...................................................",
"                                                 ...................................................",
"                                                 ...................................................",
"                                                 ...................................................",
"                                                 ...................................................",
"                                                 ...................................................",
"                                                 ...................................................",
"                                                 ...................................................",
"                                                 ...................................................",
"                                                 ...................................................",
"                                                 ...................................................",
"                                                 ...................................................",
"                                                 ...................................................",
"                                                 ...................................................",
"                                                 ...................................................",
"                                                 ...................................................",
"                                                 ...................................................",
"                                                 ...................................................",
"                                                 ...................................................",
"                                                 ...................................................",
"                                                 ...................................................",
"                                                 ...................................................",
"                                                 ...................................................",
"                                                 ...................................................",
"                                                 ...................................................",
"                                                 ...................................................",
"                                                 ...................................................",
"                                                 ...................................................",
"                                                 ...................................................",
"                                                 ...................................................",
"                                                 ...................................................",
"                                                 ...................................................",
"                                                 ...................................................",
"                                                 ...................................................",
"                                                 ...................................................",
"                                                 ...................................................",
"                                                 ...................................................",
"                                                 ...................................................",
"                                                 ...................................................",
"                                                 ...................................................",
"                                                 ...................................................",
"                                                 ...................................................",
"                                                 ...................................................",
"                                                 ...................................................",
"                                                 ...................................................",
"                                                 ...................................................",
"                                                 ...................................................",
"                                                 ...................................................",
"                                                 ...................................................",
"                                                 ...................................................",
"                                                 ...................................................",
"                                                 ...................................................",
"                                                 ...................................................",
"                                                 ...................................................",
"                                                 ...................................................",
"                                                 +++++++++++++++++++++++++++++++++++++++++++++++++++",
"                                                 +++++++++++++++++++++++++++++++++++++++++++++++++++",
"                                                 +++++++++++++++++++++++++++++++++++++++++++++++++++",
"@@@@@@@@@@@@@@@@@@@@@@@@@@@@@@@@@@@@@@@@@@@@@@@@@@@@@@@@#@@@@@#$@@@#@@##@#@##@@@@@@@@@@@@@@@@@@@@@@@",
"%%%%%&*==*&%-&;>%,===,%%%'>)==!~%%{]^/%%%%%%;(=_:;%%%%%%<[==}|%><<>%%,===,1%%%%%%2===2%%%%%%%;(==(;%",
"/34%%;(==(;%%%%%%,===,%%%%45==67%{(!89/%/34%>0[[0>%abba%>0(*;->0[[0>%cdedc%%]*]%%<===<%%abba%>0[[0>-",
"9fgh%>0[[0>%><<>%cdedc-ij^/4<27%%]!==f3/9fgh%><<>%a,kk,a%>;&-%;(==(;%%clc%%7m=m]%45)54%a,kk,a%><<>-;",
"8==g4%><<>%>0[[0>%clc-9==89/%%%%%^8==g4^8==g4%%%%%bk==kb%%%%%%&*==*&%%%%nn%2===o%%4>4%%bp==kb%%%%%|}",
"!==f3%%%%%%;(==(;%%%%|====f3%/34%/9fgh%]!==f3%%%%%bk==kb%-&;>%-;}};-%/^]{%%<===j%%%%%%%bk==kb%-||-|}",
"(!89/%{]^/%&*==*&%%%%|====g4/9fgh%/34%%{(!89/><<>%a,kk,a-;*(0>%-||-%/98!({%4_q_>%%72<4%a,kk,a-;}};r;",
"{]^/%{(!89/-;}};-c,,c-l==gh%^8==g4%%%%%%{]^/>0[[0>%abba%|}==[<%%%%%%3f==!]%%>s>%%76==54%abba%&*==*&-",
"%%%%%]!==f3%-||-cd==dc-b>4%%]!==f3%%%%%%%%%%;(==(;%%%%%%|}==[<%%4>4%4g==8^%%l)0t%~!==)>%%%%%%;(==(;%",
"72<4%^8==g4%4>4%le==el%-|%%%{(!89/%abba%%%%%&*==*&%-&;>%-;*(0>%45)54%hgf9/%c!==et76==54%c,,c%>0[[0>%",
"6==54/9fgh%45)54cd==dc-;u2<4%{]^/%a,kk,aabba-;}};--;*(0>%-&;>%%<===<%%43/%%lm==!v%72<4%cd==dc%><<>%>",
"!==)>%/34%%<===<%c,,c%&====54%%%%%bk==k^,kk,a-||-%|}==[<%%%%%%%2===2%%%%%%%cw==xy%4>4%%le==el%%%%%%<",
"6==54%7~7%%2===2%%%%%%;====)>%%%%%bk==k9k==kb%%%%%|}==[<%%clc%%76!67%%72<4%%;(*;%45)54%cd==dc%><<>%<",
"72<4%76!67%76!67%c,,c%>====54-&;>%a,kk,^k==kb><<>%-;*(0>%cdedc%%7~7%%76==54%/34%%<===<%%c,,c%>0[[0>>",
"%%%%%2===2%%7~7%cd==dc%>g2<4-;*(0>%abbaa,kk,{0[[0>%-&;>%%,===,%%%%%%%~!==)>%%%%%%2===2%%%%%%%;(==(;%",
"72<4%<===<%%clc%le==el%%%%%%|}==[<%%%%%%abba;(==(;%%%%%%%,===,%%>;&-%76==54%<zfA%76!67%%ljl%%&*==*&%",
"6==5445)54%cdedccd==dc%<j,c%|}==[<%>fy%-||-%&*==*&%4<27%%cdedc%>0(*;-%72<4%7B==CA%7~7%%l===l%-;}};-{",
"!==)>%4>4%%,===,%c,,c%<===dc-;*(0>%~ed-;}};--;}};-45==67%%clc%%<[==}|%%%%%%~m==!D%%%%%%j===j%%-||-%]",
"6==54%7~7%%,===,%%%%%%f===el%-&;>%%yd%&*==*&%-||-%>)==!~%%%%%%%<[==}|%-||-E7B==CA%ljl%%l===l%%><<>%^",
"72<4%76!67%cdedc%-&;>%<===dc%%abba%-y%;(==(;%%%%%%45==67%-&;>%%>0(*;--;}};-%<zfA%l===l%%ljl%%>0[[0>/",
"%%%%%2===2%%clc%-;*(0>%<*,c%%a,kk,a%%%>0[[0>%>;&-%%4<27%-;*(0>%%>;&-%&*==*&%%%%%%j===j%%%%%%%;(==(;%",
"72<4%<===<%%43/%|}==[<%%%%%%%bk==kb%%%%><<>%>0(*;-%%%%%%|}==[<%%%%%%%;(==(;%-&;>%l===l%%><<>%&*==*&4",
"6==5445)54%hgf9/|}==[<%>9bba%bk==kb%4<27%%%%<[==}|%c,,c%|}==[<%%c,,c%>0[[0>%;*(0>%ljl%%>0[[0>-;}};-<",
"!==)>%4>4%4g==8^-;*(0>>==kk,aa,kk,a45==67%%%<[==}|cd==dc-;*(0>%cd==dc%><<>%%}==[<%%%%%%;(==(;%-||-%2",
"6==54%%%%%3f==!]%-&;>%;====kb%abba%>)==!~%%%>0(*;-le==el%-&;>%%le==el%%%%%%%}==[<%><<>%&*==*&%%7~7%7"};
