/* XPM */
static char * doorc_xpm[] = {
"100 100 70 1",
" 	c #DBC545",
".	c #DAC445",
"+	c #D9C444",
"@	c #000000",
"#	c #F2E38F",
"$	c #D7C143",
"%	c #FF00FF",
"&	c #F0E18D",
"*	c #F1E28E",
"=	c #110E02",
"-	c #EEE08D",
";	c #F0E18E",
">	c #F1E38F",
",	c #D9C344",
"'	c #D7C24D",
")	c #DBC546",
"!	c #131107",
"~	c #070602",
"{	c #030302",
"]	c #090803",
"^	c #D9C34A",
"/	c #060606",
"(	c #050505",
"_	c #171302",
":	c #0F0D05",
"<	c #7D7D7D",
"[	c #D9D9D9",
"}	c #1B190B",
"|	c #B1B1B1",
"1	c #F4F4F4",
"2	c #FEFEFE",
"3	c #5A5A59",
"4	c #A4A4A4",
"5	c #CCCCCC",
"6	c #FFFFFF",
"7	c #F9F9F9",
"8	c #010101",
"9	c #090701",
"0	c #959595",
"a	c #1E1B0D",
"b	c #C0C0C0",
"c	c #F6F6F6",
"d	c #FCFCFC",
"e	c #141207",
"f	c #585858",
"g	c #F2F2F2",
"h	c #FDFDFD",
"i	c #EFEFEF",
"j	c #E0E0E0",
"k	c #FBFBFB",
"l	c #949494",
"m	c #050402",
"n	c #131207",
"o	c #C9C9C9",
"p	c #F5F5F5",
"q	c #949393",
"r	c #110E06",
"s	c #020100",
"t	c #020201",
"u	c #999793",
"v	c #969694",
"w	c #969595",
"x	c #D8C244",
"y	c #0B0A04",
"z	c #9A9892",
"A	c #1F1C0E",
"B	c #100E06",
"C	c #030201",
"D	c #100E05",
"E	c #0B0A03",
"                                                                                                    ",
"                                                                                                    ",
"                                                                                                    ",
"                                                                                                    ",
"                                                                                                    ",
"                                                                                                    ",
"                                                                                                    ",
"            ..+  .  .                            . .                                                ",
"            @@@@@@@@@@@@@@@@@@@@@@@@@@@@@@@@@@@@@@@@@@@@@@@@@@@@@@@@@@@@@@@@@@@@@@@@@@@@            ",
"            @######################################@###################################@            ",
"            @######################################@###################################@            ",
"            @######################################@###################################@            ",
"            @######################################@###################################@            ",
"           $@######################################@###################################@            ",
"            @######################################@###################################@            ",
"            @######################################@###################################@            ",
"            @######@@@@@@@@@@@@@@@@@@@@@@@#########@#####@@@@@@@@@@@@@@@@@@@@@@@#######@            ",
"            @######@%%%%%%%%%%%%%%%%%%%%%@#########@#####@%%%%%%%%%%%%%%%%%%%%%@#######@            ",
"            @######@%%%%%%%%%%%%%%%%%%%%%@#########@#####@%%%%%%%%%%%%%%%%%%%%%@#######@            ",
"            @######@%%%%%%%%%%%%%%%%%%%%%@#########@#####@%%%%%%%%%%%%%%%%%%%%%@&######@            ",
"            @######@%%%%%%%%%%%%%%%%%%%%%@#########@#####@%%%%%%%%%%%%%%%%%%%%%@*######@            ",
"            =######@%%%%%%%%%%%%%%%%%%%%%@#########@#####@%%%%%%%%%%%%%%%%%%%%%@#######@            ",
"            @######@%%%%%%%%%%%%%%%%%%%%%@-########@#####@%%%%%%%%%%%%%%%%%%%%%@;######@            ",
"            @######@%%%%%%%%%%%%%%%%%%%%%@>########@#####@%%%%%%%%%%%%%%%%%%%%%@>######@,           ",
"            @######@%%%%%%%%%%%%%%%%%%%%%@#########@#####@%%%%%%%%%%%%%%%%%%%%%@#######@,           ",
"            @######@%%%%%%%%%%%%%%%%%%%%%@#########@#####@%%%%%%%%%%%%%%%%%%%%%@#######@            ",
"            @######@%%%%%%%%%%%%%%%%%%%%%@#########@#####@%%%%%%%%%%%%%%%%%%%%%@#######@            ",
"            @######@%%%%%%%%%%%%%%%%%%%%%@#########@#####@%%%%%%%%%%%%%%%%%%%%%@#######@+           ",
"            @######@%%%%%%%%%%%%%%%%%%%%%@#########@#####@%%%%%%%%%%%%%%%%%%%%%@#######@,           ",
"            @######@%%%%%%%%%%%%%%%%%%%%%@#########@#####@%%%%%%%%%%%%%%%%%%%%%@#######@            ",
"            @######@%%%%%%%%%%%%%%%%%%%%%@#########@#####@%%%%%%%%%%%%%%%%%%%%%@#######@            ",
"            @######@@@@@@@@@@@@@@@@@@@@@@@#########@#####@%%%%%%%%%%%%%%%%%%%%%@#######@            ",
"            @######################################@#####@@@@@@@@@@@@@@@@@@@@@@@#######@            ",
"            @######################################@#################;>################@            ",
"            @######################################@###################################@            ",
"            @######################################@###################################@            ",
"            @######################################@###################################@.           ",
"            @######################################@###################################@            ",
"            @######################################@###################################@            ",
"            @######################################@###################################@            ",
"            @######################################@###################################@            ",
"            @######################################@###################################@.           ",
"            @######################################@###################################@            ",
"           .@######################################@###################################@            ",
"            @######################################@###################################@            ",
"            @######################################@###################################@            ",
"            @######################################@###################################@            ",
"            @######################################@###################################@            ",
"            @######################################@###################################@            ",
"            @######################################@###################################@,           ",
"            @######################################@###################################@.           ",
"            @######################################@###################################@.           ",
"            @######################################@###################################@            ",
"            @######################################@###################################@            ",
"            @######################################@###################################@            ",
"            @######################################@###################################@.           ",
"            @######################################@###################################@            ",
"            @######################################@###################################@            ",
"'  )        @################################@@@###@###!@~{]###########################@      ^    )",
"@/(@@@_     @###############################:<[@@##@##}@|123@##########################@    .@@@@@@@",
"45667|89    @##############################~{270@##@#@a00bcde8#########################@    @f4ghi|0",
"00j6kil8@   @##############################@0000m]#@#@0000000n#########################@   @9oogp000",
"000000ql9   @##############################r00000s#@#t0000000@#########################@   @u0000000",
"000000vw@x  @##############################yy0000]#@#@0000000@#########################@   @z0000000",
"00000000@x .@###############################A@@B@##@#@@000000@#########################@   @00000000",
"000000v@@  .@######################################@##CD@000@@#########################@   @@0000000",
"000000@@    @######################################@####@E@@@##########################@    @@000000",
"@@@@@@@     @######################################@###################################@     @@@@@@@",
"            @######################################@###################################@            ",
"            @######################################@###################################@            ",
"            @######################################@###################################@            ",
"            @######################################@###################################@            ",
"            @######################################@###################################@            ",
"            @######################################@###################################@            ",
"            @######################################@###################################@            ",
"            @######################################9###################################@            ",
"            @######################################@###################################@            ",
"           .@######################################@###################################@            ",
"            @######################################@###################################@            ",
"            @######################################@###################################@            ",
"            @######################################@###################################@            ",
"            @######################################@###################################@            ",
"           ,@######################################@###################################@            ",
"            @######################################@###################################@,           ",
"            @######################################@###################################@.           ",
"            @######################################@###################################@            ",
"            @######################################@###################################@.           ",
"            @######################################@###################################@            ",
"            @######################################@###################################@            ",
"            @######################################@###################################@.           ",
"           .@######################################@###################################@            ",
"           ,@######################################@###################################@.           ",
"            @######################################@###################################@.           ",
"            @######################################@###################################@            ",
"            @######################################@###################################@            ",
"            @######################################@###################################@            ",
"            @######################################@###################################@            ",
"            @######################################@###################################@            ",
"            @######################################@###################################@            ",
"            @######################################@###################################@            "};
