/* XPM */
static char * dooro_xpm[] = {
"100 100 37 1",
" 	c #DBC545",
".	c #DAC445",
"+	c #D9C444",
"@	c #000000",
"#	c #FF00FF",
"$	c #D7C143",
"%	c #110E02",
"&	c #D9C344",
"*	c #D7C24D",
"=	c #DBC546",
"-	c #D9C34A",
";	c #060606",
">	c #050505",
",	c #171302",
"'	c #A4A4A4",
")	c #CCCCCC",
"!	c #FFFFFF",
"~	c #F9F9F9",
"{	c #B1B1B1",
"]	c #010101",
"^	c #090701",
"/	c #585858",
"(	c #F2F2F2",
"_	c #FDFDFD",
":	c #EFEFEF",
"<	c #959595",
"[	c #E0E0E0",
"}	c #FBFBFB",
"|	c #949494",
"1	c #C9C9C9",
"2	c #F5F5F5",
"3	c #949393",
"4	c #999793",
"5	c #969694",
"6	c #969595",
"7	c #D8C244",
"8	c #9A9892",
"                                                                                                    ",
"                                                                                                    ",
"                                                                                                    ",
"                                                                                                    ",
"                                                                                                    ",
"                                                                                                    ",
"                                                                                                    ",
"            ..+  .  .                            . .                                                ",
"            @@@@@@@@@@@@@@@@@@@@@@@@@@@@@@@@@@@@@@@@@@@@@@@@@@@@@@@@@@@@@@@@@@@@@@@@@@@@            ",
"            @##########################################################################@            ",
"            @##########################################################################@            ",
"            @##########################################################################@            ",
"            @##########################################################################@            ",
"           $@##########################################################################@            ",
"            @##########################################################################@            ",
"            @##########################################################################@            ",
"            @##########################################################################@            ",
"            @##########################################################################@            ",
"            @##########################################################################@            ",
"            @##########################################################################@            ",
"            @##########################################################################@            ",
"            %##########################################################################@            ",
"            @##########################################################################@            ",
"            @##########################################################################@&           ",
"            @##########################################################################@&           ",
"            @##########################################################################@            ",
"            @##########################################################################@            ",
"            @##########################################################################@+           ",
"            @##########################################################################@&           ",
"            @##########################################################################@            ",
"            @##########################################################################@            ",
"            @##########################################################################@            ",
"            @##########################################################################@            ",
"            @##########################################################################@            ",
"            @##########################################################################@            ",
"            @##########################################################################@            ",
"            @##########################################################################@.           ",
"            @##########################################################################@            ",
"            @##########################################################################@            ",
"            @##########################################################################@            ",
"            @##########################################################################@            ",
"            @##########################################################################@.           ",
"            @##########################################################################@            ",
"           .@##########################################################################@            ",
"            @##########################################################################@            ",
"            @##########################################################################@            ",
"            @##########################################################################@            ",
"            @##########################################################################@            ",
"            @##########################################################################@            ",
"            @##########################################################################@&           ",
"            @##########################################################################@.           ",
"            @##########################################################################@.           ",
"            @##########################################################################@            ",
"            @##########################################################################@            ",
"            @##########################################################################@            ",
"            @##########################################################################@.           ",
"            @##########################################################################@            ",
"            @##########################################################################@            ",
"*  =        @##########################################################################@      -    =",
"@;>@@@,     @##########################################################################@    .@@@@@@@",
"')!!~{]^    @##########################################################################@    @/'(_:{<",
"<<[!}:|]@   @##########################################################################@   @^11(2<<<",
"<<<<<<3|^   @##########################################################################@   @4<<<<<<<",
"<<<<<<56@7  @##########################################################################@   @8<<<<<<<",
"<<<<<<<<@7 .@##########################################################################@   @<<<<<<<<",
"<<<<<<5@@  .@##########################################################################@   @@<<<<<<<",
"<<<<<<@@    @##########################################################################@    @@<<<<<<",
"@@@@@@@     @##########################################################################@     @@@@@@@",
"            @##########################################################################@            ",
"            @##########################################################################@            ",
"            @##########################################################################@            ",
"            @##########################################################################@            ",
"            @##########################################################################@            ",
"            @##########################################################################@            ",
"            @##########################################################################@            ",
"            @##########################################################################@            ",
"            @##########################################################################@            ",
"           .@##########################################################################@            ",
"            @##########################################################################@            ",
"            @##########################################################################@            ",
"            @##########################################################################@            ",
"            @##########################################################################@            ",
"           &@##########################################################################@            ",
"            @##########################################################################@&           ",
"            @##########################################################################@.           ",
"            @##########################################################################@            ",
"            @##########################################################################@.           ",
"            @##########################################################################@            ",
"            @##########################################################################@            ",
"            @##########################################################################@.           ",
"           .@##########################################################################@            ",
"           &@##########################################################################@.           ",
"            @##########################################################################@.           ",
"            @##########################################################################@            ",
"            @##########################################################################@            ",
"            @##########################################################################@            ",
"            @##########################################################################@            ",
"            @##########################################################################@            ",
"            @##########################################################################@            ",
"            @##########################################################################@            "};
