/* XPM */
static char * fence_xpm[] = {
"100 100 2 1",
" 	c #FF00FF",
".	c #6F6F6F",
"                                                                                                    ",
"                                                                                                    ",
"                                                                                                    ",
"                                                                                                    ",
"                                                                                                    ",
"                                                                                                    ",
"                                                                                                    ",
"                                                                                                    ",
"                                                                                                    ",
"                                                                                                    ",
"                                                                                                    ",
"                                                                                                    ",
"                                                                                                    ",
"                                                                                                    ",
"                                                                                                    ",
"....................................................................................................",
"....................................................................................................",
"....................................................................................................",
"....................................................................................................",
"                                                                                                    ",
"                                                                                                    ",
"                                                                                                    ",
"                                                                                                    ",
"         .                                                                                          ",
"       ...                                                                                          ",
"      .            ....         .    .       ..                                                     ",
"     .             .   .             .       .                                                      ",
"    ..            .    .             .       .          .          .                                ",
"    .             .  ...            ..      .          ..         .       ......                    ",
"    .             ....         .    .       .          ..        .        .    ..                   ",
"    ..    .....  . .          ..    .       .         .  .      ..        .                         ",
"     .   ..      .  .         .     .       .         .  .      .         .                         ",
"      ....       .   .        .     .       .        .   .      .        .                          ",
"                 .    .       .     .       .        .....     ..        .......                    ",
"                 .     ..     .     ..      .   .    .    .    .   ....  .                          ",
"                        ..   ..      ....   .....   .     .    .   ..    .                          ",
"                             .                      .     .    .....     .                          ",
"                                                    .     .              .........                  ",
"                                                                                                    ",
"                                                                                                    ",
"                                                                                                    ",
"                                                                                                    ",
"                                                                                                    ",
"                                                                                                    ",
"                                                                                                    ",
"                                                                                                    ",
"                                                                                                    ",
"                                                                                                    ",
"                                                                                                    ",
"                                                                                                    ",
"                                                                                                    ",
"                                                                                                    ",
"                                                                                                    ",
"                                                                                                    ",
"                                                                                                    ",
"                                                                                                    ",
"                                                                                                    ",
"                                                                                                    ",
"                                                                                                    ",
"                                                                                                    ",
"                                                                                                    ",
"                                                                                                    ",
"            ............  .        ....         ....                                                ",
"                   .    ...       .   ...       .   ..        ...                                   ",
"                   .            ..       .      .    ..     ...                                     ",
"                   .            .        .      .     ..   .   ..                                   ",
"                   .           .         ..     .      .  .      .                                  ",
"                   .           .          .    .       .  .       .                                 ",
"                   .           .          .    .      .. .        .                                 ",
"                   .           .         ..    .      .  .        .                                 ",
"                   .           .         .     .     ..  .        .                                 ",
"                   .            .      ..      .    ..   .        .                                 ",
"                   .             ......        .   ..    ..      ..                                 ",
"                   .                           ....       .......                                   ",
"                   .                                                                                ",
"                                                                                                    ",
"                                                                                                    ",
"                                                                                                    ",
"                                                                                                    ",
"                                                                                                    ",
"                                                                                                    ",
"                                                                                                    ",
"                                                                                                    ",
"                                                                                                    ",
"                                                                                                    ",
"                                                                                                    ",
"                                                                                                    ",
"                                                                                                    ",
"                                                                                                    ",
"                                                                                                    ",
"                                                                                                    ",
"                                                                                                    ",
"                                                                                                    ",
"                                                                                                    ",
"                                                                                                    ",
"                                                                                                    ",
"                                                                                                    ",
"                                                                                                    ",
"                                                                                                    ",
"                                                                                                    "};
