/* XPM */
static char * floor_xpm[] = {
"100 100 2 1",
" 	c #000000",
".	c #FFFFFF",
"                                                  ..................................................",
"                                                  ..................................................",
"                                                  ..................................................",
"                                                  ..................................................",
"                                                  ..................................................",
"                                                  ..................................................",
"                                                  ..................................................",
"                                                  ..................................................",
"                                                  ..................................................",
"                                                  ..................................................",
"                                                  ..................................................",
"                                                  ..................................................",
"                                                  ..................................................",
"                                                  ..................................................",
"                                                  ..................................................",
"                                                  ..................................................",
"                                                  ..................................................",
"                                                  ..................................................",
"                                                  ..................................................",
"                                                  ..................................................",
"                                                  ..................................................",
"                                                  ..................................................",
"                                                  ..................................................",
"                                                  ..................................................",
"                                                  ..................................................",
"                                                  ..................................................",
"                                                  ..................................................",
"                                                  ..................................................",
"                                                  ..................................................",
"                                                  ..................................................",
"                                                  ..................................................",
"                                                  ..................................................",
"                                                  ..................................................",
"                                                  ..................................................",
"                                                  ..................................................",
"                                                  ..................................................",
"                                                  ..................................................",
"                                                  ..................................................",
"                                                  ..................................................",
"                                                  ..................................................",
"                                                  ..................................................",
"                                                  ..................................................",
"                                                  ..................................................",
"                                                  ..................................................",
"                                                  ..................................................",
"                                                  ..................................................",
"                                                  ..................................................",
"                                                  ..................................................",
"                                                  ..................................................",
"                                                  ..................................................",
"..................................................                                                  ",
"..................................................                                                  ",
"..................................................                                                  ",
"..................................................                                                  ",
"..................................................                                                  ",
"..................................................                                                  ",
"..................................................                                                  ",
"..................................................                                                  ",
"..................................................                                                  ",
"..................................................                                                  ",
"..................................................                                                  ",
"..................................................                                                  ",
"..................................................                                                  ",
"..................................................                                                  ",
"..................................................                                                  ",
"..................................................                                                  ",
"..................................................                                                  ",
"..................................................                                                  ",
"..................................................                                                  ",
"..................................................                                                  ",
"..................................................                                                  ",
"..................................................                                                  ",
"..................................................                                                  ",
"..................................................                                                  ",
"..................................................                                                  ",
"..................................................                                                  ",
"..................................................                                                  ",
"..................................................                                                  ",
"..................................................                                                  ",
"..................................................                                                  ",
"..................................................                                                  ",
"..................................................                                                  ",
"..................................................                                                  ",
"..................................................                                                  ",
"..................................................                                                  ",
"..................................................                                                  ",
"..................................................                                                  ",
"..................................................                                                  ",
"..................................................                                                  ",
"..................................................                                                  ",
"..................................................                                                  ",
"..................................................                                                  ",
"..................................................                                                  ",
"..................................................                                                  ",
"..................................................                                                  ",
"..................................................                                                  ",
"..................................................                                                  ",
"..................................................                                                  ",
"..................................................                                                  ",
"..................................................                                                  "};
