/* XPM */
static char * floor_trapdoor_xpm[] = {
"100 100 5 1",
" 	c #C5C5C5",
".	c #FFFFFF",
"+	c #000000",
"@	c #969696",
"#	c #B1B1B1",
"                         .........................                         .........................",
"                         .........................                         .........................",
"                         .........................                         .........................",
"                         .........................                         .........................",
"                         .........................                         .........................",
"                         .........................                         .........................",
"                         .........................                         .........................",
"                         .........................                         .........................",
"                         .........................                         .........................",
"                         .........................                         .........................",
"                         .........................                         .........................",
"                         .........................                         .........................",
"                         .........................                         .........................",
"                         .........................                         .........................",
"                         .........................                         .........................",
"                         .........................                         .........................",
"                         .........................                         .........................",
"                         .........................                         .........................",
"                         .........................                         .........................",
"                         .........................                         .........................",
"                         .........................                         .........................",
"                         .........................                         .........................",
"                         .........................                         .........................",
"                         .........................                         .........................",
"                         .........................                         .........................",
".........................++++++++++++++++++++++++++++++++++++++++++++++++++                         ",
".........................+@@@@@@@@@@@@@@@@@@@@@@@@########################+                         ",
".........................+@@@@@@@@@@@@@@@@@@@@@@@@########################+                         ",
".........................+@@@@@@@@@@@@@@@@@@@@@@@@########################+                         ",
".........................+@@@@@@@@@@@@@@@@@@@@@@@@########################+                         ",
".........................+@@@@@@@@@@@@@@@@@@@@@@@@########################+                         ",
".........................+@@@@@@@@@@@@@@@@@@@@@@@@########################+                         ",
".........................+@@@@@@@@@@@@@@@@@@@@@@@@########################+                         ",
".........................+@@@@@@@@@@@@@@@@@@@@@@@@########################+                         ",
".........................+@@@@@@@@@@@@@@@@@@@@@@@@########################+                         ",
".........................+@@@@@@@@@@@@@@@@@@@@@@@@########################+                         ",
".........................+@@@@@@@@@@@@@@@@@@@@@@@@########################+                         ",
".........................+@@@@@@@@@@@@@@@@@@@@@@@@########################+                         ",
".........................+@@@@@@@@@@@@@@@@@@@@@@@@########################+                         ",
".........................+@@@@@@@@@@@@@@@@@@@@@@@@########################+                         ",
".........................+@@@@@@@@@@@@@@@@@@@@@@@@########################+                         ",
".........................+@@@@@@@@@@@@@@@@@@@@@@@@########################+                         ",
".........................+@@@@@@@@@@@@@@@@@@@@@@@@########################+                         ",
".........................+@@@@@@@@@@@@@@@@@@@@@@@@########################+                         ",
".........................+@@@@@@@@@@@@@@@@@@@@@@@@########################+                         ",
".........................+@@@@@@@@@@@@@@@@@@@@@@@@########################+                         ",
".........................+@@@@@@@@@@@@@@@@@@@@@@@@########################+                         ",
".........................+@+@@@@@++++@@@@@@@@@@@@@########################+                         ",
".........................+@++@@@++++++@@@@@@@@@@@@########################+                         ",
".........................+@+++++++++++@@@@@@@@@@@@########################+                         ",
"                         +#+++++++++++############@@@@@@@@@@@@@@@@@@@@@@@@+.........................",
"                         +#++###++++++############@@@@@@@@@@@@@@@@@@@@@@@@+.........................",
"                         +#+#####++++#############@@@@@@@@@@@@@@@@@@@@@@@@+.........................",
"                         +########################@@@@@@@@@@@@@@@@@@@@@@@@+.........................",
"                         +########################@@@@@@@@@@@@@@@@@@@@@@@@+.........................",
"                         +########################@@@@@@@@@@@@@@@@@@@@@@@@+.........................",
"                         +########################@@@@@@@@@@@@@@@@@@@@@@@@+.........................",
"                         +########################@@@@@@@@@@@@@@@@@@@@@@@@+.........................",
"                         +########################@@@@@@@@@@@@@@@@@@@@@@@@+.........................",
"                         +########################@@@@@@@@@@@@@@@@@@@@@@@@+.........................",
"                         +########################@@@@@@@@@@@@@@@@@@@@@@@@+.........................",
"                         +########################@@@@@@@@@@@@@@@@@@@@@@@@+.........................",
"                         +########################@@@@@@@@@@@@@@@@@@@@@@@@+.........................",
"                         +########################@@@@@@@@@@@@@@@@@@@@@@@@+.........................",
"                         +########################@@@@@@@@@@@@@@@@@@@@@@@@+.........................",
"                         +########################@@@@@@@@@@@@@@@@@@@@@@@@+.........................",
"                         +########################@@@@@@@@@@@@@@@@@@@@@@@@+.........................",
"                         +########################@@@@@@@@@@@@@@@@@@@@@@@@+.........................",
"                         +########################@@@@@@@@@@@@@@@@@@@@@@@@+.........................",
"                         +########################@@@@@@@@@@@@@@@@@@@@@@@@+.........................",
"                         +########################@@@@@@@@@@@@@@@@@@@@@@@@+.........................",
"                         +########################@@@@@@@@@@@@@@@@@@@@@@@@+.........................",
"                         +########################@@@@@@@@@@@@@@@@@@@@@@@@+.........................",
"                         +########################@@@@@@@@@@@@@@@@@@@@@@@@+.........................",
"                         ++++++++++++++++++++++++++++++++++++++++++++++++++.........................",
".........................                         .........................                         ",
".........................                         .........................                         ",
".........................                         .........................                         ",
".........................                         .........................                         ",
".........................                         .........................                         ",
".........................                         .........................                         ",
".........................                         .........................                         ",
".........................                         .........................                         ",
".........................                         .........................                         ",
".........................                         .........................                         ",
".........................                         .........................                         ",
".........................                         .........................                         ",
".........................                         .........................                         ",
".........................                         .........................                         ",
".........................                         .........................                         ",
".........................                         .........................                         ",
".........................                         .........................                         ",
".........................                         .........................                         ",
".........................                         .........................                         ",
".........................                         .........................                         ",
".........................                         .........................                         ",
".........................                         .........................                         ",
".........................                         .........................                         ",
".........................                         .........................                         ",
".........................                         .........................                         "};
