/* XPM */
static char * floor_xpm[] = {
"100 100 2 1",
" 	c #C5C5C5",
".	c #FFFFFF",
"                         .........................                         .........................",
"                         .........................                         .........................",
"                         .........................                         .........................",
"                         .........................                         .........................",
"                         .........................                         .........................",
"                         .........................                         .........................",
"                         .........................                         .........................",
"                         .........................                         .........................",
"                         .........................                         .........................",
"                         .........................                         .........................",
"                         .........................                         .........................",
"                         .........................                         .........................",
"                         .........................                         .........................",
"                         .........................                         .........................",
"                         .........................                         .........................",
"                         .........................                         .........................",
"                         .........................                         .........................",
"                         .........................                         .........................",
"                         .........................                         .........................",
"                         .........................                         .........................",
"                         .........................                         .........................",
"                         .........................                         .........................",
"                         .........................                         .........................",
"                         .........................                         .........................",
"                         .........................                         .........................",
".........................                         .........................                         ",
".........................                         .........................                         ",
".........................                         .........................                         ",
".........................                         .........................                         ",
".........................                         .........................                         ",
".........................                         .........................                         ",
".........................                         .........................                         ",
".........................                         .........................                         ",
".........................                         .........................                         ",
".........................                         .........................                         ",
".........................                         .........................                         ",
".........................                         .........................                         ",
".........................                         .........................                         ",
".........................                         .........................                         ",
".........................                         .........................                         ",
".........................                         .........................                         ",
".........................                         .........................                         ",
".........................                         .........................                         ",
".........................                         .........................                         ",
".........................                         .........................                         ",
".........................                         .........................                         ",
".........................                         .........................                         ",
".........................                         .........................                         ",
".........................                         .........................                         ",
".........................                         .........................                         ",
"                         .........................                         .........................",
"                         .........................                         .........................",
"                         .........................                         .........................",
"                         .........................                         .........................",
"                         .........................                         .........................",
"                         .........................                         .........................",
"                         .........................                         .........................",
"                         .........................                         .........................",
"                         .........................                         .........................",
"                         .........................                         .........................",
"                         .........................                         .........................",
"                         .........................                         .........................",
"                         .........................                         .........................",
"                         .........................                         .........................",
"                         .........................                         .........................",
"                         .........................                         .........................",
"                         .........................                         .........................",
"                         .........................                         .........................",
"                         .........................                         .........................",
"                         .........................                         .........................",
"                         .........................                         .........................",
"                         .........................                         .........................",
"                         .........................                         .........................",
"                         .........................                         .........................",
"                         .........................                         .........................",
".........................                         .........................                         ",
".........................                         .........................                         ",
".........................                         .........................                         ",
".........................                         .........................                         ",
".........................                         .........................                         ",
".........................                         .........................                         ",
".........................                         .........................                         ",
".........................                         .........................                         ",
".........................                         .........................                         ",
".........................                         .........................                         ",
".........................                         .........................                         ",
".........................                         .........................                         ",
".........................                         .........................                         ",
".........................                         .........................                         ",
".........................                         .........................                         ",
".........................                         .........................                         ",
".........................                         .........................                         ",
".........................                         .........................                         ",
".........................                         .........................                         ",
".........................                         .........................                         ",
".........................                         .........................                         ",
".........................                         .........................                         ",
".........................                         .........................                         ",
".........................                         .........................                         ",
".........................                         .........................                         "};
