/* XPM */
static char * grass_xpm[] = {
"100 100 55 1",
" 	c #006005",
".	c #006D05",
"+	c #00A208",
"@	c #006105",
"#	c #006C05",
"$	c #006705",
"%	c #006205",
"&	c #006B05",
"*	c #006A05",
"=	c #008107",
"-	c #006305",
";	c #006405",
">	c #006805",
",	c #006505",
"'	c #007506",
")	c #006605",
"!	c #009707",
"~	c #006905",
"{	c #008407",
"]	c #006F05",
"^	c #009207",
"/	c #007E06",
"(	c #007F06",
"_	c #009307",
":	c #008C07",
"<	c #00A108",
"[	c #007606",
"}	c #006C06",
"|	c #006E06",
"1	c #006D06",
"2	c #008B07",
"3	c #009708",
"4	c #008F07",
"5	c #008807",
"6	c #008907",
"7	c #009007",
"8	c #009507",
"9	c #006F06",
"0	c #009607",
"a	c #007106",
"b	c #007906",
"c	c #008E07",
"d	c #007D06",
"e	c #00A008",
"f	c #007806",
"g	c #006B06",
"h	c #008207",
"i	c #007706",
"j	c #008707",
"k	c #008507",
"l	c #009407",
"m	c #008A07",
"n	c #007306",
"o	c #009908",
"p	c #008106",
"     ..                 .+.    ..     ..      +  +     .+   ....                   .                ",
"   .  ..        .      @       ..     #.   $ %&* = .  %%    ####  @             @ . @               ",
"   ..  ...       .  %  % #     ##     &&   - ; > ; .$, ;-- &&&&## .@ @@@@       % .                 ",
"    ..   .           @@-@###  ## #    &.   ;', $,- - $)  ;.**&!&&&..    @               @           ",
"       .  .              ,  #   &     ..  ;,,  );  %  $) >. ****&& ..%  $               %           ",
"       .            @    $# &   &&&   -.   ,       %  $$$.,;~ ****& &                   .           ",
"            @       @     % &&             )$      %   {$..,>  ~*****        @@@@@     #]]          ",
"                    @ @   &%&& .*          $$      @-  .)$))>> ~~~  **          @@   ###-]          ",
"     .    @            %   %** ^           />         ;.,.$( >>> ~ ~***         @@@     ##       @@ ",
"     .    @    #   &    %    _   ~        )).~~    #  ;.>.$$   >>~~~            %%@             @@@ ",
"      .            &    %       ~~         ,,~**   #& *..>.      >  ;            %%             @@@ ",
"     ..            &            :       )      &&#.# &* ;,>.   $>>>>;            %&&&##         % @ ",
"     .              &       ~   ,      )).>      #.  %**~.>.. $$   >         -                  %   ",
"             #              ~~  ,     ))>.>~~        % * ;, ,    $$>                            %@  ",
"  <      # #..                  ,    ))  ,.~**&    # % *  [,  ))$$    ,,;;         &    ##       %@@",
"       # # @.    }                  )) ,,;;   %~   ##%%!   ;,,)        ,            &&   #          ",
"    @  ##  %      |- -;;                ,    %%%      %.    ,,           >~~        ..% &&      #   ",
"    @@     %                            ;     %@       %-             )  >>~        1.!        ##.  ",
"    @@                  ~>            >:                             ).$>> >2         &3        #   ",
"     @         -         >>            ~4*                          ).. $>56>    ;         %        ",
"   @@@         .       ,  >)         ~  7^*8&&#                    ...$$$$      ;;         %@       ",
".   @@        9      ;,,   )       , ~  *  0     ..            ~>>>,)$$        ;;        %%..      .",
".             -a     , ,, ))       ,   .-..&     ...#        -;;~>  ,)$.$$    ,.~        %&.%#      ",
"     @         -;;   , ,  )$       ;   * *%%       .#     & -- ;     ,).)     ,>>        -%.&&      ",
"   @@@    & *-*~~   ,, )    $     ;;   b.& %    @         & -- ;;    ,,$$    $..>    ;    %%&  @@@. ",
"    @@   &****~~;;  .,      $      ;;--91%%%        -;#   &  -  ;~     >$  $$$)>>    ;;        @@@@ ",
"..  @@   &    c ~   >.)) $$$>      ;  -|%  %@@    .  ;,   && -  -~   >>>>$))$./d>>  ;;;       %@@@@.",
".  @       *    >                  -  -1%    @@   .< @@    & -- --   ~>6 ,)  $$.$> ,,;;      %%%@@@ ",
"    @        ;;,       )              -    @@ @@   .e@@       - .-    ~f,,    $  $., ,;     -% %@@@ ",
"   @@         >>                      %!&  @  @@ . .e@@       %-.*     ;f ,   )$$ 2. ,,    --  % @@ ",
"  @@%                       ;        %&&  @  .@  . ..@@  #    g%       ;  ,     $h .,,,    --- %  @ ",
"  @ %                                 && %@@@@   .. .]@              ;;; i       $ $ ,,,  ;-   %% @ ",
"   @%             $$     >~                @@     . ..  #          9--;;;' >     ) h$    ;;;-**&%@@ ",
"   @%        j$  $.$   >> ~       -        ,      .  .              - - ;;       ) $$    ,; .     @ ",
"    & *     ,)$  .$   >> ~        %%     @,               @         - - ;;      ,) )      ,.~.      ",
"     **    ,)))$$$$  ,> ~~~**     %%                     @@@        1--  -      ,  )$      ;;~.*& @@",
"         >>,))$$ $>  >~~~~***            @                @@       %%-   --;;;;,,,,$$   )   ; -. %@ ",
"          >d $$  >   ~   ***                      .                * %     -;;;; ,  $$  .   ,.~+    ",
" #  **   > (  { >>,; ~  --**           @          .     @          ~%.&    -  ;;;       .    .d* %%@",
".  &*~~ >$ =$   >  ;.~**-.*                                         %.%g% -            ).$)   /+-%  ",
".   *~>>$$  k>5>> ;;. ^_- &&&              #             @      #   %& %  %-           , ..   >;-  #",
".  *~~>$$$    >  ;;-.-l*    &               .                @;##   @%%~  %%   -      ,,  .$       #",
".@&*~m> $)    . ;;--.-*& &&&&          @@                   @-;      @@   %&% --*     [  ,)       0#",
". *  j{$/    ;;..---.&&  &          @;@@@                    @-      @    %.%%%%**    n; ,,       *#",
"  *~   )     ;-..--%% &&&&           -@                                          & *   ; ;          ",
"   >$ .,    ----%.o.%% ##    #                                                      &  --           ",
"    $d.>   ---%%%%%.%@@      # @@    .                                            &&&           +.; ",
"    $>~~   %%%%%%@@@@.. #     @                                           #                    .+p. ",
"    ~ **   %%@@@@@@@@@@e##                                                                    -./ $;",
"    &&&     @@-@@                @                               .       @@            ##     ~%8  $",
".    .+   ....                   .                     ..                 .+.    ..     ..      +  +",
" .  %%    ####  @             @ . @                  .  ..        .      @       ..     #.   $ %&* p",
" .$, ;-- &&&&## .@ @@@@       % .                    ..  ...       .  %  % #     ##     &&   - ; > ;",
" - $)  ;.**&!&&&..    @               @               ..   .           @@-@###  ## #    &.   ;', $,-",
" %  $) >. ****&& ..%  $               %                  .  .              ,  #   &     ..  ;,,  ); ",
" %  $$$.,;~ ****& &                   .                  .            @    $# &   &&&   -.   ,      ",
" %   {$..,>  ~*****        @@@@@     #]]                      @       @     % &&             )$     ",
" @-  .)$))>> ~~~  **          @@   ###-]                              @ @   &%&& .*          $$     ",
"    ;.,.$( >>> ~ ~***         @@@     ##       @@      .    @            %   %** ^           />     ",
" #  ;.>.$$   >>~~~            %%@             @@@      .    @    #   &    %    _   ~        )).~~   ",
" #& *..>.      >  ;            %%             @@@       .            &    %       ~~         ,,~**  ",
".# &* ;,>.   $>>>>;            %&&&##         % @      ..            &            :       )      &&#",
".  %**~.>.. $$   >         -                  %        .              &       ~   ,      )).>      #",
"   % * ;, ,    $$>                            %@               #              ~~  ,     ))>.>~~     ",
" # % *  [,  ))$$    ,,;;         &    ##       %@@  <      # #..                  ,    ))  ,.~**&   ",
" ##%%!   ;,,)        ,            &&   #                 # # @.    }                  )) ,,;;   %~  ",
"    %.    ,,           >~~        ..% &&      #       @  ##  %      |- -;;                ,    %%%  ",
"     %-             )  >>~        1.!        ##.      @@     %                            ;     %@  ",
"                   ).$>> >2         &3        #       @@                  ~>            >:          ",
"                  ).. $>56>    ;         %             @         -         >>            ~4*        ",
"                 ...$$$$      ;;         %@          @@@         .       ,  >)         ~  7^*8&&#   ",
".            ~>>>,)$$        ;;        %%..      ..   @@        9      ;,,   )       , ~  *  0     .",
"..#        -;;~>  ,)$.$$    ,.~        %&.%#      .             -a     , ,, ))       ,   .-..&     .",
" .#     & -- ;     ,).)     ,>>        -%.&&           @         -;;   , ,  )$       ;   * *%%      ",
"        & -- ;;    ,,$$    $..>    ;    %%&  @@@.    @@@    & *-*~~   ,, )    $     ;;   b.& %    @ ",
"  -;#   &  -  ;~     >$  $$$)>>    ;;        @@@@     @@   &****~~;;  .,      $      ;;--91%%%      ",
".  ;,   && -  -~   >>>>$))$./d>>  ;;;       %@@@@...  @@   &    c ~   >.)) $$$>      ;  -|%  %@@    ",
".< @@    & -- --   ~>6 ,)  $$.$> ,,;;      %%%@@@ .  @       *    >                  -  -1%    @@   ",
" .e@@       - .-    ~f,,    $  $., ,;     -% %@@@     @        ;;,       )              -    @@ @@  ",
" .e@@       %-.*     ;f ,   )$$ 2. ,,    --  % @@    @@         >>                      %!&  @  @@ .",
" ..@@  #    g%       ;  ,     $h .,,,    --- %  @   @@%                       ;        %&&  @  .@  .",
". .]@              ;;; i       $ $ ,,,  ;-   %% @   @ %                                 && %@@@@   .",
". ..  #          9--;;;' >     ) h$    ;;;-**&%@@    @%             $$     >~                @@     ",
".  .              - - ;;       ) $$    ,; .     @    @%        j$  $.$   >> ~       -        ,      ",
"        @         - - ;;      ,) )      ,.~.          & *     ,)$  .$   >> ~        %%     @,       ",
"       @@@        1--  -      ,  )$      ;;~.*& @@     **    ,)))$$$$  ,> ~~~**     %%              ",
"        @@       %%-   --;;;;,,,,$$   )   ; -. %@          >>,))$$ $>  >~~~~***            @        ",
".                * %     -;;;; ,  $$  .   ,.~+              >d $$  >   ~   ***                      ",
".     @          ~%.&    -  ;;;       .    .d* %%@ #  **   > (  { >>,; ~  --**           @          ",
"                  %.%g% -            ).$)   /+-%  .  &*~~ >$ p$   >  ;.~**-.*                       ",
"       @      #   %& %  %-           , ..   >;-  #.   *~>>$$  k>5>> ;;. ^_- &&&              #      ",
"           @;##   @%%~  %%   -      ,,  .$       #.  *~~>$$$    >  ;;-.-l*    &               .     ",
"          @-;      @@   %&% --*     [  ,)       0#.@&*~m> $)    . ;;--.-*& &&&&          @@         ",
"           @-      @    %.%%%%**    n; ,,       *#. *  j{$/    ;;..---.&&  &          @;@@@         ",
"                               & *   ; ;            *~   )     ;-..--%% &&&&           -@           ",
"                                  &  --              >$ .,    ----%.o.%% ##    #                    ",
"                                &&&           +.;     $d.>   ---%%%%%.%@@      # @@    .            ",
"                        #                    .+=.     $>~~   %%%%%%@@@@.. #     @                   ",
"                                            -./ $;    ~ **   %%@@@@@@@@@@e##                        ",
"               .       @@            ##     ~%8  $    &&&     @@-@@                @                "};
