/* XPM */
static char * ground_backrooms_xpm[] = {
"100 100 24 1",
" 	c #333333",
".	c #494949",
"+	c #948955",
"@	c #343434",
"#	c #474747",
"$	c #353535",
"%	c #464646",
"&	c #454545",
"*	c #3E3E3E",
"=	c #3A3A3A",
"-	c #383838",
";	c #373737",
">	c #363636",
",	c #484848",
"'	c #434343",
")	c #424242",
"!	c #3C3C3C",
"~	c #393939",
"{	c #444444",
"]	c #404040",
"^	c #3B3B3B",
"/	c #3D3D3D",
"(	c #3F3F3F",
"_	c #414141",
"     ..........      . .  ++      .................                .. .                             ",
"     ...........    ...   +@@@@@@@......#$$..%&...+*=-;>>$$.#,   @@...@@@@             ..           ",
"     . ..           ,,..@@+@@@@@$$$.....%&...')....++!=~-;...>   $$....@@@@@@@@@  @                 ",
"     ..              @.@@@+   $$$$>....&&{.........+]*!^=~.-;;;   >...$$$$@@@@@@@@@@@@@     .       ",
"           @@       .,..  $+  >>>>>;;.{{'......!...+)]*/!^=~~--   > ..>$$$$$$$@@@@@@@@@@@@          ",
"         @@@@@      #....$$>+>>>;;;--{''..........+%'.(*/!^==~  {-;;;>>>>.$$$$$$$@@@@@@@@@@@        ",
"  .       @@@@      #....>>>>++;;---~ ))........-.+%{)](*/!^^=='.---;;;>>.>>$$$$$$$@@@@@@@@@@       ",
" .       @@@@@        $.>>>;;;++--~~~  .........;$+#&'_](*/!!^==.~~---.;.;>>>>$$$$$$$@@..@@@@@      ",
".         @@@@$       >.>;;;;---++++++^!.........+ #& )_](*//!^^==~~~...;;;;>>>>$$$$$$$.@@@@@@@     ",
"           @.$$        >.;;----~~===^^++++.......+.#&{')_](*//!^^===~~----;;;>>>>>$$$$$$@@@@@@@@    ",
"          @ ##         ;;...-~~~==^   /.*(+++++..+.#%&' _]((*//!!^^==~~~---;;;;>>>>>$.$$$@@@@@@@    ",
"         @@$.##        ;----~~===^^   /*((.....++++,%&{')_]((*//!!^^===~~----;;;>>>>>.$$$$@@@@@@@   ",
"         @...##        ---~~~===^^     ((].......+.+%&{'))....*//!!^^=== ~~---;;;..>>>$$$$$@@@@@@   ",
"         $....%        --~~~==^^^!       _.......+..+......_...*//!!^.^ =~~~---....>>>>$$$$$@@@@@   ",
"   @@@  $$...%%          ~===^^!!!      !^=......+...+++..._].((*//!!!..===~~--..;;;>>>>$$$$$@@@@@  ",
"     @  $$...%%         ~===^^!!//   ..!........#.+....+...)_]].(*///!!^^===~~.. -;;;>>>>$$$$@@@@@  ",
"     @   $...>         ~===^^!!/     !!^..........+....+..')__..((*.//!!^^===~..  -;;;>>>>$$$.@@@@  ",
"         $..>>         ===^^!!//     !^^=.........+.....++'))__ ....*//!!^^==...   -;;;>>>>$$$@@@@  ",
"         ....        ~ =^^^!!//       ^............+.....{++)) _]/...*//!!^^^==..  --;;;>>>$$$$@@@@ ",
"  @@    #....;        =^^^!!//**    ]_)=............+.....{'++)_]...*.../!!^^^==..~---;;;>>>$$$@@@@ ",
"  @@   ......;        ^^^!!//*     ]__)=.......$@...+......{')++_.....*.//   ^^...'.---;;>>>$$$$@@@ ",
"++++++##%%%&.;-        ^!!//*      __) ~............@+.....{''))+++...***// !^^.....~--;;;>>>$$$@@@ ",
"  @..#++%   &.           / *           '...........@@+......{'')...+++(**.//!........~--;;;> $$$@@@ ",
".. ..## +++ --                  !^^   ~...............+....{..'.......+++.*//!!^.....~---;; >>$$$@@ ",
"..,, ##    +++    ^^^          !^^  =~~.........@. ...+$>>.&......)...]((+++//!!^...=~~---; >>$$$@@ ",
"..,,  % ;;;--~+++ ^^!!       !  ^   ~~-.&&..........@@+$>>;&......).._]]((**+++++^..==~~--   >>$$@@.",
"..,, $> ;;--~    +++!/      !!^^^=   -{{......$.....@@+$$>.&&{........_]]((***//!++++++~~-   >>$$@@.",
".,,# >>;;-- ~      !++       ^^^==~~  {&.....$$@@   @@+$$>..&&.......___]]((**.....^^==++++++++++$..",
".,,   >;;.{'')     // +     ^^^==~~~  &&&...$$@@@   @+@$$$%>;;.......)___]]((.....!!^^==~ {  ;>>$+++",
".,,    ;-{''))_        +    ^^==~~.-{ &&%...$$@@@   @+@$$$ .>;........)___]]./..* /!!^^=  '  ;>>$...",
".,,     -{'))__        +    ^==~~~--.& %%...$$@@@   +@@$$$$>>>...--.....___......*//!!^^ )   ;;>>...",
".,,     {'')..!       +    ^==~~~ - ...%%%+++++@@  +@@@@$$$>>>.........))__.....***//!!^    --..>...",
".,     {'')=..!/      +     =~~~---  ...+++#..+++  +  @@$$$$>>.........')).....((***//!     ......$@",
"       {'))_..!       +     ~~   -;;; >+.###,.., +++ @@@@$$$>>>>.......'')).^^ ]((***/ ]_ ))......$@",
"   %>    )  !!/        ++  ~~.   ;;...+..###,...  +  @@@@$$$$>>>...;...'  ===  ]](..*  ]]__)....>>$@",
"  #.;--~ )   //          + ~~-{  ;;..+...$#,,.....+..@@@@@$$$$>>>.;;;..   ~==   ]]..(*..]]_)....;>$@",
"  #.;-~~ _   /            ++---  ;>.+..$$$#,,,... + ...@@@$$$$$>>>>;;;-  -~     _....(..(]]....-;>$@",
" @..;-~=         !         -++.&  >>+...$$@.,,@   +   @@@@@$$$$$>>>>;;    -~    ........((....~-;>$@",
" @%..~==    *              -; ++  >>+$.$$@@@@@@   +   @@@@@@$$$$$>>>>;          ==....//*(...==~..>@",
".,....=^    (   ^           ;   ++ $+$$ @@@@@@@    +  @@@@@@@$$$$$>>>>    -    ~===^...//...!^=...>@",
".#%&')                  -; .;     ++++$@@@@@@@     +  .@@@@@@@$$$$$>>>         ~~~==^^.....(  ..++++",
".#&{'                   ;;  .%      ++@@@@@@@@      +  @@@@@@@@$$$$$$     ;  ----~~===^....*  _.++++",
".#&'       !           ;;  %>     # ++  @@@@@       +   @@@@@@@@$$$$$     >;;;;---~~~==...+++++++++ ",
".#&'     !!     ~---    >>> $$   $.+++@ @@@          +   @@@@.@@@@$$     >>>>.;;++++++++++]](...... ",
".%{)](  !^^    ---;;;    >$$$$    @+@@@@@@@          +   .@@...@@@@@.#    $>>>>>++;.-..~==......... ",
".%'_(   ^==    -;.;>>>   $$$$$   ++@@@@@@@           ++  ........@..,,#  $$$$>>>>>+;;-.-~~=........%",
".&)]*/!^=~~-   ;>>>>>$   $$$   ++ @@@@@@             +    ...........,@@@$.$$$$$>+>>...;--..=..(*...",
".{]*!^=~~-;;  >>>.$.$$    @@@ ++@@@@@              . + .  .......@...@@..@@@@.$++$$$....;;..........",
".)*!=..;  >>  $$$$...@@ ,@@@@++++                    +.    ......  .@@....@@+++@@@$$$...>...........",
".*=-;>>$$$$@  @@@,@@.@@     ++   ++                . +   ...........  .. .++ @@@@@@.................",
"                 .. .      +       +++               + ..........      .++          ................",
".*=-;>>$$.#,   @@...@@@@  +          .+++             +...........    ++.    @@@@@@@......#$$..%&...",
".)*!=~-;...>   $$....@@@@+@@@@  @        ++           +. ..          +,,..@@@@@@@@$$$.....%&...')...",
".{]*!^=~.-;;;   >...$$$$@+@@@@@@@@@@@     .+++++       +.           ++ @.@@@@   $$$$>....&&{........",
".&)]*/!^=~~--   > ..>$$$+$$$@@@@@@@@@@@@       ++       +    @@      +.,..  $$  >>>>>;;.{{'......!..",
".%'.(*/!^==~  {-;;;>>>>+$$$$$$$@@@@@@@@@@@     +         + @@@@@   ++ #....$$>>>>>;;;--{''..........",
".%{)](*/!^^=='.---;;;>>+>>$$$$$$$@@@@@@@@@@   +     .     + @@@@ ++   #....>>>>>;;;---~ ))........-.",
".#&'_](*/!!^==.~~---.;+;>>>>$$$$$$$@@..@@@@@  +    .       +@@+++       $.>>>;;;;---~~~  .........;$",
" #& )_](*//!^^==~~~..+;;;;>>>>$$$$$$$.@@@@@@@ +   .         ++@@$       >.>;;;;---~~~==^^!.........$",
".#&{')_](*//!^^===~~-+--;;;>>>>>$$$$$$@@@@@@@@ ++          + @.$$        >.;;----~~===^^!/..........",
".#%&' _]((*//!!^^==~+~---;;;;>>>>>$.$$$@@@@@@@   +        ++@ ##         ;;...-~~~==^   /.*(........",
".,%&{')_]((*//!!^^==+~~----;;;>>>>>.$$$$@@@@@@@   ++     + +@$.##        ;----~~===^^   /*((........",
".,%&{'))....*//!!^^==+ ~~---;;;..>>>$$$$$@@@@@@     ++  +  +...##        ---~~~===^^     ((]........",
"........._...*//!!^.^+=~~~---....>>>>$$$$$@@@@@       +++  +....%        --~~~==^^^!       _........",
"........._].((*//!!!++===~~--..;;;>>>>$$$$$@@@@@     @@@++$+...%%          ~===^^!!!      !^=.......",
".........)_]].(*/+++!^^===~~.. -;;;>>>>$$$$@@@@@       @  ++...%%         ~===^^!!//   ..!........#.",
"........')__..+++.//!!^^===~..  -;;;>>>>$$$.@@@@       @   +++.>         ~===^^!!/     !!^..........",
".......{')++++....*//!!^^==...   -;;;>>>>$$$@@@@           $++++         ===^^!!//     !^^=.........",
".......{++)) _]/...*//!!^^^==..  --;;;>>>$$$$@@@@          .++. +      ~ =^^^!!//       ^.........++",
".......+{''))_]...*.../!!^^^==..~---;;;>>>$$$@@@@   @@    #+...; +      =^^^!!//**    ]_)=.......++.",
"......+..{'))__.....*.//   ^^...'.---;;>>>$$$$@@@   @@   .++...; +      ^^^!!//*     ]__)=.......+@.",
"..@$..+..{''))_.....***// !^^.....~--;;;>>>$$$@@@   .@  #+%%%&.;+        ^!!//*      __) ~......+...",
".@@$..+...{'').....((**.//!........~--;;;> $$$@@@   @..++#%   &+           / *           '.....+....",
"......+..{..'.......((*.*//!!^.....~---;; >>$$$@@ .. .+## %   +-                  !^^++++.....+.....",
" ...$$+>.&......)...]((.**//!!^...=~~---; >>$$$@@ ..++ ##     +-    ^^^          !^^+ =~++....+...@.",
"..@@$$+>;&......).._]]((***//!!^..==~~--   >>$$@@.++,,  % ;;;+-~    ^^!!       !  ^+  ~~-.++++......",
"..@@$+$>.&&{........_]]((***//!!.^===~~-   >>$$@@+..,, $> ;;-+~     ^!!/      !!^++=   -{{......$...",
"  @@+$$>..&&.......___]]((**.....^^==~~    ;>>$++..,,# >>;;--+~      !/        ^+^==~~  {&.....$$@@ ",
"  ++@$$$%>;;.......)___]]((.....!!^^==~ {  ;>>+....,,   >;;.{'+)     //       ++^==~~~  &&&...$$@@@ ",
" ++@@$$$ .>;........)___]]./..* /!!^^=  '  ;++$....,,    ;-{''+)_           ++^^==~~.-{ &&%...$$@@@ ",
" +@@@$$$$>>>...--.....___......*//!!^^ )   +;>>....,,     -{'))+_+++   +++++  ^==~~~--.& %%...$$@@@ ",
"  @@@@$$$>>>.........))__.....***//!!^    +-..>....,,     {'').++   ++++     ^==~~~ - ...%%%## @@@@ ",
"    @@$$$$>>.........')).....((***//!    ++.....$@.,     {'')++.!+            =~~~---  ...  ##..@ @ ",
"   @@@@$$$>>>>.......'')).^^ ]((***/ ]_ )+......$@       {'++_..!+            ~~   -;;; >..###,..,  ",
"   @@@@$$$$>>>...;...'  ===  ]](..*  ]]__+....>++++++%> +++)  !!/ +          ~~.   ;;......###,...  ",
"...@@@@@$$$$>>>.;;;..   ~==   ]]..(*..]]_)+++++>$@  ++++-~ )   //  +         ~~-{  ;;......$#,,.....",
"  ...@@@$$$$$>>>>;;;-  -~     _....(..(++++..-;>$@  #.;-~~ _   /    +        ----  ;>....$$$#,,,... ",
"    @@@@@$$$$$>>>>;;    -~    .....++++(...+~-;>$@ @..;-~=         ! +       --;.&  >>....$$@.,,@   ",
"    @@@@@@$$$$$>>>>;          ==..++//*(...=++..>@ @%..~==    *       +      -; ;&  >>$$.$$@@@@@@   ",
"    @@@@@@@$$$$$>>>>    -    ~++++...//...!^=.+.>@.,....=^    (   ^    +      ;      $$$$ @@@@@@@   ",
"    .@@@@@@@$$$$$>>>       +++~~==^^.....(  ..+.>$.#%&')                + -; .;        $$@@@@@@@    ",
"     @@@@@@@@$$$$$$     ; +----~~===^....*  _+..;$.#&{'                  +;;  .%       $@@@@@@@@    ",
"      @@@@@@@@$$$$$     ++;;;---~~~==...(  ++...; .#&'       !           ;+  %>     #  @  @@@@@     ",
"       @@@@.@@@@$$     >+>>.;;;---~~~==.]++...... .#&'     !!     ~---    +>> $$   $.  @@ @@@       ",
"       .@@...@@@@@.#   +$>>>>>;;;.-..~==+........ .%{)](  !^^    ---;;;   +>$$$$    @@@@@@@@@       ",
"       ........@..,,#  +$$$>>>>>;;;-.-~+=........%.%'_(   ^==    -;.;>>>  +$$$$$    @@@@@@@@        ",
"        ...........,@@++.$$$$$>>>>...;+-..=..(*....&)]*/!^=~~-   ;>>>>>$  +$$$   @  @@@@@@          ",
" .   .  .......@...@@.+@@@@.$.$$$$....+;...........{]*!^=~~-;;  >>>.$.$$  + @@@ @@@@@@@             ",
"    .    ......  .@@.+..@@ @@@@@$$$...+............)*!=..;  >>  $$$$...@@ +@@@@ @@@                 ",
" .     ...........  +. .   @@@@@@.....+............*=-;>>$$$$@  @@@,@@.@@ +                         "};
