/* XPM */
static char * ladder_xpm[] = {
"100 100 2 1",
" 	c #FF00FF",
".	c #2E1C02",
"                         .......                        .......                                     ",
"                         .......                        .......                                     ",
"                         .......                        .......                                     ",
"                         .......                        .......                                     ",
"                         .......                        .......                                     ",
"                         .......                        .......                                     ",
"                         .......                        .......                                     ",
"                         .........................      .......                                     ",
"                         ......................................                                     ",
"                         ......................................                                     ",
"                        .......................................                                     ",
"                        .......................................                                     ",
"                        .......................................                                     ",
"                        .......................................                                     ",
"                        .......                 ...............                                     ",
"                        .......                         .......                                     ",
"                        .......                         .......                                     ",
"                        .......                         .......                                     ",
"                        .......                         .......                                     ",
"                        .......                         .......                                     ",
"                        .......                         .......                                     ",
"                        .......                         .......                                     ",
"                        .......  ..............................                                     ",
"                        .......................................                                     ",
"                        .......................................                                     ",
"                        .......................................                                     ",
"                        .......................................                                     ",
"                        .......................................                                     ",
"                        .......................................                                     ",
"                        ...........                     .......                                     ",
"                        .......                         .......                                     ",
"                        .......                         .......                                     ",
"                        .......                         .......                                     ",
"                        .......                         .......                                     ",
"                        .......                        ........                                     ",
"                        .......                        ........                                     ",
"                       .......................................                                      ",
"                       .......................................                                      ",
"                       .......................................                                      ",
"                       .......................................                                      ",
"                       .......................................                                      ",
"                       .......................................                                      ",
"                       ......................................                                       ",
"                       .......                        .......                                       ",
"                       .......                        .......                                       ",
"                       .......                        .......                                       ",
"                       .......                        .......                                       ",
"                       .......                       ........                                       ",
"                       .......                       ........                                       ",
"                       .......                       .......                                        ",
"                       .......                       .......                                        ",
"                       .......                       .......                                        ",
"                       .......  ............................                                        ",
"                       .....................................                                        ",
"                       .....................................                                        ",
"                       ....................................                                         ",
"                       ....................................                                         ",
"                       ....................................                                         ",
"                       ....................................                                         ",
"                       ...........                  .......                                         ",
"                       .......                     ........                                         ",
"                       .......                     ........                                         ",
"                       .......                     .......                                          ",
"                       .......                     .......                                          ",
"                       .......                     .......                                          ",
"                       .......                     .......                                          ",
"                       .......                    ........                                          ",
"                       .......                    ........                                          ",
"                       .......                    .......                                           ",
"                       .......                    .......                                           ",
"                       .......              .............                                           ",
"                       ..................................                                           ",
"                       ...................................                                          ",
"                       ...................................                                          ",
"                       ...................................                                          ",
"                       ..................................                                           ",
"                       ..................................                                           ",
"                       ........................   .......                                           ",
"                       ........                   .......                                           ",
"                       .......                    .......                                           ",
"                       .......                   ........                                           ",
"                       .......                   ........                                           ",
"                       .......                   .......                                            ",
"                       .......                   .......                                            ",
"                       .......                   .......                                            ",
"                       .......                   .......                                            ",
"                       .................................                                            ",
"                       .................................                                            ",
"                       .................................                                            ",
"                       .................................                                            ",
"                       .................................                                            ",
"                       .................................                                            ",
"                       .................................                                            ",
"                       .......                  ........                                            ",
"                       .......                  .......                                             ",
"                       .......                  .......                                             ",
"                       .......                  .......                                             ",
"                       .......                  .......                                             ",
"                       .......                  .......                                             ",
"                       .......                  .......                                             "};
