/* XPM */
static char * ladder_xpm[] = {
"100 100 3 1",
" 	c #FF00FF",
".	c #4F2C00",
"+	c #000000",
"                                                                                                    ",
"                                                                                                    ",
"                                                                                                    ",
"                                                                                                    ",
"                                                                                                    ",
"                                                                                                    ",
"                                                                                                    ",
"                                                                                                    ",
"                                                                                                    ",
"                                                                                                    ",
"                                                                                                    ",
"                                                                                                    ",
"                                                                                                    ",
"                                                                                                    ",
"                                                                                                    ",
"                                                                                                    ",
"                                                                                                    ",
"                                                                                                    ",
"                                                                                                    ",
"                                                                                                    ",
"                                                                                                    ",
"                                                                                                    ",
"                                                                                                    ",
"                                                                                                    ",
"                                                                                                    ",
"                                                                                                    ",
"                                                                                                    ",
"                                                                                                    ",
"                                                                                                    ",
"                                                                                                    ",
"                                                                                                    ",
"                                                                                                    ",
"                                                                                                    ",
"                                                                                                    ",
"                                                                                                    ",
"                                                                                                    ",
"                                                                                                    ",
"                                                                                                    ",
"                                                                                                    ",
"                                                                                                    ",
"                                                                                                    ",
"                                                                                                    ",
"                                                                                                    ",
"                                                                                                    ",
"                                                                                                    ",
"                                                                                                    ",
"                                                                                                    ",
"                                                                                                    ",
"                                                                                                    ",
"                                                                                                    ",
"                                                                                                    ",
"                                                                                                    ",
"                                                                                                    ",
"                                                                                                    ",
"                                                                                                    ",
"                             .........                                                              ",
"                            ............                                                            ",
"                          ...............                                                           ",
"                         .................         ....                                             ",
"                        ...................       .......                                           ",
"                        ...................      .........                                          ",
"                       ....................     ...........                                         ",
"                       ........     .......    ............                                         ",
"                       ........     .......    .............                                        ",
"                       .......      .......    ..............                                       ",
"                       .......      .......    ..............                                       ",
"                       .......      .......     ..... ........                                      ",
"                       .......      .......      ...  ........                                      ",
"                        .....       .......            .......                                      ",
"                         ...        .......            .......                                      ",
"                                    .......            .......                                      ",
"                                    .......            .......                                      ",
"                                    .......            .......                                      ",
"                                    ..........         .......                                      ",
"                                   ...........................                                      ",
"                                 ++...........................++                                    ",
"                               ++++...........................++++++                                ",
"                            +++++++...........................++++++++                              ",
"                          +++++++++...........................++++++++++                            ",
"                         ++++++++++...........................++++++++++++                          ",
"                        +++++++++++.......+...................+++++++++++++                         ",
"                        +++++++++++.......+++++++++++++.......++++++++++++++                        ",
"                       ++++++++++++.......+++++++++++++.......+++++++++++++++                       ",
"                       ++++++++++++.......+++++++++++++.......+++++++++++++++                       ",
"                       ++++++++++++.......+++++++++++++.......+++++++++++++++                       ",
"                       ++++++++++++.......+++++++++++++.......+++++++++++++++                       ",
"                        +++++++++++.......+++++++++++++.......+++++++++++++++                       ",
"                         ++++++++++.......+++++++++++++.......+++++++++++++++                       ",
"                          +++++++++.......+++++++++++++.......+++++++++++++++                       ",
"                           ++++++++.......+++++++++++++.......++++++++++++++                        ",
"                            +++++++.......+++++++++++++.......+++++++++++++                         ",
"                                +++.......+++++++++++++.......+++++++++++                           ",
"                                    .....++++++++++++++.......+++++++++                             ",
"                                                                                                    ",
"                                                                                                    ",
"                                                                                                    ",
"                                                                                                    ",
"                                                                                                    ",
"                                                                                                    ",
"                                                                                                    "};
