/* XPM */
static char * portal_1_1_xpm[] = {
"100 100 91 1",
" 	c #E69F45",
".	c #E69F43",
"+	c #E69E43",
"@	c #E69D41",
"#	c #E89A3B",
"$	c #E89838",
"%	c #E8993A",
"&	c #E99736",
"*	c #E89837",
"=	c #E79C40",
"-	c #E79B3D",
";	c #E79A3C",
">	c #E99634",
",	c #E79C3F",
"'	c #E69E42",
")	c #E79B3C",
"!	c #E99533",
"~	c #EA942F",
"{	c #EA9128",
"]	c #EA922A",
"^	c #EA932E",
"/	c #E99532",
"(	c #E99633",
"_	c #E5A046",
":	c #E4A44C",
"<	c #E5A34A",
"[	c #E5A147",
"}	c #ED8800",
"|	c #E5A249",
"1	c #E69F44",
"2	c #E69D42",
"3	c #E89A3C",
"4	c #E89939",
"5	c #E8993B",
"6	c #E99635",
"7	c #E99735",
"8	c #E79D40",
"9	c #E99430",
"0	c #E99531",
"a	c #E79C3E",
"b	c #E89736",
"c	c #EB9027",
"d	c #EA9129",
"e	c #EA922B",
"f	c #E5A248",
"g	c #E79B3E",
"h	c #E89737",
"i	c #EA932D",
"j	c #EB9026",
"k	c #E9942F",
"l	c #FF00FF",
"m	c #EB8F23",
"n	c #EA922C",
"o	c #EB8E20",
"p	c #EB9025",
"q	c #EB8F24",
"r	c #E79D41",
"s	c #EA932C",
"t	c #E4A34B",
"u	c #EB8F22",
"v	c #E89839",
"w	c #E5A148",
"x	c #EA942E",
"y	c #EB8E21",
"z	c #EB8E1F",
"A	c #E6A045",
"B	c #EB9024",
"C	c #EA9127",
"D	c #EB9127",
"E	c #EB8E1E",
"F	c #EB8D1E",
"G	c #EB8F21",
"H	c #EB8D1D",
"I	c #EC8D1D",
"J	c #EC8D1C",
"K	c #E5A24A",
"L	c #EC8D1A",
"M	c #EC8D1B",
"N	c #EC8B15",
"O	c #EC8C19",
"P	c #EC8C18",
"Q	c #EC8C1A",
"R	c #EC8C16",
"S	c #EC8C17",
"T	c #EC8B13",
"U	c #EC8B16",
"V	c #EC8A10",
"W	c #EC8B12",
"X	c #EC8A0E",
"Y	c #EC8B14",
"Z	c #E4A34A",
" .+@#$%&*=-$%;%>$,-,'-;')!~{]^/(%#_::'<[[:}}}}}}}}}}}}}}}}:::|1_2=-344%5%67$8@. .+,$>;%%4@*>97>06>1_",
"'8,==,,%483&%;%>&%#a@24b70^cde^>--+f|<'}}}}}}}}}}}}}}}}}}}}}}|1_g#%*$%#4>/h$&i%'8#(**/+,&3/^j0/e9*--",
"8-;=11+=-->~h#4/&-3;%4/dikej]i^b3-'f}}}}}}}}}}}}}ll}}}}}}}}}}}}} ,g#4$4-*>;8,>9/$%b%;>-$0kek>446*4#$",
"-;;8'@--g#/k*#%!>8a%>>~m{n{je~/7;'}}}}}}}}llllllllllllllll}}}}}}}}->$-gg$h2 ,$&d~*%%!^$90kni>$$>(#%*",
"4;#$--74,%00$##7h=4&~0iopdd]~6*b}}}}}}}llllllllllllllllllllll}}}}}}};='g#4118,'*k$&(~i&>09/]!**(^>b*",
">77/$#&$g7e>4#;%-@b9kknq{dn0*--}}}}}}llllllllllllllllllllllllll}}}}}}  @r$--' _@&)6&>^ci*>k]/(0(s/0>",
">^&-#$>74&**(*3%3a*6(i]^ed0br}}}}}}llllllllllllllllllllllllllllll}}}}}}t =,#,=#-7/i*!!ud%&^e^i!7s9i0",
"g%-'=$>>&*-3*#3###!9ejs/0k(;}}}}}llllllllllllllllllllllllllllllllll}}}}}[1@'=#$>k~{*(7ee$vb99s>*]~/0",
"''+++,#bh$4#,8%%%%>>ie0($gg}}}}}llllllllllllllllllllllllllllllllllll}}}}}|_w ,,%>k]#%*s97%$b&0i~ji9>",
"*$8+@;$*7#8%;8%>>b>0]e$$)g}}}}}llllllllllllllllllllllllllllllllllllll}}}}}[ 1@,,v!i***00bg3b9b&9{x^*",
"h0>4#h7#*%'#$%$b*3#7k945}}}}}llllllllllllllllllllllllllllllllllllllllll}}}}}[.-,,!in{99ex>40{ki^e>*%",
"-*9i>4%%&%g%*>(4,8,$*;8;}}}}llllllllllllllllllllllllllllllllllllllllllll}}}} ';#.7{&^ds/^~&/syjje9%)",
"]97~9>7>0b#%%4h#'+'''__}}}}llllllllllllllllllllllllllllllllllllllllllllll}}}}''%,%79^nzdx&~9jcy0>/>;",
"v8,/ik^k/0/$g,3;+++A1+}}}}llllllllllllllllllllllllllllllllllllllllllllllll}}}}[-=;io{^jx>7sie{^$gb%;",
"4)40^9/>b9ch''-#rr=8r}}}}llllllllllllllllllllllllllllllllllllllllllllllllll}}}}_'40pq~^9>&b$bk4b#%-(",
"/~i]d]($4(d7'+,#g,=,}}}}llllllllllllllllllllllllllllllllllllllllllllllllllll}}}}1>se{cB~(h#$*&&g7~b9",
"]ded]](-37^!g'g-g--8}}}}llllllllllllllllllllllllllllllllllllllllllllllllllll}}}}_&90i]mcs9>/bbk-bi((",
"/iki]{0;47>k41@,,8=}}}}llllllllllllllllllllllllllllllllllllllllllllllllllllll}}}}>^900ejzd6b70s*>9n]",
"$99/9]s~0b6!$+ 8--}}}}llllllllllllllllllllllllllllllllllllllllllllllllllllllll}}}}>$>is(ec/(/xe/0~ee",
">es09qcni(b%);'+4k}}}llllllllllllllllllllllllllllllllllllllllllllllllllllllllll}}}i]^>&40c00/>^d]ik~",
"ec]9/{]7&&$--$g'4}}}}llllllllllllllllllllllllllllllllllllllllllllllllllllllllll}}}}9i64(xei^*h9oq9/i",
"ki9~/e{/g-*%,&$8}}}}llllllllllllllllllllllllllllllllllllllllllllllllllllllllllll}}}}b*7i]{{]$>0je*$0",
"^9>7b0~0*;&vr74_}}}}lllllllllllllllllllllllllllllllllllllllllllllllllllllllllllll}}}_+-4^dii4>0i>##6",
"]&44%v#-,'=g@=1}}}}llllllllllllllllllllllllllllllllllllllllllllllllllllllllllllll}}}} r%ke00*>60*$*>",
"-*^&#4%-,8r43.f}}}llllllllllllllllllllllllllllllllllllllllllllllllllllllllllllllll}}}_+%>k^s^^>ix(0(",
"%gg,;;;g8g$&g[t}}}llllllllllllllllllllllllllllllllllllllllllllllllllllllllllllllll}}}_+%>40C{Ded~>9/",
"#$g=$*44%g#-Aw}}}llllllllllllllllllllllllllllllllllllllllllllllllllllllllllllllllll}}}'g>4>^]Dx>h0x^",
"+#;8#>!*%%%,.1}}}llllllllllllllllllllllllllllllllllllllllllllllllllllllllllllllllll}}}AA*>>6^0#3#0~e",
"8#h7&$#,,;%8_}}}}llllllllllllllllllllllllllllllllllllllllllllllllllllllllllllllllll}}}}|g$>70>r=8-hx",
"-%4>/4=r=-=_[}}}llllllllllllllllllllllllllllllllllllllllllllllllllllllllllllllllllll}}}|8v/!kx;@8;*7",
"%%%#43. 1 1 _}}}llllllllllllllllllllllllllllllllllllllllllllllllllllllllllllllllllll}}}A%7!0ed~7vh7#",
"e*8r;;'''11'}}}llllllllllllllllllllllllllllllllllllllllllllllllllllllllllllllllllllll}}}4h*>e]cjk4%%",
"c7=@-#88,,,-}}}llllllllllllllllllllllllllllllllllllllllllllllllllllllllllllllllllllll}}}&>$!]~ici$$&",
"s/%;%5-,88g8}}}llllllllllllllllllllllllllllllllllllllllllllllllllllllllllllllllllllll}}}(90^^>6x0%$$",
"i&$b>;g3#8+}}}}llllllllllllllllllllllllllllllllllllllllllllllllllllllllllllllllllllll}}}}~si//090b4-",
"(4gg3-%g' _}}}llllllllllllllllllllllllllllllllllllllllllllllllllllllllllllllllllllllll}}}/k~~iiesi(%",
"k0%g,#!~$ [}}}llllllllllllllllllllllllllllllllllllllllllllllllllllllllllllllllllllllll}}}>/&099eei^>",
">(&;g4/y^A'}}}llllllllllllllllllllllllllllllllllllllllllllllllllllllllllllllllllllllll}}}*/4b/i]i>%3",
"7~i&b/0{s+[}}}llllllllllllllllllllllllllllllllllllllllllllllllllllllllllllllllllllllll}}}#0b40i(>/79",
"*/^(k67>-'}}}llllllllllllllllllllllllllllllllllllllllllllllllllllllllllllllllllllllllll}}}%;#>/%%^in",
"4/9$$4-;[,}}}llllllllllllllllllllllllllllllllllllllllllllllllllllllllllllllllllllllllll}}}+8$%*b#(]k",
"3bk-+,=;w8}}}llllllllllllllllllllllllllllllllllllllllllllllllllllllllllllllllllllllllll}}}'84)5(**9^",
"34!,1=ghA8}}}llllllllllllllllllllllllllllllllllllllllllllllllllllllllllllllllllllllllll}}},,@r3b*4$0",
"-#%'18@%'@}}}llllllllllllllllllllllllllllllllllllllllllllllllllllllllllllllllllllllllll}}}4g'r,%%8@)",
";%%,'r+-%.}}}llllllllllllllllllllllllllllllllllllllllllllllllllllllllllllllllllllllllll}}}%$%$#;--8;",
";%#3,gg*$1}}}llllllllllllllllllllllllllllllllllllllllllllllllllllllllllllllllllllllllll}}}g=%&$#>9-4",
"%4##;--b@_}}}llllllllllllllllllllllllllllllllllllllllllllllllllllllllllllllllllllllllll}}}r1r#e9&%$%",
"#b!**33;1_}}}llllllllllllllllllllllllllllllllllllllllllllllllllllllllllllllllllllllllll}}} -;,7>- %b",
"$*&#--4-._}}llllllllllllllllllllllllllllllllllllllllllllllllllllllllllllllllllllllllllll}}+%g'1'''@%",
"/hg88g3'[A}}llllllllllllllllllllllllllllllllllllllllllllllllllllllllllllllllllllllllllll}}';&33= .'8",
"$*@1''@ [.}}llllllllllllllllllllllllllllllllllllllllllllllllllllllllllllllllllllllllllll}};#3%s0#,3/",
"g4' 'A .++}}llllllllllllllllllllllllllllllllllllllllllllllllllllllllllllllllllllllllllll}};@''#(e044",
"84,',r8r-=}}}llllllllllllllllllllllllllllllllllllllllllllllllllllllllllllllllllllllllll}}}8A_'#;9](0",
"r#-8,8-,gg}}}llllllllllllllllllllllllllllllllllllllllllllllllllllllllllllllllllllllllll}}}-@'@,1;]9s",
"4;3%$ar8=@}}}llllllllllllllllllllllllllllllllllllllllllllllllllllllllllllllllllllllllll}}}g;4#gg-90/",
"-*(>6*=@-A}}}llllllllllllllllllllllllllllllllllllllllllllllllllllllllllllllllllllllllll}}}',$$69/9]j",
"-*/b*4= +w}}}llllllllllllllllllllllllllllllllllllllllllllllllllllllllllllllllllllllllll}}}_,-ab!i{Du",
"$b>ex-8,'_}}}llllllllllllllllllllllllllllllllllllllllllllllllllllllllllllllllllllllllll}}}_,=@#4>eed",
"0>/j]r8-8,}}}llllllllllllllllllllllllllllllllllllllllllllllllllllllllllllllllllllllllll}}}+%%g#*7sxx",
"9/iji8,,'4}}}llllllllllllllllllllllllllllllllllllllllllllllllllllllllllllllllllllllllll}}}8>/3%>/$0k",
"!*$^>;;,+r}}}llllllllllllllllllllllllllllllllllllllllllllllllllllllllllllllllllllllllll}}}8'r%6(93%i",
"b%$07%%,@11}}}llllllllllllllllllllllllllllllllllllllllllllllllllllllllllllllllllllllll}}}43,g%>v>b*>",
"&3%(h,g,,+ }}}llllllllllllllllllllllllllllllllllllllllllllllllllllllllllllllllllllllll}}}#%%*%%49b>e",
"$#%/(r1@;8_}}}llllllllllllllllllllllllllllllllllllllllllllllllllllllllllllllllllllllll}}},'-*>*>9%7/",
"$;;*%'r,$#.}}}llllllllllllllllllllllllllllllllllllllllllllllllllllllllllllllllllllllll}}}''g3i^(h>/{",
"%%;#g11+r,'}}}}llllllllllllllllllllllllllllllllllllllllllllllllllllllllllllllllllllll}}}}.#-g>0($bsc",
"^&#4%-,8r43.}}}llllllllllllllllllllllllllllllllllllllllllllllllllllllllllllllllllllll}}}|=b&%4*%-g&>",
"g,;;;g8g$&g[}}}llllllllllllllllllllllllllllllllllllllllllllllllllllllllllllllllllllll}}}+%(^/~(*$$/^",
"g=$*44%g#-Aw}}}llllllllllllllllllllllllllllllllllllllllllllllllllllllllllllllllllllll}}})b$&(]Cdi~dj",
";8#>!*%%%,.1[}}}llllllllllllllllllllllllllllllllllllllllllllllllllllllllllllllllllll}}} -$g-v^Comde{",
"h7&$#,,;%8_ [}}}llllllllllllllllllllllllllllllllllllllllllllllllllllllllllllllllllll}}}8a4--$^^dEj~s",
"4>/4=r=-=_[81}}}}llllllllllllllllllllllllllllllllllllllllllllllllllllllllllllllllll}}}}8877>b*4*De9e",
"%#43. 1 1 _8.:}}}llllllllllllllllllllllllllllllllllllllllllllllllllllllllllllllllll}}}g',7/^>#4$~s]d",
"gb*4&*3+18,, :}}}llllllllllllllllllllllllllllllllllllllllllllllllllllllllllllllllll}}}%g#*>/7&0s{Cm{",
"4>b&i7$#*>($,t:}}}llllllllllllllllllllllllllllllllllllllllllllllllllllllllllllllll}}},%%*&6>ni^oFpmd",
"$3#b!;-*9bb7%|t}}}llllllllllllllllllllllllllllllllllllllllllllllllllllllllllllllll}}}@=,v9]]q]ioy]qG",
"*7&*>0(>7$#),|_}}}}llllllllllllllllllllllllllllllllllllllllllllllllllllllllllllll}}}}'g%*iomk0]mdepm",
">&679e6>$b$rA_',}}}llllllllllllllllllllllllllllllllllllllllllllllllllllllllllllll}}}|@$/b7^n00{GppEB",
"97(0iui>v>br[- -}}}}llllllllllllllllllllllllllllllllllllllllllllllllllllllllllll}}}}[g4>7h4>~iiuHuoq",
">>eb0Is&700-=%+'4}}}}llllllllllllllllllllllllllllllllllllllllllllllllllllllllll}}}}[85*(/i]99seGJopp",
"7*s>0E]b4&9#4;8+1@}}}llllllllllllllllllllllllllllllllllllllllllllllllllllllllll}}}++%bb&bimc]jd{cpcd",
"g%/60z^4;7~;g%'-K,}}}}llllllllllllllllllllllllllllllllllllllllllllllllllllllll}}}}'@;*v4$(^jpBs0{B]^",
"a7447q9{0/Lm>#86+g%}}}}llllllllllllllllllllllllllllllllllllllllllllllllllllll}}}}_),r*7b/07(d{nszzC^",
"$9-;~o{(bb{#15(j*b][}}}}llllllllllllllllllllllllllllllllllllllllllllllllllll}}}}:2b&%{{suc97]{dcEmqc",
"&i(7p]!(4*~#,&b9;%0w}}}}llllllllllllllllllllllllllllllllllllllllllllllllllll}}}}f@/doBjJMc(eJzuoHjqF",
"(e/^n0eBx/0^&/&b(-)[+}}}}llllllllllllllllllllllllllllllllllllllllllllllllll}}}}.->e/scqGooqMNOJPF]Cu",
"~k0kihCnki{Gsi!se31 +g}}}}llllllllllllllllllllllllllllllllllllllllllllllll}}}}))3h00ndJIDGJQNLQF]dom",
"&7ebn]d7]{0{n^kG]*+%1,7}}}}llllllllllllllllllllllllllllllllllllllllllllll}}}}g-##49jq{juzIMOMMJm0jpp",
"00~s*0c!qs]ed^0ii6>;,A8'}}}}llllllllllllllllllllllllllllllllllllllllllll}}}}g$,g4$~EopoQHzEHHROzqE{m",
"e^/p$%^bsesj]~]dd79#8=w@}}}}}llllllllllllllllllllllllllllllllllllllllll}}}}}$*;)49jmzzREyGHPSPTFMMGG",
"/0nj47/ideimD^~9^*73@;[r,K}}}}}llllllllllllllllllllllllllllllllllllll}}}}},h(##b7nqdcmyzHSOSUUVJyEqy",
"]]{D/9^Ci{/]^//(]/( @4AA%f:}}}}}llllllllllllllllllllllllllllllllllll}}}}}|797vb>9^k>>cjqWXUQRNWQzupz",
"c]^mM]s{/x]]d&b&k$7-=08'&w::}}}}}llllllllllllllllllllllllllllllllll}}}}}wg>00/ii07^!^qjmYXLFPNWJJBpq",
"DGjCPH!9/]Gc0k/(x&#1Ar8++|f__}}}}}}llllllllllllllllllllllllllllll}}}}}},,*9^/i]s0ez{Gu{]RYJoJPJuuqC{",
"qdj/]ykpkD0*jqiki^>;@,/,'A'g--@}}}}}}llllllllllllllllllllllllll}}}}}},-4$$^s~xxyzmDEImCJUSzJmopHJe{0",
"dg$*^0~>]sB!kv7/>/%=-!$,+',-4$;=}}}}}}}llllllllllllllllllllll}}}}}}},g-$7/0>^dpqu{kBEHEWLoRNqB{Gosii",
"s%4,(v4&i//9n*b9d(>4841@;;-;*b%38,}}}}}}}}llllllllllllllll}}}}}}}}3;%3#&b*/iekj^**edzcJmMRPocq{mpi]E",
"nzq$7ij97{!hn4#*{0*;*;,=64;%h$#*5818}}}}}}}}}}}}}ll}}}}}}}}}}}}}w#4,-344%$9dk~/0b;>s]mozemuj{jmpmpjj",
"ixmu]k0(h/&cG~i~%g@=#%++b44$%#%#,'''g'$}}}}}}}}}}}}}}}}}}}}}}Z %%_@;%*$%5$npd/0cs>b]Jz]JD]jqmzzouCp9",
"0~/cm0!&^d(qF>~e-@8,;1|894%$4%;,@w:<r:<<<:}}}}}}}}}}}}}}}}::::Z<::[@g#4$$b^ci~cinqpyupmcDjCJORojdd]x"};
