/* XPM */
static char * tree_0_xpm[] = {
"100 100 3 1",
" 	c #FF00FF",
".	c #124B00",
"+	c #52391A",
"                                                                                                    ",
"                                                                                                    ",
"                                                                                                    ",
"                                           .............                                            ",
"                                        ...................                                         ",
"                                      .......................                                       ",
"                                    ...........................                                     ",
"                                  ...............................                                   ",
"                                 .................................                                  ",
"                                ...................................                                 ",
"                               .....................................                                ",
"                              .......................................                               ",
"                             .........................................                              ",
"                            ...........................................                             ",
"                            ...........................................                             ",
"                           .............................................                            ",
"                           .............................................                            ",
"                          ...............................................                           ",
"                          ................................................                          ",
"                         ..................................................                         ",
"                         ...................................................                        ",
"                         ....................................................                       ",
"                        ......................................................                      ",
"                        .......................................................                     ",
"                       ........................................................                     ",
"                      ..........................................................                    ",
"                      ..........................................................                    ",
"                     ............................................................                   ",
"                     ............................................................                   ",
"                    ..............................................................                  ",
"                    ..............................................................                  ",
"                   ...............................................................                  ",
"                   ................................................................                 ",
"                   ................................................................                 ",
"                  .................................................................                 ",
"                  .................................................................                 ",
"                  .................................................................                 ",
"                  .................................................................                 ",
"                  .................................................................                 ",
"                  .................................................................                 ",
"                  .................................................................                 ",
"                  .................................................................                 ",
"                  .................................................................                 ",
"                  .................................................................                 ",
"                  .................................................................                 ",
"                  ................................................................                  ",
"                  ................................................................                  ",
"                   ...............................................................                  ",
"                   ..............................................................                   ",
"                   ..............................................................                   ",
"                    ............................................................                    ",
"                    ............................................................                    ",
"                     ..........................................................                     ",
"                     ..........................................................                     ",
"                      ........................................................                      ",
"                      .......................................................                       ",
"                       .....................................................                        ",
"                        ...................................................                         ",
"                         .................................................                          ",
"                          ...............................................                           ",
"                           ............................................                             ",
"                            .........................................                               ",
"                              .....................................                                 ",
"                                ................................                                    ",
"                                  ...................++                                             ",
"                                     .............+++++                                             ",
"                                             ++++++++++                                             ",
"                                             ++++++++++                                             ",
"                                             ++++++++++                                             ",
"                                             ++++++++++                                             ",
"                                             ++++++++++                                             ",
"                                             ++++++++++                                             ",
"                                             ++++++++++                                             ",
"                                             ++++++++++                                             ",
"                                             ++++++++++                                             ",
"                                             ++++++++++                                             ",
"                                             ++++++++++                                             ",
"                                             ++++++++++                                             ",
"                                             ++++++++++                                             ",
"                                             ++++++++++                                             ",
"                                             ++++++++++                                             ",
"                                             ++++++++++                                             ",
"                                             ++++++++++                                             ",
"                                             ++++++++++                                             ",
"                                             ++++++++++                                             ",
"                                             ++++++++++                                             ",
"                                             ++++++++++                                             ",
"                                             ++++++++++                                             ",
"                                             ++++++++++                                             ",
"                                             ++++++++++                                             ",
"                                             ++++++++++                                             ",
"                                             ++++++++++                                             ",
"                                             ++++++++++                                             ",
"                                             ++++++++++                                             ",
"                                             ++++++++++                                             ",
"                                             ++++++++++                                             ",
"                                             ++++++++++                                             ",
"                                             ++++++++++                                             ",
"                                             ++++++++++                                             ",
"                                             ++++++++++                                             "};
