/* XPM */
static char * tree_1_xpm[] = {
"100 100 4 1",
" 	c #FF00FF",
".	c #455C3E",
"+	c #FFFFFF",
"@	c #000000",
"                                                                                                    ",
"                                                                                                    ",
"                                                                                                    ",
"                                                                                                    ",
"                                                                                                    ",
"                                       .......                                                      ",
"                                   ...............                                                  ",
"                                 ...................                                                ",
"                                .....................                                               ",
"                              .........................                                             ",
"                             ...........................                                            ",
"                            .............................                                           ",
"                           ...............................                                          ",
"                           ...............................                                          ",
"                          .................................                                         ",
"                         ...................................                                        ",
"                         ...................................                                        ",
"                        .....................................                                       ",
"                        .....................................                                       ",
"                        .....................................                                       ",
"                        .....................................                                       ",
"                       .......................................                                      ",
"                       .......................................                                      ",
"                      ..........................................                                    ",
"                      ...........................................                                   ",
"                     .............................................                                  ",
"                    ...............................................                                 ",
"                    ...............................................                                 ",
"                   .................................................                                ",
"                   ..................................................                               ",
"                   ..................................................                               ",
"                   ...................................................                              ",
"                  ....................................................                              ",
"                  ....................................................                              ",
"                  ....................................................                              ",
"                  .....................................................                             ",
"                  .....................................................                             ",
"                  .....................................................                             ",
"                  .....................................................                             ",
"                   ....................................................                             ",
"                   ....................................................                             ",
"                   ....................................................                             ",
"                   ...................................................                              ",
"                    ..................................................                              ",
"                    ..................................................                              ",
"                     .................................................                              ",
"                      ...............................................                               ",
"                      ...............................................                               ",
"                       .............................................                                ",
"                        ...........................................                                 ",
"                         ..........................................                                 ",
"                           .......................................                                  ",
"                            .....................................                                   ",
"                              ..................................                                    ",
"                                  ............................                                      ",
"                                          ...................                                       ",
"                                            ...............                                         ",
"                                             +++.......                                             ",
"                                             ++++++++++                                             ",
"                                             ++++++++++                                             ",
"                                             ++++++++++                                             ",
"                                             ++++++++++                                             ",
"                                             ++++@@@+++                                             ",
"                                             +++@@@@@++                                             ",
"                                             ++++@@@+++                                             ",
"                                             ++++++++++                                             ",
"                                             ++++++++++                                             ",
"                                             ++++++++++                                             ",
"                                             ++++++++++                                             ",
"                                             ++++++++++                                             ",
"                                             ++++++++++                                             ",
"                                             ++++++++++                                             ",
"                                             ++++++++++                                             ",
"                                             +@@@++++++                                             ",
"                                             @@@@@+++++                                             ",
"                                             +@@@++++++                                             ",
"                                             ++++++++++                                             ",
"                                             ++++++++++                                             ",
"                                             ++++++++++                                             ",
"                                             ++++++++++                                             ",
"                                             ++++++++++                                             ",
"                                             ++++++@@@+                                             ",
"                                             +++++@@@@@                                             ",
"                                             ++++++@@@+                                             ",
"                                             ++++++++++                                             ",
"                                             ++++++++++                                             ",
"                                             ++++++++++                                             ",
"                                             ++++++++++                                             ",
"                                             ++++++++++                                             ",
"                                             ++++++++++                                             ",
"                                             +++@@@++++                                             ",
"                                             ++@@@@@+++                                             ",
"                                             +++@@@++++                                             ",
"                                             ++++++++++                                             ",
"                                             ++++++++++                                             ",
"                                             ++++++++++                                             ",
"                                             ++++++++++                                             ",
"                                             ++++++++++                                             ",
"                                             ++++++++++                                             ",
"                                             ++++++++++                                             "};
