/* XPM */
static char * wall_xpm[] = {
"100 100 49 1",
" 	c #DBC545",
".	c #D7C24D",
"+	c #DBC546",
"@	c #DAC547",
"#	c #DAC447",
"$	c #D9C449",
"%	c #DAC448",
"&	c #D8C344",
"*	c #DAC445",
"=	c #D9C44A",
"-	c #D9C34A",
";	c #000000",
">	c #959595",
",	c #CDCCC9",
"'	c #DFDEDC",
")	c #F9F9F9",
"!	c #EAE9E8",
"~	c #F8F8F8",
"{	c #FBFBFB",
"]	c #FCFCFC",
"^	c #F7F7F7",
"/	c #FAFAFA",
"(	c #D1D1D1",
"_	c #949494",
":	c #B7B7B7",
"<	c #E3E3E3",
"[	c #FEFEFE",
"}	c #FDFDFD",
"|	c #EAEAEA",
"1	c #CDCDCD",
"2	c #D7D7D7",
"3	c #D3D3D3",
"4	c #D2D2D2",
"5	c #D4D4D4",
"6	c #DDDDDD",
"7	c #EDEDED",
"8	c #C4C4C4",
"9	c #D9C34B",
"0	c #D8C245",
"a	c #D9C444",
"b	c #D9C445",
"c	c #D8C346",
"d	c #D8C34C",
"e	c #D9C345",
"f	c #D7C24F",
"g	c #D7C24E",
"h	c #D9C346",
"i	c #D8C34B",
"j	c #D9C344",
"                                                                                                    ",
"                                                                                                    ",
"                                                                                                    ",
"                                                                                                    ",
"                                                                                                    ",
"                                                                                                    ",
"                                                                                                    ",
"                                                                                                    ",
"                                                                                                    ",
"                                                                                                    ",
"                                                                                                    ",
"                                                                                                    ",
"                                                                                                    ",
"                                                                                                    ",
"                                                                                                    ",
"                                                                                                    ",
"                                                                                                    ",
"                                                                                                    ",
"                                                                                                    ",
"                                                                                                    ",
"                                                                                                    ",
"                                                                                                    ",
"                                                                                                    ",
"                                                                                                    ",
"                                                                                                    ",
"                                                                                                    ",
"                                                                                                    ",
"                                                                                                    ",
"                                                                                                    ",
"                                                                                                    ",
"                                                                                                    ",
"                                                                                                    ",
"                                                                                                    ",
"                                                                                                    ",
"                                                                                                    ",
"                                                                                                    ",
"                                                                                                    ",
"                                                                                                    ",
"                                                                                                    ",
"                                                                                                    ",
"                                                                                                    ",
"                                                                                                    ",
"                                                                                                    ",
"                                                                                                    ",
"                                                                                                    ",
"                                                                                                    ",
"                                                                                                    ",
"                                                                                                    ",
"                                                                                                    ",
"                                                                                                    ",
"                                                                                                    ",
"                                                                                                    ",
"                                                                                                    ",
"                                                                                                    ",
"                                                                                                    ",
"                                                                                                    ",
"                                                                                                    ",
"                                                                                                    ",
".  + +@      #   $    %%$# %  &$%+  @++  *%%$=$%%+                + *+%%%#%++%@%* +++  %      -    +",
";;;;;;;;;;;;;;;;;;;;;;;;;;;;;;;;;;;;;;;;;;;;;;;;;;;;;;;;;;;;;;;;;;;;;;;;;;;;;;;;;;;;;;;;;;;;;;;;;;;;",
">>>>>>>>>>>>>>>>>>>>>>>>>>>>>>>>>>>>>>>>>>,')!~){]]^/(>>>>>>>>>>>>>>>>>>>>>>>>>>>>>>__>>__>>>>>>>>>>",
">>>>>>>>>>>>>>>>>>>>>>>>>>>>>>>>>>>>>>>>>>:<)[}}}[[]|>>>>>>>>>>>>>>>>>>>>>>>>>>>>>>>>>>>>>>>>>>>>>>>",
">>>>>>>>>>>>>>>>>>>>>>>>>>>>>>>>>>>>>>>>>>>>123435678>>>>>>>>>>>>>>>>>>>>>>>>>>>>>>>>>>>>>>>>>>>>>>>",
">>>>>>>>>>>>>>>>>>>>>>>>>>>>>>>>>>>>>>>>>>>>>>>>>>>>>>>>>>>>>>>>>>>>>>>>>>>>>>>>>>>>>>>>>>>>>>>>>>>>",
">>>>>>>>>>>>>>>>>>>>>>>>>>>>>>>>>>>>>>>>>>>>>>>>>>>>>>>>>>>>>>>>>>>>>>>>>>>>>>>>>>>>>>>>>>>>>>>>>>>>",
">>>>>>>>>>>>>>>>>>>>>>>>>>>>>>>>>>>>>>>>>>>>>>>>>>>>>>>>>>>>>>>>>>>>>>>>>>>>>>>>>>>>>>>>>>>>>>>>>>>>",
">>>>>>>>>>>>>>>>>>>>>>>>>>>>>>>>>>>>>>>>>>>>>>>>>>>>>>>>>>>>>>>>>>>>>>>>>>>>>>>>>>>>>>>>>>>>>>>>>>>>",
";;;;;;;;;;;;;;;;;;;;;;;>>>;;;;;;;;;;;;;;;;;;;;;;;;;;;;;;;;;;;;;;;;;;;>>>;;;;;;;;;;;;;;;;;;;;;;;;;;;;",
"                     9;>>>;0    aa ***b+*$$* * $+ *   **%-99$$=9-bc ;>>>;d%$$%#++                   ",
"                     %;>>>;                                         ;>>>;+                          ",
"                     $;>>>;e                                        ;>>>;%                          ",
"                     9;>>>;                                         ;>>>;%                          ",
"                     f;>>>;*                                        ;>>>;+                          ",
"                     g;>>>;                                         ;>>>;h                          ",
"                     =;>>>;*                                        ;>>>;@                          ",
"                     $;>>>;                                         ;>>>;9                          ",
"                     +;>>>;*                                        ;>>>;d                          ",
"                      ;>>>;*                                        ;>>>;#                          ",
"                      ;>>>;*                                        ;>>>;+                          ",
"                      ;>>>;*                                        ;>>>;i                          ",
"                      ;>>>;                                         ;>>>;$                          ",
"                      ;;>;;                                         ;;>;;d                          ",
"                      +;;;                                           ;;; +                          ",
"                                                                      +@+                           ",
"                                                                                                    ",
"                                                                                                    ",
"                                                                                                    ",
"                                                                                                    ",
"                                                                                                    ",
"                                                                                                    ",
"                     *                                                                              ",
"                     j                                                                              ",
"                                                                                                    ",
"                                                                                                    ",
"                                                                                                    ",
"                                                                                                    ",
"                                                                                                    ",
"                                                                                                    ",
"                                                                                                    ",
"                                                                                                    "};
