/* XPM */
static char * wall_class_xpm[] = {
"100 100 2 1",
" 	c #DBC545",
".	c #000000",
"                                                                                                    ",
"                                                                                                    ",
"                                                                                                    ",
"                                                                                                    ",
"        ..........                                                                                  ",
"      .............        .....                                                                    ",
"     ..............       .......                                         .........                 ",
"     ..............       .......                  ......                ...........                ",
"    ...............       .......                 ........              .............     .......   ",
"   ................       .......                 .........            ..............    .........  ",
"   ...............        .......                ............          ..............   ........... ",
"   .........              .......                .............         ..............   ........... ",
"   ........               .......                ..............        ..............   ........... ",
"   ........               .......               ...............        .............    ........... ",
"   .......                .......               ................       ...........      ........... ",
"   ........               .......              .................       ............     ..........  ",
"   .........              .......              ..................      ............     ..........  ",
"   ...........            .......              ........ .........       ...........      .........  ",
"   ...............        ...............     .........  .........       ..........      .........  ",
"    ...............       ................    ....................        .........       ........  ",
"     ..............       ................    .....................     ...........       ........  ",
"     ..............       ................   ......................    ............       ........  ",
"      .............       ................   ......................    ............     ..........  ",
"       ............       ................   .......................   ...........     ...........  ",
"          .........        ..............   ........................   ..........    .............  ",
"             .....                          .........................  .........    .............   ",
"                                            ........        .........  ........     .............   ",
"                                            ........         ........   ......      ............    ",
"                                            ........         ........               ..........      ",
"                                             ......          ........               .........       ",
"                                                              .......                ......         ",
"                                                               .....                                ",
"                                                                                                    ",
"                                                                                                    ",
"                                                                                                    ",
"                                                                                                    ",
"                                                                                                    ",
"                                                                                                    ",
"                                                                                                    ",
"                                                                                                    ",
"                                                                                                    ",
"                                                                                                    ",
"                                                                                                    ",
"                                                                                                    ",
"                                                                                                    ",
"                                                                                                    ",
"                                                                                                    ",
"                                                                                                    ",
"                                                                                                    ",
"                                                                                                    ",
"                                                                                                    ",
"                                                                                                    ",
"                                                                                                    ",
"                                                                                                    ",
"                                                                                           ......   ",
"                                                                                          ........  ",
"                                                                                         .........  ",
"                  .........                                                         ............... ",
"                .............                                                      ................ ",
"               ...............               ......                                .................",
"               ...............              ........                               .................",
"              ................             .........                  .....        .................",
"              ................            ..........                 ...........   .................",
"             .................           ...........                .............. .................",
"             .................          ................            ................................",
"             .................          .................          .................................",
"             .................          ..................        ..................................",
"             .................         ....................       ..........................  ......",
"             .................         ....................      .........................    ......",
"             ................          ........ ............     ......... ...............    ......",
"             ...............           ........  ...........     ........  ..............     ......",
"             ..............           .........    .........     ........................      .....",
"             .............            ........     .........     ........................      .....",
"             ..............           ........ .............     ........................      .....",
"             ...............          ......................     ........................      .....",
"             ................         ......................     ................ .......       ....",
"             .................        .....................      ...............  .......       ....",
"             ..................       ....................        .............   .......       ....",
"             ...................       ..................          ...........    .......       ....",
"             ....... ............      ................             .......       .......       ....",
"              .....    ..........       ...........                               .......       ....",
"                        .........                                                  .....        ....",
"                        .........                                                               ....",
"                         ........                                                               ....",
"                          ......                                                                 ...",
"                                                                                                  ..",
"                                                                                                    ",
"                                                                                                    ",
"                                                                                                    ",
"                                                                                                    ",
"                                                                                                    ",
"                                                                                                    ",
"                                                                                                    ",
"                                                                                                    ",
"                                                                                                    ",
"                                                                                                    ",
"                                                                                                    ",
"                                                                                                    ",
"                                                                                                    ",
"                                                                                                    "};
