/* XPM */
static char * window_xpm[] = {
"100 100 66 1",
" 	c #FBDC59",
".	c #AE983B",
"+	c #E9CC52",
"@	c #E7CA51",
"#	c #C2A942",
"$	c #BBA340",
"%	c #C7AE44",
"&	c #F1D355",
"*	c #5E511A",
"=	c #907D2E",
"-	c #88762B",
";	c #D5BA4A",
">	c #B49D3D",
",	c #7A6A26",
"'	c #7F6E27",
")	c #CFB547",
"!	c #756524",
"~	c #89772C",
"{	c #84732A",
"]	c #000000",
"^	c #FF00FF",
"/	c #9A8633",
"(	c #B1AB9B",
"_	c #BFBFBE",
":	c #C8C8C8",
"<	c #D2D2D2",
"[	c #F5F5F5",
"}	c #FCFCFC",
"|	c #FDFDFD",
"1	c #FFFFFF",
"2	c #FBE078",
"3	c #AFAFAF",
"4	c #D7D7D7",
"5	c #E3E3E3",
"6	c #E0E0E0",
"7	c #959595",
"8	c #A0A0A0",
"9	c #A2A2A2",
"0	c #939393",
"a	c #FAFAFA",
"b	c #969592",
"c	c #E2C96F",
"d	c #C4B481",
"e	c #AAA28C",
"f	c #9B9891",
"g	c #989692",
"h	c #9A9791",
"i	c #9D9A90",
"j	c #A39D8E",
"k	c #ADA48B",
"l	c #B0A689",
"m	c #979592",
"n	c #949493",
"o	c #D3BE79",
"p	c #DBC474",
"q	c #E8CE6A",
"r	c #F3D661",
"s	c #706121",
"t	c #A99339",
"u	c #86742A",
"v	c #AE983A",
"w	c #E5C850",
"x	c #786824",
"y	c #817028",
"z	c #796925",
"A	c #6A5B1F",
"      .+@@##$%&                                                           .+                        ",
"     *# =******==                                                         =@                        ",
"    @=      -@ @@                                                         =@                        ",
"            =@                                                            =@                        ",
"            =;                                                           *=                         ",
"            =-                                                          **                          ",
"            ##@                           @#>,--,')                    @=                           ",
"             *=                         ******-!~{&                                                 ",
"             @==                          *=                                                        ",
"             ]]]]]]]]]]]]]]]]]]]]]]]]]]]]]]]]]]]]]]]]]]]]]]]]]]]]]]]]]]]]]]]]]]]]]]]]]              ",
"             ]^^^^^^^^^^^^^^^^^^^^^^^^^^^^^^^^^^^]^^^^^^^^^^^^^^^^^^^^^^^^^^^^^^^^^^^]              ",
"             ]^^^^^^^^^^^^^^^^^^^^^^^^^^^^^^^^^^^]^^^^^^^^^^^^^^^^^^^^^^^^^^^^^^^^^^^]              ",
"             ]^^^^^^^^^^^^^^^^^^^^^^^^^^^^^^^^^^^]^^^^^^^^^^^^^^^^^^^^^^^^^^^^^^^^^^^]              ",
"             ]^^^^^^^^^^^^^^^^^^^^^^^^^^^^^^^^^^^]^^^^^^^^^^^^^^^^^^^^^^^^^^^^^^^^^^^]              ",
"             ]^^^^^^^^^^^^^^^^^^^^^^^^^^^^^^^^^^^]^^^^^^^^^^^^^^^^^^^^^^^^^^^^^^^^^^^]              ",
"             ]^^^^^^^^^^^^^^^^^^^^^^^^^^^^^^^^^^^]^^^^^^^^^^^^^^^^^^^^^^^^^^^^^^^^^^^]              ",
"             ]^^^^^^^^^^^^^^^^^^^^^^^^^^^^^^^^^^^]^^^^^^^^^^^^^^^^^^^^^^^^^^^^^^^^^^^]              ",
"             ]^^^^^^^^^^^^^^^^^^^^^^^^^^^^^^^^^^^]^^^^^^^^^^^^^^^^^^^^^^^^^^^^^^^^^^^]              ",
"             ]^^^^^^^^^^^^^^^^^^^^^^^^^^^^^^^^^^^]^^^^^^^^^^^^^^^^^^^^^^^^^^^^^^^^^^^]              ",
"             ]^^^^^^^^^^^^^^^^^^^^^^^^^^^^^^^^^^^]^^^^^^^^^^^^^^^^^^^^^^^^^^^^^^^^^^^]              ",
"             ]^^^^^^^^^^^^^^^^^^^^^^^^^^^^^^^^^^^]^^^^^^^^^^^^^^^^^^^^^^^^^^^^^^^^^^^]              ",
"             ]^^^^^^^^^^^^^^^^^^^^^^^^^^^^^^^^^^^]^^^^^^^^^^^^^^^^^^^^^^^^^^^^^^^^^^^]              ",
"             ]^^^^^^^^^^^^^^^^^^^^^^^^^^^^^^^^^^^]^^^^^^^^^^^^^^^^^^^^^^^^^^^^^^^^^^^]              ",
"            @]^^^^^^^^^^^^^^^^^^^^^^^^^^^^^^^^^^^]^^^^^^^^^^^^^^^^^^^^^^^^^^^^^^^^^^^]              ",
"             ]^^^^^^^^^^^^^^^^^^^^^^^^^^^^^^^^^^^]^^^^^^^^^^^^^^^^^^^^^^^^^^^^^^^^^^^]              ",
"             ]^^^^^^^^^^^^^^^^^^^^^^^^^^^^^^^^^^^]^^^^^^^^^^^^^^^^^^^^^^^^^^^^^^^^^^^]              ",
"             ]^^^^^^^^^^^^^^^^^^^^^^^^^^^^^^^^^^^]^^^^^^^^^^^^^^^^^^^^^^^^^^^^^^^^^^^]              ",
"             ]^^^^^^^^^^^^^^^^^^^^^^^^^^^^^^^^^^^]^^^^^^^^^^^^^^^^^^^^^^^^^^^^^^^^^^^]              ",
"             ]^^^^^^^^^^^^^^^^^^^^^^^^^^^^^^^^^^^]^^^^^^^^^^^^^^^^^^^^^^^^^^^^^^^^^^^]              ",
"             ]^^^^^^^^^^^^^^^^^^^^^^^^^^^^^^^^^^^]^^^^^^^^^^^^^^^^^^^^^^^^^^^^^^^^^^^]              ",
"             ]^^^^^^^^^^^^^^^^^^^^^^^^^^^^^^^^^^^]^^^^^^^^^^^^^^^^^^^^^^^^^^^^^^^^^^^]              ",
"             ]^^^^^^^^^^^^^^^^^^^^^^^^^^^^^^^^^^^]^^^^^^^^^^^^^^^^^^^^^^^^^^^^^^^^^^^]              ",
"             ]^^^^^^^^^^^^^^^^^^^^^^^^^^^^^^^^^^^]^^^^^^^^^^^^^^^^^^^^^^^^^^^^^^^^^^^]              ",
"             ]^^^^^^^^^^^^^^^^^^^^^^^^^^^^^^^^^^^]^^^^^^^^^^^^^^^^^^^^^^^^^^^^^^^^^^^]              ",
"             ]^^^^^^^^^^^^^^^^^^^^^^^^^^^^^^^^^^^]^^^^^^^^^^^^^^^^^^^^^^^^^^^^^^^^^^^]              ",
"             ]^^^^^^^^^^^^^^^^^^^^^^^^^^^^^^^^^^^]^^^^^^^^^^^^^^^^^^^^^^^^^^^^^^^^^^^]              ",
"             ]^^^^^^^^^^^^^^^^^^^^^^^^^^^^^^^^^^^]^^^^^^^^^^^^^^^^^^^^^^^^^^^^^^^^^^^]              ",
"             ]^^^^^^^^^^^^^^^^^^^^^^^^^^^^^^^^^^^]^^^^^^^^^^^^^^^^^^^^^^^^^^^^^^^^^^^]              ",
"             ]^^^^^^^^^^^^^^^^^^^^^^^^^^^^^^^^^^^]^^^^^^^^^^^^^^^^^^^^^^^^^^^^^^^^^^^]              ",
"             ]^^^^^^^^^^^^^^^^^^^^^^^^^^^^^^^^^^^]^^^^^^^^^^^^^^^^^^^^^^^^^^^^^^^^^^^]              ",
"             ]^^^^^^^^^^^^^^^^^^^^^^^^^^^^^^^^^^^]^^^^^^^^^^^^^^^^^^^^^^^^^^^^^^^^^^^]              ",
"            #]^^^^^^^^^^^^^^^^^^^^^^^^^^^^^^^^^^^]^^^^^^^^^^^^^^^^^^^^^^^^^^^^^^^^^^^]              ",
"            /]^^^^^^^^^^^^^^^^^^^^^^^^^^^^^^^^^^^]^^^^^^^^^^^^^^^^^^^^^^^^^^^^^^^^^^^]              ",
"           @=]^^^^^^^^^^^^^^^^^^^^^^^^^^^^^^^^^^^]^^^^^^^^^^^^^^^^^^^^^^^^^^^^^^^^^^^]              ",
"             ]^^^^^^^^^^^^^^^^^^^^^^^^^^^^^^^^^^^]^^^^^^^^^^^^^^^^^^^^^^^^^^^^^^^^^^^]              ",
"             ]^^^^^^^^^^^^^^^^^^^^^^^^^^^^^^^^^^^]^^^^^^^^^^^^^^^^^^^^^^^^^^^^^^^^^^^]              ",
"             ]^^^^^^^^^^^^^^^^^^^^^^^^^^^^^^^^^^^]^^^^^^^^^^^^^^^^^^^^^^^^^^^^^^^^^^^]              ",
"             ]^^^^^^^^^^^^^^^^^^^^^^^^^^^^^^^^^^^]^^^^^^^^^^^^^^^^^^^^^^^^^^^^^^^^^^^]              ",
"             ]^^^^^^^^^^^^^^^^^^^^^^^^^^^^^^^^^^^]^^^^^^^^^^^^^^^^^^^^^^^^^^^^^^^^^^^]              ",
"             ]^^^^^^^^^^^^^^^^^^^^^^^^^^^^^^^^^^^]^^^^^^^^^^^^^^^^^^^^^^^^^^^^^^^^^^^]              ",
"             ]^^^^^^^^^^^^^^^^^^^^^^^^^^^^^^^^^^^]^^^^^^^^^^^^^^^^^^^^^^^^^^^^^^^^^^^]              ",
"             ]^^^^^^^^^^^^^^^^^^^^^^^^^^^^^^^^^^^]^^^^^^^^^^^^^^^^^^^^^^^^^^^^^^^^^^^]              ",
"             ]^^^^^^^^^^^^^^^^^^^^^^^^^^^^^^^^^^^]^^^^^^^^^^^^^^^^^^^^^^^^^^^^^^^^^^^]              ",
"             ]^^^^^^^^^^^^^^^^^^^^^^^^^^^^^^^^^^^]^^^^^^^^^^^^^^^^^^^^^^^^^^^^^^^^^^^]              ",
"             ]^^^^^^^^^^^^^^^^^^^^^^^^^^^^^^^^^^^]^^^^^^^^^^^^^^^^^^^^^^^^^^^^^^^^^^^]              ",
"             ]^^^^^^^^^^^^^^^^^^^^^^^^^^^^^^^^^^^]^^^^^^^^^^^^^^^^^^^^^^^^^^^^^^^^^^^]              ",
"(_:::::<<<<::]^^^^^^^^^^^^^^^^^^^^^^^^^^^^^^^^^^^]^^^^^^^^^^^^^^^^^^^^^^^^^^^^^^^^^^^]              ",
"<[}}}}|1111|}]^^^^^^^^^^^^^^^^^^^^^^^^^^^^^^^^^^^]^^^^^^^^^^^^^^^^^^^^^^^^^^^^^^^^^^^] 2222222222222",
"34555564<<465]^^^^^^^^^^^^^^^^^^^^^^^^^^^^^^^^^^^]^^^^^^^^^^^^^^^^^^^^^^^^^^^^^^^^^^^]46555555555556",
"7899999000099]^^^^^^^^^^^^^^^^^^^^^^^^^^^^^^^^^^^]^^^^^^^^^^^^^^^^^^^^^^^^^^^^^^^^^^^]1|}}}}}}}}}}}a",
"0000000000000]^^^^^^^^^^^^^^^^^^^^^^^^^^^^^^^^^^^]^^^^^^^^^^^^^^^^^^^^^^^^^^^^^^^^^^^]<:::::::::::::",
"0000000000000]^^^^^^^^^^^^^^^^^^^^^^^^^^^^^^^^^^^]^^^^^^^^^^^^^^^^^^^^^^^^^^^^^^^^^^^]00000000000000",
"b000000000000]^^^^^^^^^^^^^^^^^^^^^^^^^^^^^^^^^^^]^^^^^^^^^^^^^^^^^^^^^^^^^^^^^^^^^^^]00000000000000",
"cdefgghijkljm]^^^^^^^^^^^^^^^^^^^^^^^^^^^^^^^^^^^]^^^^^^^^^^^^^^^^^^^^^^^^^^^^^^^^^^^]00000000000000",
"             ]^^^^^^^^^^^^^^^^^^^^^^^^^^^^^^^^^^^]^^^^^^^^^^^^^^^^^^^^^^^^^^^^^^^^^^^]00000000000000",
"             ]^^^^^^^^^^^^^^^^^^^^^^^^^^^^^^^^^^^]^^^^^^^^^^^^^^^^^^^^^^^^^^^^^^^^^^^]00000n00000000",
"             ]^^^^^^^^^^^^^^^^^^^^^^^^^^^^^^^^^^^]^^^^^^^^^^^^^^^^^^^^^^^^^^^^^^^^^^^]opqr          ",
"             ]^^^^^^^^^^^^^^^^^^^^^^^^^^^^^^^^^^^]^^^^^^^^^^^^^^^^^^^^^^^^^^^^^^^^^^^]              ",
"             ]^^^^^^^^^^^^^^^^^^^^^^^^^^^^^^^^^^^]^^^^^^^^^^^^^^^^^^^^^^^^^^^^^^^^^^^]              ",
"             ]^^^^^^^^^^^^^^^^^^^^^^^^^^^^^^^^^^^]^^^^^^^^^^^^^^^^^^^^^^^^^^^^^^^^^^^]              ",
"             ]^^^^^^^^^^^^^^^^^^^^^^^^^^^^^^^^^^^]^^^^^^^^^^^^^^^^^^^^^^^^^^^^^^^^^^^]              ",
"             ]^^^^^^^^^^^^^^^^^^^^^^^^^^^^^^^^^^^]^^^^^^^^^^^^^^^^^^^^^^^^^^^^^^^^^^^]              ",
"             ]^^^^^^^^^^^^^^^^^^^^^^^^^^^^^^^^^^^]^^^^^^^^^^^^^^^^^^^^^^^^^^^^^^^^^^^]              ",
" =,,,,s)     ]^^^^^^^^^^^^^^^^^^^^^^^^^^^^^^^^^^^]^^^^^^^^^^^^^^^^^^^^^^^^^^^^^^^^^^^]              ",
"@-tu>>v&     ]^^^^^^^^^^^^^^^^^^^^^^^^^^^^^^^^^^^]^^^^^^^^^^^^^^^^^^^^^^^^^^^^^^^^^^^]              ",
"  w~=        ]^^^^^^^^^^^^^^^^^^^^^^^^^^^^^^^^^^^]^^^^^^^^^^^^^^^^^^^^^^^^^^^^^^^^^^^]              ",
"   #>        ]^^^^^^^^^^^^^^^^^^^^^^^^^^^^^^^^^^^]^^^^^^^^^^^^^^^^^^^^^^^^^^^^^^^^^^^]              ",
"    **       ]^^^^^^^^^^^^^^^^^^^^^^^^^^^^^^^^^^^]^^^^^^^^^^^^^^^^^^^^^^^^^^^^^^^^^^^]              ",
"    @=#      ]^^^^^^^^^^^^^^^^^^^^^^^^^^^^^^^^^^^]^^^^^^^^^^^^^^^^^^^^^^^^^^^^^^^^^^^]              ",
"     =>      ]^^^^^^^^^^^^^^^^^^^^^^^^^^^^^^^^^^^]^^^^^^^^^^^^^^^^^^^^^^^^^^^^^^^^^^^]              ",
"     @==     ]^^^^^^^^^^^^^^^^^^^^^^^^^^^^^^^^^^^]^^^^^^^^^^^^^^^^^^^^^^^^^^^^^^^^^^^]              ",
"      #>@    ]^^^^^^^^^^^^^^^^^^^^^^^^^^^^^^^^^^^]^^^^^^^^^^^^^^^^^^^^^^^^^^^^^^^^^^^]              ",
"       *=    ]^^^^^^^^^^^^^^^^^^^^^^^^^^^^^^^^^^^]^^^^^^^^^^^^^^^^^^^^^^^^^^^^^^^^^^^]              ",
"       @==   ]^^^^^^^^^^^^^^^^^^^^^^^^^^^^^^^^^^^]^^^^^^^^^^^^^^^^^^^^^^^^^^^^^^^^^^^]              ",
"        #>   ]^^^^^^^^^^^^^^^^^^^^^^^^^^^^^^^^^^^]^^^^^^^^^^^^^^^^^^^^^^^^^^^^^^^^^^^]              ",
"         *   ]^^^^^^^^^^^^^^^^^^^^^^^^^^^^^^^^^^^]^^^^^^^^^^^^^^^^^^^^^^^^^^^^^^^^^^^]              ",
"         *   ]^^^^^^^^^^^^^^^^^^^^^^^^^^^^^^^^^^^]^^^^^^^^^^^^^^^^^^^^^^^^^^^^^^^^^^^]              ",
"        *=   ]^^^^^^^^^^^^^^^^^^^^^^^^^^^^^^^^^^^]^^^^^^^^^^^^^^^^^^^^^^^^^^^^^^^^^^^]              ",
"       @=@   ]^^^^^^^^^^^^^^^^^^^^^^^^^^^^^^^^^^^]^^^^^^^^^^^^^^^^^^^^^^^^^^^^^^^^^^^]              ",
"       ,#    ]^^^^^^^^^^^^^^^^^^^^^^^^^^^^^^^^^^^]^^^^^^^^^^^^^^^^^^^^^^^^^^^^^^^^^^^]              ",
"      **     ]^^^^^^^^^^^^^^^^^^^^^^^^^^^^^^^^^^^]^^^^^^^^^^^^^^^^^^^^^^^^^^^^^^^^^^^]              ",
"     @*      ]]]]]]]]]]]]]]]]]]]]]]]]]]]]]]]]]]]]]]]]]]]]]]]]]]]]]]]]]]]]]]]]]]]]]]]]]              ",
"     ,#                          @==                                                                ",
"     *                             @                                                                ",
"    ##                                                                                              ",
"    *#                                                                >/'x**=                       ",
"    =@                                                             @yy,,z**--                       ",
"    *                                                              =A-/>@*                          ",
"    *=                                                                   *                          ",
"    #>                                                                   *                          "};
