/* XPM */
static char * window_xpm[] = {
"100 100 76 1",
" 	c #DBC545",
".	c #000000",
"+	c #1F1A04",
"@	c #813030",
"#	c #0C0901",
"$	c #020200",
"%	c #F77EF7",
"&	c #100D01",
"*	c #1F1B04",
"=	c #171302",
"-	c #050401",
";	c #E697C8",
">	c #080600",
",	c #171403",
"'	c #6A6767",
")	c #726F6F",
"!	c #888787",
"~	c #959595",
"{	c #6B6868",
"]	c #757373",
"^	c #6F6D6D",
"/	c #7C7B7B",
"(	c #696666",
"_	c #868585",
":	c #919191",
"<	c #7E7C7C",
"[	c #727070",
"}	c #7C7A7A",
"|	c #767474",
"1	c #6C6A6A",
"2	c #8B8A8A",
"3	c #878787",
"4	c #7E7D7D",
"5	c #797777",
"6	c #919090",
"7	c #828080",
"8	c #6E6B6B",
"9	c #7D7B7B",
"0	c #807E7E",
"a	c #6F6C6C",
"b	c #6D6A6A",
"c	c #7D7C7C",
"d	c #908F8F",
"e	c #747272",
"f	c #909090",
"g	c #7B7979",
"h	c #838282",
"i	c #6D6B6B",
"j	c #747171",
"k	c #716E6E",
"l	c #878686",
"m	c #8C8B8B",
"n	c #848383",
"o	c #7F7E7E",
"p	c #706D6D",
"q	c #787676",
"r	c #828181",
"s	c #898989",
"t	c #777575",
"u	c #949494",
"v	c #8A8989",
"w	c #8F8F8F",
"x	c #6C6969",
"y	c #737272",
"z	c #727171",
"A	c #808080",
"B	c #7A7878",
"C	c #929292",
"D	c #8D8D8D",
"E	c #737171",
"F	c #888888",
"G	c #737070",
"H	c #939393",
"I	c #8D8C8C",
"J	c #7A7979",
"K	c #6C6C6C",
"                                                                                                    ",
"                                                                                                    ",
"                                                                                                    ",
"                                                                                                    ",
"                                                                                                    ",
"                                                                                                    ",
"                                                                                                    ",
"                                                                                                    ",
"                                                                                                    ",
"          ......................................+..........................................         ",
"          .@@@@@@@@@@@@@@@@@@@@@@@@@@@@@@@@@@@@@@@@@@@@@@@@@@@@@@@@@@@@@@@@@@@@@@@@@@@@@@@.         ",
"          .@@@@@@@@@@@@@@@@@@@@@@@@@@@@@@@@@@@@@@@@@@@@@@@@@@@@@@@@@@@@@@@@@@@@@@@@@@@@@@@.         ",
"          .@@@@@@@@@@@@@@@@@@@@@@@@@@@@@@@@@@@@@@@@@@@@@@@@@@@@@@@@@@@@@@@@@@@@@@@@@@@@@@@.         ",
"          .@@@.................................@@@@@@@.............................#...@@@.         ",
"          $@@@.%%%%%%%%%%%%%%%%%%%%%%%%%%%%%%%..@@@@@..%%%%%%%%%%%%%%%%%%%%%%%%%%%%%%%.@@@.         ",
"          .@@@.%%%%%%%%%%%%%%%%%%%%%%%%%%%%%%%%..@@@..%%%%%%%%%%%%%%%%%%%%%%%%%%%%%%%%.@@@.         ",
"          .@@@.%%%%%%%%%%%%%%%%%%%%%%%%%%%%%%%%%.@@@.%%%%%%%%%%%%%%%%%%%%%%%%%%%%%%%%%.@@@.         ",
"          .@@@.%%%%%%%%%%%%%%%%%%%%%%%%%%%%%%%%%.@@@.%%%%%%%%%%%%%%%%%%%%%%%%%%%%%%%%%.@@@.         ",
"          .@@@.%%%%%%%%%%%%%%%%%%%%%%%%%%%%%%%%%.@@@.%%%%%%%%%%%%%%%%%%%%%%%%%%%%%%%%%.@@@.         ",
"          .@@@.%%%%%%%%%%%%%%%%%%%%%%%%%%%%%%%%%.@@@.%%%%%%%%%%%%%%%%%%%%%%%%%%%%%%%%%.@@@.         ",
"          .@@@.%%%%%%%%%%%%%%%%%%%%%%%%%%%%%%%%%.@@@.%%%%%%%%%%%%%%%%%%%%%%%%%%%%%%%%%.@@@.         ",
"          .@@@.%%%%%%%%%%%%%%%%%%%%%%%%%%%%%%%%%.@@@.%%%%%%%%%%%%%%%%%%%%%%%%%%%%%%%%%.@@@.         ",
"          .@@@.%%%%%%%%%%%%%%%%%%%%%%%%%%%%%%%%%.@@@.%%%%%%%%%%%%%%%%%%%%%%%%%%%%%%%%%.@@@.         ",
"          .@@@.%%%%%%%%%%%%%%%%%%%%%%%%%%%%%%%%%.@@@.%%%%%%%%%%%%%%%%%%%%%%%%%%%%%%%%%.@@@.         ",
"          .@@@.%%%%%%%%%%%%%%%%%%%%%%%%%%%%%%%%%.@@@.%%%%%%%%%%%%%%%%%%%%%%%%%%%%%%%%%.@@@.         ",
"          .@@@.%%%%%%%%%%%%%%%%%%%%%%%%%%%%%%%%%.@@@.%%%%%%%%%%%%%%%%%%%%%%%%%%%%%%%%%.@@@.         ",
"          .@@@.%%%%%%%%%%%%%%%%%%%%%%%%%%%%%%%%%.@@@.%%%%%%%%%%%%%%%%%%%%%%%%%%%%%%%%%.@@@.         ",
"          .@@@.%%%%%%%%%%%%%%%%%%%%%%%%%%%%%%%%%.@@@.%%%%%%%%%%%%%%%%%%%%%%%%%%%%%%%%%.@@@.         ",
"          .@@@.%%%%%%%%%%%%%%%%%%%%%%%%%%%%%%%%%.@@@.%%%%%%%%%%%%%%%%%%%%%%%%%%%%%%%%%.@@@.         ",
"          .@@@.%%%%%%%%%%%%%%%%%%%%%%%%%%%%%%%%%.@@@.%%%%%%%%%%%%%%%%%%%%%%%%%%%%%%%%%.@@@.         ",
"          .@@@.%%%%%%%%%%%%%%%%%%%%%%%%%%%%%%%...@@@...%%%%%%%%%%%%%%%%%%%%%%%%%%%%%%%.@@@.         ",
"          .@@@.%%%%%%%%%%%%%%%%%%%%%%%%%%%%%%..@@@@@@@..%%%%%%%%%%%%%%%%%%%%%%%%%%%%%%.@@@.         ",
"          .@@@.%%%%%%%%%%%%%%%%%%%%%%%%%%%%%..@@@@@@@@@..%%%%%%%%%%%%%%%%%%%%%%%%%%%%%.@@@.         ",
"          .@@@..%%%%%%%%%%%%%%%%%%%%%%%%%%%..@@@@@@@@@@@..%%%%%%%%%%%%%%%%%%%%%%%%%%%..@@@.         ",
"          .@@@@..%%%%%%%%%%%%%%%%%%%%%%%%%%.@@@@@@@@@@@@@.%%%%%%%%%%%%%%%%%%%%%%%%%%..@@@@.         ",
"          .@@@@@...................&.....**.@@@@@@@@@@@@@............................@@@@@.         ",
"          .@@@@@@@@@@@@@@@@@@@@@@@@@@@@@@@@@@@@@@@@@@@@@@@@@@@@@@@@@@@@@@@@@@@@@@@@@@@@@@@.         ",
"          .@@@@@@@@@@@@@@@@@@@@@@@@@@@@@@@@@@@@@@@@@@@@@@@@@@@@@@@@@@@@@@@@@@@@@@@@@@@@@@@.         ",
"          .@@@@@@@@@@@@@@@@@@@@@@@@@@@@@@@@@@@@@@@@@@@@@@@@@@@@@@@@@@@@@@@@@@@@@@@@@@@@@@@.         ",
"          .@@@@@............................@@@@@@@@@@@@@............................@@@@@.         ",
"          .@@@@..%%%%%%%%%%%%%%%%%%%%%%%%%%.@@@@@@@@@@@@@.%%%%%%%%%%%%%%%%%%%%%%%%%%..@@@@.         ",
"          .@@@..%%%%%%%%%%%%%%%%%%%%%%%%%%%..@@@@@@@@@@@..%%%%%%%%%%%%%%%%%%%%%%%%%%%..@@@.         ",
"          .@@@.%%%%%%%%%%%%%%%%%%%%%%%%%%%%%..@@@@@@@@@..%%%%%%%%%%%%%%%%%%%%%%%%%%%%%.@@@.         ",
"          .@@@.%%%%%%%%%%%%%%%%%%%%%%%%%%%%%%..@@@@@@@..%%%%%%%%%%%%%%%%%%%%%%%%%%%%%%.@@@.         ",
"          .@@@.%%%%%%%%%%%%%%%%%%%%%%%%%%%%%%%.=.@@@...%%%%%%%%%%%%%%%%%%%%%%%%%%%%%%%.@@@.         ",
"          .@@@.%%%%%%%%%%%%%%%%%%%%%%%%%%%%%%%%%.@@@.%%%%%%%%%%%%%%%%%%%%%%%%%%%%%%%%%.@@@.         ",
"          .@@@.%%%%%%%%%%%%%%%%%%%%%%%%%%%%%%%%%.@@@.%%%%%%%%%%%%%%%%%%%%%%%%%%%%%%%%%.@@@.         ",
"          .@@@.%%%%%%%%%%%%%%%%%%%%%%%%%%%%%%%%%.@@@.%%%%%%%%%%%%%%%%%%%%%%%%%%%%%%%%%.@@@.         ",
"          .@@@.%%%%%%%%%%%%%%%%%%%%%%%%%%%%%%%%%.@@@.%%%%%%%%%%%%%%%%%%%%%%%%%%%%%%%%%.@@@.         ",
"          .@@@.%%%%%%%%%%%%%%%%%%%%%%%%%%%%%%%%%.@@@.%%%%%%%%%%%%%%%%%%%%%%%%%%%%%%%%%.@@@.         ",
"          .@@@.%%%%%%%%%%%%%%%%%%%%%%%%%%%%%%%%%.@@@.%%%%%%%%%%%%%%%%%%%%%%%%%%%%%%%%%.@@@.         ",
"          .@@@.%%%%%%%%%%%%%%%%%%%%%%%%%%%%%%%%%.@@@.%%%%%%%%%%%%%%%%%%%%%%%%%%%%%%%%%.@@@.         ",
"          .@@@.%%%%%%%%%%%%%%%%%%%%%%%%%%%%%%%%%.@@@.%%%%%%%%%%%%%%%%%%%%%%%%%%%%%%%%%.@@@.         ",
"          .@@@.%%%%%%%%%%%%%%%%%%%%%%%%%%%%%%%%%.@@@.%%%%%%%%%%%%%%%%%%%%%%%%%%%%%%%%%.@@@.         ",
"          .@@@.%%%%%%%%%%%%%%%%%%%%%%%%%%%%%%%%%.@@@.%%%%%%%%%%%%%%%%%%%%%%%%%%%%%%%%%.@@@.         ",
"          .@@@.%%%%%%%%%%%%%%%%%%%%%%%%%%%%%%%%%.@@@.%%%%%%%%%%%%%%%%%%%%%%%%%%%%%%%%%.@@@.         ",
"          .@@@.%%%%%%%%%%%%%%%%%%%%%%%%%%%%%%%%%.@@@.%%%%%%%%%%%%%%%%%%%%%%%%%%%%%%%%%.@@@.         ",
"          .@@@.%%%%%%%%%%%%%%%%%%%%%%%%%%%%%%%%%.@@@.%%%%%%%%%%%%%%%%%%%%%%%%%%%%%%%%%.@@@.         ",
"          .@@@.%%%%%%%%%%%%%%%%%%%%%%%%%%%%%%%%%.@@@.%%%%%%%%%%%%%%%%%%%%%%%%%%%%%%%%%.@@@.         ",
"          .@@@.%%%%%%%%%%%%%%%%%%%%%%%%%%%%%%%%-.@@@..%%%%%%%%%%%%%%%%%%%%%%%%%%%%%%%%.@@@.         ",
"          .@@@.%%;%%%%%%%%%%%%%%%%%%%%%%%%%%%%..@@@@@..%%%%%%%%%%%%%%%%%%%%%%%%%%%%%%%.@@@.         ",
"          .@@@..>..............................@@@@@@@.................................@@@.         ",
"          .@@@@@@@@@@@@@@@@@@@@@@@@@@@@@@@@@@@@@@@@@@@@@@@@@@@@@@@@@@@@@@@@@@@@@@@@@@@@@@@.         ",
"          ,@@@@@@@@@@@@@@@@@@@@@@@@@@@@@@@@@@@@@@@@@@@@@@@@@@@@@@@@@@@@@@@@@@@@@@@@@@@@@@@.         ",
"          ,@@@@@@@@@@@@@@@@@@@@@@@@@@@@@@@@@@@@@@@@@@@@@@@@@@@@@@@@@@@@@@@@@@@@@@@@@@@@@@@.         ",
"          ............................................................+....................         ",
"                                                                                                    ",
"                                                                                                    ",
"                                                                                                    ",
"                                                                                                    ",
"                                                                                                    ",
"                                                                                                    ",
"                                                                                                    ",
"                                                                                                    ",
"                                                                                                    ",
"....................................................................................................",
"''''')!~~!)'{)]^'/~~~/'''(^_~~:<''[}|1'''''']2~34]''''''56~~78'^55^''/~~~/9''''''0~~~0''''''']2~~2]'",
"1ab'']2~~2]''''''/~~~/''''bc~~de'[2:fg1'1ab'^h66h^'ijji'^h2!]{^h66h^'klmlk''}!}''5~~~5''ijji'^h66h^{",
"gnop'^h66h^'^55^'klmlk{qr|1b50e''}:~~na1gnop'^55^'i/ss/i'^]){']2~~2]''ktk''eu~u}'bc_cb'i/ss/i'^55^{]",
"f~~ob'^55^'^h66h^'ktk{g~~fg1'''''|f~~ob|f~~ob'''''js~~sj'''''')!~~!)'''''''0~~~v''b^b''js~~sj'''''87",
":~~na'''''']2~~2]''''8~~~~na'1ab'1gnop'}:~~na'''''js~~sj'{)]^'{]77]{'1|}[''5~~~r'''''''js~~sj'{88{87",
"2:fg1'[}|1')!~~!)''''8~~~~ob1gnop'1ab''[2:fg1^55^'i/ss/i{]!2h^'{88{'1gf:2['b3w3^''e05b'i/ss/i{]77]x]",
"[}|1'[2:fg1{]77]{k//k{t~~op'|f~~ob''''''[}|1^h66h^'ijji'87~~65''''''an~~:}''^y^''ed~~cb'ijji')!~~!){",
"'''''}:~~na'{88{kl~~lk{j^b''}:~~na'''''''''']2~~2]''''''87~~65''b^b'bo~~f|''t_hz'<:~~_^'''''']2~~2]'",
"e05b'|f~~ob'b^b'tm~~mt'{8'''[2:fg1'ijji''''')!~~!)'{)]^'{]!2h^'bc_cb'pong1'k:~~mzed~~cb'k//k'^h66h^'",
"d~~cb1gnop'bc_cbkl~~lk{]A05b'[}|1'i/ss/iijji{]77]{{]!2h^'{)]^''5~~~5''ba1''tu~~:B'e05b'kl~~lk'^55^'^",
":~~_^'1ab''5~~~5'k//k')~~~~cb'''''js~~s|/ss/i{88{'87~~65'''''''0~~~0'''''''kC~~DE'b^b''tm~~mt''''''5",
"d~~cb'e<e''0~~~0'''''']~~~~_^'''''js~~sgs~~sj'''''87~~65''ktk''ed:de''e05b'']2!]'bc_cb'kl~~lk'^55^'5",
"e05b'ed:de'ed:de'k//k'^~~~~cb{)]^'i/ss/|s~~sj^55^'{]!2h^'klmlk''e<e''ed~~cb'1ab''5~~~5''k//k'^h66h^^",
"'''''0~~~0''e<e'kl~~lk'^o05b{]!2h^'ijjii/ss/[h66h^'{)]^''/~~~/'''''''<:~~_^''''''0~~~0''''''']2~~2]'",
"e05b'5~~~5''ktk'tm~~mt''''''87~~65''''''ijji]2~~2]'''''''/~~~/''^]){'ed~~cb'5FnG'ed:de''trt'')!~~!)'",
"d~~cbbc_cb'klmlkkl~~lk'5r/k'87~~65'^nE'{88{')!~~!)'b50e''klmlk'^h2!]{'e05b'eH~~IG'e<e''t~~~t'{]77]{[",
":~~_^'b^b''/~~~/'k//k'5~~~lk{]!2h^'<ml{]77]{{]77]{bc~~de''ktk''56~~78''''''<u~~:J''''''r~~~r''{88{'}",
"d~~cb'e<e''/~~~/''''''n~~~mt'{)]^''El')!~~!)'{88{'^_~~:<'''''''56~~78'{88{KeH~~IG'trt''t~~~t''^55^'|",
"e05b'ed:de'klmlk'{)]^'5~~~lk''ijji'{E']2~~2]''''''bc~~de'{)]^''^h2!]{{]77]{'5FnG't~~~t''trt''^h66h^1",
"'''''0~~~0''ktk'{]!2h^'5!/k''i/ss/i'''^h66h^'^]){''b50e'{]!2h^''^]){')!~~!)''''''r~~~r''''''']2~~2]'",
"e05b'5~~~5''ba1'87~~65'''''''js~~sj''''^55^'^h2!]{''''''87~~65''''''']2~~2]'{)]^'t~~~t''^55^')!~~!)b",
"d~~cbbc_cb'pong187~~65'^gjji'js~~sj'b50e''''56~~78'k//k'87~~65''k//k'^h66h^']!2h^'trt''^h66h^{]77]{5",
":~~_^'b^b'bo~~f|{]!2h^^~~ss/ii/ss/ibc~~de'''56~~78kl~~lk{]!2h^'kl~~lk'^55^''7~~65'''''']2~~2]'{88{'0",
"d~~cb'''''an~~:}'{)]^']~~~~sj'ijji'^_~~:<'''^h2!]{tm~~mt'{)]^''tm~~mt'''''''7~~65'^55^')!~~!)''e<e'e"};
