/* XPM */
static char * window_xpm[] = {
"100 100 2 1",
" 	c #DBC545",
".	c #FF00FF",
"                                                                                                    ",
"                                                                                                    ",
"                                                                                                    ",
"                                                                                                    ",
"                                                                                                    ",
"                                                                                                    ",
"                                                                                                    ",
"                                                                                                    ",
"                                                                                                    ",
"                                                                                                    ",
"                                                                                                    ",
"                                                                                                    ",
"                                                                                                    ",
"                                                                                                    ",
"                                                                                                    ",
"                 .....................................  ........................                    ",
"                 .....................................  ........................                    ",
"                 .....................................  ........................                    ",
"                 .....................................  ........................                    ",
"                 .....................................  ........................                    ",
"                 .....................................  ........................                    ",
"                 .....................................  ........................                    ",
"                 .....................................  ........................                    ",
"                 .....................................  ........................                    ",
"                 .....................................  ........................                    ",
"                 .....................................  ........................                    ",
"                 .....................................  ........................                    ",
"                 .....................................  ........................                    ",
"                 .....................................  ........................                    ",
"                 .....................................  ........................                    ",
"                 .....................................  ........................                    ",
"                 .....................................  ........................                    ",
"                 .....................................  ........................                    ",
"                 .....................................  ........................                    ",
"                 .....................................  ........................                    ",
"                 .....................................  ........................                    ",
"                 .....................................  ........................                    ",
"                 .....................................  ........................                    ",
"                 .....................................  ........................                    ",
"                 .....................................  ........................                    ",
"                 .....................................  ........................                    ",
"                 .....................................  ........................                    ",
"                 .....................................  ........................                    ",
"                 .....................................  ........................                    ",
"                 .....................................  ........................                    ",
"                 .....................................  ........................                    ",
"                 .....................................  ........................                    ",
"                 .....................................  ........................                    ",
"                 .....................................  ........................                    ",
"                 .....................................  ........................                    ",
"                 .....................................  ........................                    ",
"                 .....................................  ........................                    ",
"                 .....................................  ........................                    ",
"                 .....................................  ........................                    ",
"                 .....................................  ........................                    ",
"                 .....................................  ........................                    ",
"                 .....................................  ........................                    ",
"                 .....................................  ........................                    ",
"                 .....................................  ........................                    ",
"                 .....................................  ........................                    ",
"                 .....................................  ........................                    ",
"                 .....................................  ........................                    ",
"                 .....................................  ........................                    ",
"                 .....................................  ........................                    ",
"                 .....................................  ........................                    ",
"                 .....................................  ........................                    ",
"                 .....................................  ........................                    ",
"                                                                                                    ",
"                                                                                                    ",
"                                                                                                    ",
"                                                                                                    ",
"                                                                                                    ",
"                                                                                                    ",
"                                                                                                    ",
"                                                                                                    ",
"                                                                                                    ",
"                                                                                                    ",
"                                                                                                    ",
"                                                                                                    ",
"                                                                                                    ",
"                                                                                                    ",
"                                                                                                    ",
"                                                                                                    ",
"                                                                                                    ",
"                                                                                                    ",
"                                                                                                    ",
"                                                                                                    ",
"                                                                                                    ",
"                                                                                                    ",
"                                                                                                    ",
"                                                                                                    ",
"                                                                                                    ",
"                                                                                                    ",
"                                                                                                    ",
"                                                                                                    ",
"                                                                                                    ",
"                                                                                                    ",
"                                                                                                    ",
"                                                                                                    ",
"                                                                                                    "};
