/* XPM */
static char * bully_dead_xpm[] = {
"75 30 135 2",
"  	c #FF00FF",
". 	c #000000",
"+ 	c #959595",
"@ 	c #010001",
"# 	c #DBAAAA",
"$ 	c #0A000A",
"% 	c #020002",
"& 	c #FFFFFF",
"* 	c #B32323",
"= 	c #FF0000",
"- 	c #150015",
"; 	c #1B001B",
"> 	c #B32222",
", 	c #B22323",
"' 	c #070007",
") 	c #100010",
"! 	c #230023",
"~ 	c #0E000E",
"{ 	c #260026",
"] 	c #190019",
"^ 	c #140014",
"/ 	c #762929",
"( 	c #1D001D",
"_ 	c #FFCFCF",
": 	c #260202",
"< 	c #FF3535",
"[ 	c #DD2D2D",
"} 	c #D62B2B",
"| 	c #AA2020",
"1 	c #8C2A2A",
"2 	c #9E2C2C",
"3 	c #7A1414",
"4 	c #CA2828",
"5 	c #E59797",
"6 	c #160101",
"7 	c #FD3434",
"8 	c #FD4F8B",
"9 	c #BC2424",
"0 	c #580B0B",
"a 	c #771313",
"b 	c #CD2929",
"c 	c #C42626",
"d 	c #CF2A2A",
"e 	c #E39C9C",
"f 	c #8F1919",
"g 	c #DFA3A3",
"h 	c #EF7F7F",
"i 	c #F56A6A",
"j 	c #F66767",
"k 	c #160016",
"l 	c #370037",
"m 	c #CB2828",
"n 	c #FFB8B8",
"o 	c #FF6B6B",
"p 	c #FF9B9B",
"q 	c #F23232",
"r 	c #EA3030",
"s 	c #F77EF7",
"t 	c #FE497C",
"u 	c #FE3535",
"v 	c #E82F2F",
"w 	c #F95C5C",
"x 	c #F13232",
"y 	c #AA2022",
"z 	c #FA5454",
"A 	c #FF3939",
"B 	c #FE3D3D",
"C 	c #EC8585",
"D 	c #EA8A8A",
"E 	c #EE8181",
"F 	c #FC3434",
"G 	c #FB3434",
"H 	c #F93434",
"I 	c #E12D2D",
"J 	c #7C2A2A",
"K 	c #7B2A2A",
"L 	c #F77CF2",
"M 	c #F973DF",
"N 	c #CF2929",
"O 	c #BC2525",
"P 	c #FF3843",
"Q 	c #FE4879",
"R 	c #F86161",
"S 	c #F07C7C",
"T 	c #E32E2E",
"U 	c #E12E2E",
"V 	c #C52E2E",
"W 	c #7D2929",
"X 	c #F77DF5",
"Y 	c #FA6ACB",
"Z 	c #FB62B9",
"` 	c #E42E2E",
" .	c #DA2C2C",
"..	c #050000",
"+.	c #FE4162",
"@.	c #891818",
"#.	c #D43030",
"$.	c #7C2929",
"%.	c #BC2E2E",
"&.	c #F876E5",
"*.	c #FB5FB1",
"=.	c #7A2929",
"-.	c #F971DB",
";.	c #080008",
">.	c #030003",
",.	c #F878EA",
"'.	c #FC5CA9",
").	c #F43232",
"!.	c #C42C2C",
"~.	c #782929",
"{.	c #EE3131",
"].	c #FD508C",
"^.	c #F974E1",
"/.	c #FA68C7",
"(.	c #CA2F2F",
"_.	c #F53333",
":.	c #EF3131",
"<.	c #FA6ACA",
"[.	c #F96ACA",
"}.	c #FD4B7F",
"|.	c #F962B8",
"1.	c #7E2929",
"2.	c #F874E1",
"3.	c #2A0303",
"4.	c #FA6ED4",
"5.	c #F877E8",
"6.	c #D02929",
"7.	c #F94A7E",
"8.	c #0C030C",
"9.	c #030103",
"0.	c #050005",
"a.	c #020000",
"b.	c #060006",
"c.	c #0D000D",
"d.	c #220022",
"                                                                                                                                                      ",
"                                                                                                                                                      ",
"                                                                                                                                                      ",
"                                                                                                                                                      ",
"                                                                                                                                                      ",
"                                                                                                                                                      ",
"                                                                                                                                                      ",
"                                                                                                                                . . . .               ",
"                                                                                                                              . . + + .               ",
"                                                                                                                            . . + + + . .             ",
"                                                                                                                          . . + + + + + .             ",
"                                                  . . . . . . . . . .                                                   . . + + + + + + . .           ",
"                                                  @ # # # # # # # # . .                                                 . + + + + + + + + .           ",
"                                                  . . . . . . . . . # . .                                             . . + + + $ % + + + .           ",
"                                                . . & . & . & . & . . # . . . . . . . .                       . . . . . + + + .     . + + . .         ",
"                                                . * . * . * . * . * . # # . = = = = = . . . . .           - ; . = = = . + + + .     . + + + .         ",
"                                              . . * * * * * * * * * . . # . = = = = = = = = = = . . . . . = = = = = = . + + + .     . + + + .     . . ",
"                                              . * * * * * > , * * * * . # . = = = = = = = = = = = = = = = = = = = = = . + + + . . . . + + + . . . . . ",
"                                              . * * * * ' ) . * * * * . # . ! ~ { ] ^ . . = = = = = = = = = = = = = = . + + . + + + . + + + . . + . / ",
"                    . . . . . . . .           . * * * . / / / @ * * * . # . # # # # # # . . . ( . . = = = = = = = = = . + + . + + + . . + + + . + . / ",
"                . . _ _ _ : < < < . . . . . . . . [ } | 1 } 2 3 * 4 4 . # . # # # # # # # 5 5 # # . . . = = = = = = = . + + . + + + + . + + + . . . / ",
"              . . 6 _ . _ . 7 < < < < 8 8 < < < . 9 0 0 a b < < @ c d 3 e f g # g h i j < 5 5 # # # # . . . . . . = = . + + . . . . . . . + + + .   . ",
"        ( k l < m . n o p < < q r | < s 8 < t t < < < < < u 7 < < < 0 v w x y ' z < < A B < < C D E # # # # # # . . = . + . . .         . . + + .     ",
"        . < < < < < < F G H < I J K v 9 < < L M < < < N 9 < O < P Q < . @ . < . 3 . 3 3 3 . 0 a | 9 < R < S i # # # . . . . # .         . . . . . . . ",
"      . < < < < < < < T U u < < V / W I 9 L X 8 < < G v / / 9 v Q Y Z < < < < < < < < < < < < < < . . `  .S i w e # # # . # # .       . / / / / / / . ",
"    ..< < < < < < < < < < < +.@.< #.$.%.N &.*.< Z Z x < =./ / < < < -.Z < < < < < < < < < < < < < < < < < . ;.. . ( ^ # # # . .       . / / / / / / . ",
"    >.< < < < < < < < < < ,.'.).v !.~.{.N 8 ].< < ^./.v m / / (.9 _.s < < < < < < < < < < < < < < < < < < < .         . . . .           . . . . . .   ",
"    $ < < < < < < < < < Z /.< < :.v ).m <.[.< < < }.-.|.I < 1.< 9 2.< < < < < < < < < < < < < < < < < < < . .                                         ",
"      . . ;.;.. . . . . . . . 3.. . . < 4.5.< < < ^.< < u H < 6.I 7.< . . . . . . . . . . < < < < < < . . .                                           ",
"                                    . . . 8.9.. . . . . . . . 0.a.. - ~ b.              k c.;.d.. . . .                                               "};
