/* XPM */
static char * bully_ub_xpm[] = {
"50 75 31 1",
" 	c #FF00FF",
".	c #000000",
"+	c #DBAAAA",
"@	c #693131",
"#	c #693030",
"$	c #020002",
"%	c #010001",
"&	c #F800F8",
"*	c #D4A0A8",
"=	c #FF0000",
"-	c #010101",
";	c #020511",
">	c #070007",
",	c #000102",
"'	c #010207",
")	c #010205",
"!	c #000103",
"~	c #010209",
"{	c #AF8E8E",
"]	c #080008",
"^	c #0B000B",
"/	c #050005",
"(	c #190019",
"_	c #0F000F",
":	c #0E000E",
"<	c #040004",
"[	c #130013",
"}	c #090009",
"|	c #060006",
"1	c #683030",
"2	c #2D002D",
"                                                  ",
"                                                  ",
"                                                  ",
"                                                  ",
"                                                  ",
"                                                  ",
"                                                  ",
"                                                  ",
"                                                  ",
"                                                  ",
"                                                  ",
"      ........                   ........         ",
"      .++++++.   .............   .++++++.         ",
"      .++++++.  ..@@@@@@@@@@@..  .++++++.         ",
"      .++++++. ..@@@@@@@@@@@@@.. .++++++.         ",
"      .++++++. .@@@@@@@@@@@@@@@. .++++++.         ",
"      .++++++. .@@@@@@@@@@@@@@@. .++++++.         ",
"      .++++++. .@@@@@@@@@@@@@@@. .++++++.         ",
"      .++++++. .@@@@@@@@@@@@@@@. .++++++.         ",
"      .++++++. ...@@@@@@@@@@@... .++++++.         ",
"      .++++++.   .@@@@@@@@@@@.   .++++++.         ",
"      .++++++.   .@@@@@@@@@@@.   .++++++.         ",
"      .++++++.   .@@@#@@@#@@@.   .++++++.         ",
"      .++++++.   ....$%$......   .++++++.         ",
"      .++++++.    &.+++++*+.     .++++++.         ",
"      .++++++. ................. .++++++.         ",
"      .++++++...++.=========.++...++++++.         ",
"      .++++++..++..=========-;++>.++++++.         ",
"      .++++++.+++.===========.+++.++++++.         ",
"      .++++++.+++.===========.+++.++++++.         ",
"      ...++...+++,==========='+++...++...         ",
"        .... .++)!===========.,++. ....           ",
"             .++~=============.++.                ",
"             .+..=============..+.                ",
"             .)-===============--.                ",
"             .===================.                ",
"             .===================.                ",
"             .===================.                ",
"             .===================.                ",
"             .===================.                ",
"             .===================.                ",
"             .===================.                ",
"             .===================.                ",
"             .===================.                ",
"             .===================.                ",
"             .===================.                ",
"             .===================.                ",
"             .===================.                ",
"             .===================.                ",
"             .===================.                ",
"             .....................                ",
"             .{{{{{{{{{{{{{{{{{{{.                ",
"             .{{{{{{{{{{{{{{{{{{{.                ",
"             .{{{{{{{{{{{{{{{{{{{.                ",
"             .{{{{{{{{{{{{{{{{{{{.                ",
"             .{{{{{{{{].^{{{{{{{{.                ",
"             .{{{{{{{.. /({{{{{{{.                ",
"             .{{{{{{./   _/{{{{{{.                ",
"             .{{{{{{:     %{{{{{{.                ",
"             .{{{{{{.     <{{{{{{.                ",
"             .{{{{{{.     ${{{{{{.                ",
"             .{{{{{{.     [{{{{{{.                ",
"             .{{{{{{>     }{{{{{{.                ",
"             .{{{{{{|     .{{{{{{.                ",
"             .{{{{{{.     .{{{{{{.                ",
"             .{{{{{{.     .{{{{{{.                ",
"             .{{{{{{/     .{{{{{{.                ",
"             .{{{{{{<     .{{{{{{.                ",
"             .{{{{{{.     .{{{{{{.                ",
"             .{{{{{{.     .{{{{{{.                ",
"             ......{.     .{......                ",
"          .....@@@..       ..@@@......            ",
"         ..@@@@@@@1.       .1@@@@@@@@..           ",
"         .@@@@@@@@@.       .1@@@@@@@@@.           ",
"         2@@@@@@@@1.       .#@@@@@@@@@.           "};
