/* XPM */
static char * bully_dead_xpm[] = {
"75 30 147 2",
"  	c #FF00FF",
". 	c #000000",
"+ 	c #959595",
"@ 	c #FB00FB",
"# 	c #010001",
"$ 	c #DBAAAA",
"% 	c #F600F6",
"& 	c #0A000A",
"* 	c #020002",
"= 	c #F200F2",
"- 	c #FFFFFF",
"; 	c #FE00FE",
"> 	c #B32323",
", 	c #FF0000",
"' 	c #150015",
") 	c #1B001B",
"! 	c #330033",
"~ 	c #EF00EF",
"{ 	c #FC00FC",
"] 	c #F800F8",
"^ 	c #F900F9",
"/ 	c #B32222",
"( 	c #B22323",
"_ 	c #E800E8",
": 	c #070007",
"< 	c #100010",
"[ 	c #230023",
"} 	c #0E000E",
"| 	c #260026",
"1 	c #190019",
"2 	c #140014",
"3 	c #762929",
"4 	c #1D001D",
"5 	c #FFCFCF",
"6 	c #260202",
"7 	c #FF3535",
"8 	c #DD2D2D",
"9 	c #D62B2B",
"0 	c #AA2020",
"a 	c #8C2A2A",
"b 	c #9E2C2C",
"c 	c #7A1414",
"d 	c #CA2828",
"e 	c #E59797",
"f 	c #160101",
"g 	c #FD3434",
"h 	c #FD4F8B",
"i 	c #BC2424",
"j 	c #580B0B",
"k 	c #771313",
"l 	c #CD2929",
"m 	c #C42626",
"n 	c #CF2A2A",
"o 	c #E39C9C",
"p 	c #8F1919",
"q 	c #DFA3A3",
"r 	c #EF7F7F",
"s 	c #F56A6A",
"t 	c #F66767",
"u 	c #160016",
"v 	c #370037",
"w 	c #CB2828",
"x 	c #FFB8B8",
"y 	c #FF6B6B",
"z 	c #FF9B9B",
"A 	c #F23232",
"B 	c #EA3030",
"C 	c #F77EF7",
"D 	c #FE497C",
"E 	c #FE3535",
"F 	c #E82F2F",
"G 	c #F95C5C",
"H 	c #F13232",
"I 	c #AA2022",
"J 	c #FA5454",
"K 	c #FF3939",
"L 	c #FE3D3D",
"M 	c #EC8585",
"N 	c #EA8A8A",
"O 	c #EE8181",
"P 	c #FD00FD",
"Q 	c #FC3434",
"R 	c #FB3434",
"S 	c #F93434",
"T 	c #E12D2D",
"U 	c #7C2A2A",
"V 	c #7B2A2A",
"W 	c #F77CF2",
"X 	c #F973DF",
"Y 	c #CF2929",
"Z 	c #BC2525",
"` 	c #FF3843",
" .	c #FE4879",
"..	c #F86161",
"+.	c #F07C7C",
"@.	c #E32E2E",
"#.	c #E12E2E",
"$.	c #C52E2E",
"%.	c #7D2929",
"&.	c #F77DF5",
"*.	c #FA6ACB",
"=.	c #FB62B9",
"-.	c #E42E2E",
";.	c #DA2C2C",
">.	c #050000",
",.	c #FE4162",
"'.	c #891818",
").	c #D43030",
"!.	c #7C2929",
"~.	c #BC2E2E",
"{.	c #F876E5",
"].	c #FB5FB1",
"^.	c #7A2929",
"/.	c #F971DB",
"(.	c #080008",
"_.	c #030003",
":.	c #F878EA",
"<.	c #FC5CA9",
"[.	c #F43232",
"}.	c #C42C2C",
"|.	c #782929",
"1.	c #EE3131",
"2.	c #FD508C",
"3.	c #F974E1",
"4.	c #FA68C7",
"5.	c #CA2F2F",
"6.	c #F53333",
"7.	c #EF3131",
"8.	c #FA6ACA",
"9.	c #F96ACA",
"0.	c #FD4B7F",
"a.	c #F962B8",
"b.	c #7E2929",
"c.	c #F874E1",
"d.	c #2A0303",
"e.	c #FA6ED4",
"f.	c #F877E8",
"g.	c #D02929",
"h.	c #F94A7E",
"i.	c #F100F1",
"j.	c #0C030C",
"k.	c #030103",
"l.	c #050005",
"m.	c #020000",
"n.	c #060006",
"o.	c #0D000D",
"p.	c #220022",
"                                                                                                                                                      ",
"                                                                                                                                                      ",
"                                                                                                                                                      ",
"                                                                                                                                                      ",
"                                                                                                                                                      ",
"                                                                                                                                                      ",
"                                                                                                                                                      ",
"                                                                                                                                . . . .               ",
"                                                                                                                              . . + + .               ",
"                                                                                                                            . . + + + . .             ",
"                                                                                                                          . . + + + + + .             ",
"                                                  . . . . . . . . . .                                                   . . + + + + + + . .           ",
"                                                @ # $ $ $ $ $ $ $ $ . .                                                 . + + + + + + + + .           ",
"                                                % . . . . . . . . . $ . .                                             . . + + + & * + + + . =         ",
"                                                . . - . - . - . - . . $ . . . . . . . .                       . . . . . + + + . ; ; . + + . .         ",
"                                                . > . > . > . > . > . $ $ . , , , , , . . . . .           ' ) ! , , , . + + + . ~ ~ . + + + .         ",
"                                              . . > > > > > > > > > . . $ . , , , , , , , , , , . . . . . , , , , , , . + + + . { ] . + + + . ^   . . ",
"                                              . > > > > > / ( > > > > . $ . , , , , , , , , , , , , , , , , , , , , , . + + + . . . . + + + . . . . . ",
"                    _                         . > > > > : < . > > > > . $ . [ } | 1 2 . . , , , , , , , , , , , , , , . + + . + + + . + + + . . + . 3 ",
"                    . . . . . . . .     ^     . > > > . 3 3 3 # > > > . $ . $ $ $ $ $ $ . . . 4 . . , , , , , , , , , . + + . + + + . . + + + . + . 3 ",
"                . . 5 5 5 6 7 7 7 . . . . . . . . 8 9 0 a 9 b c > d d . $ . $ $ $ $ $ $ $ e e $ $ . . . , , , , , , , . + + . + + + + . + + + . . . 3 ",
"              . . f 5 . 5 . g 7 7 7 7 h h 7 7 7 . i j j k l 7 7 # m n c o p q $ q r s t 7 e e $ $ $ $ . . . . . . , , . + + . . . . . . . + + + .   . ",
"        4 u v 7 w . x y z 7 7 A B 0 7 C h 7 D D 7 7 7 7 7 E g 7 7 7 j F G H I : J 7 7 K L 7 7 M N O $ $ $ $ $ $ . . , . + . . .         . . + + . P   ",
"        . 7 7 7 7 7 7 Q R S 7 T U V F i 7 7 W X 7 7 7 Y i 7 Z 7 `  .7 . # . 7 . c . c c c . j k 0 i 7 ..7 +.s $ $ $ . . . . $ .         . . . . . . . ",
"      . 7 7 7 7 7 7 7 @.#.E 7 7 $.3 %.T i W &.h 7 7 R F 3 3 i F  .*.=.7 7 7 7 7 7 7 7 7 7 7 7 7 7 . . -.;.+.s G o $ $ $ . $ $ .       . 3 3 3 3 3 3 . ",
"    >.7 7 7 7 7 7 7 7 7 7 7 ,.'.7 ).!.~.Y {.].7 =.=.H 7 ^.3 3 7 7 7 /.=.7 7 7 7 7 7 7 7 7 7 7 7 7 7 7 7 7 . (.. . 4 2 $ $ $ . .       . 3 3 3 3 3 3 . ",
"    _.7 7 7 7 7 7 7 7 7 7 :.<.[.F }.|.1.Y h 2.7 7 3.4.F w 3 3 5.i 6.C 7 7 7 7 7 7 7 7 7 7 7 7 7 7 7 7 7 7 7 .         . . . .           . . . . . .   ",
"    & 7 7 7 7 7 7 7 7 7 =.4.7 7 7.F [.w 8.9.7 7 7 0./.a.T 7 b.7 i c.7 7 7 7 7 7 7 7 7 7 7 7 7 7 7 7 7 7 7 . .                                         ",
"      . . (.(.. . . . . . . . d.. . . 7 e.f.7 7 7 3.7 7 E S 7 g.T h.7 . . . . . . . . . . 7 7 7 7 7 7 . . .                                           ",
"                              @ ; i.. . . j.k.. . . . . . . . l.m.. ' } n.    _ _ _ _ _ u o.(.p.. . . . _                                             "};
