/* XPM */
static char * bully_db_xpm[] = {
"50 75 42 1",
" 	c #FF00FF",
".	c #000000",
"+	c #260026",
"@	c #8CA3E0",
"#	c #693131",
"$	c #DBAAAA",
"%	c #693030",
"&	c #020002",
"*	c #040004",
"=	c #090009",
"-	c #D4A0A8",
";	c #010001",
">	c #FF0000",
",	c #010209",
"'	c #DAAAAA",
")	c #040A1D",
"!	c #010410",
"~	c #0C000C",
"{	c #060E24",
"]	c #07102A",
"^	c #020513",
"/	c #000001",
"(	c #010102",
"_	c #010101",
":	c #010309",
"<	c #010206",
"[	c #100010",
"}	c #020614",
"|	c #0A1430",
"1	c #0D000D",
"2	c #AF8E8E",
"3	c #080008",
"4	c #0B000B",
"5	c #050005",
"6	c #190019",
"7	c #0F000F",
"8	c #0E000E",
"9	c #130013",
"0	c #070007",
"a	c #060006",
"b	c #683030",
"c	c #2D002D",
"                                                  ",
"                                                  ",
"                                                  ",
"                                                  ",
"                                                  ",
"                                                  ",
"                 .+.                              ",
"                .@@@.                             ",
"           ...  .@@@@.                            ",
"          .@@@.  ...@.                            ",
"          .@@@@.   ..                             ",
"           ...@.                                  ",
"             ..  .............                    ",
"                ..###########..                   ",
"      ........ ..#############.. ........         ",
"      .$$$$$$. .###############. .$$$$$$.         ",
"      .$$$$$$. .###############. .$$$$$$.         ",
"      .$$$$$$. .###############. .$$$$$$.         ",
"      .$$$$$$. .###############. .$$$$$$.         ",
"      .$$$$$$. ...###########... .$$$$$$.         ",
"      .$$$$$$.   .###########.   .$$$$$$.         ",
"      .$$$$$$.   .###########.   .$$$$$$.         ",
"      .$$$$$$.   .#######%###.   .$$$$$$.         ",
"      .$$$$$$.   ....&*=......   .$$$$$$.         ",
"      .$$$$$$.     .$$$$$-$.     .$$$$$$.         ",
"      .$$$$$$. ................; .$$$$$$.         ",
"      .$$$$$$...$$.>>>>>>>>>,$$...$$$$$$.         ",
"      .$$$$'$..$$)!>>>>>>>>>..$$~.$$$$$$.         ",
"      .$$$$$$.$$$.>>>>>>>>>>>.$$$.$$$$$$.         ",
"      .$$$$$$.$$${>>>>>>>>>>>.$$$.$$$$$$.         ",
"      .$$$$$'.$$$]>>>>>>>>>>>^$$$.$$$$$$.         ",
"      ;$$$$$$.$$./>>>>>>>>>>>(_$$.$$$$$$.         ",
"      &$$$$$$.$$.>>>>>>>>>>>>>.$$.$$$$$$.         ",
"      =..$$;..$/.>>>>>>>>>>>>>:<$.&~$$[.&         ",
"        *&&. ...>>>>>>>>>>>>>>>}|. &.1.           ",
"             .>>>>>>>>>>>>>>>>>>>.                ",
"             .>>>>>>>>>>>>>>>>>>>.                ",
"             .>>>>>>>>>>>>>>>>>>>.                ",
"             .>>>>>>>>>>>>>>>>>>>.                ",
"             .>>>>>>>>>>>>>>>>>>>.                ",
"             .>>>>>>>>>>>>>>>>>>>.                ",
"             .>>>>>>>>>>>>>>>>>>>.                ",
"             .>>>>>>>>>>>>>>>>>>>.                ",
"             .>>>>>>>>>>>>>>>>>>>.                ",
"             .>>>>>>>>>>>>>>>>>>>.                ",
"             .>>>>>>>>>>>>>>>>>>>.                ",
"             .>>>>>>>>>>>>>>>>>>>.                ",
"             .>>>>>>>>>>>>>>>>>>>.                ",
"             .>>>>>>>>>>>>>>>>>>>.                ",
"             .>>>>>>>>>>>>>>>>>>>.                ",
"             .....................                ",
"             .2222222222222222222.                ",
"             .2222222222222222222.                ",
"             .2222222222222222222.                ",
"             .2222222222222222222.                ",
"             .222222223.422222222.                ",
"             .2222222.. 562222222.                ",
"             .222222.5   75222222.                ",
"             .2222228     ;222222.                ",
"             .222222.     *222222.                ",
"             .222222.     &222222.                ",
"             .222222.     9222222.                ",
"             .2222220     =222222.                ",
"             .222222a     .222222.                ",
"             .222222.     .222222.                ",
"             .222222.     .222222.                ",
"             .2222225     .222222.                ",
"             .222222*     .222222.                ",
"             .222222.     .222222.                ",
"             .222222.     .222222.                ",
"             ......2.     .2......                ",
"          .....###..       ..###......            ",
"         ..#######b.       .b########..           ",
"         .#########.       .b#########.           ",
"         c########b.       .%#########.           "};
