/* XPM */
static char * bully_uf_xpm[] = {
"50 75 42 1",
" 	c #FF00FF",
".	c #000000",
"+	c #DAA9A9",
"@	c #DBAAAA",
"#	c #693131",
"$	c #DAAAAA",
"%	c #150015",
"&	c #D9A9A9",
"*	c #FFFFFF",
"=	c #D7A8A8",
"-	c #200020",
";	c #ED468A",
">	c #E4005C",
",	c #ED4689",
"'	c #020002",
")	c #040004",
"!	c #090009",
"~	c #D4A0A8",
"{	c #010205",
"]	c #FF0000",
"^	c #000105",
"/	c #010101",
"(	c #010206",
"_	c #000102",
":	c #000104",
"<	c #02020C",
"[	c #010102",
"}	c #02030D",
"|	c #AF8E8E",
"1	c #080008",
"2	c #0B000B",
"3	c #050005",
"4	c #190019",
"5	c #0F000F",
"6	c #0E000E",
"7	c #010001",
"8	c #130013",
"9	c #070007",
"0	c #060006",
"a	c #683030",
"b	c #2D002D",
"c	c #693030",
"                                                  ",
"                                                  ",
"                                                  ",
"                                                  ",
"                                                  ",
"                                                  ",
"                                                  ",
"                                                  ",
"                                                  ",
"                                                  ",
"                                                  ",
"      ........                   ........         ",
"      .+@@@@@.   .............   .@@@@@@.         ",
"      .+@@@@@.  ..###########..  .@@@@@@.         ",
"      .$@@@@@. ..#############.. .@@@@@@.         ",
"      .+@@@@@. .###.........###. .@@@@@@.         ",
"      .@@@@@@. .##..@@@@@@@..##. .@@@@@@.         ",
"      .@@@@@@. .#..@@.@@@%@@..#. .@@@@@@.         ",
"      .&@@@@@. .#.@@.*.@.*.@@.#. .@@@@@@.         ",
"      .$@@@@@. ...@@@.@@@.@@@... .@@@@@@.         ",
"      .@@@@@@.   .&@@@@@@@@@&.   .@@@@@@.         ",
"      .$@@@@@.   .=@@@..%@@@&.   .@@@@@@.         ",
"      .@@@@@@.   .@@@-;>,.@@@.   .@@@@@@.         ",
"      .@@@@@@.   ...@')!..@...   .@@@@@@.         ",
"      .@@@@@@.     .@@@@@~@.     .@@@@@@.         ",
"      .@@@@@@. ................. .@@@@@@.         ",
"      .@@@@@@...@@{]]]]]]]]].@@...@@@@@@.         ",
"      .@@@@@@..@@.^]]]]]]]]]/(@@..@@@@@@.         ",
"      .@@@@@@.@@@_]]]]]]]]]]]:@@@.@@@@@@.         ",
"      .@@@@@@.@@@:]]]]]]]]]]].@@@.@@@@@@.         ",
"      ...@@...@@@.]]]]]]]]]]].@@@...@@...         ",
"        .... .@@<.]]]]]]]]]]].:@@. ....           ",
"             .@@.]]]]]]]]]]]]].@@.                ",
"             .@[.]]]]]]]]]]]]]..@.                ",
"             ..}]]]]]]]]]]]]]]]...                ",
"             .]]]]]]]]]]]]]]]]]]].                ",
"             .]]]]]]]]]]]]]]]]]]].                ",
"             .]]]]]]]]]]]]]]]]]]].                ",
"             .]]]]]]]]]]]]]]]]]]].                ",
"             .]]]]]]]]]]]]]]]]]]].                ",
"             .]]]]]]]]]]]]]]]]]]].                ",
"             .]]]]]]]]]]]]]]]]]]].                ",
"             .]]]]]]]]]]]]]]]]]]].                ",
"             .]]]]]]]]]]]]]]]]]]].                ",
"             .]]]]]]]]]]]]]]]]]]].                ",
"             .]]]]]]]]]]]]]]]]]]].                ",
"             .]]]]]]]]]]]]]]]]]]].                ",
"             .]]]]]]]]]]]]]]]]]]].                ",
"             .]]]]]]]]]]]]]]]]]]].                ",
"             .]]]]]]]]]]]]]]]]]]].                ",
"             .....................                ",
"             .|||||||||||||||||||.                ",
"             .|||||||||||||||||||.                ",
"             .|||||||||||||||||||.                ",
"             .|||||||||||||||||||.                ",
"             .||||||||1.2||||||||.                ",
"             .|||||||.. 34|||||||.                ",
"             .||||||.3   53||||||.                ",
"             .||||||6     7||||||.                ",
"             .||||||.     )||||||.                ",
"             .||||||.     '||||||.                ",
"             .||||||.     8||||||.                ",
"             .||||||9     !||||||.                ",
"             .||||||0     .||||||.                ",
"             .||||||.     .||||||.                ",
"             .||||||.     .||||||.                ",
"             .||||||3     .||||||.                ",
"             .||||||)     .||||||.                ",
"             .||||||.     .||||||.                ",
"             .||||||.     .||||||.                ",
"             ......|.     .|......                ",
"          .....###..       ..###......            ",
"         ..#######a.       .a########..           ",
"         .#########.       .a#########.           ",
"         b########a.       .c#########.           "};
