/* XPM */
static char * bully_uf_xpm[] = {
"50 75 43 1",
" 	c #FF00FF",
".	c #000000",
"+	c #DAA9A9",
"@	c #DBAAAA",
"#	c #693131",
"$	c #DAAAAA",
"%	c #150015",
"&	c #D9A9A9",
"*	c #FFFFFF",
"=	c #D7A8A8",
"-	c #200020",
";	c #ED468A",
">	c #E4005C",
",	c #ED4689",
"'	c #020002",
")	c #040004",
"!	c #090009",
"~	c #F800F8",
"{	c #D4A0A8",
"]	c #010205",
"^	c #FF0000",
"/	c #000105",
"(	c #010101",
"_	c #010206",
":	c #000102",
"<	c #000104",
"[	c #02020C",
"}	c #010102",
"|	c #02030D",
"1	c #AF8E8E",
"2	c #080008",
"3	c #0B000B",
"4	c #050005",
"5	c #190019",
"6	c #0F000F",
"7	c #0E000E",
"8	c #010001",
"9	c #130013",
"0	c #070007",
"a	c #060006",
"b	c #683030",
"c	c #2D002D",
"d	c #693030",
"                                                  ",
"                                                  ",
"                                                  ",
"                                                  ",
"                                                  ",
"                                                  ",
"                                                  ",
"                                                  ",
"                                                  ",
"                                                  ",
"                                                  ",
"      ........                   ........         ",
"      .+@@@@@.   .............   .@@@@@@.         ",
"      .+@@@@@.  ..###########..  .@@@@@@.         ",
"      .$@@@@@. ..#############.. .@@@@@@.         ",
"      .+@@@@@. .###.........###. .@@@@@@.         ",
"      .@@@@@@. .##..@@@@@@@..##. .@@@@@@.         ",
"      .@@@@@@. .#..@@.@@@%@@..#. .@@@@@@.         ",
"      .&@@@@@. .#.@@.*.@.*.@@.#. .@@@@@@.         ",
"      .$@@@@@. ...@@@.@@@.@@@... .@@@@@@.         ",
"      .@@@@@@.   .&@@@@@@@@@&.   .@@@@@@.         ",
"      .$@@@@@.   .=@@@..%@@@&.   .@@@@@@.         ",
"      .@@@@@@.   .@@@-;>,.@@@.   .@@@@@@.         ",
"      .@@@@@@.   ...@')!..@...   .@@@@@@.         ",
"      .@@@@@@.    ~.@@@@@{@.     .@@@@@@.         ",
"      .@@@@@@. ................. .@@@@@@.         ",
"      .@@@@@@...@@]^^^^.^^^^.@@...@@@@@@.         ",
"      .@@@@@@..@@./^^^^.^^^^(_@@..@@@@@@.         ",
"      .@@@@@@.@@@:^^^^^.^^^^^<@@@.@@@@@@.         ",
"      .@@@@@@.@@@<^^^^^.^^^^^.@@@.@@@@@@.         ",
"      ...@@...@@@.^^^^^.^^^^^.@@@...@@...         ",
"        .... .@@[.^^^^^.^^^^^.<@@. ....           ",
"             .@@.^^^^^^.^^^^^^.@@.                ",
"             .@}.^^^^^^.^^^^^^..@.                ",
"             ..|^^^^^^^.^^^^^^^...                ",
"             .^^^^^^^^^.^^^^^^^^^.                ",
"             .^^^^^^^^^.^^^^^^^^^.                ",
"             .^^^^^^^^^.^^^^^^^^^.                ",
"             .^^^^^^^^^.^^^^^^^^^.                ",
"             .^^^^^^^^^.^^^^^^^^^.                ",
"             .^^^^^^^^^.^^^^^^^^^.                ",
"             .^^^^^^^^^.^^^^^^^^^.                ",
"             .^^^^^^^^^.^^^^^^^^^.                ",
"             .^^^^^^^^^.^^^^^^^^^.                ",
"             .^^^^^^^^^.^^^^^^^^^.                ",
"             .^^^^^^^^^.^^^^^^^^^.                ",
"             .^^^^^^^^^.^^^^^^^^^.                ",
"             .^^^^^^^^^.^^^^^^^^^.                ",
"             .^^^^^^^^^.^^^^^^^^^.                ",
"             .^^^^^^^^^.^^^^^^^^^.                ",
"             .....................                ",
"             .1111111111111111111.                ",
"             .1111111111111111111.                ",
"             .1111111111111111111.                ",
"             .1111111111111111111.                ",
"             .111111112.311111111.                ",
"             .1111111.. 451111111.                ",
"             .111111.4   64111111.                ",
"             .1111117     8111111.                ",
"             .111111.     )111111.                ",
"             .111111.     '111111.                ",
"             .111111.     9111111.                ",
"             .1111110     !111111.                ",
"             .111111a     .111111.                ",
"             .111111.     .111111.                ",
"             .111111.     .111111.                ",
"             .1111114     .111111.                ",
"             .111111)     .111111.                ",
"             .111111.     .111111.                ",
"             .111111.     .111111.                ",
"             ......1.     .1......                ",
"          .....###..       ..###......            ",
"         ..#######b.       .b########..           ",
"         .#########.       .b#########.           ",
"         c########b.       .d#########.           "};
