/* XPM */
static char * bully_df_xpm[] = {
"50 75 55 1",
" 	c #FF00FF",
".	c #000000",
"+	c #260026",
"@	c #8CA3E0",
"#	c #693131",
"$	c #DBAAAA",
"%	c #150015",
"&	c #FFFFFF",
"*	c #D9A9A9",
"=	c #D7A8A8",
"-	c #200020",
";	c #ED468A",
">	c #E4005C",
",	c #ED4689",
"'	c #020002",
")	c #040004",
"!	c #090009",
"~	c #D4A0A8",
"{	c #010001",
"]	c #020512",
"^	c #FF0000",
"/	c #010104",
"(	c #DAAAAA",
"_	c #04091E",
":	c #02030D",
"<	c #02040E",
"[	c #010102",
"}	c #0C000C",
"|	c #04081B",
"1	c #010309",
"2	c #D7A7A7",
"3	c #010204",
"4	c #000102",
"5	c #000104",
"6	c #020515",
"7	c #000103",
"8	c #000001",
"9	c #020411",
"0	c #100010",
"a	c #000002",
"b	c #060E25",
"c	c #0D000D",
"d	c #AF8E8E",
"e	c #080008",
"f	c #0B000B",
"g	c #050005",
"h	c #190019",
"i	c #0F000F",
"j	c #0E000E",
"k	c #130013",
"l	c #070007",
"m	c #060006",
"n	c #683030",
"o	c #2D002D",
"p	c #693030",
"                                                  ",
"                                                  ",
"                                                  ",
"                                                  ",
"                                                  ",
"                                                  ",
"                 .+.                              ",
"                .@@@.                             ",
"           ...  .@@@@.                            ",
"          .@@@.  ...@.                            ",
"          .@@@@.   ..                             ",
"           ...@.                                  ",
"             ..  .............                    ",
"                ..###########..                   ",
"      ........ ..#############.. ........         ",
"      .$$$$$$. .###.........###. .$$$$$$.         ",
"      .$$$$$$. .##..$$$$$$$..##. .$$$$$$.         ",
"      .$$$$$$. .#..$$.$$$%$$..#. .$$$$$$.         ",
"      .$$$$$$. .#.$$.&.$.&.$$.#. .$$$$$$.         ",
"      .$$$$$$. ...$$$.$$$.$$$... .$$$$$$.         ",
"      .$$$$$$.   .*$$$$$$$$$*.   .$$$$$$.         ",
"      .$$$$$$.   .=$$$..%$$$*.   .$$$$$$.         ",
"      .$$$$$$.   .$$$-;>,.$$$.   .$$$$$$.         ",
"      .$$$$$$.   ...$')!..$...   .$$$$$$.         ",
"      .$$$$$$.     .$$$$$~$.     .$$$$$$.         ",
"      .$$$$$$. ................{ .$$$$$$.         ",
"      .$$$$$$...$$]^^^^^^^^^/$$...$$$$$$.         ",
"      .$$$$($..$$_:^^^^^^^^^<[$$}.$$$$$$.         ",
"      .$$$$$$.$$$|^^^^^^^^^^^[$$$.$$$$$$.         ",
"      .$$$$$$.$$$1^^^^^^^^^^^.$$$.$$$$$$.         ",
"      .2$$$$$.$$$[^^^^^^^^^^^.$$$.2$$$$(.         ",
"      {$$$$$$.$$34^^^^^^^^^^^56$$.$$$$$$.         ",
"      '$$$$$$.$$7^^^^^^^^^^^^^.$$.$$$$$$.         ",
"      !..$${..$85^^^^^^^^^^^^^9.$.'}$$0.'         ",
"        )''. ..]^^^^^^^^^^^^^^^ab. '.c.           ",
"             .^^^^^^^^^^^^^^^^^^^.                ",
"             .^^^^^^^^^^^^^^^^^^^.                ",
"             .^^^^^^^^^^^^^^^^^^^.                ",
"             .^^^^^^^^^^^^^^^^^^^.                ",
"             .^^^^^^^^^^^^^^^^^^^.                ",
"             .^^^^^^^^^^^^^^^^^^^.                ",
"             .^^^^^^^^^^^^^^^^^^^.                ",
"             .^^^^^^^^^^^^^^^^^^^.                ",
"             .^^^^^^^^^^^^^^^^^^^.                ",
"             .^^^^^^^^^^^^^^^^^^^.                ",
"             .^^^^^^^^^^^^^^^^^^^.                ",
"             .^^^^^^^^^^^^^^^^^^^.                ",
"             .^^^^^^^^^^^^^^^^^^^.                ",
"             .^^^^^^^^^^^^^^^^^^^.                ",
"             .^^^^^^^^^^^^^^^^^^^.                ",
"             .....................                ",
"             .ddddddddddddddddddd.                ",
"             .ddddddddddddddddddd.                ",
"             .ddddddddddddddddddd.                ",
"             .ddddddddddddddddddd.                ",
"             .dddddddde.fdddddddd.                ",
"             .ddddddd.. ghddddddd.                ",
"             .dddddd.g   igdddddd.                ",
"             .ddddddj     {dddddd.                ",
"             .dddddd.     )dddddd.                ",
"             .dddddd.     'dddddd.                ",
"             .dddddd.     kdddddd.                ",
"             .ddddddl     !dddddd.                ",
"             .ddddddm     .dddddd.                ",
"             .dddddd.     .dddddd.                ",
"             .dddddd.     .dddddd.                ",
"             .ddddddg     .dddddd.                ",
"             .dddddd)     .dddddd.                ",
"             .dddddd.     .dddddd.                ",
"             .dddddd.     .dddddd.                ",
"             ......d.     .d......                ",
"          .....###..       ..###......            ",
"         ..#######n.       .n########..           ",
"         .#########.       .n#########.           ",
"         o########n.       .p#########.           "};
