/* XPM */
static char * chad_h_xpm[] = {
"100 100 14 1",
" 	c #FF00FF",
".	c #000000",
"+	c #4C4040",
"@	c #413737",
"#	c #4B4040",
"$	c #4B3F3F",
"%	c #4A3E3E",
"&	c #2C2424",
"*	c #1F1919",
"=	c #4A3F3F",
"-	c #141010",
";	c #3C3232",
">	c #443939",
",	c #352C2C",
"                                ...........................                                         ",
"                               ....+++++++++++++++...........                                       ",
"                               ..+++++++++++++++++++++++++++....                                    ",
"                              ..++++++++..........++++++++++++...                                   ",
"                              ..+++++++@..............+++++++++..                                   ",
"                              ...++++++................+++++++++..                                  ",
"                               ...+++++..................+++++++..                                  ",
"                               ....++++...................++++++..                                  ",
"                                ...##++....................+++++..                                  ",
"                                ...@$+++....................++++..                                  ",
"                                 ...%+++....................++++..                                  ",
"                                  ..&++++...................++++..                                  ",
"                        .............++++...................++++..  ...........                     ",
"                .....................++++...................++++.................                   ",
"              ..........++++++++++..+++++...................++++...++++++++++++.....                ",
"           .....+++++++++++++++++...+++++*.................+++++..++++++++++++++++.....             ",
"           ..++++++++++++++++++++...+++++..................+++++..++++++++++++++++++.....           ",
"          ..+++++++++++++++++++++..+++++=..................+++++..++++++++++++++++++++...           ",
"         ..++++++++++++++++++++++.-+++++=..................;++++..++++++++++++++++++++++..          ",
"        ...+++++++++++++++++++++=.++++++>..................+++++..+++++++++++++++++++++++..         ",
"        ..+++++++++++++++++++++++.,++++++..................+++++..+++++++++++++++++++++++..         ",
"        ..+++++++++++++++++++++++.,++++++.................+++++..+++++++++++++++++++++++++..        ",
"       ..++++++++++++++++++++++++.,+++++++................+++++..+++++++++++++++++++++++++..        ",
"       ..++++++++++++++++++++++++.,+++++++++.............++++++..++++++++++++++++++++++++++..       ",
"       ..++++++++++++++++++++++++.,+++++++++++...........++++++.+++++++++++++++++++++++++++..       ",
"       ..++++++++++++++++++++++++..++++++++++++++++++..+++++++..++++++++++++++++++++++++++++..      ",
"       ..++++++++++++++++++++++++..+++++++++++++++++++++++++++..++++++++++++++++++++++++++++..      ",
"      ..++++++++++++++++++++++++++..++++++++++++++++++++++++++.+++++++++++++++++++++++++++++..      ",
"      ..++++++++++++++++++++++++++...+++++++++++++++++++++++...+++++++++++++++++++++++++++++..      ",
"      ..++++++++++++++++++++++++++++..++++++++++++++++++++....+++++++++++++++++++++++++++++++..     ",
"      ..++++++++++++++++++++++++++++...+++++++++++++++++....+++++++++++++++++++++++++++++++++..     ",
"      ..++++++++++++++++++++++++++++++.......+++++++......+++++++++++++++++++++++++++++++++++..     ",
"      ..++++++++++++++++++++++++++++++++...............+++++++++++++++++++++++++++++++++++++++..    ",
"      ..++++++++++++++++++++++++++++++++++++++.......++++++++++++++++++++++++++++++++++++++++..     ",
"      ..++++++++++++++++++++++++++++++++++++++......++++++++++++++++++++++++++++++++++++++++++.     ",
"      ..++++++++++++++++++++++++++++++++++++++......++++++++++++++++++++++++++++++++++++++++++.     ",
"      ..++++++++++++++++++++++++++++++++++++++......++++++++++++++++++++++++++++++++++++++++++.     ",
"      .+++++++++++++++++++++++++++++++++++++++......++++++++++++++++++++++++++++++++++++++++++.     ",
"     ..+++++++++++++++++++++++++++++++++++++++......++++++++++++++++++++++++++++++++++++++++++.     ",
"     ..+++++++++++++++++++++++++++++++++++++++......++++++++++++++++++++++++++++++++++++++++++..    ",
"     .++++++++++++++++++++++++++++++++++++++++......++++++++++++++++++++++++++++++++++++++++++..    ",
"    ..++++++++++++++++++++++++++++++++++++++++.......+++++++++++++++++++++++++++++++++++++++++..    ",
"    ..++++++++++++++++++++++++++++++++++++++++.......+++++++++++++++++++++++++++++++++++++++++..    ",
"    ..++++++++++++++++++++++++++++++++++++++++.......+++++++++++++++++++++++++++++++++++++++++..    ",
"    ..++++++++++++++++++++++++++++++++++++++++.......+++++++++++++++++++++++++++++++++++++++++..    ",
"    ..++++++++++++++++++++++++++++++++++++++++.......+++++++++++++++++++++++++++++++++++++++++..    ",
"    ..++++++++++++++++++++++++++++++++++++++++.......+++++++++++++++++++++++++++++++++++++++++..    ",
"    ..++++++++++++++++++++++++++++++++++++++++.......++++++++++++++++++++++++++++++++++++++++++..   ",
"    .+++++++++++++++++++++++++++++++++++++++++.......++++++++++++++++++++++++++++++++++++++++++..   ",
"    .++++++++++++++++++++++++++++++++++++++++........++++++++++++++++++++++++++++++++++++++++++..   ",
"   ..++++++++++++++++++++++++++++++++++++++++........++++++++++++++++++++++++++++++++++++++++++..   ",
"   ..++++++++++++++++++++++++++++++++++++++++........++++++++++++++++++++++++++++++++++++++++++..   ",
"   ..++++++++++++++++++++++++++++++++++++++++........+++++++++++++++++++++++++++++++++++++++++++.   ",
"   ..++++++++++++++++++++++++++++++++++++++++........+++++++++++++++++++++++++++++++++++++++++++.   ",
"  ..+++++++++++++++++++++++++++++++++++++++++........+++++++++++++++++++++++++++++++++++++++++++.   ",
"  ..++++++++++++++++++++++++++++++++++++++++.........+++++++++++++++++++++++++++++++++++++++++++.   ",
"  ..+++++++++++++++++++++++++++++++++++++++++........+++++++++++++++++++++++++++++++++++++++++++.   ",
"  ..+++++++++++++++++++++++++++++++++++++++++.......++++++++++++++++++++++++++++++++++++++++++++.   ",
"  .+++++++++++++++++++++++++++++++++++++++++........++++++++++++++++++++++++++++++++++++++++++++..  ",
"  .+++++++++++++++++++++++++++++++++++++++++........++++++++++++++++++++++++++++++++++++++++++++..  ",
"  .+++++++++++++++++++++++++++++++++++++++++........++++++++++++++++++++++++++++++++++++++++++++..  ",
"  .++++++++++++++++++++++++++++++++++++++++.........++++++++++++++++++++++++++++++++++++++++++++..  ",
"  ..+++++++++++++++++++++++++++++++++++++++.........++++++++++++++++++++++++++++++++++++++++++++..  ",
"  ..+++++++++++++++++++++++++++++++++++++++.........++++++++++++++++++++++++++++++++++++++++++++..  ",
"  ..+++++++++++++++++++++++++++++++++++++++.........++++++++++++++++++++++++++++++++++++++++++++..  ",
"  ..++++++++++++++++++++++++++++++++++++++..........++++++++++++++++++++++++++++++++++++++++++++..  ",
"  ..++++++++++++++++++++++++++++++++++++++..........++++++++++++++++++++++++++++++++++++++++++++..  ",
"  ..+++++++++++++++++++++++++++++++++++++............+++++++++++++++++++++++++++++++++++++++++++..  ",
"  ..+++++++++++++++++++++++++++++++++++++............+++++++++++++++++++++++++++++++++++++++++++..  ",
"  ..+++++++++++++++++++++++++++++++++++++............+++++++++++++++++++++++++++++++++++++++++++..  ",
"  ..++++++++++++++++++++++++++++++++++++.............+++++++++++++++++++++++++++++++++++++++++++..  ",
"  ..++++++++++++++++++++++++++++++++++++.............+++++++++++++++++++++++++++++++++++++++++++..  ",
"  ..+++++++++++++++++++++++++++++++++++...............++++++++++++++++++++++++++++++++++++++++++..  ",
"  ..+++++++++++++++++++++++++++++++++++...............++++++++++++++++++++++++++++++++++++++++++..  ",
"  ..+++++++++++++++++++++++++++++++++++...............++++++++++++++++++++++++++++++++++++++++++..  ",
"  ..+++++++++++++++++++++++++++++++++++...............++++++++++++++++++++++++++++++++++++++++++..  ",
"  ..++++++++++++++++++++++++++++++++++.................+++++++++++++++++++++++++++++++++++++++++..  ",
"  ..++++++++++++++++++++++++++++++++++.................++++++++++++++++++++++++++++++++++++++++++.. ",
"  ..+++++++++++++++++++++++++++++++++..................++++++++++++++++++++++++++++++++++++++++++.. ",
"  ..+++++++++++++++++++++++++++++++++..................++++++++++++++++++++++++++++++++++++++++++.. ",
"  ..+++++++++++++++++++++++++++++++++...................+++++++++++++++++++++++++++++++++++++++++.. ",
"  ..+++++++++++++++++++++++++++++++++...................+++++++++++++++++++++++++++++++++++++++++.. ",
"  ..++++++++++++++++++++++++++++++++....................+++++++++++++++++++++++++++++++++++++++++.. ",
"  ..++++++++++++++++++++++++++++++++....................+++++++++++++++++++++++++++++++++++++++++.. ",
"  ..++++++++++++++++++++++++++++++++.....................++++++++++++++++++++++++++++++++++++++++.. ",
"   ..+++++++++++++++++++++++++++++++.....................++++++++++++++++++++++++++++++++++++++++.. ",
"   ..+++++++++++++++++++++++++++++++.....................+++++++++++++++++++++++++++++++++++++++++. ",
"   ..+++++++++++++++++++++++++++++++.....................+++++++++++++++++++++++++++++++++++++++++. ",
"   ..++++++++++++++++++++++++++++++......................+++++++++++++++++++++++++++++++++++++++++. ",
"   ..++++++++++++++++++++++++++++++.......................++++++++++++++++++++++++++++++++++++++++. ",
"   ..++++++++++++++++++++++++++++++.......................++++++++++++++++++++++++++++++++++++++++. ",
"   ..++++++++++++++++++++++++++++++.......................++++++++++++++++++++++++++++++++++++++++..",
"   ..++++++++++++++++++++++++++++++.......................++++++++++++++++++++++++++++++++++++++++..",
"   ..+++++++++++++++++++++++++++++........................++++++++++++++++++++++++++++++++++++++++..",
"   ..+++++++++++++++++++++++++++++.........................+++++++++++++++++++++++++++++++++++++++..",
"   ..+++++++++++++++++++++++++++++.........................+++++++++++++++++++++++++++++++++++++++..",
"   ..+++++++++++++++++++++++++++++.........................+++++++++++++++++++++++++++++++++++++++..",
"   ..+++++++++++++++++++++++++++++.........................+++++++++++++++++++++++++++++++++++++++..",
"   ..+++++++++++++++++++++++++++++.........................+++++++++++++++++++++++++++++++++++++++..",
"   ..++++++++++++++++++++++++++++..........................+++++++++++++++++++++++++++++++++++++++.."};
