/* XPM */
static char * chad_xpm[] = {
"100 100 80 1",
" 	c #FF00FF",
".	c #000000",
"+	c #FFDC11",
"@	c #DF6AC0",
"#	c #020101",
"$	c #FFFFFF",
"%	c #6CB0FF",
"&	c #0F030B",
"*	c #040103",
"=	c #10040C",
"-	c #200A1A",
";	c #1B0716",
">	c #070105",
",	c #0B0208",
"'	c #160511",
")	c #DD69BE",
"!	c #DC68BD",
"~	c #DD69BF",
"{	c #DC67BD",
"]	c #2A002A",
"^	c #DE68C0",
"/	c #DE69C0",
"(	c #DF69C1",
"_	c #DE69BF",
":	c #D863B9",
"<	c #D15CB2",
"[	c #2EFF16",
"}	c #DB68BC",
"|	c #2DF815",
"1	c #D763B8",
"2	c #D45FB5",
"3	c #D25EB3",
"4	c #D561B6",
"5	c #D965BA",
"6	c #2AEC14",
"7	c #D762B8",
"8	c #D460B6",
"9	c #2EFE16",
"0	c #2CF415",
"a	c #D965BB",
"b	c #2BF014",
"c	c #DB66BC",
"d	c #D35EB4",
"e	c #2DFE15",
"f	c #DE6AC0",
"g	c #2EFD16",
"h	c #DE6ABF",
"i	c #DB67BC",
"j	c #D560B6",
"k	c #D25DB3",
"l	c #2DFD15",
"m	c #2CFA15",
"n	c #D25EB4",
"o	c #DA00F6",
"p	c #DE6DBF",
"q	c #DE6EBF",
"r	c #D15DB3",
"s	c #D35FB4",
"t	c #2CF615",
"u	c #813030",
"v	c #2DFA15",
"w	c #2EFC16",
"x	c #2DFC15",
"y	c #2BF414",
"z	c #2BF314",
"A	c #D662B7",
"B	c #DA67BC",
"C	c #D661B7",
"D	c #EE2F2F",
"E	c #F03030",
"F	c #EC2F2F",
"G	c #EA2E2E",
"H	c #EF3030",
"I	c #2F1127",
"J	c #35142D",
"K	c #823030",
"L	c #230B1D",
"M	c #ED2F2F",
"N	c #842F2F",
"O	c #E9C702",
"                                                                                                    ",
"                                  ..........                                                        ",
"                                  .+++++++...........                                               ",
"                                  ..++++++++++++++++.....                                           ",
"                                    ..+++++++++++++++++++.                                          ",
"                                     ...++++++++++++......                                          ",
"                                       ...+++++++....@@@@...                                        ",
"                                         .........@@@@@@@@@.                                        ",
"                                            .@@@@@@@@@@@@@@.                                        ",
"                                          ..@@@@@@@@@@@@@@@.                                        ",
"                                          .@@.@@.@@@.@@.@@@.                                        ",
"                                         ..@@...#@@@....@@@.                                        ",
"                                         .@@@.$%.@@@.$%.@@@.                                        ",
"                                         .@@@@..@@@@@..@@@@.                                        ",
"                                        ..@@@@@@@@@@@@@@@@..                                        ",
"                                        .@@@@@@@@@@@@@@@@@.                                         ",
"                                        .@@@@@@@@@@@@@@@@..                                         ",
"                     ........           .@&*@@@@@@@@@@@@..                                          ",
"                  ...@@@@@@@@...        .@@=.@@@@@-.@@@..        ...............                    ",
"                 ..@@@@@@@@@@@@@...    ..@@@.;>,..'@@@..      ....@@@@@@@@@@)!~...                  ",
"                ..@@@@@@@@{{@@@@@@....].@@@@@@@@@@@@@..@..  ....@@^//(@@@@@@@@_@_...                ",
"                .@@@@@@@@:<{@@@@@@@..[..@@@@@@@@@@@@..@_}.....@@@@@@@@)!@@@@@@@@@@@...              ",
"               ..@@@@@@@<<@@@__@@@@.[|.@@@@@@@@@@@...@@@@.[[..@@@_1:2<22<3:@@@@@@@@_).              ",
"              ..@@@@@@3<:@@@@45@@..[[6.@@@@.@@@@@..}@@@@@.[[[.@@@54:@@@@@7:28:@@@@@@@/..            ",
"             ..@@@@!227@@@@::8@@@.9[0..@@@@.@@@@..!a@@@@@.[[[..@@@@@@@@@@@@!8:28:@@@@@~..           ",
"            ..@@@@@37!@@@@@72@@@@.[[b.@@@@@.@@@..@cd@@@@@.[[[e.@@@@@@@@@@@@@@@!8:2::::@_..          ",
"           ..@@:8@!2@@@@@!3:@@@@@.[[[.@@@@...@@.@@{2@@@@@.[[[e..@@@@@@@@@@@@@@@@@!:<::2@f.          ",
"           .@@@:8@@@@@@@:37@@@@@..[[[g.....@....@@@<@@@@..[[[[[.@@@@@@@@@@@@@@@@@@@@@@@@h..         ",
"          ..@@@!2@@@@@:88@@@@@@@.[[[[[[[.@~@_a@@@@@<@@@@.[[[[[[.@@@@@@@@@@@@@@@@@@@@@@@@@h.         ",
"          .@@@@@<@@@@@::@@@@@@@@.[[[[[[[.@@@cd@@@@@2<@@@.[[[[[[.@@@@@@@@@@@@@@@@@@@@@@@@@@..        ",
"          .@@@@!2@@@@@@@@@@@@@@@.9[[[[[[.@@@@<@@@@@:::@..[[[[[[.@@@@@@@@@@@@@@@@@@@@@@@@@@@.        ",
"          .@@@@::@@@@@@@@@@@@@i_..[[[[[[.@@@72@@@@@@:j@.[[[[[[[.@@@@@@@@@@@@@@@@@@@@@@@@@@@.        ",
"          .@@@@::@@@@@@@@@@@@:k5@.[[[[[[.@@:j:@@@@@@@@@.[[[[[[[.h@@@@@@@@@@@@@@@@@@@@@@@@@@.        ",
"          .@@@@::@@@@@@@@@@:<2!@@.l[[[[[..2j:@@@@@@@@@@.[[[[[[[.@@@@@@@@@@@@@@@@@@@@@_5@@@@.        ",
"         ..@@@@3:@@@@@@@@@@8:@@@@.m[[[[[[.{@@@@@@@@@@@@.[[[[[[[.@@@@<@@@@@@@@@@@@@@@@in@@@@.        ",
"         .@@@@@7:@@@@@@@@@@2!@@@@.[[[[[[[..@@@@@@@@@@@@.[[[[[[[..@@!2@@@@@@@@@@@@@@@@@<@@@@.        ",
"         .@@@@@::@@@@@@@@@72@@@@@.[[[[[[[[.@@@@@...@@@@.[[[[[[[[._@@2!@@@@@@@@@@@@@@@@37@@@.        ",
"         .@@@@:<@@@@@@@@!<8@@@@@@.[[[[[[[[...@@@.o...@..[[[[[....@@@@<@@@@@@@@@@@@@@@@::@@@.        ",
"        ..@@@@<@@@@@@@@@2<@@@@@@@.[[[[[[[[[[..@@.ooo...[[[....o..p@@@2<@@@@@@@@@@@@@@@!2@@@.        ",
"        .@@@@<:@@@@@@@@@2!@@@@@@@.[[[[[[[[[[[....oooo..[[...ooo..q@@@@23@@@@@@@@@@@@@@@<@@@.        ",
"        .@@@@2!@@@@@@@@72@@@@@@@@.[[[[[[[[[[[[[...oooo....oooo...@@@@@@7<:!@@@@@@@@@@@@37@@.        ",
"        .@@@r:@@@@@@@@@8:@@@@@@@..[[[[[[[[[[[[[[...ooooooooooo.[.@@@@@@@@3s3@@@@@@@@@@@::@@.        ",
"       ..@@@7@@@@@@@@@@@@@@@@@@@.[[[[[[[[[[[[[[[[[.oooooooooo.[[.~@@@@@@@@@72::@@@@@@@@@<@@.        ",
"       .@@@::@@@@@@@@@@@@@@@@@...[[[[[[[[[[[[[[[[[.oooooooooo.[[[.~@@@@@@@@@!::2@@@@@@@@:c@.        ",
"      ..@@@@@@@@@@@@@@@@@@@@@..[[[[[[[[[[[[[[[[[[..oooooooooo.[[[..~@@@@@@@@@@@!<@@@@@@@:3..        ",
"      .@@@@@@@@@@@@@@@@@@@@...[[[[[[[[[[[[[[[[[[.oooooooooooo.9[[[...@@@@@@@@@@@@2!@@@@@@!.         ",
"      .@@@@@@@@@@@@@@@@@@@@.[[[[[[[[t[[[[[[[[[[..oooooooooooo..[[[[[.....@__@@@@@@@@@@@@@@.         ",
"      .@@@@@@@@@@@@@@@@@@..[[[[[[[[9[[[[[[[[[[..oooooooooooooo..[[[[[[. ..__@@@@@@@@@@@@@@.         ",
"      .@@@@@@@@@@@@@@@@@...[[9[[[[[[[[[[[[[[[.ooooooooooooooooo..[[[[[.  ..@@@@@@@@@@@@@@).         ",
"      ..@@@@@@@@@@@@@@@.. .[[[[[[[[[[[[[[[[[[.......oooooo...ooo..[[[[.   .._@@@@@@@@@@@@..         ",
"       ..@@@@@@@@@@@@@@@.....[[[[[[[[[[[[[[[[[.uuuu.oooooo.ev.ooo.w[[[.    .))@@@@@@@@@@@.          ",
"        ..@@@@@@@@@@@@@_5@@@...[[[[[[[[[[[[[...uuuu.ooooo..ex.....[[[9.   ..@@@@@@@@@@@@@.          ",
"         ..@@@@@@@@@@@@in@@@@@..[[[[[[[[[[9..uuuuu..oooo..[[[[yzg[[[[[.  ..h{{@@@@@@@@@@@.          ",
"          .@@@@@@@@@@@@@27@@@@@...[[[[[[[...uuuuu...ooo..[[[[y[[[[[[[[.  ..@AA@@@@@@@@@@@.          ",
"          ..@@@@@@@@@@@@:8:@@@@@@.[[[[[[..uuuuuuu.[..o..[[[[[[[[[[[[[[. ..B72@@@@@@@@:@@@.          ",
"           ..@@@@@@@@@@@@27:@@@@@.[[[[...uuuuuuu..[|.o.[[[[[[[[[[[[[[[. .}_j@@@@@@@@!3@@@.          ",
"            ..@@@__@@@@@@@:82:@@@..[[..uuuuuuuu..[[[..[[[[[[[[[[[[[[[[. .}::@@@@@@@@<:@@..          ",
"             .@@@552!@@@@@@@78<@@@....uuuuuuuuu.[[[[g[[[[[[[[[[[[[[[[[. .@C!@@@@@@@@2!@@.           ",
"             ...@@@<23!@@@@@@@2s@@@..uuuuuuuuuu.[[[[[[[[[[[[[[[[[[[[[[. .):@@@@@@@@73@@@.           ",
"               ..@@@@72:@@@@@@@s!@@....uuuuuu..[[[[[[[[[[[[[[[[[[[[[[[. .@A@@@@@@@@2!@@.            ",
"                .@@@@@:8@@@@@@@@@@@@@@....uu..[[[[[[[[[[[[[[[[[[[[[[[[. .@<@@@@@@@22@@).            ",
"                ..@@@@@<@@@@@@@@@@@@@@@@@....[[[[[[[[[[[[[[[[[[[[[[[[[. .@<@@@@@@:8@@@..            ",
"                 .@@@@@<@@@@@@@@@@@@@@@@@@..[[[[[[[[[[[[[[[[[[[[[[[[[[. ._7!@@@@@3!@B..             ",
"                 ..@@@@<@@@@@@@@@@@@@@@@@@@............................ ._j@@@@!<2@h..              ",
"                  ...@@2<@@@@@@@@@@@@@@@@@@.DEEEEEEEEEEEEEEEEEEEEEEEEE...@@@@@:2<@@..               ",
"                    ..@@@@@@@@@@@@@@@@@@@@@.FEEEEEEEEEEEEEEEEEEEEEEEEEEE..@@@@8:@@..                ",
"                     ...@@@@@@@@@@@@@@@@@@@.GEEEEEEEEEEEEEEEEEEEEEEEEEEEE..@@@@@@..                 ",
"                       .@@@@@@@@@@@@@@@@@@@.EEEEEEEEEEEEEEEEEEEEEEEEEEEEEE...@@@}.                  ",
"                      ..@@@@@@@@@@@@@@@@@@@.E..EEEEEEEEEEEEEEEEEEEEEEEEEEEEH..@@..                  ",
"                      .@@@@@@@@@@@@@@@@.@@@.E..EEEEEEEEEEEEEEEEEEEEEEEEEEEEEE....                   ",
"                      .@@@@@@@@@@@@@@@@@.@@.E..EEEEEEEEEE.EEEEEEEEEEEEEEEEEEEE..                    ",
"                     ..@@@@@@@@@@@@@@I@@@.@.E..EEEEEEEEEE.EEEEEEEEEEEEEEEEEEEE..                    ",
"                     ..@@@@@@@@@@@.@@@.@@@.....EEEEEEEEEE.EEEEEEEEEEEEEEEEEEEE..                    ",
"                     ...@@@@@@I@@@@.@@@I@@.E..EEEEEEEEEEH.EEEEEEEEEEEEEEEEEEEEE..                   ",
"                     .....@@@@@J@@@@.@@@...E..EEEEEEEEEEE.HEEEEEEEEEEEEEEEEEEEE..                   ",
"                     ..Ku..@@@@@L@@@@....EE...EEEEEEEEEE...EEEEEEEEEEEEEEEEEEEEE..                  ",
"                    ..uuuu..@@@@@.@@..MHEE.....EEEEEEEEE....EEEEEEEEEEEEEEEEEEEE...                 ",
"                   ..uuuuuu...@@.....EEEE... ...EEEEEEE..  ..EEEEEEEEEEEEEEEEEEEE..                 ",
"                   .uuuuuu..E.....EEEEEEE..   ..EEEEEE...  ..EEEEEEEEEEEEEEEEEEEEE..                ",
"                   ..uuuu..EEEMEEEEEEEEE..     ........    ...EEEEEEEEEEEEEEEEEEEE..                ",
"                    ..Nuu.EEEEEEEEEEEEE..       ......       ...EEEEEEEEEEEEEEEEEE..                ",
"                    .....EEEEEEEEEEEEEE..                    ....EEEEEEEEEEEEEEEEE..                ",
"                    ..EEEEEEEEEEEEEEEH..                       ....EEEEEEEEEEEEEEE..                ",
"                    ..EEEEEEEEEEEEEEE...                         ...EEEEEEEEEEEEEEE.                ",
"                    ..EEEEEEEEEEEEEEE...                          ...EEEEEEEEEEEEEE.                ",
"                     .EEEEEEEEEEEEEEH...                            .EEEEEEEEEEEEEE.                ",
"                     .EEEEEEEEEEEEEEEE..                            .EEEEEEEEEEEEE..                ",
"                     ..EEEEEEEEEEEEEEE..                            .EEEEEEEEEEEE...                ",
"                      ..EEEEEEEEEEEEEEE..                          ..EEEEEEEEEEEE..                 ",
"                       .EEEEEEEEEEEEEEEE..                         .EEEEEEEEEEE....                 ",
"                       ....EEEEEEEEEEEEEE..                       ..EEEEEEEEEE...                   ",
"                          ...HEEEEEEEEEEEE.                       ..EEEEEEEE....                    ",
"                            ..EEEEEHEEEEEE.                      ..EEEEEEEE...                      ",
"                             ....EEEEEEEEE.                     ...EEEEEEE...                       ",
"                                .............                  ..EEEEEEEEE.                         ",
"                              ...OOOOOOOOOOO..                 ...............                      ",
"                             ..OOOOOOOOOOOOOO.                ..OOOOOOOOOOOOO...                    ",
"                            ..OOOOOOOOOOOOOOO.                .OOOOOOOOOOOOOOOO...                  ",
"                           ..OOOOOOOOOOOOOOOO.                .OOOOOOOOOOOOOOOOOO.                  ",
"                          ..OOOOOOOOOOOOOOOOO.                .OOOOOOOOOOOOOOOOOO.                  "};
