/* XPM */
static char * chad_xpm[] = {
"100 100 86 1",
" 	c #FF00FF",
".	c #000000",
"+	c #FFDC11",
"@	c #DF6AC0",
"#	c #2A002A",
"$	c #FD00FD",
"%	c #020101",
"&	c #FFFFFF",
"*	c #6CB0FF",
"=	c #FC00FC",
"-	c #FE00FE",
";	c #F600F6",
">	c #0F030B",
",	c #040103",
"'	c #F700F7",
")	c #10040C",
"!	c #200A1A",
"~	c #1B0716",
"{	c #070105",
"]	c #0B0208",
"^	c #160511",
"/	c #1C001C",
"(	c #DD69BE",
"_	c #DC68BD",
":	c #DD69BF",
"<	c #DC67BD",
"[	c #DE68C0",
"}	c #DE69C0",
"|	c #DF69C1",
"1	c #DE69BF",
"2	c #D863B9",
"3	c #D15CB2",
"4	c #2EFF16",
"5	c #DB68BC",
"6	c #2DF815",
"7	c #D763B8",
"8	c #D45FB5",
"9	c #D25EB3",
"0	c #D561B6",
"a	c #D965BA",
"b	c #2AEC14",
"c	c #D762B8",
"d	c #D460B6",
"e	c #2EFE16",
"f	c #2CF415",
"g	c #D965BB",
"h	c #2BF014",
"i	c #DB66BC",
"j	c #D35EB4",
"k	c #2DFE15",
"l	c #DE6AC0",
"m	c #2EFD16",
"n	c #DE6ABF",
"o	c #DB67BC",
"p	c #D560B6",
"q	c #D25DB3",
"r	c #2DFD15",
"s	c #2CFA15",
"t	c #D25EB4",
"u	c #DA00F6",
"v	c #DE6DBF",
"w	c #DE6EBF",
"x	c #D15DB3",
"y	c #D35FB4",
"z	c #2CF615",
"A	c #813030",
"B	c #2DFA15",
"C	c #2EFC16",
"D	c #2DFC15",
"E	c #2BF414",
"F	c #2BF314",
"G	c #D662B7",
"H	c #DA67BC",
"I	c #D661B7",
"J	c #EE2F2F",
"K	c #F03030",
"L	c #EC2F2F",
"M	c #EA2E2E",
"N	c #EF3030",
"O	c #2F1127",
"P	c #35142D",
"Q	c #823030",
"R	c #230B1D",
"S	c #ED2F2F",
"T	c #842F2F",
"U	c #E9C702",
"                                                                                                    ",
"                                  ..........                                                        ",
"                                  .+++++++...........                                               ",
"                                  ..++++++++++++++++.....                                           ",
"                                    ..+++++++++++++++++++.                                          ",
"                                     ...++++++++++++......                                          ",
"                                       ...+++++++....@@@@...                                        ",
"                                         .........@@@@@@@@@.                                        ",
"                                           #.@@@@@@@@@@@@@@.                                        ",
"                                          ..@@@@@@@@@@@@@@@.                                        ",
"                                         $.@@.@@.@@@.@@.@@@.                                        ",
"                                         ..@@...%@@@....@@@.                                        ",
"                                         .@@@.&*.@@@.&*.@@@.                                        ",
"                                         .@@@@..@@@@@..@@@@.                                        ",
"                                        ..@@@@@@@@@@@@@@@@..                                        ",
"                                       =.@@@@@@@@@@@@@@@@@.-                                        ",
"                                       $.@@@@@@@@@@@@@@@@..;                                        ",
"                     ........          ;.@>,@@@@@@@@@@@@..           --                             ",
"                  ...@@@@@@@@...       '.@@).@@@@@!.@@@..$       ...............                    ",
"                 ..@@@@@@@@@@@@@...    ..@@@.~{]..^@@@../     ....@@@@@@@@@@(_:...                  ",
"                ..@@@@@@@@<<@@@@@@....#.@@@@@@@@@@@@@..@..  ....@@[}}|@@@@@@@@1@1...                ",
"                .@@@@@@@@23<@@@@@@@..4..@@@@@@@@@@@@..@15.....@@@@@@@@(_@@@@@@@@@@@...              ",
"               ..@@@@@@@33@@@11@@@@.46.@@@@@@@@@@@...@@@@.44..@@@1728388392@@@@@@@@1(.              ",
"              ..@@@@@@932@@@@0a@@..44b.@@@@.@@@@@..5@@@@@.444.@@@a02@@@@@c28d2@@@@@@@}..            ",
"             ..@@@@_88c@@@@22d@@@.e4f..@@@@.@@@@.._g@@@@@.444..@@@@@@@@@@@@_d28d2@@@@@:..           ",
"            ..@@@@@9c_@@@@@c8@@@@.44h.@@@@@.@@@..@ij@@@@@.444k.@@@@@@@@@@@@@@@_d282222@1..          ",
"           ..@@2d@_8@@@@@_92@@@@@.444.@@@@...@@.@@<8@@@@@.444k..@@@@@@@@@@@@@@@@@_23228@l.          ",
"          -.@@@2d@@@@@@@29c@@@@@..444m.....@....@@@3@@@@..44444.@@@@@@@@@@@@@@@@@@@@@@@@n..         ",
"          ..@@@_8@@@@@2dd@@@@@@@.4444444.@:@1g@@@@@3@@@@.444444.@@@@@@@@@@@@@@@@@@@@@@@@@n.         ",
"          .@@@@@3@@@@@22@@@@@@@@.4444444.@@@ij@@@@@83@@@.444444.@@@@@@@@@@@@@@@@@@@@@@@@@@..        ",
"          .@@@@_8@@@@@@@@@@@@@@@.e444444.@@@@3@@@@@222@..444444.@@@@@@@@@@@@@@@@@@@@@@@@@@@.        ",
"          .@@@@22@@@@@@@@@@@@@o1..444444.@@@c8@@@@@@2p@.4444444.@@@@@@@@@@@@@@@@@@@@@@@@@@@.        ",
"          .@@@@22@@@@@@@@@@@@2qa@.444444.@@2p2@@@@@@@@@.4444444.n@@@@@@@@@@@@@@@@@@@@@@@@@@.        ",
"          .@@@@22@@@@@@@@@@238_@@.r44444..8p2@@@@@@@@@@.4444444.@@@@@@@@@@@@@@@@@@@@@1a@@@@.        ",
"         ..@@@@92@@@@@@@@@@d2@@@@.s444444.<@@@@@@@@@@@@.4444444.@@@@3@@@@@@@@@@@@@@@@ot@@@@.        ",
"         .@@@@@c2@@@@@@@@@@8_@@@@.4444444..@@@@@@@@@@@@.4444444..@@_8@@@@@@@@@@@@@@@@@3@@@@.        ",
"         .@@@@@22@@@@@@@@@c8@@@@@.44444444.@@@@@...@@@@.44444444.1@@8_@@@@@@@@@@@@@@@@9c@@@.        ",
"         .@@@@23@@@@@@@@_3d@@@@@@.44444444...@@@.u...@..44444....@@@@3@@@@@@@@@@@@@@@@22@@@.        ",
"        ..@@@@3@@@@@@@@@83@@@@@@@.4444444444..@@.uuu...444....u..v@@@83@@@@@@@@@@@@@@@_8@@@.        ",
"        .@@@@32@@@@@@@@@8_@@@@@@@.44444444444....uuuu..44...uuu..w@@@@89@@@@@@@@@@@@@@@3@@@.        ",
"        .@@@@8_@@@@@@@@c8@@@@@@@@.4444444444444...uuuu....uuuu...@@@@@@c32_@@@@@@@@@@@@9c@@.        ",
"        .@@@x2@@@@@@@@@d2@@@@@@@..44444444444444...uuuuuuuuuuu.4.@@@@@@@@9y9@@@@@@@@@@@22@@.        ",
"       ..@@@c@@@@@@@@@@@@@@@@@@@.44444444444444444.uuuuuuuuuu.44.:@@@@@@@@@c822@@@@@@@@@3@@.        ",
"       .@@@22@@@@@@@@@@@@@@@@@...44444444444444444.uuuuuuuuuu.444.:@@@@@@@@@_228@@@@@@@@2i@.        ",
"      ..@@@@@@@@@@@@@@@@@@@@@..444444444444444444..uuuuuuuuuu.444..:@@@@@@@@@@@_3@@@@@@@29..        ",
"      .@@@@@@@@@@@@@@@@@@@@...444444444444444444.uuuuuuuuuuuu.e444...@@@@@@@@@@@@8_@@@@@@_.         ",
"      .@@@@@@@@@@@@@@@@@@@@.44444444z4444444444..uuuuuuuuuuuu..44444.....@11@@@@@@@@@@@@@@.         ",
"      .@@@@@@@@@@@@@@@@@@..44444444e4444444444..uuuuuuuuuuuuuu..444444. ..11@@@@@@@@@@@@@@.         ",
"      .@@@@@@@@@@@@@@@@@...44e444444444444444.uuuuuuuuuuuuuuuuu..44444.  ..@@@@@@@@@@@@@@(.         ",
"      ..@@@@@@@@@@@@@@@.. .444444444444444444.......uuuuuu...uuu..4444.   ..1@@@@@@@@@@@@..         ",
"       ..@@@@@@@@@@@@@@@.....44444444444444444.AAAA.uuuuuu.kB.uuu.C444.    .((@@@@@@@@@@@.          ",
"        ..@@@@@@@@@@@@@1a@@@...4444444444444...AAAA.uuuuu..kD.....444e.   ..@@@@@@@@@@@@@.          ",
"         ..@@@@@@@@@@@@ot@@@@@..4444444444e..AAAAA..uuuu..4444EFm44444.  ..n<<@@@@@@@@@@@.          ",
"          .@@@@@@@@@@@@@8c@@@@@...4444444...AAAAA...uuu..4444E44444444.  ..@GG@@@@@@@@@@@.          ",
"          ..@@@@@@@@@@@@2d2@@@@@@.444444..AAAAAAA.4..u..44444444444444. ..Hc8@@@@@@@@2@@@.          ",
"           ..@@@@@@@@@@@@8c2@@@@@.4444...AAAAAAA..46.u.444444444444444. .51p@@@@@@@@_9@@@.          ",
"            ..@@@11@@@@@@@2d82@@@..44..AAAAAAAA..444..4444444444444444. .522@@@@@@@@32@@..          ",
"             .@@@aa8_@@@@@@@cd3@@@....AAAAAAAAA.4444m44444444444444444. .@I_@@@@@@@@8_@@.           ",
"             ...@@@389_@@@@@@@8y@@@..AAAAAAAAAA.4444444444444444444444. .(2@@@@@@@@c9@@@.           ",
"               ..@@@@c82@@@@@@@y_@@....AAAAAA..44444444444444444444444. .@G@@@@@@@@8_@@.            ",
"                .@@@@@2d@@@@@@@@@@@@@@....AA..444444444444444444444444. .@3@@@@@@@88@@(.            ",
"                ..@@@@@3@@@@@@@@@@@@@@@@@....4444444444444444444444444. .@3@@@@@@2d@@@..            ",
"                 .@@@@@3@@@@@@@@@@@@@@@@@@..44444444444444444444444444. .1c_@@@@@9_@H..             ",
"                 ..@@@@3@@@@@@@@@@@@@@@@@@@............................ .1p@@@@_38@n..              ",
"                  ...@@83@@@@@@@@@@@@@@@@@@.JKKKKKKKKKKKKKKKKKKKKKKKKK...@@@@@283@@..               ",
"                    ..@@@@@@@@@@@@@@@@@@@@@.LKKKKKKKKKKKKKKKKKKKKKKKKKKK..@@@@d2@@..                ",
"                     ...@@@@@@@@@@@@@@@@@@@.MKKKKKKKKKKKKKKKKKKKKKKKKKKKK..@@@@@@..                 ",
"                       .@@@@@@@@@@@@@@@@@@@.KKKKKKKKKKKKKKKKKKKKKKKKKKKKKK...@@@5.                  ",
"                      ..@@@@@@@@@@@@@@@@@@@.K..KKKKKKKKKKKKKKKKKKKKKKKKKKKKN..@@..                  ",
"                      .@@@@@@@@@@@@@@@@.@@@.K..KKKKKKKKKKKKKKKKKKKKKKKKKKKKKK....                   ",
"                      .@@@@@@@@@@@@@@@@@.@@.K..KKKKKKKKKK.KKKKKKKKKKKKKKKKKKKK..=                   ",
"                     ..@@@@@@@@@@@@@@O@@@.@.K..KKKKKKKKKK.KKKKKKKKKKKKKKKKKKKK..                    ",
"                     ..@@@@@@@@@@@.@@@.@@@.....KKKKKKKKKK.KKKKKKKKKKKKKKKKKKKK..                    ",
"                     ...@@@@@@O@@@@.@@@O@@.K..KKKKKKKKKKN.KKKKKKKKKKKKKKKKKKKKK..                   ",
"                     .....@@@@@P@@@@.@@@...K..KKKKKKKKKKK.NKKKKKKKKKKKKKKKKKKKK..                   ",
"                     ..QA..@@@@@R@@@@....KK...KKKKKKKKKK...KKKKKKKKKKKKKKKKKKKKK..                  ",
"                    ..AAAA..@@@@@.@@..SNKK.....KKKKKKKKK....KKKKKKKKKKKKKKKKKKKK...                 ",
"                   ..AAAAAA...@@.....KKKK... ...KKKKKKK..  ..KKKKKKKKKKKKKKKKKKKK..                 ",
"                   .AAAAAA..K.....KKKKKKK..   ..KKKKKK...  ..KKKKKKKKKKKKKKKKKKKKK..                ",
"                   ..AAAA..KKKSKKKKKKKKK..     ........    ...KKKKKKKKKKKKKKKKKKKK..                ",
"                    ..TAA.KKKKKKKKKKKKK..       ......       ...KKKKKKKKKKKKKKKKKK..                ",
"                    .....KKKKKKKKKKKKKK..                    ....KKKKKKKKKKKKKKKKK..                ",
"                    ..KKKKKKKKKKKKKKKN..                       ....KKKKKKKKKKKKKKK..                ",
"                    ..KKKKKKKKKKKKKKK...                         ...KKKKKKKKKKKKKKK.                ",
"                    ..KKKKKKKKKKKKKKK...                          ...KKKKKKKKKKKKKK.                ",
"                     .KKKKKKKKKKKKKKN...                            .KKKKKKKKKKKKKK.                ",
"                     .KKKKKKKKKKKKKKKK..                            .KKKKKKKKKKKKK..                ",
"                     ..KKKKKKKKKKKKKKK..                            .KKKKKKKKKKKK...                ",
"                      ..KKKKKKKKKKKKKKK..                          ..KKKKKKKKKKKK..                 ",
"                       .KKKKKKKKKKKKKKKK..                         .KKKKKKKKKKK....                 ",
"                       ....KKKKKKKKKKKKKK..                       ..KKKKKKKKKK...                   ",
"                          ...NKKKKKKKKKKKK.                       ..KKKKKKKK....                    ",
"                            ..KKKKKNKKKKKK.                      ..KKKKKKKK...                      ",
"                             ....KKKKKKKKK.-                    ...KKKKKKK...                       ",
"                                .............                  ..KKKKKKKKK.                         ",
"                              ...UUUUUUUUUUU..                 ...............                      ",
"                             ..UUUUUUUUUUUUUU.                ..UUUUUUUUUUUUU...                    ",
"                            ..UUUUUUUUUUUUUUU.                .UUUUUUUUUUUUUUUU...                  ",
"                           ..UUUUUUUUUUUUUUUU.                .UUUUUUUUUUUUUUUUUU.                  ",
"                          ..UUUUUUUUUUUUUUUUU.                .UUUUUUUUUUUUUUUUUU.                  "};
