/* XPM */
static char * chad_a_xpm[] = {
"100 100 83 1",
" 	c #FF00FF",
".	c #000000",
"+	c #700052",
"@	c #FFDC11",
"#	c #DF6AC0",
"$	c #020101",
"%	c #A238BD",
"&	c #FE00FE",
"*	c #F600F6",
"=	c #0F030B",
"-	c #040103",
";	c #10040C",
">	c #200A1A",
",	c #1B0716",
"'	c #070105",
")	c #0B0208",
"!	c #160511",
"~	c #DD69BE",
"{	c #DC68BD",
"]	c #DD69BF",
"^	c #DC67BD",
"/	c #DE68C0",
"(	c #DE69C0",
"_	c #DF69C1",
":	c #DE69BF",
"<	c #D863B9",
"[	c #D15CB2",
"}	c #2EFF16",
"|	c #DB68BC",
"1	c #2DF815",
"2	c #D763B8",
"3	c #D45FB5",
"4	c #D25EB3",
"5	c #D561B6",
"6	c #D965BA",
"7	c #2AEC14",
"8	c #D762B8",
"9	c #D460B6",
"0	c #2EFE16",
"a	c #2CF415",
"b	c #D965BB",
"c	c #2BF014",
"d	c #DB66BC",
"e	c #D35EB4",
"f	c #2DFE15",
"g	c #DE6AC0",
"h	c #DE6ABF",
"i	c #DB67BC",
"j	c #D25DB3",
"k	c #2DFD15",
"l	c #2CFA15",
"m	c #A54188",
"n	c #D161B3",
"o	c #D25EB4",
"p	c #DA00F6",
"q	c #DE6DBF",
"r	c #DE6EBF",
"s	c #D15DB3",
"t	c #D35FB4",
"u	c #2CF615",
"v	c #813030",
"w	c #2DFA15",
"x	c #2EFC16",
"y	c #2DFC15",
"z	c #2BF314",
"A	c #2EFD16",
"B	c #2BF414",
"C	c #D662B7",
"D	c #DA67BC",
"E	c #D560B6",
"F	c #D661B7",
"G	c #EE2F2F",
"H	c #F03030",
"I	c #EC2F2F",
"J	c #EA2E2E",
"K	c #EF3030",
"L	c #2F1127",
"M	c #35142D",
"N	c #823030",
"O	c #230B1D",
"P	c #ED2F2F",
"Q	c #842F2F",
"R	c #E9C702",
"                                                                                                    ",
"                                  ..........                                                        ",
"                 ++               .@@@@@@@...........                                               ",
"                ++++              ..@@@@@@@@@@@@@@@@.....    +++++            +++                   ",
"              +++++++        +++    ..@@@@@@@@@@@@@@@@@@@.   +++++           +++++        ++        ",
"            +++++++++        +++     ...@@@@@@@@@@@@......   ++++++          ++++++       +++       ",
"            ++++++++++       +++       ...@@@@@@@....####...  +++++          +++++++      +++       ",
"           +++++++++++      +++++        .........#########.  ++++++         ++++++++     ++++      ",
"           ++++++++++++    ++++++           .##############.   ++++++       +++++++++    +++++      ",
"           +++++++++++++  ++++++++        ..###############.   +++++++     ++++++++++    +++++      ",
"           ++++++++++++++ +++++++++      +.##.##.###.##.###.   ++++++++    ++++++++++   +++++++     ",
"           +++++++++++++++++++++++++     ..##...$###....###.   +++++++++  +++++++++++  ++++++++     ",
"           ++++++++++++++++++++++++++    .###.+%.###.+%.###.  +++++++++++++++++++++++++++++++++     ",
"           ++++++++++++++++++++++++++++  .####..#####..####. ++++++++++++++++++++++++++++++++++     ",
"           +++++++++++++++++++++++++++++..################.. +++++++++++++++++++++++++++++++++++    ",
"          ++++++++++++++++++++++++++++++.#################.&++++++++++++++++++++++++++++++++++++    ",
"          ++++++++++++++++++++++++++++++.################..*+++++++++++++++++++++++++++++++++++++   ",
"         ++++++++++++........+++++++++++.#=-############.+ ++++++++++++++++++++++++++++++++++++++   ",
"        ++++++++++...########...++++++++.##;.#####>.###..++++++++...............+++++++++++++++++   ",
"       ++++++++++..#############...++++..###.,')..!###...+++++....##########~{]...++++++++++++++    ",
"      ++++++++++..########^^######......#############..#..++....##/((_########:#:...++++++++++++    ",
"      ++++++++++.########<[^#######..}..############..#:|.....########~{###########...++++++++++    ",
"     ++++++++++..#######[[###::####.}1.###########...####.}}..###:2<3[33[4<########:~.++++++++++    ",
"     +++++++++..######4[<####56##..}}7.####.#####..|#####.}}}.###65<%####8<39<#######(..++++++++    ",
"     ++++++++..####{338####<<9###.0}a..####.####..{b##%%#.}}}..##%%%%######{9<39<#####]..+++++++    ",
"     +++++++..#####48{#####83####.}}c.#####.###..#de##%%#.}}}f.##%%###########{9<3<<<<#:..+++++++   ",
"     ++++++..##<9#{3#####{4<#####.}}}.####...##.##^3#%%##.}}}f..%%###############{<[<<3#g.++++++++  ",
"    +++++++.###<9#######<48#####..}}++.....#..%%###[#%%#++}}}}}%%#######################h..++++++   ",
"    ++++++..###{3#####<99#######.}}}+++}.#]#:b#%%##[%%##++}}}}}%%########################h.++++++   ",
"    ++++++.#####[#####<<########.}}}}++++###de#%%##3%%##++}}}}%%##########################..+++++   ",
"   +++++++.####{3###############.0}}}}}++++##[#%%##<%%#.+}}}}}%%###########################.+++++   ",
"   +++++++.####<<#############i:..}}}}}}.+++83##%%##%%#.+}}}}}%%###########################.++++++  ",
"   +++++++.####<<############<j6#.}}}}}}.##++<###%##%%#.++}}}%%.h##########################.++++++  ",
"   +++++++.####<<##########<[3{##.k}}}}}..3++####%%#%%#.++}}}%%.#####################:6####.++++++  ",
"   ++++++..####4<##########9<####.l}}}}}}.^##mn##%%#%%#.}++}}%%.####[################io####.++++++  ",
"   ++++++.#####8<##########3{####.}}}}}}}..##n~#####%%#.}++}}%}..##{3#################[####.++++++  ",
"   ++++++.#####<<#########83#####.}}}}}}%%%%%###...####.}++}}}}}.:##3{################48###.++++++  ",
"   ++++++.####<[########{[9######.}}%%%%%%%..###.p...#..}}}}}....####[################<<###.+++++   ",
"   +++++..####[#########3[#######.}}}}}}}}}}..##.ppp...}}}....p..q###3[###############{3###.+++++   ",
"   +++++.####[<#########3{#######.}}}}}}}}}}}....pppp..}}...ppp..r####34#++############[###.+++++   ",
"  ++++++.####3{########83########.}}}}}}++++++++..pppp....pppp...######+++{############48##.++++    ",
"   +++++.###s<#########9<#######..}}}}}}++}}++++...ppppppppppp.}.######++4t4###########<<##.++++    ",
"   ++++..###8###################.}}}}}+++}}}}}}}}}.pppppppppp.}+++###+++###83<<#########[##.++++    ",
"  +++++.###<<#################...}}}}+++}}}}}%%%}}.pppppppppp.}+++++++######{<<3########<d#.++++    ",
"  ++++..#####################..}}}}}++}}}}%%%%%%}..pppppppppp.}}}.++###########{[#######<4..++++    ",
"  ++++.####################...+}}}}}+}%}%%%%%}}}.pppppppppppp.0}}}...############3{######{.+++++    ",
"  ++++.####################.}}++++}}u}%%%}}}}}}..pppppppppppp..}}}}}.....#::##############.+++++    ",
"  ++++.##################..}}}}++++++}}}+++}}}..pppppppppppppp..}}}}}}. ..::##############.+++++    ",
"  ++++.#################...}}0}}}}+++++++++}}.ppppppppppppppppp..}}}}}.  ..##############~.++++     ",
"  ++++..###############.. .}}}}}}}}}}}++}}}}}.......pppppp...ppp..}}}}.   ..:############..++++     ",
"  +++++..###############.....}}}}}}}}}}}}}}}}}.vvvv.pppppp.fw.ppp.x}}}.    .~~###########.+++++     ",
"  ++++++..#############:6###...}}}}}}}}}}}}}...%%vv.ppppp..fy.....}}}0++++++++###########.+++++     ",
"   ++++++..############io#####..}}}}}}}}}}0..v%%%v..pppp..}}}}%zA}}+++++++++++###########.+++++     ",
"   +++++++.#############38#####...}}}}}}}...vv%vv...ppp..}}}}B%%%}}}}}.  ..#CC###########.+++++     ",
"   +++++++..############<9<######.}}}}}}..vvv%%vv.}..p..}}}++}%%%}}}}}. ..D83########<###.+++++     ",
"    +++++++..############38<#####.}}}}...vvvv%%v..}1.p.}}}}++}}}%%}}}}. .|:E########{4###.+++++     ",
"    ++++++++..###::#######<93<###..}}..vvvvvv%%..}}}..}}%%}+++}}}%%%}}. .|<<########[<##..++++      ",
"    +++++++++.###663{#######89[###....vvvvvvv%%.}}}}A}}}%%}}}+++}}%%%}. .#F{########3{##.+++++      ",
"     ++++++++...###[34{#######3t###..vvvvvvvv%%.}}}++}}}%%}}}}++}}}}%%. .~<########84###.+++++      ",
"     ++++++++++..####83<#######t{##....vvvvvv%%}}}}+++}}}%%}}}}+}}}}%%% .#C########3{##.++++++      ",
"     +++++++++++.#####<9##############....vv..}}}}}}++}}}%%}}}}+}}}}}%% .#[#######33##~.++++++      ",
"     +++++++++++..#####[#################....}}}}}}}+++}}}%%}}++}}}}}}. .#[######<9###..+++++       ",
"     ++++++++++++.#####[##################..}}}}}}}}}+++}}%%}}++}}}}}}. .:8{#####4{#D..++++++       ",
"     ++++++++++++..####[###################...........++......++....... .:E####{[3#h..+++++++       ",
"     +++++++++++++...##3[##################.GHHHHHHHHH++HHHHHH++HHHHHH...#####<3[##..+++++++        ",
"     +++++++++++++++..#####################.IHHHHHHHHHHHHHHHHHHHHHHHHHHH..####9<##..++++++++        ",
"     ++++++++++++++++...###################.JHHHHHHHHHHHHHHHHHHHHHHHHHHHH..######..+++++++++        ",
"     ++++++++++++++++++.###################.HHHHHHHHHHHHHHHHHHHHHHHHHHHHHH...###|.+++++++++         ",
"     +++++++++++++++++..###################.H..HHHHHHHHHHHHHHHHHHHHHHHHHHHHK..##..+++++++++         ",
"      ++++++++++++++++.################.###.H..HHHHHHHHHHHHHHHHHHHHHHHHHHHHHH....++++++++++         ",
"        ++++++++++++++.#################.##.H..HHHHHHHHHH.HHHHHHHHHHHHHHHHHHHH..+++++++++++         ",
"         ++++++++++++..##############L###.#.H..HHHHHHHHHH.HHHHHHHHHHHHHHHHHHHH..+++++++++++         ",
"         ++++++++++++..###########.###.###.....HHHHHHHHHH.HHHHHHHHHHHHHHHHHHHH..+++++++++++         ",
"          +++++++++++...######L####.###L##.H..HHHHHHHHHHK.HHHHHHHHHHHHHHHHHHHHH..++++++++++         ",
"          +++++++++++.....#####M####.###...H..HHHHHHHHHHH.KHHHHHHHHHHHHHHHHHHHH..+++++++++          ",
"          +++++++++++..Nv..#####O####....HH...HHHHHHHHHH...HHHHHHHHHHHHHHHHHHHHH..++++++++          ",
"          ++++++++++..vvvv..#####.##..PKHH.....HHHHHHHHH....HHHHHHHHHHHHHHHHHHHH...+++++++          ",
"          +++++++++..vvvvvv...##.....HHHH...+...HHHHHHH..++..HHHHHHHHHHHHHHHHHHHH..+++++++          ",
"           ++++++++.vvvvvv..H.....HHHHHHH..+++..HHHHHH...++..HHHHHHHHHHHHHHHHHHHHH..+++++           ",
"           ++++++++..vvvv..HHHPHHHHHHHHH..+++++........++++...HHHHHHHHHHHHHHHHHHHH..+++++           ",
"           +++++++++..Qvv.HHHHHHHHHHHHH..+++++++......+++++++...HHHHHHHHHHHHHHHHHH..+++++           ",
"            ++++++++.....HHHHHHHHHHHHHH..++++++++++++++++++++....HHHHHHHHHHHHHHHHH..++++            ",
"             +++++++..HHHHHHHHHHHHHHHK..+++++++++++++++++++++++....HHHHHHHHHHHHHHH..++++            ",
"              ++++++..HHHHHHHHHHHHHHH...+++++++++++++++++++++++++...HHHHHHHHHHHHHHH.++++            ",
"              ++++++..HHHHHHHHHHHHHHH...++++++++++++++++++++++++++...HHHHHHHHHHHHHH.++++            ",
"               ++++++.HHHHHHHHHHHHHHK...++++++++++++++++++++++++++++.HHHHHHHHHHHHHH.++++            ",
"                +++++.HHHHHHHHHHHHHHHH..++++++++++++++++++++++++++++.HHHHHHHHHHHHH..++++            ",
"                +++++..HHHHHHHHHHHHHHH..++++++++++++++++++++++++++++.HHHHHHHHHHHH...++++            ",
"                 +++++..HHHHHHHHHHHHHHH..++++++++++++++++++++++++++..HHHHHHHHHHHH..+++++            ",
"                 ++++++.HHHHHHHHHHHHHHHH..+++++++++++++++++++++++++.HHHHHHHHHHH....++++++           ",
"                  +++++....HHHHHHHHHHHHHH..+++++++++++++++++++++++..HHHHHHHHHH...+++++++            ",
"                  ++++++++...KHHHHHHHHHHHH.+++++++++++++++++++++++..HHHHHHHH....++++++++            ",
"                   +++++++++..HHHHHKHHHHHH.++++++++++++++++++++++..HHHHHHHH...+++++++++             ",
"                    +++++++++....HHHHHHHHH.+++++++++++++++++++++...HHHHHHH...++++++++++             ",
"                     +++++++++++.............++++++++++++++++++..HHHHHHHHH.++++++++++++             ",
"                     +++++++++...RRRRRRRRRRR..+++++++++++++++++...............++++++++              ",
"                     ++++++++..RRRRRRRRRRRRRR.++++++++++++++++..RRRRRRRRRRRRR...++++++              ",
"                      ++++++..RRRRRRRRRRRRRRR.++++++++++++++++.RRRRRRRRRRRRRRRR...++++              ",
"                      +++++..RRRRRRRRRRRRRRRR.++++++++++++++++.RRRRRRRRRRRRRRRRRR.+++               ",
"                      ++++..RRRRRRRRRRRRRRRRR.++++++++++++++++.RRRRRRRRRRRRRRRRRR.+++               "};
