/* XPM */
static char * student_dead_xpm[] = {
"75 75 142 2",
"  	c #FF00FF",
". 	c #000000",
"+ 	c #FFFFFF",
"@ 	c #010001",
"# 	c #DBAAAA",
"$ 	c #0A000A",
"% 	c #020002",
"& 	c #B32323",
"* 	c #4D75E0",
"= 	c #B32222",
"- 	c #B22323",
"; 	c #070007",
"> 	c #100010",
", 	c #230023",
"' 	c #0E000E",
") 	c #260026",
"! 	c #190019",
"~ 	c #140014",
"{ 	c #762929",
"] 	c #010101",
"^ 	c #927070",
"/ 	c #1D001D",
"( 	c #FFCFCF",
"_ 	c #260202",
": 	c #FF3535",
"< 	c #DD2D2D",
"[ 	c #D62B2B",
"} 	c #AA2020",
"| 	c #8C2A2A",
"1 	c #9E2C2C",
"2 	c #7A1414",
"3 	c #CA2828",
"4 	c #060303",
"5 	c #E59797",
"6 	c #160101",
"7 	c #FD3434",
"8 	c #FD4F8B",
"9 	c #BC2424",
"0 	c #580B0B",
"a 	c #771313",
"b 	c #CD2929",
"c 	c #C42626",
"d 	c #CF2A2A",
"e 	c #E39C9C",
"f 	c #8F1919",
"g 	c #7171D7",
"h 	c #580C0C",
"i 	c #D66787",
"j 	c #F66767",
"k 	c #160016",
"l 	c #370037",
"m 	c #CB2828",
"n 	c #FFB8B8",
"o 	c #FF6B6B",
"p 	c #FF9B9B",
"q 	c #F23232",
"r 	c #EA3030",
"s 	c #F77EF7",
"t 	c #FE497C",
"u 	c #FE3535",
"v 	c #E82F2F",
"w 	c #F95C5C",
"x 	c #F13232",
"y 	c #AA2022",
"z 	c #FA3434",
"A 	c #DA518D",
"B 	c #D22A2A",
"C 	c #F43232",
"D 	c #FF3939",
"E 	c #FE3D3D",
"F 	c #EC8585",
"G 	c #EA8A8A",
"H 	c #EE8181",
"I 	c #FC3434",
"J 	c #FB3434",
"K 	c #F93434",
"L 	c #E12D2D",
"M 	c #7C2A2A",
"N 	c #7B2A2A",
"O 	c #F77CF2",
"P 	c #F973DF",
"Q 	c #CF2929",
"R 	c #BC2525",
"S 	c #FF3843",
"T 	c #FE4879",
"U 	c #E93030",
"V 	c #E02D2D",
"W 	c #B52222",
"X 	c #F86161",
"Y 	c #F07C7C",
"Z 	c #F56A6A",
"` 	c #E32E2E",
" .	c #E12E2E",
"..	c #C52E2E",
"+.	c #7D2929",
"@.	c #F77DF5",
"#.	c #FA6ACB",
"$.	c #FB62B9",
"%.	c #E42E2E",
"&.	c #DA2C2C",
"*.	c #050000",
"=.	c #FE4162",
"-.	c #891818",
";.	c #D43030",
">.	c #7C2929",
",.	c #BC2E2E",
"'.	c #F876E5",
").	c #FB5FB1",
"!.	c #7A2929",
"~.	c #F971DB",
"{.	c #080008",
"].	c #030003",
"^.	c #F878EA",
"/.	c #FC5CA9",
"(.	c #C42C2C",
"_.	c #782929",
":.	c #EE3131",
"<.	c #FD508C",
"[.	c #F974E1",
"}.	c #FA68C7",
"|.	c #CA2F2F",
"1.	c #F53333",
"2.	c #EF3131",
"3.	c #FA6ACA",
"4.	c #F96ACA",
"5.	c #FD4B7F",
"6.	c #F962B8",
"7.	c #7E2929",
"8.	c #F874E1",
"9.	c #2A0303",
"0.	c #FA6ED4",
"a.	c #F877E8",
"b.	c #D02929",
"c.	c #F94A7E",
"d.	c #0C030C",
"e.	c #030103",
"f.	c #050005",
"g.	c #020000",
"h.	c #150015",
"i.	c #060006",
"j.	c #0D000D",
"k.	c #220022",
"                                                                                                                                                      ",
"                                                                                                                                                      ",
"                                                                                                                                                      ",
"                                                                                                                                                      ",
"                                                                                                                                                      ",
"                                                                                                                                                      ",
"                                                                                                                                                      ",
"                                                                                                                                                      ",
"                                                                                                                                                      ",
"                                                                                                                                                      ",
"                                                                                                                                                      ",
"                                                                                                                                                      ",
"                                                                                                                                                      ",
"                                                                                                                                                      ",
"                                                                                                                                                      ",
"                                                                                                                                                      ",
"                                                                                                                                                      ",
"                                                                                                                                                      ",
"                                                                                                                                                      ",
"                                                                                                                                                      ",
"                                                                                                                                                      ",
"                                                                                                                                                      ",
"                                                                                                                                                      ",
"                                                                                                                                                      ",
"                                                                                                                                                      ",
"                                                                                                                                                      ",
"                                                                                                                                                      ",
"                                                                                                                                                      ",
"                                                                                                                                                      ",
"                                                                                                                                                      ",
"                                                                                                                                                      ",
"                                                                                                                                                      ",
"                                                                                                                                                      ",
"                                                                                                                                                      ",
"                                                                                                                                                      ",
"                                                                                                                                                      ",
"                                                                                                                                                      ",
"                                                                                                                                                      ",
"                                                                                                                                                      ",
"                                                                                                                                                      ",
"                                                                                                                                                      ",
"                                                                                                                                                      ",
"                                                                                                                                                      ",
"                                                                                                                                                      ",
"                                                                                                                                                      ",
"                                                                                                                                                      ",
"                                                                                                                                                      ",
"                                                                                                                                                      ",
"                                                                                                                                                      ",
"                                                                                                                                                      ",
"                                                                                                                                                      ",
"                                                                                                                                                      ",
"                                                                                                                                . . . .               ",
"                                                                                                                              . . + + .               ",
"                                                                                                                            . . + + + . .             ",
"                                                                                                                          . . + + + + + .             ",
"                                                  . . . . . . . . . .                                                   . . + + + + + + . .           ",
"                                                  @ # # # # # # # # . .                                                 . + + + + + + + + .           ",
"                                                  . . . . . . . . . # . .                                             . . + + + $ % + + + .           ",
"                                                . . + . + . + . + . . # . . . . . . . .                       . . . . . + + + .     . + + . .         ",
"                                                . & . & . & . & . & . # # . * * * * * . . . . .           . . . * * * . + + + .     . + + + .         ",
"                                              . . & & & & & & & & & . . # . * * * * * * * * * * . . . . . * * * * * * . + + + .     . + + + .     . . ",
"                                              . & & & & & = - & & & & . # . * * * * * * * * * * * * * * * * * * * * * . + + + . . . . + + + . . . . . ",
"                                              . & & & & ; > . & & & & . # . , ' ) ! ~ . . * * * * * * * * * * * * * * . + + . + + + . + + + . . + . { ",
"                    . . . . . . . .           . & & & . { { { @ & & & . # . * * * ] ^ # . . . / . . * * * * * * * * * . + + . + + + . . + + + . + . { ",
"                . . ( ( ( _ : : : . . . . . . . . < [ } | [ 1 2 & 3 3 . # . * * * 4 # # # 5 5 # # . . . * * * * * * * . + + . + + + + . + + + . . . { ",
"              . . 6 ( . ( . 7 : : : : 8 8 : : : . 9 0 0 a b : : @ c d 2 e f * * g h i j : 5 5 # # # # . . . . . . * * . + + . . . . . . . + + + .   . ",
"        / k l : m . n o p : : q r } : s 8 : t t : : : : : u 7 : : : 0 v w x y z A B C D E : : F G H # # # # # # . . * . + . . .         . . + + .     ",
"        . : : : : : : I J K : L M N v 9 : : O P : : : Q 9 : R : S T : . @ . : U V W 2 2 2 . 0 a } 9 : X : Y Z # # # . . . . # .         . . . . . . . ",
"      . : : : : : : : `  .u : : ..{ +.L 9 O @.8 : : J v { { 9 v T #.$.: : : : : : : : : : : : : : . . %.&.Y Z w e # # # . # # .       . { { { { { { . ",
"    *.: : : : : : : : : : : =.-.: ;.>.,.Q '.).: $.$.x : !.{ { : : : ~.$.: : : : : : : : : : : : : : : : : . {.. . / ~ # # # . .       . { { { { { { . ",
"    ].: : : : : : : : : : ^./.C v (._.:.Q 8 <.: : [.}.v m { { |.9 1.s : : : : : : : : : : : : : : : : : : : .         . . . .           . . . . . .   ",
"    $ : : : : : : : : : $.}.: : 2.v C m 3.4.: : : 5.~.6.L : 7.: 9 8.: : : : : : : : : : : : : : : : : : : . .                                         ",
"      . . {.{.. . . . . . . . 9.. . . : 0.a.: : : [.: : u K : b.L c.: . . . . . . . . . . : : : : : : . . .                                           ",
"                                    . . . d.e.. . . . . . . . f.g.. h.' i.              k j.{.k.. . . .                                               "};
