/* XPM */
static char * student_db_xpm[] = {
"50 75 32 1",
" 	c #FF00FF",
".	c #000000",
"+	c #260026",
"@	c #8CA3E0",
"#	c #693131",
"$	c #DBAAAA",
"%	c #693030",
"&	c #020002",
"*	c #040004",
"=	c #090009",
"-	c #D4A0A8",
";	c #010001",
">	c #4D75E0",
",	c #DAAAAA",
"'	c #0C000C",
")	c #010101",
"!	c #4C75E0",
"~	c #4C75DF",
"{	c #100010",
"]	c #0D000D",
"^	c #FFFFFF",
"/	c #080008",
"(	c #0B000B",
"_	c #050005",
":	c #190019",
"<	c #0F000F",
"[	c #0E000E",
"}	c #130013",
"|	c #070007",
"1	c #060006",
"2	c #683030",
"3	c #2D002D",
"                                                  ",
"                                                  ",
"                                                  ",
"                                                  ",
"                                                  ",
"                                                  ",
"                 .+.                              ",
"                .@@@.                             ",
"           ...  .@@@@.                            ",
"          .@@@.  ...@.                            ",
"          .@@@@.   ..                             ",
"           ...@.                                  ",
"             ..  .............                    ",
"                ..###########..                   ",
"      ........ ..#############.. ........         ",
"      .$$$$$$. .###############. .$$$$$$.         ",
"      .$$$$$$. .###############. .$$$$$$.         ",
"      .$$$$$$. .###############. .$$$$$$.         ",
"      .$$$$$$. .###############. .$$$$$$.         ",
"      .$$$$$$. ...###########... .$$$$$$.         ",
"      .$$$$$$.   .###########.   .$$$$$$.         ",
"      .$$$$$$.   .###########.   .$$$$$$.         ",
"      .$$$$$$.   .#######%###.   .$$$$$$.         ",
"      .$$$$$$.   ....&*=......   .$$$$$$.         ",
"      .$$$$$$.     .$$$$$-$.     .$$$$$$.         ",
"      .$$$$$$. ................; .$$$$$$.         ",
"      .$$$$$$...>>>>>>>>>>>>>>>...$$$$$$.         ",
"      .$$$$,$..>>>>>>>>>>>>>>>>>'.$$$$$$.         ",
"      .$$$$$$.>>>>>>>>>>>>>>>>>>>.$$$$$$.         ",
"      .$$$$$$.>>>>>>>>>>>>>>>>>>>.$$$$$$.         ",
"      ........>>>>>>>>>>>>>>>>>>>....)...         ",
"      ;>>>!~>.>>>>>>>>>>>>>>>>>>>.~~~~~~.         ",
"      &>>>>>>.>>>>>>>>>>>>>>>>>>>.>>>>>>.         ",
"      =..>>;..>>>>>>>>>>>>>>>>>>>.&'>>{.&         ",
"        *&&. .>>>>>>>>>>>>>>>>>>>. &.].           ",
"             .>>>>>>>>>>>>>>>>>>>.                ",
"             .>>>>>>>>>>>>>>>>>>>.                ",
"             .>>>>>>>>>>>>>>>>>>>.                ",
"             .>>>>>>>>>>>>>>>>>>>.                ",
"             .>>>>>>>>>>>>>>>>>>>.                ",
"             .>>>>>>>>>>>>>>>>>>>.                ",
"             .>>>>>>>>>>>>>>>>>>>.                ",
"             .>>>>>>>>>>>>>>>>>>>.                ",
"             .>>>>>>>>>>>>>>>>>>>.                ",
"             .>>>>>>>>>>>>>>>>>>>.                ",
"             .>>>>>>>>>>>>>>>>>>>.                ",
"             .>>>>>>>>>>>>>>>>>>>.                ",
"             .>>>>>>>>>>>>>>>>>>>.                ",
"             .>>>>>>>>>>>>>>>>>>>.                ",
"             .>>>>>>>>>>>>>>>>>>>.                ",
"             .....................                ",
"             .^^^^^^^^^^^^^^^^^^^.                ",
"             .^^^^^^^^^^^^^^^^^^^.                ",
"             .^^^^^^^^^^^^^^^^^^^.                ",
"             .^^^^^^^^^^^^^^^^^^^.                ",
"             .^^^^^^^^/.(^^^^^^^^.                ",
"             .^^^^^^^.. _:^^^^^^^.                ",
"             .^^^^^^._   <_^^^^^^.                ",
"             .^^^^^^[     ;^^^^^^.                ",
"             .^^^^^^.     *^^^^^^.                ",
"             .^^^^^^.     &^^^^^^.                ",
"             .^^^^^^.     }^^^^^^.                ",
"             .^^^^^^|     =^^^^^^.                ",
"             .^^^^^^1     .^^^^^^.                ",
"             .^^^^^^.     .^^^^^^.                ",
"             .^^^^^^.     .^^^^^^.                ",
"             .^^^^^^_     .^^^^^^.                ",
"             .^^^^^^*     .^^^^^^.                ",
"             .^^^^^^.     .^^^^^^.                ",
"             .^^^^^^.     .^^^^^^.                ",
"             ......^.     .^......                ",
"          .....###..       ..###......            ",
"         ..#######2.       .2########..           ",
"         .#########.       .2#########.           ",
"         3########2.       .%#########.           "};
