/* XPM */
static char * student_dead_xpm[] = {
"75 30 155 2",
"  	c #FF00FF",
". 	c #000000",
"+ 	c #FFFFFF",
"@ 	c #FB00FB",
"# 	c #010001",
"$ 	c #DBAAAA",
"% 	c #F600F6",
"& 	c #0A000A",
"* 	c #020002",
"= 	c #F200F2",
"- 	c #FE00FE",
"; 	c #B32323",
"> 	c #4D75E0",
", 	c #150015",
"' 	c #1B001B",
") 	c #330033",
"! 	c #EF00EF",
"~ 	c #FC00FC",
"{ 	c #F800F8",
"] 	c #F900F9",
"^ 	c #B32222",
"/ 	c #B22323",
"( 	c #E800E8",
"_ 	c #070007",
": 	c #100010",
"< 	c #230023",
"[ 	c #0E000E",
"} 	c #260026",
"| 	c #190019",
"1 	c #140014",
"2 	c #762929",
"3 	c #010101",
"4 	c #927070",
"5 	c #1D001D",
"6 	c #FFCFCF",
"7 	c #260202",
"8 	c #FF3535",
"9 	c #DD2D2D",
"0 	c #D62B2B",
"a 	c #AA2020",
"b 	c #8C2A2A",
"c 	c #9E2C2C",
"d 	c #7A1414",
"e 	c #CA2828",
"f 	c #060303",
"g 	c #E59797",
"h 	c #160101",
"i 	c #FD3434",
"j 	c #FD4F8B",
"k 	c #BC2424",
"l 	c #580B0B",
"m 	c #771313",
"n 	c #CD2929",
"o 	c #C42626",
"p 	c #CF2A2A",
"q 	c #E39C9C",
"r 	c #8F1919",
"s 	c #7171D7",
"t 	c #580C0C",
"u 	c #D66787",
"v 	c #F66767",
"w 	c #160016",
"x 	c #370037",
"y 	c #CB2828",
"z 	c #FFB8B8",
"A 	c #FF6B6B",
"B 	c #FF9B9B",
"C 	c #F23232",
"D 	c #EA3030",
"E 	c #F77EF7",
"F 	c #FE497C",
"G 	c #FE3535",
"H 	c #E82F2F",
"I 	c #F95C5C",
"J 	c #F13232",
"K 	c #AA2022",
"L 	c #FA3434",
"M 	c #DA518D",
"N 	c #D22A2A",
"O 	c #F43232",
"P 	c #FF3939",
"Q 	c #FE3D3D",
"R 	c #EC8585",
"S 	c #EA8A8A",
"T 	c #EE8181",
"U 	c #FD00FD",
"V 	c #FC3434",
"W 	c #FB3434",
"X 	c #F93434",
"Y 	c #E12D2D",
"Z 	c #7C2A2A",
"` 	c #7B2A2A",
" .	c #F77CF2",
"..	c #F973DF",
"+.	c #CF2929",
"@.	c #BC2525",
"#.	c #FF3843",
"$.	c #FE4879",
"%.	c #E93030",
"&.	c #E02D2D",
"*.	c #B52222",
"=.	c #F86161",
"-.	c #F07C7C",
";.	c #F56A6A",
">.	c #E32E2E",
",.	c #E12E2E",
"'.	c #C52E2E",
").	c #7D2929",
"!.	c #F77DF5",
"~.	c #FA6ACB",
"{.	c #FB62B9",
"].	c #E42E2E",
"^.	c #DA2C2C",
"/.	c #050000",
"(.	c #FE4162",
"_.	c #891818",
":.	c #D43030",
"<.	c #7C2929",
"[.	c #BC2E2E",
"}.	c #F876E5",
"|.	c #FB5FB1",
"1.	c #7A2929",
"2.	c #F971DB",
"3.	c #080008",
"4.	c #030003",
"5.	c #F878EA",
"6.	c #FC5CA9",
"7.	c #C42C2C",
"8.	c #782929",
"9.	c #EE3131",
"0.	c #FD508C",
"a.	c #F974E1",
"b.	c #FA68C7",
"c.	c #CA2F2F",
"d.	c #F53333",
"e.	c #EF3131",
"f.	c #FA6ACA",
"g.	c #F96ACA",
"h.	c #FD4B7F",
"i.	c #F962B8",
"j.	c #7E2929",
"k.	c #F874E1",
"l.	c #2A0303",
"m.	c #FA6ED4",
"n.	c #F877E8",
"o.	c #D02929",
"p.	c #F94A7E",
"q.	c #F100F1",
"r.	c #0C030C",
"s.	c #030103",
"t.	c #050005",
"u.	c #020000",
"v.	c #060006",
"w.	c #0D000D",
"x.	c #220022",
"                                                                                                                                                      ",
"                                                                                                                                                      ",
"                                                                                                                                                      ",
"                                                                                                                                                      ",
"                                                                                                                                                      ",
"                                                                                                                                                      ",
"                                                                                                                                                      ",
"                                                                                                                                . . . .               ",
"                                                                                                                              . . + + .               ",
"                                                                                                                            . . + + + . .             ",
"                                                                                                                          . . + + + + + .             ",
"                                                  . . . . . . . . . .                                                   . . + + + + + + . .           ",
"                                                @ # $ $ $ $ $ $ $ $ . .                                                 . + + + + + + + + .           ",
"                                                % . . . . . . . . . $ . .                                             . . + + + & * + + + . =         ",
"                                                . . + . + . + . + . . $ . . . . . . . .                       . . . . . + + + . - - . + + . .         ",
"                                                . ; . ; . ; . ; . ; . $ $ . > > > > > . . . . .           , ' ) > > > . + + + . ! ! . + + + .         ",
"                                              . . ; ; ; ; ; ; ; ; ; . . $ . > > > > > > > > > > . . . . . > > > > > > . + + + . ~ { . + + + . ]   . . ",
"                                              . ; ; ; ; ; ^ / ; ; ; ; . $ . > > > > > > > > > > > > > > > > > > > > > . + + + . . . . + + + . . . . . ",
"                    (                         . ; ; ; ; _ : . ; ; ; ; . $ . < [ } | 1 . . > > > > > > > > > > > > > > . + + . + + + . + + + . . + . 2 ",
"                    . . . . . . . .     ]     . ; ; ; . 2 2 2 # ; ; ; . $ . > > > 3 4 $ . . . 5 . . > > > > > > > > > . + + . + + + . . + + + . + . 2 ",
"                . . 6 6 6 7 8 8 8 . . . . . . . . 9 0 a b 0 c d ; e e . $ . > > > f $ $ $ g g $ $ . . . > > > > > > > . + + . + + + + . + + + . . . 2 ",
"              . . h 6 . 6 . i 8 8 8 8 j j 8 8 8 . k l l m n 8 8 # o p d q r > > s t u v 8 g g $ $ $ $ . . . . . . > > . + + . . . . . . . + + + .   . ",
"        5 w x 8 y . z A B 8 8 C D a 8 E j 8 F F 8 8 8 8 8 G i 8 8 8 l H I J K L M N O P Q 8 8 R S T $ $ $ $ $ $ . . > . + . . .         . . + + . U   ",
"        . 8 8 8 8 8 8 V W X 8 Y Z ` H k 8 8  ...8 8 8 +.k 8 @.8 #.$.8 . # . 8 %.&.*.d d d . l m a k 8 =.8 -.;.$ $ $ . . . . $ .         . . . . . . . ",
"      . 8 8 8 8 8 8 8 >.,.G 8 8 '.2 ).Y k  .!.j 8 8 W H 2 2 k H $.~.{.8 8 8 8 8 8 8 8 8 8 8 8 8 8 . . ].^.-.;.I q $ $ $ . $ $ .       . 2 2 2 2 2 2 . ",
"    /.8 8 8 8 8 8 8 8 8 8 8 (._.8 :.<.[.+.}.|.8 {.{.J 8 1.2 2 8 8 8 2.{.8 8 8 8 8 8 8 8 8 8 8 8 8 8 8 8 8 . 3.. . 5 1 $ $ $ . .       . 2 2 2 2 2 2 . ",
"    4.8 8 8 8 8 8 8 8 8 8 5.6.O H 7.8.9.+.j 0.8 8 a.b.H y 2 2 c.k d.E 8 8 8 8 8 8 8 8 8 8 8 8 8 8 8 8 8 8 8 .         . . . .           . . . . . .   ",
"    & 8 8 8 8 8 8 8 8 8 {.b.8 8 e.H O y f.g.8 8 8 h.2.i.Y 8 j.8 k k.8 8 8 8 8 8 8 8 8 8 8 8 8 8 8 8 8 8 8 . .                                         ",
"      . . 3.3.. . . . . . . . l.. . . 8 m.n.8 8 8 a.8 8 G X 8 o.Y p.8 . . . . . . . . . . 8 8 8 8 8 8 . . .                                           ",
"                              @ - q.. . . r.s.. . . . . . . . t.u.. , [ v.    ( ( ( ( ( w w.3.x.. . . . (                                             "};
