/* XPM */
static char * student_ub_xpm[] = {
"50 75 28 1",
" 	c #FF00FF",
".	c #000000",
"+	c #DAA9A9",
"@	c #DBAAAA",
"#	c #693131",
"$	c #DAAAAA",
"%	c #D9A9A9",
"&	c #693030",
"*	c #020002",
"=	c #010001",
"-	c #F800F8",
";	c #D4A0A8",
">	c #4D75E0",
",	c #070007",
"'	c #4C75DF",
")	c #FFFFFF",
"!	c #080008",
"~	c #0B000B",
"{	c #050005",
"]	c #190019",
"^	c #0F000F",
"/	c #0E000E",
"(	c #040004",
"_	c #130013",
":	c #090009",
"<	c #060006",
"[	c #683030",
"}	c #2D002D",
"                                                  ",
"                                                  ",
"                                                  ",
"                                                  ",
"                                                  ",
"                                                  ",
"                                                  ",
"                                                  ",
"                                                  ",
"                                                  ",
"                                                  ",
"      ........                   ........         ",
"      .+@@@@@.   .............   .@@@@@@.         ",
"      .+@@@@@.  ..###########..  .@@@@@@.         ",
"      .$@@@@@. ..#############.. .@@@@@@.         ",
"      .+@@@@@. .###############. .@@@@@@.         ",
"      .@@@@@@. .###############. .@@@@@@.         ",
"      .@@@@@@. .###############. .@@@@@@.         ",
"      .%@@@@@. .###############. .@@@@@@.         ",
"      .$@@@@@. ...###########... .@@@@@@.         ",
"      .@@@@@@.   .###########.   .@@@@@@.         ",
"      .$@@@@@.   .###########.   .@@@@@@.         ",
"      .@@@@@@.   .###&###&###.   .@@@@@@.         ",
"      .@@@@@@.   ....*=*......   .@@@@@@.         ",
"      .@@@@@@.    -.@@@@@;@.     .@@@@@@.         ",
"      .@@@@@@. ................. .@@@@@@.         ",
"      .@@@@@@...>>>>>>>>>>>>>>>...@@@@@@.         ",
"      .........>>>>>>>>>>>>>>>>>,........         ",
"      .'>>>>>.>>>>>>>>>>>>>>>>>>>.>>>>>>.         ",
"      .'>>>>>.>>>>>>>>>>>>>>>>>>>.>>>>>>.         ",
"      ...>>...>>>>>>>>>>>>>>>>>>>...>>...         ",
"        .... .>>>>>>>>>>>>>>>>>>>. ....           ",
"             .>>>>>>>>>>>>>>>>>>>.                ",
"             .>>>>>>>>>>>>>>>>>>>.                ",
"             .>>>>>>>>>>>>>>>>>>>.                ",
"             .>>>>>>>>>>>>>>>>>>>.                ",
"             .>>>>>>>>>>>>>>>>>>>.                ",
"             .>>>>>>>>>>>>>>>>>>>.                ",
"             .>>>>>>>>>>>>>>>>>>>.                ",
"             .>>>>>>>>>>>>>>>>>>>.                ",
"             .>>>>>>>>>>>>>>>>>>>.                ",
"             .>>>>>>>>>>>>>>>>>>>.                ",
"             .>>>>>>>>>>>>>>>>>>>.                ",
"             .>>>>>>>>>>>>>>>>>>>.                ",
"             .>>>>>>>>>>>>>>>>>>>.                ",
"             .>>>>>>>>>>>>>>>>>>>.                ",
"             .>>>>>>>>>>>>>>>>>>>.                ",
"             .>>>>>>>>>>>>>>>>>>>.                ",
"             .>>>>>>>>>>>>>>>>>>>.                ",
"             .>>>>>>>>>>>>>>>>>>>.                ",
"             .....................                ",
"             .))))))))))))))))))).                ",
"             .))))))))))))))))))).                ",
"             .))))))))))))))))))).                ",
"             .))))))))))))))))))).                ",
"             .))))))))!.~)))))))).                ",
"             .))))))).. {]))))))).                ",
"             .)))))).{   ^{)))))).                ",
"             .))))))/     =)))))).                ",
"             .)))))).     ()))))).                ",
"             .)))))).     *)))))).                ",
"             .)))))).     _)))))).                ",
"             .)))))),     :)))))).                ",
"             .))))))<     .)))))).                ",
"             .)))))).     .)))))).                ",
"             .)))))).     .)))))).                ",
"             .)))))){     .)))))).                ",
"             .))))))(     .)))))).                ",
"             .)))))).     .)))))).                ",
"             .)))))).     .)))))).                ",
"             ......).     .)......                ",
"          .....###..       ..###......            ",
"         ..#######[.       .[########..           ",
"         .#########.       .[#########.           ",
"         }########[.       .&#########.           "};
