/* XPM */
static char * student_df_xpm[] = {
"50 75 39 1",
" 	c #FF00FF",
".	c #000000",
"+	c #260026",
"@	c #8CA3E0",
"#	c #693131",
"$	c #DBAAAA",
"%	c #150015",
"&	c #FFFFFF",
"*	c #D9A9A9",
"=	c #D7A8A8",
"-	c #200020",
";	c #ED468A",
">	c #E4005C",
",	c #ED4689",
"'	c #020002",
")	c #040004",
"!	c #090009",
"~	c #D4A0A8",
"{	c #010001",
"]	c #4D75E0",
"^	c #DAAAAA",
"/	c #0C000C",
"(	c #010101",
"_	c #4C75E0",
":	c #4C75DF",
"<	c #100010",
"[	c #0D000D",
"}	c #080008",
"|	c #0B000B",
"1	c #050005",
"2	c #190019",
"3	c #0F000F",
"4	c #0E000E",
"5	c #130013",
"6	c #070007",
"7	c #060006",
"8	c #683030",
"9	c #2D002D",
"0	c #693030",
"                                                  ",
"                                                  ",
"                                                  ",
"                                                  ",
"                                                  ",
"                                                  ",
"                 .+.                              ",
"                .@@@.                             ",
"           ...  .@@@@.                            ",
"          .@@@.  ...@.                            ",
"          .@@@@.   ..                             ",
"           ...@.                                  ",
"             ..  .............                    ",
"                ..###########..                   ",
"      ........ ..#############.. ........         ",
"      .$$$$$$. .###.........###. .$$$$$$.         ",
"      .$$$$$$. .##..$$$$$$$..##. .$$$$$$.         ",
"      .$$$$$$. .#..$$.$$$%$$..#. .$$$$$$.         ",
"      .$$$$$$. .#.$$.&.$.&.$$.#. .$$$$$$.         ",
"      .$$$$$$. ...$$$.$$$.$$$... .$$$$$$.         ",
"      .$$$$$$.   .*$$$$$$$$$*.   .$$$$$$.         ",
"      .$$$$$$.   .=$$$..%$$$*.   .$$$$$$.         ",
"      .$$$$$$.   .$$$-;>,.$$$.   .$$$$$$.         ",
"      .$$$$$$.   ...$')!..$...   .$$$$$$.         ",
"      .$$$$$$.     .$$$$$~$.     .$$$$$$.         ",
"      .$$$$$$. ................{ .$$$$$$.         ",
"      .$$$$$$...]]]]]]].]]]]]]]...$$$$$$.         ",
"      .$$$$^$..]]]]]]]].]]]]]]]]/.$$$$$$.         ",
"      .$$$$$$.]]]]]]]]].]]]]]]]]].$$$$$$.         ",
"      .$$$$$$.]]]]]]]]].]]]]]]]]].$$$$$$.         ",
"      ........]]]]]]]]].]]]]]]]]]....(...         ",
"      {]]]_:].]]]]]]]]].]]]]]]]]].::::::.         ",
"      ']]]]]].]]]]]]]]].]]]]]]]]].]]]]]].         ",
"      !..]]{..]]]]]]]]].]]]]]]]]].'/]]<.'         ",
"        )''. .]]]]]]]]].]]]]]]]]]. '.[.           ",
"             .]]]]]]]]].]]]]]]]]].                ",
"             .]]]]]]]]].]]]]]]]]].                ",
"             .]]]]]]]]].]]]]]]]]].                ",
"             .]]]]]]]]].]]]]]]]]].                ",
"             .]]]]]]]]].]]]]]]]]].                ",
"             .]]]]]]]]].]]]]]]]]].                ",
"             .]]]]]]]]].]]]]]]]]].                ",
"             .]]]]]]]]].]]]]]]]]].                ",
"             .]]]]]]]]].]]]]]]]]].                ",
"             .]]]]]]]]].]]]]]]]]].                ",
"             .]]]]]]]]].]]]]]]]]].                ",
"             .]]]]]]]]].]]]]]]]]].                ",
"             .]]]]]]]]].]]]]]]]]].                ",
"             .]]]]]]]]].]]]]]]]]].                ",
"             .]]]]]]]]].]]]]]]]]].                ",
"             .....................                ",
"             .&&&&&&&&&&&&&&&&&&&.                ",
"             .&&&&&&&&&&&&&&&&&&&.                ",
"             .&&&&&&&&&&&&&&&&&&&.                ",
"             .&&&&&&&&&&&&&&&&&&&.                ",
"             .&&&&&&&&}.|&&&&&&&&.                ",
"             .&&&&&&&.. 12&&&&&&&.                ",
"             .&&&&&&.1   31&&&&&&.                ",
"             .&&&&&&4     {&&&&&&.                ",
"             .&&&&&&.     )&&&&&&.                ",
"             .&&&&&&.     '&&&&&&.                ",
"             .&&&&&&.     5&&&&&&.                ",
"             .&&&&&&6     !&&&&&&.                ",
"             .&&&&&&7     .&&&&&&.                ",
"             .&&&&&&.     .&&&&&&.                ",
"             .&&&&&&.     .&&&&&&.                ",
"             .&&&&&&1     .&&&&&&.                ",
"             .&&&&&&)     .&&&&&&.                ",
"             .&&&&&&.     .&&&&&&.                ",
"             .&&&&&&.     .&&&&&&.                ",
"             ......&.     .&......                ",
"          .....###..       ..###......            ",
"         ..#######8.       .8########..           ",
"         .#########.       .8#########.           ",
"         9########8.       .0#########.           "};
