/* XPM */
static char * student_uf_xpm[] = {
"50 75 36 1",
" 	c #FF00FF",
".	c #000000",
"+	c #DAA9A9",
"@	c #DBAAAA",
"#	c #693131",
"$	c #DAAAAA",
"%	c #150015",
"&	c #D9A9A9",
"*	c #FFFFFF",
"=	c #D7A8A8",
"-	c #200020",
";	c #ED468A",
">	c #E4005C",
",	c #ED4689",
"'	c #020002",
")	c #040004",
"!	c #090009",
"~	c #F800F8",
"{	c #D4A0A8",
"]	c #320032",
"^	c #4D75E0",
"/	c #2F002F",
"(	c #4C75DF",
"_	c #080008",
":	c #0B000B",
"<	c #050005",
"[	c #190019",
"}	c #0F000F",
"|	c #0E000E",
"1	c #010001",
"2	c #130013",
"3	c #070007",
"4	c #060006",
"5	c #683030",
"6	c #2D002D",
"7	c #693030",
"                                                  ",
"                                                  ",
"                                                  ",
"                                                  ",
"                                                  ",
"                                                  ",
"                                                  ",
"                                                  ",
"                                                  ",
"                                                  ",
"                                                  ",
"      ........                   ........         ",
"      .+@@@@@.   .............   .@@@@@@.         ",
"      .+@@@@@.  ..###########..  .@@@@@@.         ",
"      .$@@@@@. ..#############.. .@@@@@@.         ",
"      .+@@@@@. .###.........###. .@@@@@@.         ",
"      .@@@@@@. .##..@@@@@@@..##. .@@@@@@.         ",
"      .@@@@@@. .#..@@.@@@%@@..#. .@@@@@@.         ",
"      .&@@@@@. .#.@@.*.@.*.@@.#. .@@@@@@.         ",
"      .$@@@@@. ...@@@.@@@.@@@... .@@@@@@.         ",
"      .@@@@@@.   .&@@@@@@@@@&.   .@@@@@@.         ",
"      .$@@@@@.   .=@@@..%@@@&.   .@@@@@@.         ",
"      .@@@@@@.   .@@@-;>,.@@@.   .@@@@@@.         ",
"      .@@@@@@.   ...@')!..@...   .@@@@@@.         ",
"      .@@@@@@.    ~.@@@@@{@.     .@@@@@@.         ",
"      .@@@@@@. ................] .@@@@@@.         ",
"      .@@@@@@...^^^^^^^.^^^^^^^...@@@@@@.         ",
"      .........^^^^^^^^.^^^^^^^^/........         ",
"      .(^^^^^.^^^^^^^^^.^^^^^^^^^.^^^^^^.         ",
"      .(^^^^^.^^^^^^^^^.^^^^^^^^^.^^^^^^.         ",
"      ...^^...^^^^^^^^^.^^^^^^^^^...^^...         ",
"        .... .^^^^^^^^^.^^^^^^^^^. ....           ",
"             .^^^^^^^^^.^^^^^^^^^.                ",
"             .^^^^^^^^^.^^^^^^^^^.                ",
"             .^^^^^^^^^.^^^^^^^^^.                ",
"             .^^^^^^^^^.^^^^^^^^^.                ",
"             .^^^^^^^^^.^^^^^^^^^.                ",
"             .^^^^^^^^^.^^^^^^^^^.                ",
"             .^^^^^^^^^.^^^^^^^^^.                ",
"             .^^^^^^^^^.^^^^^^^^^.                ",
"             .^^^^^^^^^.^^^^^^^^^.                ",
"             .^^^^^^^^^.^^^^^^^^^.                ",
"             .^^^^^^^^^.^^^^^^^^^.                ",
"             .^^^^^^^^^.^^^^^^^^^.                ",
"             .^^^^^^^^^.^^^^^^^^^.                ",
"             .^^^^^^^^^.^^^^^^^^^.                ",
"             .^^^^^^^^^.^^^^^^^^^.                ",
"             .^^^^^^^^^.^^^^^^^^^.                ",
"             .^^^^^^^^^.^^^^^^^^^.                ",
"             .^^^^^^^^^.^^^^^^^^^.                ",
"             .....................                ",
"             .*******************.                ",
"             .*******************.                ",
"             .*******************.                ",
"             .*******************.                ",
"             .********_.:********.                ",
"             .*******.. <[*******.                ",
"             .******.<   }<******.                ",
"             .******|     1******.                ",
"             .******.     )******.                ",
"             .******.     '******.                ",
"             .******.     2******.                ",
"             .******3     !******.                ",
"             .******4     .******.                ",
"             .******.     .******.                ",
"             .******.     .******.                ",
"             .******<     .******.                ",
"             .******)     .******.                ",
"             .******.     .******.                ",
"             .******.     .******.                ",
"             ......*.     .*......                ",
"          .....###..       ..###......            ",
"         ..#######5.       .5########..           ",
"         .#########.       .5#########.           ",
"         6########5.       .7#########.           "};
